<?xml version="1.0" encoding="iso-8859-1"?>
<!-- Generator: Adobe Illustrator 16.0.0, SVG Export Plug-In . SVG Version: 6.00 Build 0)  -->
<!DOCTYPE svg PUBLIC "-//W3C//DTD SVG 1.1//EN" "http://www.w3.org/Graphics/SVG/1.1/DTD/svg11.dtd">
<svg version="1.1" id="Capa_1" xmlns="http://www.w3.org/2000/svg" xmlns:xlink="http://www.w3.org/1999/xlink" x="0px" y="0px"
	 width="32px" height="32px" viewBox="0 0 32 32" style="enable-background:new 0 0 32 32;" xml:space="preserve">
<g>
	<g id="Megaphone">
		<g>
			<path d="M21,6c-0.216,0-0.561,0.002-0.939,0.248L1.699,12.047c-0.153,0.048-0.293,0.133-0.406,0.246C1.16,12.425,0,13.653,0,16
				c0,2.349,1.16,3.574,1.293,3.707c0.113,0.113,0.253,0.197,0.406,0.246l3.302,1.043C5.001,20.998,5,20.998,5,21v4
				c0,1.654,1.346,3,3,3h5c1.654,0,3-1.346,3-3v-0.528l4.061,1.279C20.438,25.997,20.779,26,20.997,26h0.006
				C21.748,26,24,25.986,24,16C24,6,21.742,6,21,6z M14,24v1c0,0.551-0.448,1-1,1H8c-0.552,0-1-0.449-1-1v-3.372l7.03,2.221
				C14.022,23.898,14,23.945,14,24z M18.657,23.212L2.589,18.138C2.381,17.836,2,17.13,2,16c0-1.135,0.385-1.843,0.587-2.137
				l16.07-5.075C18.271,10.269,18,12.532,18,16C18,19.469,18.271,21.732,18.657,23.212z M21,23.82c-0.384-0.676-1-2.814-1-7.82
				s0.616-7.145,1-7.82c0.384,0.676,1,2.814,1,7.82S21.384,23.146,21,23.82z M26.193,24.431C27.375,21.937,28,19.021,28,16
				c0-3.021-0.625-5.936-1.807-8.428c-0.236-0.5-0.832-0.713-1.332-0.478c-0.5,0.237-0.713,0.833-0.475,1.332
				C25.441,10.656,26,13.273,26,16c0,2.728-0.559,5.344-1.613,7.572c-0.236,0.498-0.023,1.095,0.475,1.33
				C25,24.969,25.146,25,25.289,25C25.664,25,26.021,24.789,26.193,24.431z M27.037,3.251c-0.413-0.366-1.045-0.327-1.411,0.087
				s-0.327,1.046,0.087,1.411C28.357,7.087,30,11.398,30,16c0,4.603-1.643,8.912-4.287,11.251c-0.414,0.366-0.453,0.997-0.087,1.411
				C25.823,28.886,26.1,29,26.375,29c0.234,0,0.473-0.082,0.662-0.251C30.145,26.002,32,21.236,32,16
				C32,10.765,30.145,5.998,27.037,3.251z"/>
		</g>
	</g>
</g>
<g>
</g>
<g>
</g>
<g>
</g>
<g>
</g>
<g>
</g>
<g>
</g>
<g>
</g>
<g>
</g>
<g>
</g>
<g>
</g>
<g>
</g>
<g>
</g>
<g>
</g>
<g>
</g>
<g>
</g>
</svg>
