<?xml version="1.0" encoding="iso-8859-1"?>
<!-- Generator: Adobe Illustrator 16.0.0, SVG Export Plug-In . SVG Version: 6.00 Build 0)  -->
<!DOCTYPE svg PUBLIC "-//W3C//DTD SVG 1.1//EN" "http://www.w3.org/Graphics/SVG/1.1/DTD/svg11.dtd">
<svg version="1.1" id="Capa_1" xmlns="http://www.w3.org/2000/svg" xmlns:xlink="http://www.w3.org/1999/xlink" x="0px" y="0px"
	 width="32px" height="32px" viewBox="0 0 32 32" style="enable-background:new 0 0 32 32;" xml:space="preserve">
<g>
	<g id="Sun">
		<g>
			<path d="M31,15h-6.059c-0.193-1.733-0.881-3.316-1.916-4.611l2.682-2.682c0.391-0.391,0.391-1.023,0-1.414s-1.023-0.391-1.414,0
				l-2.682,2.682C20.316,7.938,18.732,7.252,17,7.059V1c0-0.553-0.447-1-1-1s-1,0.447-1,1v6.059
				c-1.732,0.193-3.316,0.88-4.611,1.916L7.707,6.293c-0.391-0.391-1.023-0.391-1.414,0s-0.391,1.023,0,1.414l2.682,2.682
				C7.939,11.684,7.252,13.268,7.059,15H1c-0.553,0-1,0.447-1,1s0.447,1,1,1h6.059c0.193,1.732,0.881,3.316,1.916,4.609
				l-2.682,2.684c-0.391,0.391-0.391,1.023,0,1.414C6.488,25.902,6.744,26,7,26s0.512-0.098,0.707-0.293l2.682-2.684
				c1.295,1.037,2.879,1.725,4.611,1.918V31c0,0.553,0.447,1,1,1s1-0.447,1-1v-6.059c1.732-0.193,3.316-0.881,4.611-1.916
				l2.682,2.682C24.488,25.902,24.744,26,25,26s0.512-0.098,0.707-0.293c0.391-0.391,0.391-1.023,0-1.414l-2.682-2.682
				c1.035-1.295,1.723-2.879,1.916-4.611H31c0.553,0,1-0.447,1-1S31.553,15,31,15z M16,23c-3.859,0-7-3.141-7-7c0-3.859,3.141-7,7-7
				c3.859,0,7,3.141,7,7C23,19.859,19.859,23,16,23z"/>
		</g>
	</g>
</g>
<g>
</g>
<g>
</g>
<g>
</g>
<g>
</g>
<g>
</g>
<g>
</g>
<g>
</g>
<g>
</g>
<g>
</g>
<g>
</g>
<g>
</g>
<g>
</g>
<g>
</g>
<g>
</g>
<g>
</g>
</svg>
