<?xml version="1.0" encoding="iso-8859-1"?>
<!-- Generator: Adobe Illustrator 16.0.0, SVG Export Plug-In . SVG Version: 6.00 Build 0)  -->
<!DOCTYPE svg PUBLIC "-//W3C//DTD SVG 1.1//EN" "http://www.w3.org/Graphics/SVG/1.1/DTD/svg11.dtd">
<svg version="1.1" id="Capa_1" xmlns="http://www.w3.org/2000/svg" xmlns:xlink="http://www.w3.org/1999/xlink" x="0px" y="0px"
	 width="32px" height="32px" viewBox="0 0 32 32" style="enable-background:new 0 0 32 32;" xml:space="preserve">
<g>
	<g id="Calendar">
		<g>
			<path d="M29,2c-0.553,0-1,0.447-1,1s0.447,1,1,1c0.552,0,1,0.448,1,1v5H2V5c0-0.552,0.448-1,1-1c0.553,0,1-0.447,1-1S3.553,2,3,2
				C1.346,2,0,3.346,0,5v24c0,1.654,1.346,3,3,3h26c1.654,0,3-1.346,3-3V5C32,3.346,30.654,2,29,2z M30,29c0,0.552-0.448,1-1,1H3
				c-0.552,0-1-0.448-1-1V12h28V29z M6,6c0.553,0,1-0.447,1-1V1c0-0.553-0.447-1-1-1S5,0.447,5,1v4C5,5.553,5.447,6,6,6z M10,6
				c0.553,0,1-0.447,1-1V1c0-0.553-0.447-1-1-1S9,0.447,9,1v4C9,5.553,9.447,6,10,6z M14,6c0.553,0,1-0.447,1-1V1
				c0-0.553-0.447-1-1-1s-1,0.447-1,1v4C13,5.553,13.447,6,14,6z M18,6c0.553,0,1-0.447,1-1V1c0-0.553-0.447-1-1-1s-1,0.447-1,1v4
				C17,5.553,17.447,6,18,6z M22,6c0.553,0,1-0.447,1-1V1c0-0.553-0.447-1-1-1s-1,0.447-1,1v4C21,5.553,21.447,6,22,6z M26,6
				c0.553,0,1-0.447,1-1V1c0-0.553-0.447-1-1-1s-1,0.447-1,1v4C25,5.553,25.447,6,26,6z M21.5,25c-0.827,0-1.5-0.673-1.5-1.5
				c0-0.553-0.447-1-1-1s-1,0.447-1,1c0,1.93,1.57,3.5,3.5,3.5s3.5-1.57,3.5-3.5c0-0.979-0.402-1.864-1.053-2.5
				C24.598,20.364,25,19.479,25,18.5c0-1.93-1.57-3.5-3.5-3.5S18,16.57,18,18.5c0,0.553,0.447,1,1,1s1-0.447,1-1
				c0-0.827,0.673-1.5,1.5-1.5s1.5,0.673,1.5,1.5S22.327,20,21.5,20c-0.553,0-1,0.447-1,1s0.447,1,1,1c0.827,0,1.5,0.673,1.5,1.5
				S22.327,25,21.5,25z M7,26c0,0.553,0.447,1,1,1h5c0.553,0,1-0.447,1-1s-0.447-1-1-1H9.531c0.415-0.534,1-1.146,1.483-1.652
				C12.482,21.811,14,20.221,14,18.5c0-1.93-1.57-3.5-3.5-3.5S7,16.57,7,18.5c0,0.553,0.447,1,1,1s1-0.447,1-1
				c0-0.827,0.673-1.5,1.5-1.5s1.5,0.673,1.5,1.5c0,0.919-1.349,2.331-2.432,3.466C8.19,23.408,7,24.654,7,26z"/>
		</g>
	</g>
</g>
<g>
</g>
<g>
</g>
<g>
</g>
<g>
</g>
<g>
</g>
<g>
</g>
<g>
</g>
<g>
</g>
<g>
</g>
<g>
</g>
<g>
</g>
<g>
</g>
<g>
</g>
<g>
</g>
<g>
</g>
</svg>
