<?xml version="1.0" encoding="iso-8859-1"?>
<!-- Generator: Adobe Illustrator 16.0.0, SVG Export Plug-In . SVG Version: 6.00 Build 0)  -->
<!DOCTYPE svg PUBLIC "-//W3C//DTD SVG 1.1//EN" "http://www.w3.org/Graphics/SVG/1.1/DTD/svg11.dtd">
<svg version="1.1" id="Capa_1" xmlns="http://www.w3.org/2000/svg" xmlns:xlink="http://www.w3.org/1999/xlink" x="0px" y="0px"
	 width="32px" height="32px" viewBox="0 0 32 32" style="enable-background:new 0 0 32 32;" xml:space="preserve">
<g>
	<g id="Photo_x5F_Camera">
		<g>
			<path d="M29,4h-6.382l-1.724-3.447C20.725,0.214,20.379,0,20,0h-8c-0.379,0-0.725,0.214-0.895,0.553L9.382,4H3
				C1.346,4,0,5.346,0,7v22c0,1.654,1.346,3,3,3h26c1.654,0,3-1.346,3-3V7C32,5.346,30.654,4,29,4z M2,15h5.949
				C7.348,16.207,7,17.562,7,19s0.348,2.793,0.949,4H2V15z M30,29c0,0.552-0.449,1-1,1H3c-0.551,0-1-0.448-1-1v-4h7
				c0.094,0,0.178-0.029,0.263-0.053C10.913,26.814,13.318,28,16,28c2.682,0,5.087-1.186,6.736-3.053C22.822,24.971,22.906,25,23,25
				h7V29z M9,19c0-3.86,3.141-7,7-7c3.859,0,7,3.14,7,7c0,3.859-3.141,7-7,7C12.141,26,9,22.859,9,19z M30,23h-5.949
				C24.652,21.793,25,20.438,25,19s-0.348-2.793-0.949-4H30V23z M30,13h-7c-0.094,0-0.178,0.029-0.264,0.054
				C21.087,11.186,18.682,10,16,10c-2.682,0-5.087,1.186-6.737,3.054C9.178,13.029,9.094,13,9,13H2V7c0-0.552,0.449-1,1-1h7
				c0.379,0,0.725-0.214,0.895-0.553L12.618,2h6.764l1.724,3.447C21.275,5.786,21.621,6,22,6h7c0.551,0,1,0.448,1,1V13z M16,16
				c1.654,0,3,1.346,3,3c0,0.552,0.447,1,1,1s1-0.448,1-1c0-2.757-2.243-5-5-5c-0.553,0-1,0.447-1,1C15,15.552,15.447,16,16,16z"/>
		</g>
	</g>
</g>
<g>
</g>
<g>
</g>
<g>
</g>
<g>
</g>
<g>
</g>
<g>
</g>
<g>
</g>
<g>
</g>
<g>
</g>
<g>
</g>
<g>
</g>
<g>
</g>
<g>
</g>
<g>
</g>
<g>
</g>
</svg>
