<?xml version="1.0" encoding="iso-8859-1"?>
<!-- Generator: Adobe Illustrator 16.0.0, SVG Export Plug-In . SVG Version: 6.00 Build 0)  -->
<!DOCTYPE svg PUBLIC "-//W3C//DTD SVG 1.1//EN" "http://www.w3.org/Graphics/SVG/1.1/DTD/svg11.dtd">
<svg version="1.1" id="Capa_1" xmlns="http://www.w3.org/2000/svg" xmlns:xlink="http://www.w3.org/1999/xlink" x="0px" y="0px"
	 width="32px" height="32px" viewBox="0 0 32 32" style="enable-background:new 0 0 32 32;" xml:space="preserve">
<g>
	<g id="Cassette">
		<g>
			<path d="M29,4H3C1.346,4,0,5.346,0,7v18c0,1.654,1.346,3,3,3h26c1.654,0,3-1.346,3-3V7C32,5.346,30.654,4,29,4z M30,25
				c0,0.551-0.448,1-1,1h-1.465l-1.703-2.555C25.646,23.167,25.335,23,25,23H7c-0.335,0-0.646,0.167-0.832,0.445L4.465,26H3
				c-0.552,0-1-0.449-1-1V7c0-0.552,0.448-1,1-1h26c0.552,0,1,0.448,1,1V25z M22,11H10c-2.206,0-4,1.794-4,4s1.794,4,4,4h12
				c2.206,0,4-1.794,4-4S24.206,11,22,11z M10,17c-1.103,0-2-0.896-2-2c0-1.104,0.897-2,2-2s2,0.896,2,2C12,16.104,11.103,17,10,17z
				 M18.557,17h-5.113C13.788,16.409,14,15.732,14,15s-0.212-1.409-0.557-2h5.114C18.212,13.591,18,14.268,18,15
				S18.212,16.409,18.557,17z M22,17c-1.104,0-2-0.896-2-2c0-1.104,0.896-2,2-2s2,0.896,2,2C24,16.104,23.104,17,22,17z"/>
		</g>
	</g>
</g>
<g>
</g>
<g>
</g>
<g>
</g>
<g>
</g>
<g>
</g>
<g>
</g>
<g>
</g>
<g>
</g>
<g>
</g>
<g>
</g>
<g>
</g>
<g>
</g>
<g>
</g>
<g>
</g>
<g>
</g>
</svg>
