<?xml version="1.0" encoding="iso-8859-1"?>
<!-- Generator: Adobe Illustrator 16.0.0, SVG Export Plug-In . SVG Version: 6.00 Build 0)  -->
<!DOCTYPE svg PUBLIC "-//W3C//DTD SVG 1.1//EN" "http://www.w3.org/Graphics/SVG/1.1/DTD/svg11.dtd">
<svg version="1.1" id="Capa_1" xmlns="http://www.w3.org/2000/svg" xmlns:xlink="http://www.w3.org/1999/xlink" x="0px" y="0px"
	 width="32.068px" height="32.067px" viewBox="0 0 32.068 32.067" style="enable-background:new 0 0 32.068 32.067;"
	 xml:space="preserve">
<g>
	<g id="Rec">
		<g>
			<path d="M12.504,12.514c-1.949,1.948-1.949,5.12,0,7.069c0.943,0.944,2.2,1.465,3.536,1.465c1.334,0,2.59-0.521,3.535-1.465
				c0.943-0.942,1.464-2.199,1.465-3.535c0-1.336-0.521-2.592-1.465-3.534c-0.943-0.944-2.199-1.466-3.535-1.466
				C14.704,11.048,13.449,11.569,12.504,12.514z M19.041,16.049c0,0.803-0.312,1.557-0.879,2.121c-1.135,1.135-3.107,1.135-4.243,0
				c-1.17-1.17-1.17-3.071,0-4.241c0.566-0.566,1.319-0.88,2.122-0.88c0.801,0,1.555,0.312,2.121,0.88
				C18.728,14.495,19.041,15.247,19.041,16.049z M29.157,6.833c-0.317-0.453-0.94-0.562-1.394-0.244
				c-0.452,0.317-0.562,0.941-0.244,1.394c3.917,5.579,3.257,13.13-1.58,17.967c-4.826,4.827-12.378,5.485-17.953,1.568
				C7.536,27.2,6.91,27.311,6.593,27.76c-0.317,0.452-0.208,1.076,0.243,1.396c2.782,1.954,5.991,2.912,9.187,2.912
				c4.127-0.001,8.229-1.601,11.342-4.714C32.878,21.837,33.632,13.208,29.157,6.833z M24.083,4.548
				c0.452,0.318,1.077,0.207,1.395-0.242c0.316-0.452,0.208-1.076-0.243-1.395C18.861-1.566,10.23-0.813,4.705,4.713
				c-5.516,5.516-6.27,14.146-1.792,20.521c0.193,0.275,0.505,0.426,0.818,0.426c0.198,0,0.398-0.059,0.573-0.182
				c0.452-0.317,0.562-0.941,0.244-1.395c-3.917-5.579-3.257-13.13,1.58-17.967C10.956,1.291,18.505,0.63,24.083,4.548z"/>
		</g>
	</g>
</g>
<g>
</g>
<g>
</g>
<g>
</g>
<g>
</g>
<g>
</g>
<g>
</g>
<g>
</g>
<g>
</g>
<g>
</g>
<g>
</g>
<g>
</g>
<g>
</g>
<g>
</g>
<g>
</g>
<g>
</g>
</svg>
