<?xml version="1.0" encoding="iso-8859-1"?>
<!-- Generator: Adobe Illustrator 16.0.0, SVG Export Plug-In . SVG Version: 6.00 Build 0)  -->
<!DOCTYPE svg PUBLIC "-//W3C//DTD SVG 1.1//EN" "http://www.w3.org/Graphics/SVG/1.1/DTD/svg11.dtd">
<svg version="1.1" id="Capa_1" xmlns="http://www.w3.org/2000/svg" xmlns:xlink="http://www.w3.org/1999/xlink" x="0px" y="0px"
	 width="32.003px" height="32.003px" viewBox="0 0 32.003 32.003" style="enable-background:new 0 0 32.003 32.003;"
	 xml:space="preserve">
<g>
	<g id="Link_x5F_2">
		<g>
			<path d="M31.709,0.295c-0.391-0.391-1.022-0.391-1.414,0L25.9,4.69L24.911,3.7c-0.981-0.982-2.694-0.982-3.677,0l-6.223,6.221
				c-0.491,0.491-0.761,1.145-0.762,1.838c0,0.695,0.271,1.349,0.762,1.84l0.99,0.989l-1.414,1.414l-0.99-0.989
				c-0.982-0.982-2.696-0.98-3.677-0.001l-6.223,6.223c-1.014,1.017-1.014,2.664,0,3.679l0.99,0.989l-4.394,4.394
				c-0.391,0.393-0.391,1.022,0,1.414c0.196,0.193,0.453,0.291,0.708,0.291s0.512-0.098,0.707-0.293l4.394-4.395l0.99,0.992
				c0.491,0.488,1.145,0.76,1.839,0.76c0.693,0,1.347-0.271,1.838-0.762l6.224-6.225c1.013-1.015,1.013-2.662,0-3.677l-0.992-0.987
				l1.415-1.414l0.99,0.99c0.49,0.49,1.145,0.762,1.839,0.762s1.348-0.271,1.838-0.762l6.225-6.224c1.014-1.015,1.014-2.663,0-3.678
				l-0.99-0.988l4.394-4.395C32.101,1.318,32.101,0.687,31.709,0.295z M15.579,20.669l-6.222,6.224
				c-0.227,0.228-0.622,0.226-0.849,0l-0.99-0.99l2.369-2.368c0.391-0.394,0.391-1.025,0-1.416c-0.391-0.39-1.023-0.39-1.414,0
				l-2.369,2.37L5.113,23.5c-0.233-0.232-0.233-0.615,0-0.849l6.223-6.226c0.113-0.11,0.264-0.176,0.424-0.176
				c0.16,0,0.312,0.063,0.425,0.178l0.99,0.99l-2.121,2.121c-0.391,0.391-0.391,1.021,0,1.412c0.195,0.195,0.451,0.293,0.707,0.293
				c0.256,0,0.512-0.098,0.707-0.293l2.121-2.121l0.99,0.99C15.812,20.054,15.812,20.436,15.579,20.669z M26.894,9.356l-6.225,6.223
				c-0.228,0.227-0.622,0.228-0.849,0l-0.99-0.991l2.121-2.12c0.391-0.391,0.391-1.022,0-1.414c-0.391-0.391-1.023-0.391-1.414,0
				l-2.121,2.121l-0.991-0.989c-0.113-0.113-0.176-0.265-0.176-0.426c0-0.158,0.062-0.31,0.176-0.423l6.223-6.223
				C22.761,5,22.914,4.937,23.074,4.937s0.311,0.062,0.424,0.176l0.99,0.991l-2.369,2.369c-0.391,0.391-0.391,1.023,0,1.413
				c0.195,0.195,0.451,0.294,0.707,0.294s0.512-0.099,0.707-0.294l2.369-2.369l0.99,0.988C27.125,8.74,27.125,9.121,26.894,9.356z"
				/>
		</g>
	</g>
</g>
<g>
</g>
<g>
</g>
<g>
</g>
<g>
</g>
<g>
</g>
<g>
</g>
<g>
</g>
<g>
</g>
<g>
</g>
<g>
</g>
<g>
</g>
<g>
</g>
<g>
</g>
<g>
</g>
<g>
</g>
</svg>
