<?xml version="1.0" encoding="iso-8859-1"?>
<!-- Generator: Adobe Illustrator 16.0.0, SVG Export Plug-In . SVG Version: 6.00 Build 0)  -->
<!DOCTYPE svg PUBLIC "-//W3C//DTD SVG 1.1//EN" "http://www.w3.org/Graphics/SVG/1.1/DTD/svg11.dtd">
<svg version="1.1" id="Capa_1" xmlns="http://www.w3.org/2000/svg" xmlns:xlink="http://www.w3.org/1999/xlink" x="0px" y="0px"
	 width="31.999px" height="32px" viewBox="0 0 31.999 32" style="enable-background:new 0 0 31.999 32;" xml:space="preserve">
<g>
	<g id="Link_x5F_1">
		<g>
			<path d="M18.874,14.447c-0.089-0.545-0.597-0.919-1.149-0.824c-0.545,0.089-0.914,0.604-0.825,1.148
				C16.966,15.175,17,15.588,17,16c0,4.136-3.364,7.5-7.5,7.5S2,20.135,2,16s3.364-7.5,7.5-7.5c1.178,0,2.307,0.266,3.354,0.789
				c0.496,0.246,1.095,0.047,1.342-0.447c0.246-0.494,0.046-1.095-0.448-1.342c-1.327-0.663-2.756-1-4.248-1
				C4.262,6.5,0,10.762,0,16c0,5.238,4.262,9.5,9.5,9.5S19,21.238,19,16C19,15.48,18.958,14.958,18.874,14.447z M22.5,6.5
				c-5.238,0-9.5,4.262-9.5,9.5c0,0.514,0.041,1.025,0.123,1.525c0.088,0.545,0.6,0.918,1.147,0.826
				c0.545-0.088,0.915-0.604,0.826-1.146C15.032,16.812,15,16.406,15,16c0-4.136,3.363-7.5,7.5-7.5S30,11.864,30,16
				s-3.363,7.5-7.5,7.5c-1.18,0-2.307-0.266-3.354-0.789c-0.494-0.244-1.096-0.047-1.342,0.447
				c-0.248,0.492-0.048,1.095,0.445,1.342c1.327,0.663,2.756,1,4.249,1c5.237,0,9.5-4.262,9.5-9.5C32,10.762,27.738,6.5,22.5,6.5z"
				/>
		</g>
	</g>
</g>
<g>
</g>
<g>
</g>
<g>
</g>
<g>
</g>
<g>
</g>
<g>
</g>
<g>
</g>
<g>
</g>
<g>
</g>
<g>
</g>
<g>
</g>
<g>
</g>
<g>
</g>
<g>
</g>
<g>
</g>
</svg>
