<?xml version="1.0" encoding="iso-8859-1"?>
<!-- Generator: Adobe Illustrator 16.0.0, SVG Export Plug-In . SVG Version: 6.00 Build 0)  -->
<!DOCTYPE svg PUBLIC "-//W3C//DTD SVG 1.1//EN" "http://www.w3.org/Graphics/SVG/1.1/DTD/svg11.dtd">
<svg version="1.1" id="Capa_1" xmlns="http://www.w3.org/2000/svg" xmlns:xlink="http://www.w3.org/1999/xlink" x="0px" y="0px"
	 width="32px" height="32px" viewBox="0 0 32 32" style="enable-background:new 0 0 32 32;" xml:space="preserve">
<g>
	<g id="Badge_x5F_5">
		<g>
			<path d="M16,0C7.178,0,0,7.178,0,16s7.178,16,16,16c8.822,0,16-7.178,16-16S24.822,0,16,0z M16,2c3.5,0,6.695,1.301,9.154,3.432
				L23.74,6.845C21.648,5.074,18.949,4,16,4s-5.648,1.074-7.74,2.845L6.846,5.432C9.303,3.301,12.5,2,16,2z M21.706,20.293
				c-0.009-0.008-0.019-0.011-0.026-0.02c-0.01-0.01-0.014-0.021-0.021-0.031c-0.392-0.391-1.022-0.391-1.414,0
				c-2.341,2.339-6.146,2.339-8.486,0c-0.391-0.391-1.023-0.391-1.414,0c-0.009,0.01-0.012,0.021-0.021,0.031
				c-0.009,0.008-0.021,0.011-0.029,0.02l-2.031,2.031C6.85,20.6,6,18.396,6,16c0-2.397,0.85-4.6,2.262-6.324l2.031,2.031
				c0.01,0.01,0.021,0.012,0.031,0.021c0.008,0.009,0.011,0.021,0.02,0.03c0.391,0.39,1.023,0.39,1.414,0
				C12.891,10.624,14.397,10,16,10c1.604,0,3.109,0.624,4.242,1.758c0.195,0.194,0.451,0.292,0.707,0.292s0.512-0.098,0.707-0.292
				c0.01-0.01,0.012-0.022,0.021-0.031c0.008-0.009,0.021-0.011,0.028-0.02l2.032-2.031C25.15,11.399,26,13.603,26,16
				c0,2.398-0.85,4.6-2.262,6.324L21.706,20.293z M22.324,23.739C20.6,25.15,18.396,26,16,26c-2.397,0-4.6-0.85-6.324-2.262
				l1.424-1.424c1.437,1.117,3.167,1.682,4.9,1.682c1.732,0,3.463-0.564,4.9-1.682L22.324,23.739z M9.676,8.262
				C11.4,6.85,13.603,6,16,6c2.396,0,4.6,0.85,6.324,2.262L20.9,9.685C19.504,8.596,17.799,8,16,8s-3.504,0.597-4.9,1.686
				L9.676,8.262z M2,16c0-3.5,1.301-6.697,3.432-9.154L6.846,8.26C5.074,10.352,4,13.051,4,16s1.074,5.648,2.846,7.741l-1.414,1.413
				C3.301,22.697,2,19.501,2,16z M16,30c-3.5,0-6.697-1.3-9.154-3.432l1.414-1.414C10.352,26.926,13.051,28,16,28
				s5.648-1.074,7.74-2.846l1.414,1.414C22.695,28.7,19.5,30,16,30z M26.568,25.154l-1.414-1.413C26.926,21.648,28,18.949,28,16
				s-1.074-5.649-2.846-7.741l1.414-1.414C28.699,9.303,30,12.499,30,16S28.699,22.697,26.568,25.154z M21,15h-1.143
				c-0.447-1.72-2-3-3.857-3c-1.858,0-3.41,1.28-3.857,3H11c-0.553,0-1,0.447-1,1c0,0.552,0.447,1,1,1h1.143
				c0.447,1.721,1.999,3,3.857,3c1.857,0,3.41-1.279,3.857-3H21c0.553,0,1-0.448,1-1C22,15.447,21.553,15,21,15z M16,18
				c-1.104,0-2-0.896-2-2c0-1.103,0.896-2,2-2c1.104,0,2,0.897,2,2C18,17.104,17.104,18,16,18z"/>
		</g>
	</g>
</g>
<g>
</g>
<g>
</g>
<g>
</g>
<g>
</g>
<g>
</g>
<g>
</g>
<g>
</g>
<g>
</g>
<g>
</g>
<g>
</g>
<g>
</g>
<g>
</g>
<g>
</g>
<g>
</g>
<g>
</g>
</svg>
