<?xml version="1.0" encoding="iso-8859-1"?>
<!-- Generator: Adobe Illustrator 16.0.0, SVG Export Plug-In . SVG Version: 6.00 Build 0)  -->
<!DOCTYPE svg PUBLIC "-//W3C//DTD SVG 1.1//EN" "http://www.w3.org/Graphics/SVG/1.1/DTD/svg11.dtd">
<svg version="1.1" id="Capa_1" xmlns="http://www.w3.org/2000/svg" xmlns:xlink="http://www.w3.org/1999/xlink" x="0px" y="0px"
	 width="32px" height="32px" viewBox="0 0 32 32" style="enable-background:new 0 0 32 32;" xml:space="preserve">
<g>
	<g id="Badge_x5F_7">
		<g>
			<path d="M22.275,5.503L23.8,1.69C23.924,1.49,24,1.264,24,1c0-0.003-0.002-0.006-0.002-0.008
				c-0.001-0.106-0.027-0.207-0.062-0.307c-0.009-0.024-0.006-0.054-0.017-0.077c-0.03-0.074-0.086-0.135-0.135-0.2
				c-0.028-0.037-0.046-0.083-0.079-0.116c-0.025-0.025-0.062-0.039-0.092-0.062c-0.073-0.059-0.146-0.117-0.234-0.154
				c-0.003-0.001-0.005-0.004-0.009-0.005c-0.062-0.024-0.123-0.022-0.185-0.033C23.124,0.025,23.066,0,23,0
				c-0.004,0-0.008,0.002-0.012,0.002c-0.021,0-0.035,0.007-0.055,0.008c-0.103,0.007-0.197,0.028-0.289,0.062
				c-0.033,0.013-0.062,0.029-0.095,0.045c-0.075,0.039-0.146,0.086-0.208,0.142c-0.023,0.022-0.052,0.043-0.074,0.069
				c-0.078,0.084-0.146,0.176-0.189,0.283C21.75,0.771,20.823,1,19.5,1s-2.25-0.229-2.578-0.389
				c-0.001-0.002-0.003-0.004-0.004-0.006c-0.045-0.105-0.111-0.197-0.189-0.28C16.706,0.3,16.682,0.28,16.654,0.258
				C16.59,0.2,16.521,0.153,16.443,0.115c-0.031-0.016-0.059-0.032-0.092-0.044C16.241,0.029,16.125,0,16,0
				s-0.241,0.029-0.352,0.071c-0.033,0.012-0.061,0.028-0.092,0.044c-0.077,0.038-0.146,0.085-0.21,0.143
				C15.319,0.28,15.294,0.3,15.271,0.325c-0.077,0.083-0.145,0.175-0.189,0.28c-0.001,0.002-0.003,0.004-0.004,0.006
				C14.75,0.771,13.824,1,12.5,1c-1.323,0-2.25-0.229-2.578-0.389c-0.046-0.107-0.113-0.2-0.191-0.285
				C9.709,0.303,9.685,0.283,9.66,0.262C9.594,0.203,9.522,0.154,9.442,0.115C9.414,0.101,9.389,0.086,9.359,0.074
				c-0.098-0.037-0.201-0.061-0.31-0.067c-0.012,0-0.023-0.005-0.034-0.005C9.01,0.002,9.005,0,9,0C8.927,0,8.863,0.027,8.795,0.041
				C8.739,0.053,8.684,0.05,8.628,0.071C8.625,0.072,8.623,0.075,8.62,0.076C8.531,0.113,8.458,0.172,8.385,0.231
				C8.356,0.254,8.319,0.268,8.294,0.292C8.259,0.327,8.24,0.375,8.21,0.415c-0.046,0.063-0.1,0.122-0.13,0.193
				C8.069,0.633,8.072,0.662,8.063,0.687C8.03,0.785,8.002,0.886,8.002,0.992C8.002,0.994,8,0.997,8,1
				c0,0.264,0.076,0.49,0.198,0.689l1.525,3.813C5.15,7.81,2,12.538,2,18c0,7.721,6.28,14,14,14c7.721,0,14-6.279,14-14
				C30,12.538,26.85,7.81,22.275,5.503z M12.5,3c0.69,0,2.397-0.064,3.5-0.626C17.104,2.936,18.811,3,19.5,3
				c0.357,0,0.988-0.019,1.668-0.112L20.432,4.73C19.036,4.264,17.549,4,16,4s-3.036,0.264-4.431,0.73l-0.737-1.842
				C11.511,2.981,12.143,3,12.5,3z M16,30C9.383,30,4,24.617,4,18C4,11.384,9.383,6,16,6s12,5.384,12,12C28,24.617,22.617,30,16,30z
				 M16,8C10.485,8,6,12.485,6,18c0,5.514,4.485,10,10,10c5.516,0,10-4.486,10-10C26,12.485,21.516,8,16,8z M16,10
				c2.285,0,4.344,0.968,5.803,2.509c-0.373,0.249-0.666,0.544-0.912,0.807C20.443,13.79,20.227,14,19.742,14
				c-0.483,0-0.7-0.209-1.145-0.684C18.077,12.761,17.363,12,15.993,12c-1.459,0-2.168,0.781-2.686,1.353
				C12.872,13.833,12.698,14,12.242,14c-0.484,0-0.701-0.209-1.146-0.684c-0.244-0.261-0.536-0.554-0.904-0.802
				C11.652,10.971,13.713,10,16,10z M8.997,14.141c0.201,0.109,0.389,0.274,0.64,0.543C10.158,15.239,10.871,16,12.242,16
				c1.365,0,2.049-0.754,2.548-1.305C15.238,14.201,15.442,14,15.993,14c0.484,0,0.7,0.209,1.146,0.685
				C17.659,15.239,18.372,16,19.742,16c1.371,0,2.085-0.761,2.605-1.315c0.256-0.273,0.444-0.441,0.649-0.55
				C23.479,15.004,23.8,15.973,23.93,17H8.069C8.198,15.975,8.518,15.008,8.997,14.141z M16,26c-2.287,0-4.348-0.971-5.808-2.516
				c0.368-0.248,0.66-0.541,0.904-0.801C11.541,22.209,11.758,22,12.242,22c0.456,0,0.63,0.166,1.065,0.646
				C13.825,23.219,14.534,24,15.993,24c1.37,0,2.084-0.761,2.604-1.316C19.042,22.209,19.259,22,19.742,22
				c0.484,0,0.701,0.21,1.146,0.686c0.245,0.264,0.541,0.559,0.912,0.808C20.344,25.032,18.285,26,16,26z M22.999,21.865
				c-0.205-0.108-0.396-0.276-0.651-0.549C21.827,20.761,21.113,20,19.742,20c-1.37,0-2.083,0.761-2.604,1.316
				C16.693,21.791,16.478,22,15.993,22c-0.551,0-0.755-0.201-1.203-0.695C14.291,20.754,13.607,20,12.242,20
				c-1.371,0-2.084,0.761-2.605,1.316c-0.251,0.269-0.438,0.434-0.64,0.543C8.518,20.992,8.198,20.025,8.069,19H23.93
				C23.802,20.027,23.48,20.996,22.999,21.865z"/>
		</g>
	</g>
</g>
<g>
</g>
<g>
</g>
<g>
</g>
<g>
</g>
<g>
</g>
<g>
</g>
<g>
</g>
<g>
</g>
<g>
</g>
<g>
</g>
<g>
</g>
<g>
</g>
<g>
</g>
<g>
</g>
<g>
</g>
</svg>
