<?xml version="1.0" encoding="iso-8859-1"?>
<!-- Generator: Adobe Illustrator 16.0.0, SVG Export Plug-In . SVG Version: 6.00 Build 0)  -->
<!DOCTYPE svg PUBLIC "-//W3C//DTD SVG 1.1//EN" "http://www.w3.org/Graphics/SVG/1.1/DTD/svg11.dtd">
<svg version="1.1" id="Capa_1" xmlns="http://www.w3.org/2000/svg" xmlns:xlink="http://www.w3.org/1999/xlink" x="0px" y="0px"
	 width="32px" height="32px" viewBox="0 0 32 32" style="enable-background:new 0 0 32 32;" xml:space="preserve">
<g>
	<g id="Watch">
		<g>
			<path d="M16,0C7.178,0,0,7.178,0,16s7.178,16,16,16c8.822,0,16-7.178,16-16S24.822,0,16,0z M16,30C8.28,30,2,23.721,2,16
				C2,8.28,8.28,2,16,2c7.721,0,14,6.28,14,14C30,23.721,23.721,30,16,30z M18.613,17.441C18.854,17.014,19,16.525,19,16
				c0-1.302-0.839-2.401-2-2.815V5c0-0.552-0.447-1-1-1s-1,0.448-1,1v8.185c-1.161,0.414-2,1.514-2,2.815c0,1.654,1.346,3,3,3
				c0.396,0,0.773-0.081,1.121-0.223l4.172,4.172c0.195,0.195,0.451,0.293,0.707,0.293s0.512-0.098,0.707-0.293
				c0.391-0.391,0.391-1.022,0-1.413L18.613,17.441z M16,17c-0.552,0-1-0.448-1-1c0-0.551,0.448-1,1-1s1,0.449,1,1
				C17,16.552,16.552,17,16,17z"/>
		</g>
	</g>
</g>
<g>
</g>
<g>
</g>
<g>
</g>
<g>
</g>
<g>
</g>
<g>
</g>
<g>
</g>
<g>
</g>
<g>
</g>
<g>
</g>
<g>
</g>
<g>
</g>
<g>
</g>
<g>
</g>
<g>
</g>
</svg>
