<?xml version="1.0" encoding="iso-8859-1"?>
<!-- Generator: Adobe Illustrator 16.0.0, SVG Export Plug-In . SVG Version: 6.00 Build 0)  -->
<!DOCTYPE svg PUBLIC "-//W3C//DTD SVG 1.1//EN" "http://www.w3.org/Graphics/SVG/1.1/DTD/svg11.dtd">
<svg version="1.1" id="Capa_1" xmlns="http://www.w3.org/2000/svg" xmlns:xlink="http://www.w3.org/1999/xlink" x="0px" y="0px"
	 width="32px" height="32px" viewBox="0 0 32 32" style="enable-background:new 0 0 32 32;" xml:space="preserve">
<g>
	<g id="Cloud_x5F_Ray">
		<g>
			<path d="M22,2c-2.018,0-3.966,0.608-5.617,1.736C15.33,1.504,13.053,0,10.5,0C6.916,0,4,2.916,4,6.5
				c0,0.691,0.111,1.377,0.326,2.03C1.729,9.592,0,12.107,0,15c0,3.859,3.14,7,7,7h2c0.552,0,1-0.447,1-1s-0.448-1-1-1H7
				c-2.757,0-5-2.243-5-5c0-2.316,1.641-4.367,3.901-4.874c0.307-0.069,0.563-0.278,0.693-0.565C6.723,9.274,6.71,8.943,6.557,8.667
				C6.193,8.006,6,7.257,6,6.5C6,4.019,8.019,2,10.5,2c2.133,0,3.988,1.516,4.411,3.604c0.072,0.354,0.329,0.642,0.673,0.753
				c0.346,0.112,0.722,0.027,0.986-0.218C18.059,4.76,19.986,4,22,4c4.411,0,8,3.589,8,8c0,4.085-3.057,7.504-7.109,7.951
				c-0.55,0.061-0.945,0.555-0.885,1.104s0.564,0.938,1.104,0.885C28.178,21.379,32,17.105,32,12C32,6.485,27.514,2,22,2z M26,12
				c0,0.552,0.448,1,1,1s1-0.448,1-1c0-3.309-2.691-6-6-6c-0.552,0-1,0.447-1,1s0.448,1,1,1C24.206,8,26,9.795,26,12z M20,17h-1.104
				l1.063-3.726c0.086-0.302,0.024-0.626-0.163-0.876C19.609,12.147,19.314,12,19,12h-4c-0.446,0-0.839,0.296-0.961,0.726l-2,6.999
				c-0.086,0.303-0.026,0.627,0.163,0.879C12.391,20.854,12.686,21,13,21h0.802l-1.786,9.82c-0.088,0.484,0.189,0.961,0.653,1.123
				C12.778,31.982,12.89,32,13,32c0.359,0,0.702-0.193,0.88-0.525l7-13c0.167-0.311,0.159-0.685-0.022-0.985
				C20.678,17.186,20.352,17,20,17z M15.114,24.965l0.87-4.785c0.053-0.293-0.026-0.593-0.216-0.82C15.578,19.133,15.296,19,15,19
				h-0.674l1.429-5h1.92l-1.063,3.725c-0.086,0.303-0.026,0.627,0.162,0.879C16.962,18.854,17.257,19,17.57,19h0.755L15.114,24.965z
				"/>
		</g>
	</g>
</g>
<g>
</g>
<g>
</g>
<g>
</g>
<g>
</g>
<g>
</g>
<g>
</g>
<g>
</g>
<g>
</g>
<g>
</g>
<g>
</g>
<g>
</g>
<g>
</g>
<g>
</g>
<g>
</g>
<g>
</g>
</svg>
