<?xml version="1.0" encoding="iso-8859-1"?>
<!-- Generator: Adobe Illustrator 16.0.0, SVG Export Plug-In . SVG Version: 6.00 Build 0)  -->
<!DOCTYPE svg PUBLIC "-//W3C//DTD SVG 1.1//EN" "http://www.w3.org/Graphics/SVG/1.1/DTD/svg11.dtd">
<svg version="1.1" id="Capa_1" xmlns="http://www.w3.org/2000/svg" xmlns:xlink="http://www.w3.org/1999/xlink" x="0px" y="0px"
	 width="32px" height="32px" viewBox="0 0 32 32" style="enable-background:new 0 0 32 32;" xml:space="preserve">
<g>
	<g id="Cloud">
		<g>
			<path d="M14,14.5c-1.654,0-3-1.346-3-3c0-0.553-0.448-1-1-1s-1,0.447-1,1c0,2.757,2.243,5,5,5c0.552,0,1-0.447,1-1
				S14.552,14.5,14,14.5z M26.5,18c-0.552,0-1,0.447-1,1c0,2.48-2.02,4.5-4.5,4.5c-0.552,0-1,0.448-1,1s0.448,1,1,1
				c3.584,0,6.5-2.916,6.5-6.5C27.5,18.447,27.052,18,26.5,18z M22.497,8.556C21.254,4.955,17.859,2.5,14,2.5c-4.962,0-9,4.037-9,9
				c0,0.838,0.114,1.66,0.34,2.455C2.188,15.066,0,18.077,0,21.5c0,4.411,3.589,8,8,8h14c0.096,0,0.189-0.014,0.277-0.041
				C27.747,29.059,32,24.506,32,19C32,13.509,27.882,9.054,22.497,8.556z M21.948,27.477c-0.06,0.002-0.117,0.013-0.173,0.023H8
				c-3.309,0-6-2.691-6-6c0-2.857,2.032-5.332,4.832-5.885c0.296-0.059,0.549-0.246,0.69-0.513s0.154-0.583,0.036-0.86
				C7.188,13.373,7,12.45,7,11.5c0-3.859,3.14-7,7-7c3.193,0,5.979,2.163,6.771,5.261c0.11,0.433,0.498,0.74,0.943,0.751
				C26.361,10.629,30,14.357,30,19C30,23.518,26.463,27.24,21.948,27.477z"/>
		</g>
	</g>
</g>
<g>
</g>
<g>
</g>
<g>
</g>
<g>
</g>
<g>
</g>
<g>
</g>
<g>
</g>
<g>
</g>
<g>
</g>
<g>
</g>
<g>
</g>
<g>
</g>
<g>
</g>
<g>
</g>
<g>
</g>
</svg>
