<?xml version="1.0" encoding="iso-8859-1"?>
<!-- Generator: Adobe Illustrator 16.0.0, SVG Export Plug-In . SVG Version: 6.00 Build 0)  -->
<!DOCTYPE svg PUBLIC "-//W3C//DTD SVG 1.1//EN" "http://www.w3.org/Graphics/SVG/1.1/DTD/svg11.dtd">
<svg version="1.1" id="Capa_1" xmlns="http://www.w3.org/2000/svg" xmlns:xlink="http://www.w3.org/1999/xlink" x="0px" y="0px"
	 width="32px" height="32px" viewBox="0 0 32 32" style="enable-background:new 0 0 32 32;" xml:space="preserve">
<g>
	<g id="Compact_x5F_Disc">
		<g>
			<path d="M16,0C7.178,0,0,7.178,0,16s7.178,16,16,16c8.822,0,16-7.178,16-16S24.822,0,16,0z M16,30C8.28,30,2,23.721,2,16
				C2,8.28,8.28,2,16,2c7.721,0,14,6.28,14,14C30,23.721,23.721,30,16,30z M16,13c-1.654,0-3,1.346-3,3c0,1.654,1.346,3,3,3
				c1.654,0,3-1.346,3-3C19,14.346,17.654,13,16,13z M16,17c-0.552,0-1-0.448-1-1s0.448-1,1-1s1,0.448,1,1S16.552,17,16,17z M16,26
				c-5.514,0-10-4.486-10-10c0-0.553-0.447-1-1-1s-1,0.447-1,1c0,6.617,5.383,12,12,12c0.553,0,1-0.447,1-1S16.553,26,16,26z M16,4
				c-0.553,0-1,0.447-1,1s0.447,1,1,1c5.514,0,10,4.486,10,10c0,0.553,0.447,1,1,1s1-0.447,1-1C28,9.383,22.617,4,16,4z"/>
		</g>
	</g>
</g>
<g>
</g>
<g>
</g>
<g>
</g>
<g>
</g>
<g>
</g>
<g>
</g>
<g>
</g>
<g>
</g>
<g>
</g>
<g>
</g>
<g>
</g>
<g>
</g>
<g>
</g>
<g>
</g>
<g>
</g>
</svg>
