<?xml version="1.0" encoding="iso-8859-1"?>
<!-- Generator: Adobe Illustrator 16.0.0, SVG Export Plug-In . SVG Version: 6.00 Build 0)  -->
<!DOCTYPE svg PUBLIC "-//W3C//DTD SVG 1.1//EN" "http://www.w3.org/Graphics/SVG/1.1/DTD/svg11.dtd">
<svg version="1.1" id="Capa_1" xmlns="http://www.w3.org/2000/svg" xmlns:xlink="http://www.w3.org/1999/xlink" x="0px" y="0px"
	 width="32px" height="32px" viewBox="0 0 32 32" style="enable-background:new 0 0 32 32;" xml:space="preserve">
<g>
	<g id="Compass">
		<g>
			<path d="M21.741,7.435l-7.413,4.943c-0.423,0.195-0.817,0.455-1.156,0.794c-0.379,0.379-0.672,0.82-0.87,1.301l-4.866,7.269
				c-0.699,0.783-0.673,1.99,0.079,2.744c0.378,0.378,0.88,0.586,1.414,0.586c0.496,0,0.964-0.18,1.33-0.508l7.413-4.941
				c0.424-0.195,0.816-0.455,1.156-0.794c0.379-0.378,0.672-0.819,0.87-1.3l4.866-7.271c0.699-0.784,0.672-1.992-0.08-2.745
				C23.758,6.788,22.503,6.756,21.741,7.435z M9.081,22.945L8.929,23.07H8.93l-0.001,1v-1l3.522-5.262
				c0.188,0.368,0.419,0.719,0.721,1.02c0.299,0.299,0.646,0.527,1.012,0.716L9.081,22.945z M17.874,16.691L17.4,17.398
				l-0.715,0.479C16.469,17.956,16.238,18,16,18c-0.534,0-1.036-0.208-1.414-0.586C14.208,17.037,14,16.535,14,16
				c0-0.24,0.045-0.473,0.126-0.692l0.473-0.707l0.688-0.459c0.715-0.259,1.572-0.111,2.127,0.444C17.792,14.963,18,15.465,18,16
				C18,16.24,17.955,16.473,17.874,16.691z M16,0C7.178,0,0,7.178,0,16s7.178,16,16,16c8.822,0,16-7.178,16-16S24.822,0,16,0z
				 M16,30C8.28,30,2,23.721,2,16C2,8.28,8.28,2,16,2c7.721,0,14,6.28,14,14C30,23.721,23.721,30,16,30z M16,6c0.553,0,1-0.448,1-1
				s-0.447-1-1-1s-1,0.448-1,1S15.447,6,16,6z M16,26c-0.553,0-1,0.447-1,1c0,0.552,0.447,1,1,1s1-0.448,1-1
				C17,26.447,16.553,26,16,26z M27,15c-0.553,0-1,0.447-1,1s0.447,1,1,1s1-0.447,1-1S27.553,15,27,15z M5,15c-0.553,0-1,0.447-1,1
				s0.447,1,1,1s1-0.447,1-1S5.553,15,5,15z"/>
		</g>
	</g>
</g>
<g>
</g>
<g>
</g>
<g>
</g>
<g>
</g>
<g>
</g>
<g>
</g>
<g>
</g>
<g>
</g>
<g>
</g>
<g>
</g>
<g>
</g>
<g>
</g>
<g>
</g>
<g>
</g>
<g>
</g>
</svg>
