<?xml version="1.0" encoding="iso-8859-1"?>
<!-- Generator: Adobe Illustrator 16.0.0, SVG Export Plug-In . SVG Version: 6.00 Build 0)  -->
<!DOCTYPE svg PUBLIC "-//W3C//DTD SVG 1.1//EN" "http://www.w3.org/Graphics/SVG/1.1/DTD/svg11.dtd">
<svg version="1.1" id="Capa_1" xmlns="http://www.w3.org/2000/svg" xmlns:xlink="http://www.w3.org/1999/xlink" x="0px" y="0px"
	 width="32px" height="32px" viewBox="0 0 32 32" style="enable-background:new 0 0 32 32;" xml:space="preserve">
<g>
	<g id="Crop">
		<g>
			<path d="M31,23h-6V10c0-0.646-0.211-1.242-0.561-1.733l6.914-6.913c0.193-0.195,0.193-0.512,0-0.707
				c-0.195-0.195-0.514-0.195-0.707,0l-6.914,6.914C23.242,7.211,22.646,7,22,7H9V1c0-0.553-0.447-1-1-1S7,0.447,7,1v6H1
				C0.447,7,0,7.447,0,8c0,0.552,0.447,1,1,1h6v13c0,1.654,1.346,3,3,3h13v6c0,0.552,0.447,1,1,1s1-0.448,1-1v-6h6
				c0.553,0,1-0.448,1-1C32,23.447,31.553,23,31,23z M9,22V10c0-0.553,0.447-1,1-1h12c0.086,0,0.164,0.028,0.244,0.049L9.049,22.244
				C9.028,22.163,9,22.086,9,22z M23,22c0,0.553-0.447,1-1,1H10c-0.086,0-0.164-0.029-0.244-0.05L22.951,9.756
				C22.973,9.837,23,9.914,23,10V22z"/>
		</g>
	</g>
</g>
<g>
</g>
<g>
</g>
<g>
</g>
<g>
</g>
<g>
</g>
<g>
</g>
<g>
</g>
<g>
</g>
<g>
</g>
<g>
</g>
<g>
</g>
<g>
</g>
<g>
</g>
<g>
</g>
<g>
</g>
</svg>
