<?xml version="1.0" encoding="iso-8859-1"?>
<!-- Generator: Adobe Illustrator 16.0.0, SVG Export Plug-In . SVG Version: 6.00 Build 0)  -->
<!DOCTYPE svg PUBLIC "-//W3C//DTD SVG 1.1//EN" "http://www.w3.org/Graphics/SVG/1.1/DTD/svg11.dtd">
<svg version="1.1" id="Capa_1" xmlns="http://www.w3.org/2000/svg" xmlns:xlink="http://www.w3.org/1999/xlink" x="0px" y="0px"
	 width="32px" height="32px" viewBox="0 0 32 32" style="enable-background:new 0 0 32 32;" xml:space="preserve">
<g>
	<g id="Crown">
		<g>
			<path d="M31.74,16.157l-3.396-8.49C29.32,7.173,30,6.169,30,5c0-1.654-1.346-3-3-3s-3,1.346-3,3c0,1.169,0.68,2.173,1.656,2.667
				l-2.29,5.725c-1.048-0.114-2.082-0.195-3.034-0.253l-2.988-7.471C18.32,5.173,19,4.169,19,3c0-1.654-1.346-3-3-3
				c-1.654,0-3,1.346-3,3c0,1.169,0.679,2.173,1.656,2.667l-2.988,7.472c-0.952,0.058-1.986,0.139-3.034,0.253l-2.29-5.725
				C7.321,7.173,8,6.169,8,5c0-1.654-1.346-3-3-3S2,3.346,2,5c0,1.169,0.679,2.173,1.656,2.667l-3.396,8.49
				C0.097,16.417,0,16.695,0,17v11c0,3.889,14.362,4,16,4c1.639,0,16-0.111,16-4V17C32,16.695,31.902,16.417,31.74,16.157z M27,4
				c0.552,0,1,0.448,1,1s-0.448,1-1,1s-1-0.448-1-1S26.448,4,27,4z M27,9.693l1.898,4.746c-1.028-0.329-2.229-0.584-3.485-0.78
				L27,9.693z M16,2c0.552,0,1,0.448,1,1s-0.448,1-1,1s-1-0.448-1-1S15.448,2,16,2z M16,7.693l2.139,5.345
				C17.089,13.004,16.312,13,16,13s-1.089,0.004-2.138,0.038L16,7.693z M5,4c0.552,0,1,0.448,1,1S5.552,6,5,6S4,5.552,4,5
				S4.448,4,5,4z M5,9.693l1.587,3.966c-1.256,0.196-2.457,0.451-3.485,0.78L5,9.693z M16,30c-8.222,0-12.905-1.242-13.883-2
				C3.095,27.242,7.778,26,16,26c8.223,0,12.904,1.242,13.883,2C28.904,28.758,24.223,30,16,30z M30,25.854
				C25.995,24.068,17.256,24,16,24s-9.995,0.068-14,1.854v-8.66l0.052-0.131C2.836,16.312,7.54,15,16,15s13.164,1.312,13.948,2.062
				L30,17.193V25.854z M8.01,20.45c-0.54,0.069-0.93,0.569-0.86,1.118c0.061,0.5,0.49,0.871,0.99,0.871h0.12
				c0.55-0.069,0.94-0.569,0.87-1.121C9.06,20.77,8.56,20.38,8.01,20.45z M23.979,20.45c-0.549-0.07-1.049,0.319-1.119,0.868
				c-0.068,0.552,0.32,1.052,0.869,1.121h0.121c0.5,0,0.93-0.371,1-0.871C24.91,21.02,24.52,20.52,23.979,20.45z M4.02,21.16
				c-0.54,0.14-0.859,0.68-0.729,1.22c0.12,0.45,0.52,0.75,0.97,0.75c0.08,0,0.17-0.01,0.25-0.03c0.53-0.129,0.86-0.68,0.72-1.209
				C5.1,21.35,4.56,21.029,4.02,21.16z M12,20.1c0.01,0.01,0.01,0.01,0.01,0.01c-0.56,0.031-0.979,0.5-0.95,1.053
				c0.03,0.527,0.471,0.938,1,0.938h0.05c0.551-0.029,0.98-0.5,0.95-1.05C13.03,20.5,12.56,20.068,12,20.1z M16,20
				c-0.561,0-1.01,0.45-1.01,1s0.449,1,1.01,1c0.55,0,1-0.45,1-1S16.55,20,16,20z M27.971,21.16
				c-0.531-0.131-1.07,0.189-1.211,0.729c-0.13,0.53,0.19,1.08,0.73,1.211c0.078,0.021,0.158,0.029,0.238,0.029
				c0.451,0,0.859-0.3,0.972-0.76C28.83,21.84,28.51,21.29,27.971,21.16z M19.979,20.1c0.013,0.01,0.013,0.01,0.013,0.01
				c-0.562-0.039-1.03,0.393-1.062,0.94c-0.031,0.55,0.399,1.021,0.949,1.05h0.061c0.521,0,0.959-0.41,0.99-0.938
				C20.96,20.609,20.54,20.13,19.979,20.1z M23.979,17.45c-0.549-0.07-1.049,0.319-1.119,0.868c-0.068,0.552,0.32,1.052,0.869,1.121
				h0.121c0.5,0,0.93-0.371,1-0.871C24.91,18.02,24.52,17.52,23.979,17.45z M19.99,17.1c-0.561-0.02-1.03,0.4-1.061,0.95
				c-0.031,0.55,0.398,1.021,0.948,1.05h0.052c0.528,0,0.969-0.41,1-0.938C20.96,17.6,20.54,17.13,19.99,17.1z M27.971,18.16
				c-0.531-0.141-1.08,0.189-1.211,0.729c-0.13,0.53,0.19,1.08,0.73,1.211c0.078,0.021,0.158,0.029,0.238,0.029
				c0.451,0,0.859-0.3,0.972-0.76C28.83,18.84,28.51,18.29,27.971,18.16z M12.006,17.102c-0.558,0.031-0.976,0.5-0.946,1.061
				c0.03,0.527,0.471,0.938,1,0.938h0.05c0.561-0.029,0.98-0.5,0.95-1.05C13.03,17.502,12.562,17.074,12.006,17.102z M16,17
				c-0.01,0-0.01,0-0.01,0c-0.551,0-1,0.45-0.99,1c0,0.55,0.439,1,1,1c0.55,0,1-0.45,1-1S16.55,17,16,17z M12,17.1
				c0.002,0,0.004,0.002,0.006,0.002s0.003-0.002,0.003-0.002S12.01,17.1,12,17.1z M4.02,18.16c-0.54,0.14-0.859,0.68-0.729,1.22
				c0.12,0.45,0.52,0.75,0.97,0.75c0.08,0,0.16-0.01,0.25-0.03c0.53-0.129,0.86-0.68,0.72-1.209C5.1,18.35,4.55,18.029,4.02,18.16z
				 M8.02,17.45c-0.01,0-0.01,0-0.01,0c-0.54,0.069-0.93,0.569-0.86,1.118c0.061,0.5,0.49,0.871,0.99,0.871h0.12
				c0.55-0.069,0.94-0.569,0.87-1.121C9.06,17.77,8.56,17.38,8.02,17.45z"/>
		</g>
	</g>
</g>
<g>
</g>
<g>
</g>
<g>
</g>
<g>
</g>
<g>
</g>
<g>
</g>
<g>
</g>
<g>
</g>
<g>
</g>
<g>
</g>
<g>
</g>
<g>
</g>
<g>
</g>
<g>
</g>
<g>
</g>
</svg>
