<?xml version="1.0" encoding="iso-8859-1"?>
<!-- Generator: Adobe Illustrator 16.0.0, SVG Export Plug-In . SVG Version: 6.00 Build 0)  -->
<!DOCTYPE svg PUBLIC "-//W3C//DTD SVG 1.1//EN" "http://www.w3.org/Graphics/SVG/1.1/DTD/svg11.dtd">
<svg version="1.1" id="Capa_1" xmlns="http://www.w3.org/2000/svg" xmlns:xlink="http://www.w3.org/1999/xlink" x="0px" y="0px"
	 width="32px" height="32px" viewBox="0 0 32 32" style="enable-background:new 0 0 32 32;" xml:space="preserve">
<g>
	<g id="Reload">
		<g>
			<path d="M16,6.001V9c0,0.369,0.203,0.708,0.527,0.883c0.147,0.078,0.311,0.118,0.473,0.118c0.193,0,0.387-0.057,0.555-0.168
				l6-4.001C23.833,5.646,24,5.335,24,5.001c0-0.335-0.167-0.646-0.445-0.832l-6-4c-0.307-0.206-0.703-0.225-1.025-0.05
				C16.203,0.293,16,0.632,16,1.001v3c-6.617,0-12,5.383-12,12c0,0.552,0.448,1,1,1s1-0.448,1-1C6,10.486,10.486,6.001,16,6.001z
				 M18,2.869l3.197,2.132L18,7.132V2.869z M27,15.001c-0.552,0-1,0.447-1,1c0,5.516-4.486,10-10,10V23
				c0-0.369-0.203-0.707-0.528-0.882c-0.325-0.175-0.72-0.155-1.026,0.05l-6,4C8.167,26.354,8,26.666,8,27s0.167,0.646,0.445,0.832
				l6,4C14.613,31.943,14.806,32,15,32c0.162,0,0.324-0.039,0.472-0.118C15.797,31.708,16,31.369,16,31v-3
				c6.617,0,12-5.383,12-11.999C28,15.448,27.552,15.001,27,15.001z M14,29.131L10.803,27L14,24.869V29.131z"/>
		</g>
	</g>
</g>
<g>
</g>
<g>
</g>
<g>
</g>
<g>
</g>
<g>
</g>
<g>
</g>
<g>
</g>
<g>
</g>
<g>
</g>
<g>
</g>
<g>
</g>
<g>
</g>
<g>
</g>
<g>
</g>
<g>
</g>
</svg>
