<?xml version="1.0" encoding="iso-8859-1"?>
<!-- Generator: Adobe Illustrator 16.0.0, SVG Export Plug-In . SVG Version: 6.00 Build 0)  -->
<!DOCTYPE svg PUBLIC "-//W3C//DTD SVG 1.1//EN" "http://www.w3.org/Graphics/SVG/1.1/DTD/svg11.dtd">
<svg version="1.1" id="Capa_1" xmlns="http://www.w3.org/2000/svg" xmlns:xlink="http://www.w3.org/1999/xlink" x="0px" y="0px"
	 width="32px" height="32px" viewBox="0 0 32 32" style="enable-background:new 0 0 32 32;" xml:space="preserve">
<g>
	<g id="Shape_286">
		<g>
			<path d="M16,0C7.178,0,0,7.178,0,16s7.178,16,16,16c8.822,0,16-7.178,16-16v-0.001C32,7.178,24.822,0,16,0z M29.216,11.424
				l-5.812,1.557c-0.012-0.027-0.021-0.056-0.031-0.083l5.205-3.005C28.82,10.388,29.034,10.897,29.216,11.424z M27.588,8.154
				l-5.225,3.017c-0.018-0.022-0.034-0.046-0.053-0.069l2.172-2.171c0-0.001,0.002-0.001,0.002-0.002
				c0.002-0.001,0.002-0.002,0.002-0.003l2.082-2.081C26.93,7.264,27.275,7.695,27.588,8.154z M16,19
				c-1.37,0-2.083,0.761-2.604,1.314c-0.324,0.346-0.522,0.545-0.785,0.633c-0.891-0.613-1.605-1.461-2.061-2.452
				C10.978,18.781,11.518,19,12.249,19c1.371,0,2.084-0.761,2.605-1.316C15.299,17.21,15.517,17,16,17s0.701,0.21,1.146,0.684
				C17.667,18.239,18.38,19,19.751,19c0.731,0,1.271-0.219,1.699-0.505c-0.456,0.991-1.169,1.839-2.062,2.452
				c-0.264-0.088-0.462-0.287-0.785-0.633C18.083,19.761,17.37,19,16,19z M17.307,21.854C16.885,21.945,16.449,22,16,22
				s-0.885-0.055-1.306-0.146c0.055-0.059,0.109-0.113,0.16-0.17C15.299,21.21,15.517,21,16,21s0.701,0.21,1.146,0.684
				C17.195,21.738,17.25,21.795,17.307,21.854z M11.102,22.311C12.457,23.365,14.154,24,16,24c1.846,0,3.542-0.635,4.896-1.688
				l1.432,1.431c-3.668,3.003-8.989,3.002-12.657,0L11.102,22.311z M20.895,16.316C20.451,16.791,20.234,17,19.751,17
				s-0.702-0.21-1.147-0.686C18.083,15.76,17.37,15,16,15s-2.083,0.76-2.604,1.314C12.951,16.79,12.733,17,12.249,17
				c-0.483,0-0.7-0.209-1.144-0.684c-0.281-0.301-0.617-0.648-1.075-0.914c0.039-0.389,0.116-0.766,0.225-1.128
				C10.722,14.663,11.339,15,12.249,15c1.371,0,2.084-0.761,2.605-1.316C15.299,13.21,15.517,13,16,13s0.701,0.21,1.146,0.684
				C17.667,14.239,18.38,15,19.751,15c0.91,0,1.526-0.337,1.994-0.725c0.108,0.362,0.187,0.739,0.226,1.128
				C21.512,15.668,21.176,16.016,20.895,16.316z M11.2,12.414C12.295,10.952,14.036,10,16,10s3.705,0.952,4.8,2.414
				C20.422,12.812,20.195,13,19.751,13c-0.483,0-0.702-0.21-1.147-0.685C18.083,11.76,17.37,11,16,11s-2.083,0.76-2.604,1.315
				C12.951,12.79,12.733,13,12.249,13C11.805,13,11.578,12.812,11.2,12.414z M20.896,9.688C19.542,8.634,17.846,8,16,8
				c-1.846,0-3.542,0.634-4.897,1.688l-1.431-1.43c3.668-3.002,8.987-3.002,12.656-0.001L20.896,9.688z M16,2
				c3.5,0,6.695,1.301,9.154,3.432l-1.412,1.411C19.286,3.071,12.714,3.071,8.257,6.844L6.846,5.432C9.303,3.301,12.5,2,16,2z
				 M5.432,6.846l4.257,4.257c-0.018,0.022-0.034,0.046-0.052,0.069L4.412,8.155C4.723,7.695,5.069,7.264,5.432,6.846z M3.422,9.894
				l5.205,3.005c-0.012,0.027-0.02,0.056-0.031,0.084l-5.812-1.559C2.966,10.898,3.18,10.389,3.422,9.894z M2.259,13.354l5.824,1.56
				C8.079,14.943,8.073,14.972,8.069,15H2.051C2.09,14.442,2.155,13.893,2.259,13.354z M2.051,17H8.07
				c0.004,0.029,0.009,0.057,0.013,0.086l-5.824,1.561C2.155,18.107,2.09,17.559,2.051,17z M2.784,20.576l5.812-1.557
				c0.011,0.025,0.02,0.056,0.031,0.082l-5.205,3.004C3.18,21.611,2.966,21.102,2.784,20.576z M4.411,23.846l5.226-3.018
				c0.017,0.023,0.034,0.046,0.051,0.068l-4.256,4.256C5.069,24.736,4.723,24.305,4.411,23.846z M16,30
				c-3.501,0-6.697-1.301-9.155-3.432l1.412-1.412c2.229,1.887,4.983,2.838,7.743,2.838c2.759,0,5.514-0.951,7.743-2.838
				l1.411,1.412C22.697,28.7,19.5,30,16,30z M26.568,25.154l-4.258-4.258c0.019-0.021,0.035-0.045,0.051-0.067l5.227,3.017
				C27.275,24.305,26.932,24.736,26.568,25.154z M28.578,22.107l-5.205-3.006c0.011-0.025,0.02-0.057,0.029-0.082l5.812,1.557
				C29.034,21.104,28.82,21.611,28.578,22.107z M29.741,18.646l-5.824-1.562c0.004-0.028,0.009-0.06,0.013-0.087h6.021
				C29.91,17.559,29.846,18.107,29.741,18.646z M23.932,15c-0.005-0.029-0.01-0.058-0.014-0.086l5.824-1.561
				c0.104,0.538,0.168,1.089,0.208,1.646L23.932,15L23.932,15z"/>
		</g>
	</g>
</g>
<g>
</g>
<g>
</g>
<g>
</g>
<g>
</g>
<g>
</g>
<g>
</g>
<g>
</g>
<g>
</g>
<g>
</g>
<g>
</g>
<g>
</g>
<g>
</g>
<g>
</g>
<g>
</g>
<g>
</g>
</svg>
