<?xml version="1.0" encoding="iso-8859-1"?>
<!-- Generator: Adobe Illustrator 16.0.0, SVG Export Plug-In . SVG Version: 6.00 Build 0)  -->
<!DOCTYPE svg PUBLIC "-//W3C//DTD SVG 1.1//EN" "http://www.w3.org/Graphics/SVG/1.1/DTD/svg11.dtd">
<svg version="1.1" id="Capa_1" xmlns="http://www.w3.org/2000/svg" xmlns:xlink="http://www.w3.org/1999/xlink" x="0px" y="0px"
	 width="32px" height="32px" viewBox="0 0 32 32" style="enable-background:new 0 0 32 32;" xml:space="preserve">
<g>
	<g id="Paper">
		<g>
			<path d="M25.25,6h-2.5C22.337,6,22,5.607,22,5.125v-2.25C22,1.289,20.768,0,19.25,0H6.75C5.233,0,4,1.289,4,2.875v26.25
				C4,30.71,5.233,32,6.75,32h18.5c1.518,0,2.75-1.29,2.75-2.875V8.875C28,7.289,26.768,6,25.25,6z M26,29.125
				C26,29.607,25.663,30,25.25,30H6.75C6.337,30,6,29.607,6,29.125V2.875C6,2.393,6.337,2,6.75,2h12.5C19.663,2,20,2.393,20,2.875
				v2.25C20,6.711,21.232,8,22.75,8h2.5C25.663,8,26,8.393,26,8.875V29.125z M9,10h8c0.553,0,1-0.447,1-1s-0.447-1-1-1H9
				C8.447,8,8,8.447,8,9S8.447,10,9,10z M23,12H9c-0.553,0-1,0.447-1,1s0.447,1,1,1h14c0.553,0,1-0.447,1-1S23.553,12,23,12z M23,16
				H9c-0.553,0-1,0.447-1,1s0.447,1,1,1h14c0.553,0,1-0.447,1-1S23.553,16,23,16z M23,20H9c-0.553,0-1,0.447-1,1
				c0,0.552,0.447,1,1,1h14c0.553,0,1-0.448,1-1C24,20.447,23.553,20,23,20z M23,24H9c-0.553,0-1,0.447-1,1c0,0.552,0.447,1,1,1h14
				c0.553,0,1-0.448,1-1C24,24.447,23.553,24,23,24z"/>
		</g>
	</g>
</g>
<g>
</g>
<g>
</g>
<g>
</g>
<g>
</g>
<g>
</g>
<g>
</g>
<g>
</g>
<g>
</g>
<g>
</g>
<g>
</g>
<g>
</g>
<g>
</g>
<g>
</g>
<g>
</g>
<g>
</g>
</svg>
