<?xml version="1.0" encoding="iso-8859-1"?>
<!-- Generator: Adobe Illustrator 16.0.0, SVG Export Plug-In . SVG Version: 6.00 Build 0)  -->
<!DOCTYPE svg PUBLIC "-//W3C//DTD SVG 1.1//EN" "http://www.w3.org/Graphics/SVG/1.1/DTD/svg11.dtd">
<svg version="1.1" id="Capa_1" xmlns="http://www.w3.org/2000/svg" xmlns:xlink="http://www.w3.org/1999/xlink" x="0px" y="0px"
	 width="32px" height="32px" viewBox="0 0 32 32" style="enable-background:new 0 0 32 32;" xml:space="preserve">
<g>
	<g id="Dollar">
		<g>
			<path d="M22.938,19.277c-0.207-0.569-0.537-1.17-1-1.812c-0.24-0.312-0.498-0.631-0.773-0.954
				c-0.299-0.35-0.648-0.712-1.02-1.054c-0.369-0.365-0.754-0.71-1.144-1.024c-0.317-0.258-0.615-0.494-0.974-0.777
				c-0.651-0.524-1.192-0.982-1.626-1.372c-0.378-0.344-0.685-0.667-0.926-0.984c-0.244-0.302-0.402-0.559-0.537-0.896
				c-0.058-0.114-0.083-0.232-0.083-0.383c0-0.122,0.022-0.232,0.066-0.327c0.087-0.188,0.21-0.324,0.407-0.449
				c0.375-0.243,0.771-0.246,1.091-0.118c0.226,0.089,0.409,0.222,0.493,0.317c0.135,0.205,0.195,0.383,0.195,0.577
				c0,0.83,0.332,1.579,0.965,2.165c1.213,1.121,3.178,1.124,4.395-0.002c0.631-0.585,0.963-1.333,0.963-2.163
				c0-0.973-0.191-1.907-0.592-2.82c-0.617-1.249-1.527-2.265-2.707-3.021c-0.951-0.602-2.002-0.97-3.133-1.11V1
				c0-0.552-0.447-1-1-1c-0.553,0-1,0.448-1,1v2.063c-0.67,0.08-1.304,0.236-1.88,0.478c-1.293,0.495-2.406,1.33-3.345,2.531
				c-0.39,0.565-0.7,1.183-0.923,1.831C8.618,8.574,8.5,9.287,8.5,10.021c0,0.904,0.198,1.837,0.592,2.774
				c0.458,1.078,1.198,2.131,2.167,3.094c0.421,0.462,0.885,0.905,1.383,1.322l1.34,1.113c0.679,0.529,1.202,0.973,1.604,1.355
				c0.385,0.363,0.721,0.719,0.959,1.006c0.225,0.284,0.381,0.543,0.512,0.873c0.059,0.113,0.084,0.24,0.084,0.39
				c0,0.139-0.022,0.261-0.059,0.341c-0.088,0.186-0.227,0.338-0.41,0.463c-0.186,0.119-0.382,0.172-0.639,0.172
				c-0.179,0-0.35-0.027-0.467-0.07c-0.212-0.088-0.392-0.224-0.482-0.332c-0.175-0.263-0.195-0.435-0.195-0.541
				c0-0.85-0.333-1.607-0.966-2.196c-1.211-1.12-3.176-1.124-4.399,0.008c-0.626,0.588-0.957,1.347-0.957,2.188
				c0,0.957,0.192,1.879,0.581,2.766c0.595,1.264,1.511,2.288,2.713,3.041c0.968,0.617,2.021,0.998,3.139,1.145V31
				c0,0.553,0.447,1,1,1c0.553,0,1-0.447,1-1v-2.07c0.637-0.082,1.279-0.24,1.932-0.49c1.326-0.562,2.412-1.403,3.23-2.502
				c0.889-1.197,1.338-2.528,1.338-3.957C23.499,21.077,23.304,20.152,22.938,19.277z M20.554,24.745
				c-0.602,0.807-1.409,1.431-2.37,1.84c-1.861,0.711-3.719,0.492-5.252-0.489c-0.881-0.551-1.545-1.293-1.963-2.18
				c-0.267-0.605-0.402-1.258-0.402-1.936c0-0.295,0.101-0.521,0.321-0.729c0.24-0.224,0.508-0.326,0.841-0.326
				c0.332,0,0.598,0.104,0.835,0.321c0.225,0.211,0.325,0.438,0.325,0.73c0,0.565,0.178,1.121,0.582,1.722
				c0.355,0.442,0.802,0.778,1.366,1.015c0.959,0.354,2.062,0.268,2.939-0.295c0.494-0.338,0.867-0.763,1.125-1.297
				c0.158-0.366,0.24-0.762,0.24-1.176c0-0.453-0.099-0.883-0.257-1.192c-0.17-0.438-0.422-0.864-0.784-1.323
				c-0.308-0.371-0.688-0.775-1.138-1.199c-0.446-0.429-1.021-0.912-1.728-1.463l-1.314-1.094c-0.426-0.357-0.825-0.739-1.219-1.169
				c-0.818-0.815-1.414-1.653-1.77-2.489C10.646,11.33,10.5,10.658,10.5,10.02c0-0.511,0.081-1.002,0.242-1.464
				c0.164-0.48,0.393-0.935,0.643-1.301c0.677-0.861,1.499-1.482,2.478-1.857C14.492,5.134,15.199,5,15.963,5
				c1.143,0,2.186,0.293,3.094,0.866c0.865,0.555,1.533,1.302,1.967,2.177c0.271,0.617,0.406,1.281,0.406,1.978
				c0,0.274-0.1,0.489-0.322,0.696c-0.479,0.445-1.201,0.44-1.676,0.002c-0.225-0.209-0.324-0.424-0.324-0.698
				c0-0.585-0.178-1.15-0.584-1.757c-0.356-0.442-0.815-0.778-1.364-0.996c-0.913-0.365-2.013-0.288-2.909,0.293
				c-0.51,0.323-0.894,0.756-1.143,1.291c-0.167,0.363-0.252,0.756-0.252,1.169c0,0.458,0.099,0.889,0.255,1.189
				c0.171,0.444,0.437,0.885,0.794,1.325c0.301,0.395,0.678,0.796,1.155,1.23c0.459,0.414,1.03,0.898,1.755,1.479
				c0.321,0.255,0.612,0.486,0.928,0.74c0.338,0.274,0.674,0.575,1.021,0.917c0.334,0.312,0.629,0.615,0.879,0.908
				c0.254,0.297,0.489,0.588,0.69,0.85c0.336,0.467,0.578,0.902,0.737,1.348c0.283,0.674,0.429,1.338,0.429,1.977
				C21.499,22.969,21.182,23.898,20.554,24.745z"/>
		</g>
	</g>
</g>
<g>
</g>
<g>
</g>
<g>
</g>
<g>
</g>
<g>
</g>
<g>
</g>
<g>
</g>
<g>
</g>
<g>
</g>
<g>
</g>
<g>
</g>
<g>
</g>
<g>
</g>
<g>
</g>
<g>
</g>
</svg>
