<?xml version="1.0" encoding="iso-8859-1"?>
<!-- Generator: Adobe Illustrator 16.0.0, SVG Export Plug-In . SVG Version: 6.00 Build 0)  -->
<!DOCTYPE svg PUBLIC "-//W3C//DTD SVG 1.1//EN" "http://www.w3.org/Graphics/SVG/1.1/DTD/svg11.dtd">
<svg version="1.1" id="Capa_1" xmlns="http://www.w3.org/2000/svg" xmlns:xlink="http://www.w3.org/1999/xlink" x="0px" y="0px"
	 width="32px" height="32px" viewBox="0 0 32 32" style="enable-background:new 0 0 32 32;" xml:space="preserve">
<g>
	<g id="Ribbon">
		<g>
			<path d="M21.25,0h-10.5C9.233,0,8,1.289,8,2.875V29c0,1.654,1.346,3,3,3s3-1.346,3-3c0-1.104,0.897-2,2-2c1.104,0,2,0.896,2,2
				c0,1.654,1.346,3,3,3s3-1.346,3-3V2.875C24,1.289,22.768,0,21.25,0z M22,29c0,0.552-0.448,1-1,1s-1-0.448-1-1
				c0-2.205-1.794-4-4-4s-4,1.795-4,4c0,0.552-0.448,1-1,1s-1-0.448-1-1V2.875C10,2.393,10.336,2,10.75,2h10.5
				C21.664,2,22,2.393,22,2.875V29z M16,4c-2.208,0-4,1.791-4,4s1.792,4,4,4s4-1.791,4-4S18.208,4,16,4z M16,10
				c-1.103,0-2-0.897-2-2s0.897-2,2-2c1.104,0,2,0.897,2,2S17.104,10,16,10z"/>
		</g>
	</g>
</g>
<g>
</g>
<g>
</g>
<g>
</g>
<g>
</g>
<g>
</g>
<g>
</g>
<g>
</g>
<g>
</g>
<g>
</g>
<g>
</g>
<g>
</g>
<g>
</g>
<g>
</g>
<g>
</g>
<g>
</g>
</svg>
