<?xml version="1.0" encoding="iso-8859-1"?>
<!-- Generator: Adobe Illustrator 16.0.0, SVG Export Plug-In . SVG Version: 6.00 Build 0)  -->
<!DOCTYPE svg PUBLIC "-//W3C//DTD SVG 1.1//EN" "http://www.w3.org/Graphics/SVG/1.1/DTD/svg11.dtd">
<svg version="1.1" id="Capa_1" xmlns="http://www.w3.org/2000/svg" xmlns:xlink="http://www.w3.org/1999/xlink" x="0px" y="0px"
	 width="32.037px" height="32.037px" viewBox="0 0 32.037 32.037" style="enable-background:new 0 0 32.037 32.037;"
	 xml:space="preserve">
<g>
	<g id="Shuffle_x5F_1">
		<g>
			<path d="M29.142,6.829c-0.314-0.45-0.939-0.562-1.395-0.243c-0.451,0.317-0.562,0.941-0.242,1.394
				c3.379,4.81,3.379,11.274-0.002,16.084c-0.318,0.453-0.209,1.076,0.242,1.396c0.176,0.123,0.377,0.182,0.573,0.182
				c0.313,0,0.625-0.146,0.82-0.425C33.003,19.716,33.003,12.327,29.142,6.829z M7.396,4.713c0.197,0,0.398-0.059,0.572-0.182
				c4.777-3.353,11.209-3.376,16.004-0.061c0.453,0.313,1.078,0.201,1.391-0.254c0.314-0.454,0.201-1.077-0.254-1.391
				c-5.483-3.79-12.836-3.761-18.29,0.07c-0.45,0.317-0.56,0.941-0.243,1.392C6.771,4.564,7.081,4.713,7.396,4.713z M4.534,7.968
				C4.851,7.516,4.741,6.892,4.29,6.574C3.839,6.256,3.214,6.367,2.896,6.817c-3.86,5.498-3.862,12.886-0.004,18.38
				c0.193,0.277,0.504,0.428,0.818,0.428c0.199,0,0.397-0.061,0.574-0.184c0.45-0.315,0.561-0.939,0.243-1.393
				C1.152,19.241,1.154,12.777,4.534,7.968z M24.068,27.502c-4.815,3.38-11.282,3.378-16.094-0.002
				c-0.451-0.317-1.076-0.207-1.393,0.243c-0.318,0.45-0.209,1.075,0.242,1.394c2.75,1.933,5.975,2.898,9.196,2.898
				c3.223,0,6.445-0.967,9.195-2.896c0.451-0.318,0.561-0.941,0.244-1.394S24.521,27.185,24.068,27.502z M21.499,9.536
				c-3.584,0-6.5,2.916-6.5,6.5c0,2.479-2.021,4.5-4.5,4.5c-2.482,0-4.5-2.021-4.5-4.5c0-1.95,1.235-3.609,3-4.23v1.23
				c0,0.363,0.196,0.698,0.516,0.875c0.15,0.083,0.316,0.125,0.484,0.125c0.184,0,0.367-0.051,0.528-0.152l4-2.5
				c0.293-0.183,0.472-0.503,0.472-0.848c0-0.345-0.179-0.665-0.472-0.848l-4-2.5C10.22,6.994,9.829,6.986,9.515,7.161
				C9.195,7.338,8.999,7.673,8.999,8.036v1.68c-2.902,0.681-5,3.261-5,6.32c0,3.584,2.916,6.5,6.5,6.5s6.5-2.916,6.5-6.5
				c0-2.481,2.018-4.5,4.5-4.5c2.479,0,4.5,2.019,4.5,4.5c0,1.959-1.236,3.61-3,4.229v-1.229c0-0.363-0.197-0.698-0.517-0.875
				c-0.315-0.177-0.707-0.166-1.017,0.026l-4,2.5c-0.291,0.184-0.469,0.502-0.469,0.849c0,0.345,0.178,0.665,0.469,0.848l4,2.5
				c0.162,0.102,0.347,0.152,0.531,0.152c0.166,0,0.334-0.042,0.482-0.125c0.318-0.179,0.518-0.513,0.518-0.875v-1.683
				c2.902-0.677,5-3.246,5-6.317C27.999,12.452,25.083,9.536,21.499,9.536z M10.999,9.841l1.112,0.695l-1.112,0.695V9.841z
				 M20.999,22.23l-1.113-0.694l1.113-0.695V22.23z"/>
		</g>
	</g>
</g>
<g>
</g>
<g>
</g>
<g>
</g>
<g>
</g>
<g>
</g>
<g>
</g>
<g>
</g>
<g>
</g>
<g>
</g>
<g>
</g>
<g>
</g>
<g>
</g>
<g>
</g>
<g>
</g>
<g>
</g>
</svg>
