<?xml version="1.0" encoding="iso-8859-1"?>
<!-- Generator: Adobe Illustrator 16.0.0, SVG Export Plug-In . SVG Version: 6.00 Build 0)  -->
<!DOCTYPE svg PUBLIC "-//W3C//DTD SVG 1.1//EN" "http://www.w3.org/Graphics/SVG/1.1/DTD/svg11.dtd">
<svg version="1.1" id="Capa_1" xmlns="http://www.w3.org/2000/svg" xmlns:xlink="http://www.w3.org/1999/xlink" x="0px" y="0px"
	 width="32px" height="32px" viewBox="0 0 32 32" style="enable-background:new 0 0 32 32;" xml:space="preserve">
<g>
	<g id="Shuffle_x5F_2">
		<g>
			<path d="M23.5,7.5c-4.688,0-8.5,3.813-8.5,8.501c0,3.583-2.916,6.499-6.5,6.499S2,19.584,2,16.001c0-3.415,2.649-6.218,6-6.477
				v2.977c0,0.369,0.203,0.707,0.528,0.881c0.148,0.079,0.31,0.119,0.472,0.119c0.193,0,0.387-0.058,0.555-0.169l6-4
				C15.833,9.146,16,8.835,16,8.5c0-0.334-0.167-0.646-0.445-0.831l-6-4.001C9.247,3.462,8.853,3.444,8.528,3.62
				C8.203,3.793,8,4.132,8,4.5v3.025c-4.454,0.262-8,3.956-8,8.476C0,20.688,3.812,24.5,8.5,24.5s8.5-3.812,8.5-8.499
				c0-3.584,2.916-6.501,6.5-6.501s6.5,2.917,6.5,6.501c0,3.415-2.648,6.218-6,6.476V19.5c0-0.369-0.203-0.707-0.527-0.883
				c-0.326-0.174-0.721-0.154-1.027,0.051l-6,4C16.167,22.854,16,23.167,16,23.5s0.167,0.646,0.445,0.832l6,4
				C22.613,28.444,22.807,28.5,23,28.5c0.162,0,0.324-0.039,0.473-0.117C23.797,28.208,24,27.87,24,27.5v-3.023
				c4.454-0.262,8-3.957,8-8.476C32,11.313,28.188,7.5,23.5,7.5z M10,6.37l3.197,2.13L10,10.632V6.37z M22,25.631L18.803,23.5
				L22,21.37V25.631z"/>
		</g>
	</g>
</g>
<g>
</g>
<g>
</g>
<g>
</g>
<g>
</g>
<g>
</g>
<g>
</g>
<g>
</g>
<g>
</g>
<g>
</g>
<g>
</g>
<g>
</g>
<g>
</g>
<g>
</g>
<g>
</g>
<g>
</g>
</svg>
