<?xml version="1.0" encoding="iso-8859-1"?>
<!-- Generator: Adobe Illustrator 16.0.0, SVG Export Plug-In . SVG Version: 6.00 Build 0)  -->
<!DOCTYPE svg PUBLIC "-//W3C//DTD SVG 1.1//EN" "http://www.w3.org/Graphics/SVG/1.1/DTD/svg11.dtd">
<svg version="1.1" id="Capa_1" xmlns="http://www.w3.org/2000/svg" xmlns:xlink="http://www.w3.org/1999/xlink" x="0px" y="0px"
	 width="32px" height="32px" viewBox="0 0 32 32" style="enable-background:new 0 0 32 32;" xml:space="preserve">
<g>
	<g id="Arrow_x5F_Both_x5F_Sides">
		<g>
			<path d="M30.926,13.38c-0.043-0.043-0.088-0.081-0.137-0.114l-7.666-7.418c-1.135-1.133-3.111-1.133-4.242,0
				c-0.566,0.568-0.879,1.322-0.879,2.124c0,0.802,0.312,1.557,0.865,2.109l2.801,2.91H18c-0.77,0-1.469,0.3-2,0.78
				c-0.533-0.479-1.23-0.78-2-0.78l-3.654-0.013l2.773-2.885c0.566-0.567,0.879-1.321,0.879-2.124c0-0.802-0.312-1.556-0.879-2.122
				c-1.133-1.135-3.121-1.122-4.23-0.013l-7.817,7.563C0.381,14.091,0,15.015,0,15.994c-0.002,0.979,0.381,1.899,1.072,2.594
				c0.043,0.043,0.09,0.081,0.137,0.114l7.668,7.419c0.566,0.565,1.32,0.878,2.121,0.878c0.803,0,1.555-0.312,2.121-0.878
				c0.566-0.567,0.879-1.322,0.879-2.124c0-0.804-0.312-1.558-0.865-2.109l-2.801-2.91H14c0.77,0,1.467-0.301,1.998-0.779
				c0.533,0.479,1.23,0.779,2.002,0.779l3.654,0.014l-2.773,2.885c-0.566,0.566-0.879,1.321-0.879,2.124s0.312,1.557,0.877,2.122
				c0.566,0.566,1.32,0.88,2.121,0.88c0.803,0,1.557-0.312,2.111-0.867l7.812-7.562C31.619,17.876,32,16.955,32,15.977
				C32,14.996,31.619,14.075,30.926,13.38z M14.998,15.99c-0.008,0.543-0.451,0.983-0.998,0.983h-3.668
				c-0.539,0-1.043,0.211-1.418,0.59c-0.375,0.377-0.582,0.879-0.582,1.412c0,0.535,0.207,1.037,0.572,1.402l2.801,2.911
				c0.189,0.188,0.293,0.439,0.293,0.707c0,0.267-0.104,0.519-0.295,0.708c-0.375,0.377-1.023,0.389-1.424-0.015l-7.805-7.551
				c-0.025-0.023-0.053-0.048-0.08-0.07C2.139,16.769,2,16.393,2,15.994c0-0.445,0.172-0.863,0.475-1.166l7.816-7.562
				c0.377-0.377,1.037-0.38,1.414,0c0.189,0.189,0.293,0.439,0.293,0.706s-0.104,0.518-0.307,0.721l-2.775,2.885
				c-0.377,0.378-0.584,0.88-0.584,1.415c0,0.533,0.207,1.035,0.58,1.408c0.377,0.383,0.883,0.594,1.42,0.594H14
				c0.547,0,0.99,0.441,0.998,0.977V15.99z M29.523,17.141l-7.814,7.562c-0.377,0.377-1.037,0.38-1.414,0
				c-0.189-0.189-0.293-0.439-0.293-0.706c0-0.27,0.104-0.52,0.307-0.723l2.773-2.885c0.377-0.379,0.584-0.881,0.584-1.416
				c0-0.533-0.207-1.035-0.578-1.408c-0.379-0.383-0.883-0.594-1.42-0.594H18c-0.549,0-0.994-0.44-1-0.978v-0.016
				c0.01-0.544,0.453-0.985,1-0.985h3.668c0.537,0,1.041-0.211,1.416-0.59c0.375-0.377,0.582-0.879,0.582-1.411
				c0-0.535-0.207-1.037-0.57-1.403l-2.801-2.911c-0.189-0.188-0.293-0.439-0.293-0.706s0.104-0.518,0.293-0.708
				c0.377-0.377,1.027-0.388,1.426,0.013l7.803,7.551c0.027,0.025,0.055,0.048,0.08,0.07c0.258,0.3,0.396,0.679,0.396,1.078
				C30,16.42,29.826,16.838,29.523,17.141z"/>
		</g>
	</g>
</g>
<g>
</g>
<g>
</g>
<g>
</g>
<g>
</g>
<g>
</g>
<g>
</g>
<g>
</g>
<g>
</g>
<g>
</g>
<g>
</g>
<g>
</g>
<g>
</g>
<g>
</g>
<g>
</g>
<g>
</g>
</svg>
