<?xml version="1.0" encoding="iso-8859-1"?>
<!-- Generator: Adobe Illustrator 16.0.0, SVG Export Plug-In . SVG Version: 6.00 Build 0)  -->
<!DOCTYPE svg PUBLIC "-//W3C//DTD SVG 1.1//EN" "http://www.w3.org/Graphics/SVG/1.1/DTD/svg11.dtd">
<svg version="1.1" id="Capa_1" xmlns="http://www.w3.org/2000/svg" xmlns:xlink="http://www.w3.org/1999/xlink" x="0px" y="0px"
	 width="32px" height="32px" viewBox="0 0 32 32" style="enable-background:new 0 0 32 32;" xml:space="preserve">
<g>
	<g id="Download">
		<g>
			<path d="M28,17c-2.206,0-4,1.795-4,4v2c0,0.552-0.448,1-1,1H9c-0.552,0-1-0.448-1-1v-2c0-2.205-1.794-4-4-4s-4,1.795-4,4v8
				c0,1.654,1.346,3,3,3h26c1.654,0,3-1.346,3-3v-8C32,18.795,30.206,17,28,17z M30,29c0,0.552-0.448,1-1,1H3c-0.552,0-1-0.448-1-1
				v-8c0-1.104,0.897-2,2-2s2,0.896,2,2v2c0,1.654,1.346,3,3,3h14c1.654,0,3-1.346,3-3v-2c0-1.104,0.896-2,2-2s2,0.896,2,2V29z
				 M13.447,20.926C14.14,21.618,15.06,22,16.038,22c0.979,0,1.899-0.382,2.592-1.074c0.042-0.043,0.08-0.089,0.113-0.137
				l7.407-7.667c1.133-1.135,1.133-3.111,0-4.242c-0.565-0.566-1.318-0.879-2.119-0.879c-0.803,0-1.555,0.312-2.107,0.865
				l-2.904,2.801V3h0.01c0-1.654-1.346-3-3-3s-3,1.346-3,3h0.012l-0.013,8.653l-2.88-2.773c-0.567-0.567-1.32-0.879-2.122-0.879
				c-0.801,0-1.554,0.312-2.119,0.878C5.342,9.445,5.029,10.198,5.029,11s0.312,1.556,0.866,2.11L13.447,20.926z M7.322,10.294
				c0.188-0.189,0.439-0.293,0.705-0.293c0.267,0,0.518,0.104,0.72,0.307l2.882,2.774c0.377,0.377,0.879,0.584,1.412,0.584
				s1.034-0.207,1.407-0.579c0.382-0.378,0.593-0.883,0.593-1.42V2.999c0-0.466,0.326-0.841,0.752-0.951
				C15.871,2.028,15.945,2,16.029,2c0.026,0,0.049,0.013,0.075,0.015c0.509,0.047,0.914,0.463,0.914,0.984v8.668
				c0,0.538,0.211,1.042,0.59,1.417c0.377,0.375,0.877,0.582,1.408,0.582c0.534,0,1.036-0.207,1.401-0.571l2.907-2.801
				c0.188-0.189,0.439-0.293,0.705-0.293c0.267,0,0.518,0.104,0.707,0.294c0.377,0.377,0.388,1.026-0.014,1.425l-7.539,7.804
				c-0.024,0.025-0.05,0.054-0.07,0.08C16.814,19.859,16.438,20,16.038,20c-0.444,0-0.861-0.174-1.164-0.477l-7.552-7.815
				C6.945,11.332,6.943,10.671,7.322,10.294z"/>
		</g>
	</g>
</g>
<g>
</g>
<g>
</g>
<g>
</g>
<g>
</g>
<g>
</g>
<g>
</g>
<g>
</g>
<g>
</g>
<g>
</g>
<g>
</g>
<g>
</g>
<g>
</g>
<g>
</g>
<g>
</g>
<g>
</g>
</svg>
