<?xml version="1.0" encoding="iso-8859-1"?>
<!-- Generator: Adobe Illustrator 16.0.0, SVG Export Plug-In . SVG Version: 6.00 Build 0)  -->
<!DOCTYPE svg PUBLIC "-//W3C//DTD SVG 1.1//EN" "http://www.w3.org/Graphics/SVG/1.1/DTD/svg11.dtd">
<svg version="1.1" id="Capa_1" xmlns="http://www.w3.org/2000/svg" xmlns:xlink="http://www.w3.org/1999/xlink" x="0px" y="0px"
	 width="32.024px" height="32.023px" viewBox="0 0 32.024 32.023" style="enable-background:new 0 0 32.024 32.023;"
	 xml:space="preserve">
<g>
	<g id="Eject">
		<g>
			<path d="M11.105,16.583c-0.028,0.062-0.036,0.125-0.052,0.19s-0.038,0.131-0.04,0.197c0,0.012-0.006,0.021-0.006,0.029
				c0,0.05,0.021,0.092,0.028,0.141c0.011,0.072,0.017,0.146,0.043,0.213c0.022,0.062,0.06,0.11,0.093,0.166
				c0.033,0.057,0.063,0.109,0.107,0.158c0.049,0.055,0.109,0.092,0.169,0.135c0.04,0.025,0.068,0.063,0.113,0.088
				c0.01,0.005,0.021,0.004,0.029,0.008c0.063,0.029,0.133,0.038,0.203,0.054c0.062,0.017,0.12,0.036,0.182,0.038
				c0.013,0.001,0.022,0.006,0.034,0.006h8.008c0.003,0,0.003,0,0.003,0h0.006c0.147-0.002,0.287-0.04,0.414-0.099
				c0.01-0.005,0.021-0.003,0.026-0.007c0.045-0.022,0.072-0.062,0.113-0.088c0.059-0.043,0.119-0.08,0.168-0.135
				c0.045-0.049,0.074-0.104,0.107-0.158c0.033-0.056,0.07-0.104,0.094-0.166c0.025-0.067,0.031-0.141,0.043-0.213
				c0.006-0.049,0.027-0.091,0.027-0.141c0-0.011-0.006-0.02-0.006-0.029c-0.002-0.066-0.023-0.132-0.041-0.195
				c-0.016-0.066-0.021-0.133-0.051-0.193c-0.004-0.009-0.004-0.02-0.009-0.027l-4.004-8.039c-0.34-0.683-1.451-0.683-1.792,0
				l-4.005,8.039C11.108,16.562,11.109,16.573,11.105,16.583z M16.012,11.21l2.385,4.786h-4.769L16.012,11.21z M20.016,20.016
				h-8.009c-0.553,0-1.001,0.448-1.001,1.006c0,0.555,0.448,1.004,1.001,1.004h8.009c0.555,0,1.002-0.449,1.002-1.004
				C21.018,20.465,20.571,20.016,20.016,20.016z M18.78,0.016c-0.545-0.097-1.061,0.271-1.154,0.817
				c-0.094,0.549,0.27,1.07,0.812,1.166C25.137,3.181,30,9.025,30,15.897c0,7.783-6.275,14.112-13.989,14.112
				c-7.713,0-13.987-6.327-13.987-14.111c0-6.872,4.863-12.719,11.563-13.9c0.544-0.097,0.906-0.618,0.812-1.166
				c-0.095-0.547-0.613-0.912-1.155-0.817C5.588,1.364,0.028,8.045,0.028,15.898c0,8.893,7.17,16.125,15.984,16.125
				s15.984-7.232,15.984-16.125C31.997,8.045,26.438,1.364,18.78,0.016z"/>
		</g>
	</g>
</g>
<g>
</g>
<g>
</g>
<g>
</g>
<g>
</g>
<g>
</g>
<g>
</g>
<g>
</g>
<g>
</g>
<g>
</g>
<g>
</g>
<g>
</g>
<g>
</g>
<g>
</g>
<g>
</g>
<g>
</g>
</svg>
