<?xml version="1.0" encoding="iso-8859-1"?>
<!-- Generator: Adobe Illustrator 16.0.0, SVG Export Plug-In . SVG Version: 6.00 Build 0)  -->
<!DOCTYPE svg PUBLIC "-//W3C//DTD SVG 1.1//EN" "http://www.w3.org/Graphics/SVG/1.1/DTD/svg11.dtd">
<svg version="1.1" id="Capa_1" xmlns="http://www.w3.org/2000/svg" xmlns:xlink="http://www.w3.org/1999/xlink" x="0px" y="0px"
	 width="32px" height="32px" viewBox="0 0 32 32" style="enable-background:new 0 0 32 32;" xml:space="preserve">
<g>
	<g id="Mail_x5F_1">
		<g>
			<path d="M31.121,0.879C30.555,0.312,29.801,0,29,0H3C2.199,0,1.446,0.312,0.879,0.879C0.312,1.444,0,2.198,0,3v26
				c0,0.204,0.021,0.404,0.061,0.6c0.008,0.037,0.023,0.069,0.032,0.105c0.037,0.156,0.08,0.312,0.143,0.46
				c0.007,0.015,0.016,0.026,0.022,0.041c0.147,0.336,0.354,0.647,0.621,0.916c0.129,0.129,0.271,0.239,0.417,0.342
				c0.01,0.009,0.019,0.017,0.028,0.022c0.139,0.095,0.287,0.171,0.439,0.238c0.024,0.012,0.047,0.027,0.072,0.039
				c0.144,0.062,0.294,0.103,0.446,0.139c0.04,0.012,0.077,0.029,0.118,0.037C2.596,31.979,2.796,32,3,32h26
				c0.204,0,0.404-0.021,0.6-0.061c0.041-0.008,0.078-0.025,0.119-0.037c0.151-0.036,0.303-0.077,0.445-0.139
				c0.025-0.012,0.05-0.027,0.076-0.041c0.15-0.068,0.298-0.144,0.436-0.236c0.01-0.006,0.02-0.017,0.028-0.022
				c0.146-0.103,0.288-0.213,0.417-0.342c0.266-0.267,0.47-0.575,0.617-0.909c0.008-0.018,0.02-0.031,0.025-0.048
				c0.062-0.147,0.104-0.304,0.144-0.459c0.009-0.036,0.024-0.069,0.032-0.106C31.979,29.404,32,29.204,32,29V3
				C32,2.198,31.688,1.444,31.121,0.879z M2,6.242L11.758,16L2,25.76V6.242z M29.922,29.387c-0.05,0.118-0.121,0.229-0.215,0.319
				c-0.094,0.095-0.203,0.166-0.32,0.216C29.268,29.973,29.137,30,29,30H3c-0.137,0-0.268-0.027-0.386-0.078
				c-0.118-0.05-0.228-0.121-0.321-0.216c-0.094-0.093-0.165-0.201-0.215-0.319C2.028,29.27,2,29.137,2,29
				c0-0.266,0.103-0.516,0.289-0.701l10.883-10.885l0.707,0.707C14.445,18.688,15.199,19,16,19s1.555-0.312,2.121-0.879l0.707-0.707
				l10.883,10.885C29.896,28.484,30,28.734,30,29C30,29.137,29.973,29.27,29.922,29.387z M30,25.758L20.242,16L30,6.24V25.758z
				 M29.711,3.701L16.707,16.707c-0.379,0.378-1.035,0.378-1.414,0L2.289,3.701C2.103,3.516,2,3.266,2,3
				c0-0.268,0.104-0.519,0.293-0.706C2.482,2.104,2.733,2,3,2h26c0.268,0,0.518,0.104,0.707,0.294C29.896,2.481,30,2.732,30,3
				C30,3.266,29.896,3.516,29.711,3.701z"/>
		</g>
	</g>
</g>
<g>
</g>
<g>
</g>
<g>
</g>
<g>
</g>
<g>
</g>
<g>
</g>
<g>
</g>
<g>
</g>
<g>
</g>
<g>
</g>
<g>
</g>
<g>
</g>
<g>
</g>
<g>
</g>
<g>
</g>
</svg>
