<?xml version="1.0" encoding="iso-8859-1"?>
<!-- Generator: Adobe Illustrator 16.0.0, SVG Export Plug-In . SVG Version: 6.00 Build 0)  -->
<!DOCTYPE svg PUBLIC "-//W3C//DTD SVG 1.1//EN" "http://www.w3.org/Graphics/SVG/1.1/DTD/svg11.dtd">
<svg version="1.1" id="Capa_1" xmlns="http://www.w3.org/2000/svg" xmlns:xlink="http://www.w3.org/1999/xlink" x="0px" y="0px"
	 width="32px" height="32px" viewBox="0 0 32 32" style="enable-background:new 0 0 32 32;" xml:space="preserve">
<g>
	<g id="Eye">
		<g>
			<path d="M16,8C7.028,8,0,11.515,0,16c0,4.486,7.028,8,16,8c8.973,0,16-3.514,16-8C32,11.515,24.973,8,16,8z M2,16
				c0-2.099,3.151-4.372,8.129-5.415C8.812,12.012,8,13.91,8,16s0.812,3.988,2.129,5.415C5.151,20.372,2,18.1,2,16z M16,22
				c-3.309,0-6-2.691-6-6c0-3.309,2.691-6,6-6c3.309,0,6,2.691,6,6C22,19.309,19.309,22,16,22z M21.871,21.415
				C23.188,19.988,24,18.09,24,16s-0.812-3.988-2.129-5.415C26.85,11.628,30,13.901,30,16C30,18.1,26.85,20.372,21.871,21.415z
				 M16,13c-1.654,0-3,1.346-3,3c0,1.654,1.346,3,3,3c1.654,0,3-1.346,3-3C19,14.346,17.654,13,16,13z M16,17c-0.552,0-1-0.448-1-1
				c0-0.551,0.448-1,1-1s1,0.449,1,1C17,16.552,16.552,17,16,17z"/>
		</g>
	</g>
</g>
<g>
</g>
<g>
</g>
<g>
</g>
<g>
</g>
<g>
</g>
<g>
</g>
<g>
</g>
<g>
</g>
<g>
</g>
<g>
</g>
<g>
</g>
<g>
</g>
<g>
</g>
<g>
</g>
<g>
</g>
</svg>
