<?xml version="1.0" encoding="iso-8859-1"?>
<!-- Generator: Adobe Illustrator 16.0.0, SVG Export Plug-In . SVG Version: 6.00 Build 0)  -->
<!DOCTYPE svg PUBLIC "-//W3C//DTD SVG 1.1//EN" "http://www.w3.org/Graphics/SVG/1.1/DTD/svg11.dtd">
<svg version="1.1" id="Capa_1" xmlns="http://www.w3.org/2000/svg" xmlns:xlink="http://www.w3.org/1999/xlink" x="0px" y="0px"
	 width="32.032px" height="32.032px" viewBox="0 0 32.032 32.032" style="enable-background:new 0 0 32.032 32.032;"
	 xml:space="preserve">
<g>
	<g id="Fast_x5F_Forward">
		<g>
			<path d="M16.002,20.045c0.002,0.066,0.023,0.131,0.04,0.197c0.016,0.064,0.022,0.131,0.052,0.191
				c0.004,0.008,0.003,0.02,0.008,0.026c0.047,0.097,0.109,0.179,0.179,0.248c0.016,0.017,0.033,0.024,0.05,0.039
				c0.07,0.063,0.148,0.117,0.233,0.158c0.029,0.014,0.059,0.026,0.089,0.038c0.109,0.039,0.225,0.068,0.344,0.068c0,0,0,0,0.001,0
				h0.001c0.002,0,0.004,0,0.006,0c0.147-0.002,0.286-0.039,0.413-0.1c0.009-0.004,0.02-0.002,0.025-0.006l8-4
				c0.34-0.17,0.554-0.518,0.554-0.896s-0.214-0.725-0.554-0.895l-8-4c-0.01-0.005-0.021-0.004-0.027-0.008
				c-0.062-0.028-0.128-0.037-0.194-0.053c-0.065-0.015-0.128-0.037-0.192-0.039c-0.01,0-0.021-0.006-0.029-0.006
				c-0.053,0-0.097,0.021-0.146,0.029c-0.069,0.011-0.138,0.017-0.204,0.041c-0.062,0.023-0.115,0.062-0.172,0.097
				c-0.052,0.033-0.104,0.061-0.151,0.103c-0.055,0.05-0.093,0.111-0.135,0.172c-0.026,0.039-0.064,0.067-0.087,0.111
				c-0.005,0.01-0.004,0.021-0.008,0.029c-0.028,0.061-0.036,0.127-0.052,0.192c-0.017,0.065-0.038,0.129-0.04,0.195
				c0,0.011-0.006,0.02-0.006,0.03v2.382l-6.555-3.269c-0.01-0.005-0.021-0.004-0.028-0.008c-0.062-0.028-0.129-0.037-0.193-0.053
				c-0.066-0.015-0.129-0.037-0.193-0.039c-0.012,0-0.021-0.006-0.03-0.006c-0.054,0-0.099,0.021-0.146,0.029
				c-0.068,0.011-0.137,0.017-0.203,0.041c-0.062,0.023-0.117,0.062-0.174,0.098c-0.051,0.032-0.104,0.06-0.15,0.102
				c-0.055,0.05-0.092,0.111-0.135,0.173c-0.026,0.039-0.063,0.066-0.086,0.11c-0.006,0.01-0.004,0.021-0.008,0.029
				c-0.029,0.061-0.037,0.127-0.053,0.192c-0.018,0.065-0.039,0.128-0.041,0.194c0,0.011-0.006,0.02-0.006,0.03v8
				c0,0.012,0.006,0.02,0.006,0.028c0.002,0.065,0.022,0.131,0.039,0.197c0.016,0.063,0.022,0.131,0.053,0.19
				c0.004,0.008,0.002,0.021,0.008,0.027c0.047,0.096,0.109,0.176,0.178,0.248c0.017,0.016,0.033,0.025,0.05,0.039
				c0.071,0.064,0.149,0.117,0.233,0.158c0.029,0.014,0.06,0.027,0.09,0.039c0.109,0.039,0.224,0.065,0.343,0.067c0,0,0,0,0.002,0
				s0.004-0.002,0.006-0.002c0.147,0,0.287-0.037,0.414-0.098c0.008-0.004,0.018-0.002,0.026-0.007l6.553-3.276v2.383
				C15.996,20.025,16.002,20.035,16.002,20.045z M17.996,13.633l4.763,2.383l-4.763,2.383V13.633z M9.997,18.396v-4.765l4.763,2.382
				L9.997,18.396z M31.193,17.631c-0.547-0.094-1.067,0.271-1.166,0.814c-1.181,6.713-7.024,11.586-13.896,11.586
				c-7.781,0-14.112-6.287-14.112-14.018C2.018,8.286,8.349,2,16.13,2c6.872,0,12.72,4.873,13.899,11.586
				c0.097,0.544,0.621,0.904,1.166,0.813c0.549-0.096,0.914-0.613,0.817-1.157C30.663,5.568,23.982,0,16.13,0
				C7.237,0,0.004,7.185,0.004,16.016c0,8.832,7.232,16.017,16.126,16.017c7.853,0,14.533-5.568,15.883-13.242
				C32.107,18.244,31.74,17.729,31.193,17.631z"/>
		</g>
	</g>
</g>
<g>
</g>
<g>
</g>
<g>
</g>
<g>
</g>
<g>
</g>
<g>
</g>
<g>
</g>
<g>
</g>
<g>
</g>
<g>
</g>
<g>
</g>
<g>
</g>
<g>
</g>
<g>
</g>
<g>
</g>
</svg>
