<?xml version="1.0" encoding="iso-8859-1"?>
<!-- Generator: Adobe Illustrator 16.0.0, SVG Export Plug-In . SVG Version: 6.00 Build 0)  -->
<!DOCTYPE svg PUBLIC "-//W3C//DTD SVG 1.1//EN" "http://www.w3.org/Graphics/SVG/1.1/DTD/svg11.dtd">
<svg version="1.1" id="Capa_1" xmlns="http://www.w3.org/2000/svg" xmlns:xlink="http://www.w3.org/1999/xlink" x="0px" y="0px"
	 width="32.032px" height="32.032px" viewBox="0 0 32.032 32.032" style="enable-background:new 0 0 32.032 32.032;"
	 xml:space="preserve">
<g>
	<g id="Next_x5F_Track">
		<g>
			<path d="M23.988,21.016c0.554,0,1-0.447,1-1v-8c0-0.553-0.446-1-1-1c-0.553,0-1,0.447-1,1v2.382l-6.552-3.276
				c-0.01-0.005-0.021-0.004-0.029-0.008c-0.061-0.028-0.129-0.037-0.194-0.053c-0.064-0.015-0.127-0.037-0.191-0.039
				c-0.011,0-0.021-0.006-0.031-0.006c-0.052,0-0.096,0.021-0.145,0.029c-0.07,0.011-0.14,0.017-0.205,0.041
				c-0.062,0.023-0.114,0.061-0.169,0.096c-0.054,0.033-0.108,0.061-0.155,0.104c-0.054,0.049-0.091,0.11-0.133,0.17
				c-0.027,0.039-0.065,0.068-0.088,0.112c-0.005,0.01-0.004,0.021-0.008,0.029c-0.028,0.061-0.036,0.127-0.052,0.192
				c-0.017,0.065-0.038,0.129-0.04,0.195c0,0.011-0.007,0.02-0.007,0.03v2.382L8.436,11.12c-0.01-0.005-0.021-0.004-0.029-0.008
				c-0.061-0.028-0.128-0.037-0.193-0.053c-0.065-0.015-0.128-0.037-0.192-0.039c-0.011,0-0.021-0.006-0.031-0.006
				c-0.052,0-0.096,0.021-0.146,0.029c-0.069,0.011-0.138,0.017-0.204,0.041c-0.062,0.023-0.115,0.062-0.172,0.097
				c-0.051,0.033-0.105,0.061-0.151,0.103c-0.054,0.05-0.093,0.111-0.135,0.172c-0.027,0.039-0.065,0.067-0.087,0.111
				c-0.005,0.01-0.004,0.021-0.008,0.029c-0.028,0.061-0.036,0.127-0.052,0.192c-0.016,0.065-0.038,0.129-0.04,0.195
				c0,0.011-0.007,0.02-0.007,0.03v8c0,0.01,0.007,0.021,0.007,0.029c0.002,0.066,0.024,0.129,0.04,0.195
				c0.016,0.063,0.022,0.131,0.052,0.191c0.004,0.01,0.003,0.02,0.008,0.028c0.047,0.097,0.109,0.176,0.179,0.248
				c0.016,0.017,0.033,0.022,0.049,0.039c0.071,0.063,0.149,0.114,0.234,0.157c0.029,0.015,0.058,0.025,0.089,0.037
				c0.109,0.041,0.225,0.068,0.343,0.068h0.002c0.002,0,0.005,0,0.007,0c0.147-0.002,0.285-0.039,0.413-0.098
				c0.009-0.006,0.019-0.004,0.026-0.008l6.553-3.275v2.381c0,0.012,0.007,0.021,0.007,0.031c0.002,0.066,0.023,0.129,0.04,0.195
				c0.016,0.063,0.022,0.131,0.052,0.19c0.004,0.011,0.003,0.021,0.008,0.029c0.047,0.094,0.109,0.176,0.179,0.248
				c0.016,0.016,0.033,0.022,0.049,0.039c0.071,0.063,0.149,0.114,0.234,0.157c0.029,0.015,0.058,0.025,0.089,0.037
				c0.109,0.041,0.225,0.068,0.343,0.068h0.002c0.003,0,0.005,0,0.007,0c0.147-0.002,0.285-0.039,0.413-0.098
				c0.009-0.006,0.019-0.004,0.026-0.008l6.552-3.275v2.381C22.988,20.568,23.436,21.016,23.988,21.016z M8.989,18.396v-4.765
				l4.765,2.382L8.989,18.396z M16.989,18.396v-4.765l4.765,2.382L16.989,18.396z M31.193,17.631
				c-0.547-0.094-1.067,0.271-1.166,0.814c-1.181,6.713-7.024,11.586-13.896,11.586c-7.782,0-14.112-6.287-14.112-14.018
				C2.018,8.286,8.348,2,16.13,2c6.872,0,12.72,4.873,13.899,11.586c0.097,0.544,0.621,0.904,1.164,0.813
				c0.551-0.096,0.916-0.613,0.819-1.157C30.663,5.568,23.982,0,16.13,0C7.238,0,0.004,7.185,0.004,16.016
				c0,8.832,7.233,16.017,16.126,16.017c7.853,0,14.533-5.568,15.883-13.242C32.107,18.244,31.74,17.729,31.193,17.631z"/>
		</g>
	</g>
</g>
<g>
</g>
<g>
</g>
<g>
</g>
<g>
</g>
<g>
</g>
<g>
</g>
<g>
</g>
<g>
</g>
<g>
</g>
<g>
</g>
<g>
</g>
<g>
</g>
<g>
</g>
<g>
</g>
<g>
</g>
</svg>
