<?xml version="1.0" encoding="iso-8859-1"?>
<!-- Generator: Adobe Illustrator 16.0.0, SVG Export Plug-In . SVG Version: 6.00 Build 0)  -->
<!DOCTYPE svg PUBLIC "-//W3C//DTD SVG 1.1//EN" "http://www.w3.org/Graphics/SVG/1.1/DTD/svg11.dtd">
<svg version="1.1" id="Capa_1" xmlns="http://www.w3.org/2000/svg" xmlns:xlink="http://www.w3.org/1999/xlink" x="0px" y="0px"
	 width="32px" height="32px" viewBox="0 0 32 32" style="enable-background:new 0 0 32 32;" xml:space="preserve">
<g>
	<g id="Archive">
		<g>
			<path d="M8,22c-1.654,0-3,1.346-3,3s1.346,3,3,3s3-1.346,3-3S9.654,22,8,22z M8,26c-0.552,0-1-0.449-1-1c0-0.552,0.448-1,1-1
				s1,0.448,1,1C9,25.551,8.552,26,8,26z M10.707,4.293C10.52,4.105,10.266,4,10,4H6C5.734,4,5.48,4.105,5.293,4.293l-1,1
				C4.105,5.48,4,5.734,4,6v11c0,0.266,0.105,0.52,0.293,0.707l1,1C5.48,18.895,5.734,19,6,19h4c0.266,0,0.52-0.105,0.707-0.293l1-1
				C11.895,17.52,12,17.266,12,17V6c0-0.266-0.105-0.52-0.293-0.707L10.707,4.293z M10,16.586L9.586,17H6.414L6,16.586V6.414
				L6.414,6H7v4l1-1l1,1V6h0.586L10,6.414V16.586z M24,22c-1.654,0-3,1.346-3,3s1.346,3,3,3s3-1.346,3-3S25.654,22,24,22z M24,26
				c-0.552,0-1-0.449-1-1c0-0.552,0.448-1,1-1s1,0.448,1,1C25,25.551,24.552,26,24,26z M30,0H18c-1.104,0-2,0.897-2,2
				c0-1.103-0.897-2-2-2H2C0.897,0,0,0.897,0,2v28c0,1.104,0.897,2,2,2h12c1.103,0,2-0.896,2-2c0,1.104,0.896,2,2,2h12
				c1.104,0,2-0.896,2-2V2C32,0.897,31.104,0,30,0z M2,30V2h12l0.001,28H2z M18,30V2h12l0.001,28H18z M26.707,4.293
				C26.52,4.105,26.266,4,26,4h-4c-0.266,0-0.52,0.105-0.707,0.293l-1,1C20.105,5.48,20,5.734,20,6v11
				c0,0.266,0.105,0.52,0.293,0.707l1,1C21.48,18.895,21.734,19,22,19h4c0.266,0,0.52-0.105,0.707-0.293l1-1
				C27.895,17.52,28,17.266,28,17V6c0-0.266-0.105-0.52-0.293-0.707L26.707,4.293z M26,16.586L25.586,17h-3.172L22,16.586V6.414
				L22.414,6H23v4l1-1l1,1V6h0.586L26,6.414V16.586z"/>
		</g>
	</g>
</g>
<g>
</g>
<g>
</g>
<g>
</g>
<g>
</g>
<g>
</g>
<g>
</g>
<g>
</g>
<g>
</g>
<g>
</g>
<g>
</g>
<g>
</g>
<g>
</g>
<g>
</g>
<g>
</g>
<g>
</g>
</svg>
