<?xml version="1.0" encoding="iso-8859-1"?>
<!-- Generator: Adobe Illustrator 16.0.0, SVG Export Plug-In . SVG Version: 6.00 Build 0)  -->
<!DOCTYPE svg PUBLIC "-//W3C//DTD SVG 1.1//EN" "http://www.w3.org/Graphics/SVG/1.1/DTD/svg11.dtd">
<svg version="1.1" id="Capa_1" xmlns="http://www.w3.org/2000/svg" xmlns:xlink="http://www.w3.org/1999/xlink" x="0px" y="0px"
	 width="32px" height="32px" viewBox="0 0 32 32" style="enable-background:new 0 0 32 32;" xml:space="preserve">
<g>
	<g id="Video_x5F_Camera">
		<g>
			<path d="M28.5,5.989L28.5,5.989c-0.238,0-0.475,0.024-0.703,0.07c-0.012,0.003-0.021,0.009-0.033,0.011
				c-0.652,0.139-1.25,0.455-1.717,0.923L20,12.677V9.989c0-1.654-1.346-3-3-3h-3c-0.766,0-1.457,0.297-1.987,0.771L7.535,3.282
				C7.512,3.259,7.48,3.25,7.455,3.229c0.047-0.174,0.08-0.351,0.08-0.533c0-0.534-0.208-1.037-0.586-1.414L6.241,0.574
				C5.484-0.18,4.169-0.179,3.414,0.575L0.587,3.404C0.209,3.78,0,4.281,0,4.816C-0.001,5.35,0.207,5.854,0.586,6.234l0.706,0.705
				C1.67,7.317,2.173,7.526,2.707,7.526c0.184,0,0.36-0.033,0.532-0.081C3.26,7.47,3.269,7.502,3.293,7.526l3.465,3.464H3
				c-1.654,0-3,1.346-3,3v14c0,1.653,1.346,3,3,3h14c1.654,0,3-1.347,3-3v-2.688l6.029,5.668c0.053,0.053,0.113,0.09,0.17,0.141
				c0.088,0.077,0.177,0.152,0.271,0.224c0.084,0.06,0.172,0.11,0.26,0.163c0.09,0.054,0.183,0.104,0.276,0.146
				c0.093,0.044,0.183,0.084,0.276,0.119c0.109,0.042,0.229,0.074,0.344,0.104c0.082,0.021,0.161,0.047,0.244,0.062
				c0.203,0.037,0.408,0.061,0.62,0.061c0.002,0,0.004,0.002,0.006,0.002H28.5c0.219,0,0.432-0.025,0.643-0.064
				c0.07-0.014,0.141-0.035,0.209-0.053c0.135-0.034,0.269-0.073,0.396-0.123c0.077-0.029,0.15-0.062,0.227-0.096
				c0.119-0.059,0.233-0.121,0.346-0.188c0.064-0.04,0.133-0.077,0.195-0.121c0.137-0.099,0.268-0.206,0.389-0.321
				c0.027-0.023,0.057-0.043,0.08-0.068c0.146-0.146,0.275-0.307,0.396-0.479c0.03-0.045,0.056-0.093,0.083-0.139
				c0.083-0.13,0.158-0.267,0.223-0.409c0.029-0.062,0.056-0.129,0.08-0.193c0.024-0.068,0.061-0.134,0.08-0.203
				C31.941,29.372,32,29.188,32,28.989v-19.5C32,7.56,30.43,5.989,28.5,5.989z M2.707,6.526v-1h0.001L2.707,6.526z M2.707,5.525
				L2,4.819l2.828-2.83l0.707,0.708L2.707,5.525z M4.828,6.232l1.414-1.414l4.796,4.796C11.022,9.738,11,9.861,11,9.989
				c0,0.552-0.448,1-1,1H9.586L4.828,6.232z M18,27.989c0,0.552-0.448,1-1,1H3c-0.552,0-1-0.448-1-1v-14c0-0.552,0.448-1,1-1h7
				c1.654,0,3-1.347,3-3c0-0.551,0.448-1,1-1h3c0.552,0,1,0.449,1,1V27.989z M25,27.258l-5-4.7v-7.137l5-4.7V27.258z M29.999,28.489
				c0,0.104-0.011,0.203-0.03,0.301c-0.031,0.158-0.095,0.303-0.172,0.438c-0.012,0.021-0.021,0.045-0.033,0.062
				c-0.08,0.123-0.178,0.232-0.287,0.328c-0.021,0.018-0.041,0.035-0.062,0.053c-0.115,0.089-0.243,0.163-0.381,0.216
				c-0.021,0.011-0.045,0.015-0.064,0.021c-0.146,0.05-0.303,0.082-0.466,0.082H28.5c-0.164,0-0.32-0.032-0.471-0.082
				c-0.021-0.006-0.039-0.012-0.059-0.02c-0.141-0.053-0.27-0.128-0.386-0.219c-0.021-0.018-0.042-0.034-0.062-0.053
				c-0.244-0.211-0.426-0.494-0.492-0.828c-0.008-0.037-0.02-0.075-0.031-0.111V9.489c0-0.721,0.51-1.321,1.188-1.466
				c0.004-0.001,0.008-0.004,0.013-0.005c0.098-0.02,0.196-0.029,0.302-0.029C29.326,7.99,30,8.663,30,9.49L29.999,28.489z
				 M12,19.989c-0.771,0-1.468,0.301-2,0.778c-0.532-0.479-1.229-0.778-2-0.778c-1.654,0-3,1.346-3,3c0,1.652,1.346,3,3,3
				c0.771,0,1.468-0.302,2-0.78c0.532,0.479,1.229,0.78,2,0.78c1.654,0,3-1.348,3-3C15,21.335,13.654,19.989,12,19.989z M8,23.989
				c-0.552,0-1-0.448-1-1c0-0.553,0.448-1,1-1s1,0.447,1,1C9,23.541,8.552,23.989,8,23.989z M12,23.989c-0.552,0-1-0.448-1-1
				c0-0.553,0.448-1,1-1s1,0.447,1,1C13,23.541,12.552,23.989,12,23.989z"/>
		</g>
	</g>
</g>
<g>
</g>
<g>
</g>
<g>
</g>
<g>
</g>
<g>
</g>
<g>
</g>
<g>
</g>
<g>
</g>
<g>
</g>
<g>
</g>
<g>
</g>
<g>
</g>
<g>
</g>
<g>
</g>
<g>
</g>
</svg>
