<?xml version="1.0" encoding="iso-8859-1"?>
<!-- Generator: Adobe Illustrator 16.0.0, SVG Export Plug-In . SVG Version: 6.00 Build 0)  -->
<!DOCTYPE svg PUBLIC "-//W3C//DTD SVG 1.1//EN" "http://www.w3.org/Graphics/SVG/1.1/DTD/svg11.dtd">
<svg version="1.1" id="Capa_1" xmlns="http://www.w3.org/2000/svg" xmlns:xlink="http://www.w3.org/1999/xlink" x="0px" y="0px"
	 width="32px" height="32px" viewBox="0 0 32 32" style="enable-background:new 0 0 32 32;" xml:space="preserve">
<g>
	<g id="Flag">
		<g>
			<path d="M21.5,0c-2.757,0-5,2.243-5,5c0,1.654-1.346,3-3,3s-3-1.346-3-3V3.723c0.146-0.085,0.288-0.183,0.414-0.309
				c0.781-0.781,0.781-2.048,0-2.828c-0.78-0.78-2.047-0.781-2.828,0c-0.781,0.78-0.781,2.047,0,2.828
				C8.212,3.54,8.354,3.638,8.5,3.723V30h-2c-0.553,0-1,0.448-1,1s0.447,1,1,1h6c0.553,0,1-0.448,1-1s-0.447-1-1-1h-2V17.975
				c0.838,0.635,1.87,1.025,3,1.025c2.757,0,5-2.243,5-5c0-1.654,1.346-3,3-3s3,1.346,3,3c0,0.552,0.447,1,1,1s1-0.448,1-1V5
				C26.5,2.243,24.257,0,21.5,0z M24.5,10.002C23.664,9.373,22.625,9,21.5,9c-2.757,0-5,2.243-5,5c0,1.654-1.346,3-3,3s-3-1.346-3-3
				V8.975C11.338,9.608,12.37,10,13.5,10c2.757,0,5-2.243,5-5c0-1.654,1.346-3,3-3s3,1.346,3,3V10.002z"/>
		</g>
	</g>
</g>
<g>
</g>
<g>
</g>
<g>
</g>
<g>
</g>
<g>
</g>
<g>
</g>
<g>
</g>
<g>
</g>
<g>
</g>
<g>
</g>
<g>
</g>
<g>
</g>
<g>
</g>
<g>
</g>
<g>
</g>
</svg>
