<?xml version="1.0" encoding="iso-8859-1"?>
<!-- Generator: Adobe Illustrator 16.0.0, SVG Export Plug-In . SVG Version: 6.00 Build 0)  -->
<!DOCTYPE svg PUBLIC "-//W3C//DTD SVG 1.1//EN" "http://www.w3.org/Graphics/SVG/1.1/DTD/svg11.dtd">
<svg version="1.1" id="Capa_1" xmlns="http://www.w3.org/2000/svg" xmlns:xlink="http://www.w3.org/1999/xlink" x="0px" y="0px"
	 width="32px" height="32px" viewBox="0 0 32 32" style="enable-background:new 0 0 32 32;" xml:space="preserve">
<g>
	<g id="images">
		<g>
			<path d="M11.286,0H2.714C1.218,0,0,1.218,0,2.715v8.57C0,12.782,1.218,14,2.714,14h8.572C12.782,14,14,12.782,14,11.285v-8.57
				C14,1.218,12.782,0,11.286,0z M12,11.285C12,11.68,11.68,12,11.286,12H2.714C2.32,12,2,11.68,2,11.285v-8.57
				C2,2.32,2.32,2,2.714,2h8.572C11.68,2,12,2.32,12,2.715V11.285z M29.286,0h-8.572C19.218,0,18,1.218,18,2.715v8.57
				C18,12.782,19.218,14,20.714,14h8.572C30.782,14,32,12.782,32,11.285v-8.57C32,1.218,30.782,0,29.286,0z M30,11.285
				C30,11.68,29.68,12,29.286,12h-8.572C20.32,12,20,11.68,20,11.285v-8.57C20,2.32,20.32,2,20.714,2h8.572
				C29.68,2,30,2.32,30,2.715V11.285z M11.286,18H2.714C1.218,18,0,19.218,0,20.714v8.572C0,30.782,1.218,32,2.714,32h8.572
				C12.782,32,14,30.782,14,29.286v-8.572C14,19.218,12.782,18,11.286,18z M12,29.286C12,29.68,11.68,30,11.286,30H2.714
				C2.32,30,2,29.68,2,29.286v-8.572C2,20.32,2.32,20,2.714,20h8.572C11.68,20,12,20.32,12,20.714V29.286z M29.286,18h-8.572
				C19.218,18,18,19.218,18,20.714v8.572C18,30.782,19.218,32,20.714,32h8.572C30.782,32,32,30.782,32,29.286v-8.572
				C32,19.218,30.782,18,29.286,18z M30,29.286C30,29.68,29.68,30,29.286,30h-8.572C20.32,30,20,29.68,20,29.286v-8.572
				C20,20.32,20.32,20,20.714,20h8.572C29.68,20,30,20.32,30,20.714V29.286z"/>
		</g>
	</g>
</g>
<g>
</g>
<g>
</g>
<g>
</g>
<g>
</g>
<g>
</g>
<g>
</g>
<g>
</g>
<g>
</g>
<g>
</g>
<g>
</g>
<g>
</g>
<g>
</g>
<g>
</g>
<g>
</g>
<g>
</g>
</svg>
