<?xml version="1.0" encoding="iso-8859-1"?>
<!-- Generator: Adobe Illustrator 16.0.0, SVG Export Plug-In . SVG Version: 6.00 Build 0)  -->
<!DOCTYPE svg PUBLIC "-//W3C//DTD SVG 1.1//EN" "http://www.w3.org/Graphics/SVG/1.1/DTD/svg11.dtd">
<svg version="1.1" id="Capa_1" xmlns="http://www.w3.org/2000/svg" xmlns:xlink="http://www.w3.org/1999/xlink" x="0px" y="0px"
	 width="32px" height="32px" viewBox="0 0 32 32" style="enable-background:new 0 0 32 32;" xml:space="preserve">
<g>
	<g id="Headphones">
		<g>
			<path d="M30.971,18.645C30.979,18.596,31,18.551,31,18.5C31,9.953,24.271,3,16,3C7.729,3,1,9.953,1,18.5
				c0,0.051,0.021,0.096,0.029,0.145C0.38,19.602,0,20.757,0,22c0,3.23,2.568,5.866,5.771,5.988C6.32,28.604,7.111,29,8,29
				c1.654,0,3-1.346,3-3v-8c0-1.654-1.346-3-3-3c-0.889,0-1.68,0.396-2.229,1.012c-0.937,0.035-1.82,0.281-2.601,0.7
				C4.137,11.147,9.514,6.871,16,6.871c6.486,0,11.863,4.276,12.83,9.841c-0.78-0.419-1.664-0.665-2.602-0.7
				C25.68,15.396,24.889,15,24,15c-1.654,0-3,1.346-3,3v8c0,1.654,1.346,3,3,3c0.889,0,1.68-0.396,2.229-1.012
				C29.432,27.866,32,25.23,32,22C32,20.757,31.62,19.602,30.971,18.645z M7,18c0-0.551,0.448-1,1-1s1,0.449,1,1v8
				c0,0.552-0.448,1-1,1s-1-0.448-1-1V18z M5,18.143v7.715c-1.721-0.446-3-2-3-3.856S3.279,18.59,5,18.143z M25,26
				c0,0.552-0.448,1-1,1s-1-0.448-1-1v-8c0-0.551,0.448-1,1-1s1,0.449,1,1V26z M27,25.857v-7.717c1.721,0.447,3,2,3,3.857
				S28.721,25.41,27,25.857z"/>
		</g>
	</g>
</g>
<g>
</g>
<g>
</g>
<g>
</g>
<g>
</g>
<g>
</g>
<g>
</g>
<g>
</g>
<g>
</g>
<g>
</g>
<g>
</g>
<g>
</g>
<g>
</g>
<g>
</g>
<g>
</g>
<g>
</g>
</svg>
