<?xml version="1.0" encoding="iso-8859-1"?>
<!-- Generator: Adobe Illustrator 16.0.0, SVG Export Plug-In . SVG Version: 6.00 Build 0)  -->
<!DOCTYPE svg PUBLIC "-//W3C//DTD SVG 1.1//EN" "http://www.w3.org/Graphics/SVG/1.1/DTD/svg11.dtd">
<svg version="1.1" id="Capa_1" xmlns="http://www.w3.org/2000/svg" xmlns:xlink="http://www.w3.org/1999/xlink" x="0px" y="0px"
	 width="32px" height="32px" viewBox="0 0 32 32" style="enable-background:new 0 0 32 32;" xml:space="preserve">
<g>
	<g id="Heart">
		<g>
			<path d="M22,0c-0.309,0-0.616,0.019-0.922,0.047c-0.112,0.01-0.223,0.026-0.334,0.041c-0.188,0.023-0.373,0.051-0.559,0.085
				c-0.137,0.025-0.271,0.053-0.401,0.083c-0.153,0.035-0.306,0.076-0.458,0.118c-0.145,0.04-0.288,0.079-0.43,0.125
				c-0.129,0.042-0.254,0.093-0.381,0.14c-0.334,0.125-0.66,0.266-0.977,0.424c-0.062,0.031-0.128,0.059-0.189,0.092
				c-0.166,0.088-0.326,0.186-0.489,0.282c-0.088,0.054-0.178,0.105-0.266,0.162c-0.156,0.1-0.306,0.207-0.456,0.315
				C16.094,1.947,16.046,1.977,16,2.011C14.271,0.709,12.171,0,10,0C4.486,0,0,4.485,0,10c0,9.051,5.82,17.238,15.568,21.9
				C15.705,31.967,15.853,32,16,32s0.295-0.033,0.432-0.1C26.18,27.238,32,19.051,32,10C32,4.485,27.514,0,22,0z M16,29.889
				C7.225,25.533,2,18.129,2,10c0-4.411,3.589-8,8-8c1.614,0,3.177,0.498,4.502,1.406C12.949,5.169,12,7.473,12,10
				c0,0.552,0.447,1,1,1s1-0.448,1-1c0-2.381,1.052-4.517,2.708-5.983c0.153-0.137,0.313-0.266,0.476-0.39
				c0.037-0.026,0.073-0.055,0.11-0.082c0.159-0.116,0.322-0.227,0.489-0.33c0.046-0.029,0.092-0.058,0.139-0.085
				c0.161-0.097,0.326-0.187,0.493-0.271c0.058-0.029,0.117-0.057,0.176-0.085c0.16-0.076,0.322-0.148,0.487-0.213
				c0.072-0.029,0.146-0.055,0.222-0.082c0.155-0.056,0.312-0.109,0.47-0.155c0.097-0.027,0.19-0.051,0.287-0.074
				c0.144-0.036,0.285-0.073,0.432-0.102c0.132-0.024,0.266-0.042,0.398-0.061C21,2.07,21.113,2.051,21.229,2.039
				C21.482,2.015,21.74,2,22,2c4.411,0,8,3.589,8,8C30,18.129,24.775,25.533,16,29.889z M22,4c-0.553,0-1,0.448-1,1s0.447,1,1,1
				c2.206,0,4,1.794,4,4c0,0.552,0.447,1,1,1s1-0.448,1-1C28,6.691,25.309,4,22,4z"/>
		</g>
	</g>
</g>
<g>
</g>
<g>
</g>
<g>
</g>
<g>
</g>
<g>
</g>
<g>
</g>
<g>
</g>
<g>
</g>
<g>
</g>
<g>
</g>
<g>
</g>
<g>
</g>
<g>
</g>
<g>
</g>
<g>
</g>
</svg>
