<?xml version="1.0" encoding="iso-8859-1"?>
<!-- Generator: Adobe Illustrator 16.0.0, SVG Export Plug-In . SVG Version: 6.00 Build 0)  -->
<!DOCTYPE svg PUBLIC "-//W3C//DTD SVG 1.1//EN" "http://www.w3.org/Graphics/SVG/1.1/DTD/svg11.dtd">
<svg version="1.1" id="Capa_1" xmlns="http://www.w3.org/2000/svg" xmlns:xlink="http://www.w3.org/1999/xlink" x="0px" y="0px"
	 width="32.004px" height="32.004px" viewBox="0 0 32.004 32.004" style="enable-background:new 0 0 32.004 32.004;"
	 xml:space="preserve">
<g>
	<g id="Home">
		<g>
			<path d="M31.123,13.863l-13-13.013c-1.134-1.134-3.106-1.134-4.241,0l-13,13.013c-1.17,1.172-1.17,3.075,0,4.246
				c0.567,0.567,1.32,0.88,2.121,0.88c0.348,0,0.682-0.067,1-0.182v11.194c0,1.104,0.897,2.002,2,2.002h4c1.103,0,2-0.898,2-2.002
				v-7.008h7.999v7.008c0,1.104,0.897,2.002,2,2.002h4c1.104,0,2-0.898,2-2.002V18.808c0.318,0.111,0.652,0.182,1,0.182
				c0.801,0,1.556-0.312,2.121-0.88C32.292,16.938,32.292,15.036,31.123,13.863z M15.296,2.266c0.189-0.188,0.44-0.293,0.707-0.293
				s0.518,0.104,0.706,0.293c0.391,0.392,0.391,1.025,0,1.416l-0.706,0.707l-0.707-0.707C14.905,3.292,14.905,2.658,15.296,2.266z
				 M3.71,16.694c-0.378,0.377-1.036,0.377-1.414,0c-0.39-0.391-0.39-1.024,0-1.416l11.008-11.02
				c0.143,0.301,0.328,0.589,0.577,0.838l0.707,0.708L3.71,16.694z M26.001,30.002h-4v-7.008c0-1.104-0.896-2.002-2-2.002h-7.999
				c-1.103,0-2,0.897-2,2.002v7.008h-4V17.229l10-10.01l9.999,10.01V30.002z M29.708,16.694c-0.377,0.377-1.035,0.377-1.414,0
				L17.416,5.804l0.707-0.708c0.25-0.249,0.436-0.537,0.577-0.838l11.009,11.02C30.098,15.668,30.098,16.304,29.708,16.694z
				 M12.003,14.985c0,2.208,1.794,4.004,4,4.004c2.206,0,3.999-1.796,3.999-4.004s-1.793-4.004-3.999-4.004
				C13.797,10.981,12.003,12.777,12.003,14.985z M18.001,14.985c0,1.104-0.896,2.002-1.999,2.002s-2-0.896-2-2.002
				c0-1.104,0.897-2.002,2-2.002C17.105,12.983,18.001,13.881,18.001,14.985z"/>
		</g>
	</g>
</g>
<g>
</g>
<g>
</g>
<g>
</g>
<g>
</g>
<g>
</g>
<g>
</g>
<g>
</g>
<g>
</g>
<g>
</g>
<g>
</g>
<g>
</g>
<g>
</g>
<g>
</g>
<g>
</g>
<g>
</g>
</svg>
