<?xml version="1.0" encoding="iso-8859-1"?>
<!-- Generator: Adobe Illustrator 16.0.0, SVG Export Plug-In . SVG Version: 6.00 Build 0)  -->
<!DOCTYPE svg PUBLIC "-//W3C//DTD SVG 1.1//EN" "http://www.w3.org/Graphics/SVG/1.1/DTD/svg11.dtd">
<svg version="1.1" id="Capa_1" xmlns="http://www.w3.org/2000/svg" xmlns:xlink="http://www.w3.org/1999/xlink" x="0px" y="0px"
	 width="32.027px" height="32.027px" viewBox="0 0 32.027 32.027" style="enable-background:new 0 0 32.027 32.027;"
	 xml:space="preserve">
<g>
	<g id="Arrow_x5F_Left_x5F_2">
		<g>
			<path d="M28.014,12.027h-13c-0.18,0-0.299-0.093-0.356-0.15c-0.093-0.093-0.144-0.217-0.144-0.35c0-0.18,0.092-0.299,0.16-0.367
				l4.167-4.332c0.756-0.755,1.172-1.76,1.172-2.828c0-1.067-0.416-2.071-1.172-2.828C18.086,0.416,17.082,0,16.013,0
				c-1.068,0-2.072,0.416-2.816,1.16L1.479,12.492c-0.944,0.944-1.465,2.199-1.465,3.535c0,1.336,0.521,2.592,1.465,3.535
				c0.051,0.052,0.106,0.096,0.165,0.133l11.541,11.16c0.756,0.756,1.76,1.172,2.828,1.172c1.069,0,2.073-0.416,2.828-1.172
				c0.756-0.756,1.172-1.761,1.172-2.828c0-1.068-0.416-2.073-1.158-2.814l-4.194-4.357c-0.055-0.057-0.147-0.174-0.147-0.355
				c0-0.133,0.051-0.257,0.146-0.354C14.715,20.093,14.833,20,15.014,20h13c2.195,0,3.99-1.786,4-3.99v-0.036
				C31.984,13.794,30.197,12.027,28.014,12.027z M28.014,18h-13c-0.67,0-1.3,0.264-1.771,0.736c-0.471,0.47-0.729,1.097-0.729,1.764
				c0,0.668,0.26,1.295,0.719,1.754l4.194,4.359c0.378,0.378,0.586,0.88,0.586,1.414c0,0.533-0.208,1.035-0.586,1.414
				c-0.756,0.756-2.061,0.768-2.84-0.012L2.881,18.109c-0.036-0.035-0.074-0.067-0.115-0.096c-0.486-0.548-0.752-1.246-0.752-1.986
				c0-0.801,0.312-1.555,0.867-2.109L14.599,2.586c0.756-0.756,2.072-0.756,2.828,0c0.378,0.378,0.586,0.88,0.586,1.414
				s-0.208,1.036-0.601,1.429L13.246,9.76c-0.473,0.473-0.732,1.101-0.732,1.769c0,0.667,0.259,1.294,0.727,1.762
				c0.473,0.474,1.103,0.736,1.773,0.736h13c1.098,0,1.995,0.893,2,1.981C30.009,17.105,29.111,18,28.014,18z"/>
		</g>
	</g>
</g>
<g>
</g>
<g>
</g>
<g>
</g>
<g>
</g>
<g>
</g>
<g>
</g>
<g>
</g>
<g>
</g>
<g>
</g>
<g>
</g>
<g>
</g>
<g>
</g>
<g>
</g>
<g>
</g>
<g>
</g>
</svg>
