<?xml version="1.0" encoding="iso-8859-1"?>
<!-- Generator: Adobe Illustrator 16.0.0, SVG Export Plug-In . SVG Version: 6.00 Build 0)  -->
<!DOCTYPE svg PUBLIC "-//W3C//DTD SVG 1.1//EN" "http://www.w3.org/Graphics/SVG/1.1/DTD/svg11.dtd">
<svg version="1.1" id="Capa_1" xmlns="http://www.w3.org/2000/svg" xmlns:xlink="http://www.w3.org/1999/xlink" x="0px" y="0px"
	 width="32px" height="32px" viewBox="0 0 32 32" style="enable-background:new 0 0 32 32;" xml:space="preserve">
<g>
	<g id="Calculator">
		<g>
			<path d="M26,0H6C4.346,0,3,1.346,3,3v26c0,1.654,1.346,3,3,3h20c1.654,0,3-1.346,3-3V3C29,1.346,27.654,0,26,0z M27,29
				c0,0.552-0.448,1-1,1H6c-0.552,0-1-0.448-1-1V8.815C5.314,8.928,5.647,9,6,9h20c0.354,0,0.686-0.072,1-0.185V29z M27,6
				c0,0.552-0.448,1-1,1H6C5.448,7,5,6.552,5,6V3c0-0.552,0.448-1,1-1h20c0.552,0,1,0.448,1,1V6z M13,14h-1v-1c0-0.553-0.447-1-1-1
				s-1,0.447-1,1v1H9c-0.553,0-1,0.447-1,1s0.447,1,1,1h1v1c0,0.553,0.447,1,1,1s1-0.447,1-1v-1h1c0.553,0,1-0.447,1-1
				S13.553,14,13,14z M23,14h-4c-0.553,0-1,0.447-1,1s0.447,1,1,1h4c0.553,0,1-0.447,1-1S23.553,14,23,14z M23,21h-4
				c-0.553,0-1,0.447-1,1s0.447,1,1,1h4c0.553,0,1-0.447,1-1S23.553,21,23,21z M23,25h-4c-0.553,0-1,0.447-1,1s0.447,1,1,1h4
				c0.553,0,1-0.447,1-1S23.553,25,23,25z M13.707,21.293c-0.391-0.391-1.023-0.391-1.414,0L11,22.586l-1.293-1.293
				c-0.391-0.391-1.023-0.391-1.414,0s-0.391,1.023,0,1.414L9.586,24l-1.293,1.293c-0.391,0.391-0.391,1.023,0,1.414
				C8.488,26.902,8.744,27,9,27s0.512-0.098,0.707-0.293L11,25.414l1.293,1.293C12.488,26.902,12.744,27,13,27
				s0.512-0.098,0.707-0.293c0.391-0.391,0.391-1.023,0-1.414L12.414,24l1.293-1.293C14.098,22.316,14.098,21.684,13.707,21.293z"/>
		</g>
	</g>
</g>
<g>
</g>
<g>
</g>
<g>
</g>
<g>
</g>
<g>
</g>
<g>
</g>
<g>
</g>
<g>
</g>
<g>
</g>
<g>
</g>
<g>
</g>
<g>
</g>
<g>
</g>
<g>
</g>
<g>
</g>
</svg>
