<?xml version="1.0" encoding="iso-8859-1"?>
<!-- Generator: Adobe Illustrator 16.0.0, SVG Export Plug-In . SVG Version: 6.00 Build 0)  -->
<!DOCTYPE svg PUBLIC "-//W3C//DTD SVG 1.1//EN" "http://www.w3.org/Graphics/SVG/1.1/DTD/svg11.dtd">
<svg version="1.1" id="Capa_1" xmlns="http://www.w3.org/2000/svg" xmlns:xlink="http://www.w3.org/1999/xlink" x="0px" y="0px"
	 width="32px" height="32px" viewBox="0 0 32 32" style="enable-background:new 0 0 32 32;" xml:space="preserve">
<g>
	<g id="Microphone">
		<g>
			<path d="M16,23c3.859,0,7-3.141,7-7V7c0-3.859-3.141-7-7-7c-3.859,0-7,3.141-7,7v9C9,19.859,12.141,23,16,23z M12,14h-1v-2h1
				c0.553,0,1-0.447,1-1s-0.447-1-1-1h-1V8h1c0.553,0,1-0.447,1-1s-0.447-1-1-1h-0.898C11.565,3.721,13.586,2,16,2
				s4.436,1.721,4.898,4H20c-0.553,0-1,0.447-1,1s0.447,1,1,1h1v2h-1c-0.553,0-1,0.447-1,1s0.447,1,1,1h1v2h-1c-0.553,0-1,0.447-1,1
				c0,0.552,0.447,1,1,1h1c0,2.757-2.243,5-5,5s-5-2.243-5-5h1c0.553,0,1-0.448,1-1C13,14.447,12.553,14,12,14z M16,19
				c0.553,0,1-0.448,1-1V5c0-0.553-0.447-1-1-1s-1,0.447-1,1v13C15,18.552,15.447,19,16,19z M23,30h-4v-3.426
				c4.609-1.311,8-5.551,8-10.574c0-0.552-0.447-1-1-1s-1,0.448-1,1c0,4.963-4.037,9-9,9s-9-4.037-9-9c0-0.552-0.447-1-1-1
				s-1,0.448-1,1c0,5.023,3.39,9.264,8,10.574V30H9c-0.553,0-1,0.447-1,1c0,0.552,0.447,1,1,1h14c0.553,0,1-0.448,1-1
				C24,30.447,23.553,30,23,30z M17,30h-2v-3.051C15.33,26.979,15.662,27,16,27s0.67-0.021,1-0.051V30z"/>
		</g>
	</g>
</g>
<g>
</g>
<g>
</g>
<g>
</g>
<g>
</g>
<g>
</g>
<g>
</g>
<g>
</g>
<g>
</g>
<g>
</g>
<g>
</g>
<g>
</g>
<g>
</g>
<g>
</g>
<g>
</g>
<g>
</g>
</svg>
