<?xml version="1.0" encoding="iso-8859-1"?>
<!-- Generator: Adobe Illustrator 16.0.0, SVG Export Plug-In . SVG Version: 6.00 Build 0)  -->
<!DOCTYPE svg PUBLIC "-//W3C//DTD SVG 1.1//EN" "http://www.w3.org/Graphics/SVG/1.1/DTD/svg11.dtd">
<svg version="1.1" id="Capa_1" xmlns="http://www.w3.org/2000/svg" xmlns:xlink="http://www.w3.org/1999/xlink" x="0px" y="0px"
	 width="32px" height="32px" viewBox="0 0 32 32" style="enable-background:new 0 0 32 32;" xml:space="preserve">
<g>
	<g id="Setup">
		<g>
			<path d="M8,16.184V3c0-1.654-1.346-3-3-3S2,1.346,2,3v13.184C0.839,16.6,0,17.698,0,19v4c0,1.302,0.839,2.4,2,2.814V29
				c0,1.654,1.346,3,3,3s3-1.346,3-3v-3.186C9.161,25.4,10,24.301,10,23v-4C10,17.698,9.161,16.6,8,16.184z M4,3
				c0-0.552,0.448-1,1-1s1,0.448,1,1v13H4V3z M6,29c0,0.552-0.448,1-1,1s-1-0.448-1-1v-3h2V29z M8,23c0,0.552-0.448,1-1,1H3
				c-0.552,0-1-0.448-1-1v-4c0-0.552,0.448-1,1-1h4c0.552,0,1,0.448,1,1V23z M30,12.184V3c0-1.654-1.346-3-3-3s-3,1.346-3,3v9.184
				c-1.161,0.415-2,1.515-2,2.816v4c0,1.302,0.839,2.4,2,2.814V29c0,1.654,1.346,3,3,3s3-1.346,3-3v-7.186
				C31.161,21.4,32,20.3,32,19v-4C32,13.698,31.161,12.599,30,12.184z M26,3c0-0.552,0.448-1,1-1s1,0.448,1,1v9h-2V3z M28,29
				c0,0.552-0.448,1-1,1s-1-0.448-1-1v-7h2V29z M30,19c0,0.551-0.448,1-1,1h-4c-0.552,0-1-0.449-1-1v-4c0-0.552,0.448-1,1-1h4
				c0.552,0,1,0.448,1,1V19z M19,4.185V3c0-1.654-1.346-3-3-3c-1.654,0-3,1.346-3,3v1.185C11.839,4.599,11,5.698,11,7v4
				c0,1.302,0.839,2.401,2,2.815V29c0,1.654,1.346,3,3,3c1.654,0,3-1.346,3-3V13.816c1.161-0.415,2-1.515,2-2.816V7
				C21,5.698,20.161,4.599,19,4.185z M15,3c0-0.552,0.448-1,1-1s1,0.448,1,1v1h-2V3z M17,29c0,0.552-0.448,1-1,1s-1-0.448-1-1V14h2
				V29z M19,11c0,0.551-0.448,1-1,1h-4c-0.552,0-1-0.449-1-1V7c0-0.552,0.448-1,1-1h4c0.552,0,1,0.448,1,1V11z"/>
		</g>
	</g>
</g>
<g>
</g>
<g>
</g>
<g>
</g>
<g>
</g>
<g>
</g>
<g>
</g>
<g>
</g>
<g>
</g>
<g>
</g>
<g>
</g>
<g>
</g>
<g>
</g>
<g>
</g>
<g>
</g>
<g>
</g>
</svg>
