<?xml version="1.0" encoding="iso-8859-1"?>
<!-- Generator: Adobe Illustrator 16.0.0, SVG Export Plug-In . SVG Version: 6.00 Build 0)  -->
<!DOCTYPE svg PUBLIC "-//W3C//DTD SVG 1.1//EN" "http://www.w3.org/Graphics/SVG/1.1/DTD/svg11.dtd">
<svg version="1.1" id="Capa_1" xmlns="http://www.w3.org/2000/svg" xmlns:xlink="http://www.w3.org/1999/xlink" x="0px" y="0px"
	 width="32.001px" height="32.001px" viewBox="0 0 32.001 32.001" style="enable-background:new 0 0 32.001 32.001;"
	 xml:space="preserve">
<g>
	<g id="Mute_x5F_Speaker">
		<g>
			<path d="M31.708,0.294c-0.392-0.391-1.023-0.391-1.414,0l-30,30c-0.391,0.392-0.391,1.023,0,1.414C0.488,31.903,0.745,32,1,32
				s0.513-0.098,0.707-0.293l30-30C32.099,1.317,32.099,0.686,31.708,0.294z M24.097,12.147c-0.391-0.392-1.021-0.392-1.414,0
				c-0.391,0.391-0.391,1.022,0,1.414l5.879,5.879c0.283,0.284,0.439,0.661,0.439,1.061c0,0.4-0.156,0.777-0.439,1.062
				c-0.201,0.203-0.453,0.342-0.734,0.403c-0.026,0.002-0.055,0.007-0.073,0.011c-0.109,0.021-0.221,0.022-0.33,0.019
				c-0.023,0-0.047-0.004-0.068-0.007c-0.09-0.01-0.177-0.024-0.262-0.049c-0.025-0.008-0.053-0.017-0.078-0.022
				c-0.082-0.028-0.162-0.064-0.238-0.107c-0.021-0.014-0.047-0.021-0.066-0.037c-0.098-0.061-0.188-0.127-0.268-0.207l-5.879-5.879
				c-0.392-0.392-1.022-0.392-1.414,0c-0.392,0.391-0.392,1.021,0,1.414l4.901,4.9H16c-0.675,0-1.351-0.119-2.01-0.354
				c-0.522-0.186-1.093,0.086-1.278,0.605c-0.185,0.521,0.087,1.094,0.606,1.276C14.194,23.842,15.098,24,16,24
				c0.268,0,0.518,0.104,0.707,0.293c0.189,0.189,0.293,0.439,0.293,0.707c0,0.269-0.104,0.519-0.293,0.707l-3,3
				c-0.379,0.377-1.035,0.377-1.414,0l-2.379-2.379c-0.391-0.391-1.022-0.391-1.414,0c-0.391,0.391-0.391,1.023,0,1.414l2.379,2.379
				C11.445,30.689,12.2,31,13,31s1.556-0.312,2.121-0.879l3-3c0.566-0.565,0.879-1.32,0.879-2.121c0-0.348-0.068-0.682-0.183-1
				h8.683c0.194,0,0.391-0.021,0.504-0.043c0.044-0.004,0.121-0.014,0.164-0.021c0.688-0.135,1.312-0.467,1.807-0.961
				c0.662-0.662,1.025-1.538,1.025-2.475c0-0.936-0.363-1.812-1.025-2.475L24.097,12.147z M4.258,23.5
				c0.195,0.195,0.451,0.293,0.707,0.293c0.257,0,0.513-0.098,0.707-0.293c0.392-0.391,0.392-1.022,0-1.414l-2.379-2.379
				C3.104,19.519,3,19.269,3,19c0-0.268,0.104-0.518,0.293-0.707l3-3c0.379-0.377,1.035-0.377,1.414,0C7.896,15.483,8,15.734,8,16
				c0,0.904,0.158,1.808,0.471,2.683c0.042,0.118,0.108,0.221,0.187,0.312c0.024,0.026,0.052,0.049,0.079,0.073
				c0.061,0.058,0.125,0.104,0.197,0.146C8.967,19.234,9,19.249,9.038,19.265c0.081,0.032,0.165,0.053,0.253,0.063
				c0.03,0.004,0.059,0.012,0.089,0.014c0.013,0,0.023,0.007,0.035,0.007c0.111,0,0.226-0.021,0.336-0.06
				c0.521-0.186,0.791-0.758,0.606-1.277C10.12,17.353,10,16.676,10,15.98V7.95l4.904,4.904c0.195,0.194,0.451,0.293,0.707,0.293
				c0.256,0,0.512-0.099,0.707-0.293c0.391-0.392,0.391-1.023,0-1.414l-5.879-5.879C10.156,5.278,10,4.901,10,4.501
				c0-0.399,0.156-0.776,0.439-1.061c0.565-0.566,1.555-0.566,2.121,0c0.009,0.009,0.018,0.018,0.026,0.025l5.853,5.854
				c0.392,0.391,1.022,0.391,1.414,0c0.392-0.392,0.392-1.023,0-1.414l-5.878-5.879c-1.321-1.32-3.627-1.322-4.95,0
				C8.364,2.689,8,3.566,8,4.501v8.702c-1.06-0.355-2.307-0.138-3.121,0.677l-3,3C1.312,17.446,1,18.2,1,19s0.312,1.556,0.879,2.121
				L4.258,23.5z"/>
		</g>
	</g>
</g>
<g>
</g>
<g>
</g>
<g>
</g>
<g>
</g>
<g>
</g>
<g>
</g>
<g>
</g>
<g>
</g>
<g>
</g>
<g>
</g>
<g>
</g>
<g>
</g>
<g>
</g>
<g>
</g>
<g>
</g>
</svg>
