<?xml version="1.0" encoding="iso-8859-1"?>
<!-- Generator: Adobe Illustrator 16.0.0, SVG Export Plug-In . SVG Version: 6.00 Build 0)  -->
<!DOCTYPE svg PUBLIC "-//W3C//DTD SVG 1.1//EN" "http://www.w3.org/Graphics/SVG/1.1/DTD/svg11.dtd">
<svg version="1.1" id="Capa_1" xmlns="http://www.w3.org/2000/svg" xmlns:xlink="http://www.w3.org/1999/xlink" x="0px" y="0px"
	 width="32.141px" height="32.141px" viewBox="0 0 32.141 32.141" style="enable-background:new 0 0 32.141 32.141;"
	 xml:space="preserve">
<g>
	<g id="Badge_x5F_8">
		<g>
			<path d="M29.839,13.431c-1.35-1.62-1.927-3.2-1.715-4.697c0.33-2.337,2.481-3.817,2.501-3.831
				c0.249-0.166,0.411-0.436,0.439-0.732c0.029-0.298-0.075-0.595-0.288-0.807l-3-3c-0.391-0.391-1.022-0.391-1.414,0
				c-0.024,0.025-2.562,2.511-5.44,2.369C19.43,2.665,18.056,1.89,16.839,0.43c-0.021-0.023-0.049-0.034-0.071-0.058
				c-0.021-0.021-0.032-0.051-0.057-0.069c-0.029-0.025-0.065-0.032-0.096-0.052c-0.058-0.038-0.114-0.07-0.177-0.097
				c-0.06-0.023-0.118-0.04-0.18-0.052c-0.063-0.014-0.124-0.021-0.188-0.021c-0.063,0-0.126,0.006-0.188,0.021
				c-0.062,0.012-0.119,0.027-0.178,0.052c-0.063,0.025-0.121,0.059-0.18,0.097c-0.029,0.02-0.064,0.026-0.095,0.052
				c-0.023,0.02-0.035,0.049-0.057,0.069c-0.022,0.022-0.052,0.033-0.071,0.058c-1.213,1.457-2.584,2.23-4.073,2.302
				C8.371,2.875,5.803,0.387,5.777,0.364c-0.391-0.391-1.022-0.391-1.414,0l-3,3C1.152,3.575,1.049,3.87,1.078,4.168
				c0.027,0.298,0.189,0.566,0.436,0.733c0.021,0.016,2.174,1.496,2.504,3.833c0.212,1.497-0.365,3.077-1.715,4.697
				c-1.808,2.169-2.539,4.058-2.236,5.771c0.466,2.633,3.213,4.229,6.123,5.924c0.45,0.262,0.909,0.525,1.367,0.803
				c6.309,3.783,7.611,5.594,7.665,5.67c0.189,0.305,0.515,0.473,0.85,0.473c0.173,0,0.347-0.043,0.505-0.139
				c0.032-0.02,0.052-0.051,0.082-0.072c0.059-0.041,0.11-0.09,0.159-0.145c0.023-0.025,0.05-0.051,0.069-0.08
				c0.009-0.014,0.021-0.021,0.03-0.035c0.012-0.02,1.249-1.82,7.667-5.672c0.458-0.275,0.917-0.541,1.367-0.803
				c2.909-1.693,5.657-3.291,6.123-5.924C32.378,17.488,31.646,15.6,29.839,13.431z M30.105,18.857
				c-0.303,1.715-2.553,3.021-5.159,4.539c-0.458,0.266-0.924,0.537-1.391,0.816c-4.343,2.604-6.471,4.354-7.485,5.352
				c-1.016-0.996-3.144-2.746-7.484-5.352c-0.467-0.279-0.934-0.553-1.392-0.816c-2.605-1.518-4.855-2.824-5.158-4.539
				C1.842,17.756,2.433,16.4,3.84,14.711c1.731-2.08,2.458-4.192,2.155-6.28C5.694,6.365,4.443,4.847,3.554,4.003L5.12,2.437
				c1.147,0.907,3.456,2.421,6.19,2.294c1.752-0.08,3.349-0.824,4.761-2.198c1.413,1.374,3.009,2.118,4.761,2.198
				c2.702,0.122,5.042-1.387,6.189-2.295l1.565,1.566c-0.892,0.845-2.143,2.361-2.44,4.429c-0.304,2.088,0.423,4.2,2.154,6.28
				C29.71,16.4,30.3,17.757,30.105,18.857z M21.777,9.364c-0.391-0.391-1.022-0.391-1.414,0l-4.292,4.293l-4.293-4.293
				c-0.391-0.391-1.022-0.391-1.414,0c-0.391,0.392-0.391,1.023,0,1.414l4.293,4.293l-4.294,4.292c-0.391,0.392-0.391,1.023,0,1.414
				c0.196,0.195,0.451,0.293,0.707,0.293c0.257,0,0.513-0.098,0.707-0.293l4.293-4.293l4.292,4.293
				c0.197,0.195,0.452,0.293,0.708,0.293c0.257,0,0.513-0.098,0.707-0.293c0.392-0.391,0.392-1.022,0-1.414l-4.293-4.292
				l4.293-4.293C22.168,10.387,22.168,9.756,21.777,9.364z"/>
		</g>
	</g>
</g>
<g>
</g>
<g>
</g>
<g>
</g>
<g>
</g>
<g>
</g>
<g>
</g>
<g>
</g>
<g>
</g>
<g>
</g>
<g>
</g>
<g>
</g>
<g>
</g>
<g>
</g>
<g>
</g>
<g>
</g>
</svg>
