<?xml version="1.0" encoding="iso-8859-1"?>
<!-- Generator: Adobe Illustrator 16.0.0, SVG Export Plug-In . SVG Version: 6.00 Build 0)  -->
<!DOCTYPE svg PUBLIC "-//W3C//DTD SVG 1.1//EN" "http://www.w3.org/Graphics/SVG/1.1/DTD/svg11.dtd">
<svg version="1.1" id="Capa_1" xmlns="http://www.w3.org/2000/svg" xmlns:xlink="http://www.w3.org/1999/xlink" x="0px" y="0px"
	 width="32.029px" height="32.029px" viewBox="0 0 32.029 32.029" style="enable-background:new 0 0 32.029 32.029;"
	 xml:space="preserve">
<g>
	<g id="Brush">
		<g>
			<path d="M2.416,23.944c-1.325,1.324-2.231,5.973-2.4,6.891c-0.059,0.322,0.045,0.654,0.277,0.889
				C0.481,31.911,0.737,32.015,1,32.015c0.06,0,0.12-0.005,0.18-0.016c0.919-0.168,5.573-1.073,6.898-2.398
				c0.756-0.755,1.173-1.76,1.173-2.828S8.834,24.7,8.079,23.944C6.567,22.433,3.928,22.433,2.416,23.944z M6.663,28.187
				c-0.469,0.469-2.412,1.09-4.374,1.541c0.451-1.961,1.072-3.9,1.542-4.369c0.378-0.378,0.881-0.586,1.417-0.586
				s1.038,0.208,1.417,0.586c0.377,0.377,0.585,0.881,0.585,1.414C7.25,27.307,7.041,27.809,6.663,28.187z M31.443,0.6
				c-0.377-0.377-0.88-0.585-1.414-0.585h-0.001c-0.534,0-1.037,0.209-1.39,0.562L7.395,20.384
				c-0.002,0.003-0.003,0.006-0.005,0.008c-0.006,0.006-0.014,0.012-0.02,0.018c-0.047,0.047-0.07,0.105-0.106,0.158
				c-0.035,0.053-0.079,0.1-0.104,0.156c-0.026,0.062-0.031,0.128-0.044,0.193c-0.014,0.061-0.034,0.119-0.035,0.181
				C7.08,21.161,7.1,21.226,7.11,21.29c0.012,0.062,0.014,0.123,0.036,0.184c0.025,0.064,0.071,0.118,0.109,0.177
				c0.031,0.05,0.049,0.104,0.09,0.147c0.004,0.004,0.009,0.005,0.013,0.009c0.004,0.005,0.007,0.013,0.011,0.017
				c0.046,0.045,0.104,0.067,0.156,0.104c0.055,0.036,0.104,0.082,0.161,0.106c0.058,0.023,0.117,0.026,0.176,0.039
				c0.066,0.018,0.132,0.039,0.199,0.039c0.059,0.002,0.113-0.019,0.17-0.027c0.069-0.012,0.14-0.014,0.205-0.038
				c0.062-0.022,0.111-0.067,0.167-0.104c0.053-0.031,0.109-0.052,0.155-0.096l0.026-0.021c0.389-0.392,1.023-0.391,1.415,0
				c0.39,0.389,0.39,1.021,0.001,1.412l-0.025,0.025c-0.042,0.046-0.062,0.104-0.094,0.152c-0.036,0.058-0.082,0.107-0.105,0.17
				c-0.022,0.062-0.024,0.125-0.037,0.188c-0.011,0.062-0.03,0.125-0.029,0.189c0.001,0.062,0.022,0.12,0.035,0.183
				c0.014,0.062,0.018,0.13,0.044,0.189c0.024,0.061,0.07,0.107,0.107,0.162c0.035,0.053,0.057,0.108,0.104,0.153
				c0.004,0.005,0.01,0.007,0.015,0.011c0.005,0.004,0.005,0.011,0.01,0.015c0.062,0.059,0.137,0.092,0.208,0.131
				c0.036,0.021,0.067,0.052,0.106,0.065c0.118,0.048,0.243,0.072,0.368,0.072c0.131,0,0.262-0.027,0.384-0.078
				c0.04-0.019,0.07-0.052,0.107-0.071c0.074-0.044,0.152-0.08,0.217-0.146c0.006-0.006,0.009-0.013,0.015-0.019
				c0.002-0.002,0.006-0.003,0.008-0.007L31.444,3.429C32.225,2.649,32.225,1.381,31.443,0.6z M12.147,21.155
				c-0.138-0.268-0.305-0.521-0.528-0.746c-0.225-0.226-0.48-0.392-0.747-0.528l19.134-17.84L12.147,21.155z"/>
		</g>
	</g>
</g>
<g>
</g>
<g>
</g>
<g>
</g>
<g>
</g>
<g>
</g>
<g>
</g>
<g>
</g>
<g>
</g>
<g>
</g>
<g>
</g>
<g>
</g>
<g>
</g>
<g>
</g>
<g>
</g>
<g>
</g>
</svg>
