<?xml version="1.0" encoding="iso-8859-1"?>
<!-- Generator: Adobe Illustrator 16.0.0, SVG Export Plug-In . SVG Version: 6.00 Build 0)  -->
<!DOCTYPE svg PUBLIC "-//W3C//DTD SVG 1.1//EN" "http://www.w3.org/Graphics/SVG/1.1/DTD/svg11.dtd">
<svg version="1.1" id="Capa_1" xmlns="http://www.w3.org/2000/svg" xmlns:xlink="http://www.w3.org/1999/xlink" x="0px" y="0px"
	 width="32.004px" height="32.004px" viewBox="0 0 32.004 32.004" style="enable-background:new 0 0 32.004 32.004;"
	 xml:space="preserve">
<g>
	<g id="Inbox">
		<g>
			<path d="M32,25.002c0-0.432-0.121-0.85-0.318-1.236L24.961,0.722c-0.125-0.426-0.516-0.72-0.961-0.72H8
				c-0.443,0-0.835,0.294-0.959,0.72L0.319,23.766C0.123,24.152,0,24.572,0,25.002l0.003,4.25c0,1.518,1.291,2.75,2.876,2.75h26.25
				c1.584,0,2.875-1.232,2.875-2.751L32,25.002z M8.75,2.002h14.5l5.836,20.01c-0.027-0.001-0.057-0.01-0.086-0.01h-3.197
				L21.979,4.785C21.875,4.328,21.471,4.002,21,4.002H11c-0.468,0-0.873,0.326-0.977,0.783L6.198,22.002H3
				c-0.028,0-0.057,0.009-0.085,0.01L8.75,2.002z M10,22.002H8.248l3.555-16h8.396l3.555,16H22c-0.552,0-1,0.448-1,1v2.25
				c0,0.414-0.393,0.75-0.875,0.75h-8.25c-0.449,0-0.875-0.562-0.875-1v-2C11,22.45,10.553,22.002,10,22.002z M29.129,30.002H2.879
				c-0.482,0-0.876-0.336-0.876-0.751L2,25.145l0.174-0.591C2.363,24.262,2.682,24.002,3,24.002h6v1c0,1.6,1.345,3,2.875,3h8.25
				c1.586,0,2.875-1.232,2.875-2.75v-1.25h6c0.318,0,0.639,0.26,0.828,0.552L30,25.145l0.004,4.107
				C30.004,29.666,29.611,30.002,29.129,30.002z"/>
		</g>
	</g>
</g>
<g>
</g>
<g>
</g>
<g>
</g>
<g>
</g>
<g>
</g>
<g>
</g>
<g>
</g>
<g>
</g>
<g>
</g>
<g>
</g>
<g>
</g>
<g>
</g>
<g>
</g>
<g>
</g>
<g>
</g>
</svg>
