<?xml version="1.0" encoding="iso-8859-1"?>
<!-- Generator: Adobe Illustrator 16.0.0, SVG Export Plug-In . SVG Version: 6.00 Build 0)  -->
<!DOCTYPE svg PUBLIC "-//W3C//DTD SVG 1.1//EN" "http://www.w3.org/Graphics/SVG/1.1/DTD/svg11.dtd">
<svg version="1.1" id="Capa_1" xmlns="http://www.w3.org/2000/svg" xmlns:xlink="http://www.w3.org/1999/xlink" x="0px" y="0px"
	 width="32px" height="32px" viewBox="0 0 32 32" style="enable-background:new 0 0 32 32;" xml:space="preserve">
<g>
	<g id="Clip">
		<g>
			<path d="M16,0c-4.411,0-8,3.589-8,8v18c0,3.309,2.691,6,6,6c3.309,0,6-2.691,6-6V8c0-2.206-1.794-4-4-4s-4,1.794-4,4v15
				c0,0.552,0.448,1,1,1c0.553,0,1-0.448,1-1V8c0-1.104,0.897-2,2-2c1.104,0,2,0.896,2,2v18c0,2.206-1.794,4-4,4
				c-2.205,0-4-1.794-4-4V8c0-3.309,2.691-6,6-6c3.309,0,6,2.691,6,6v15c0,0.552,0.448,1,1,1s1-0.448,1-1V8C24,3.589,20.411,0,16,0z
				"/>
		</g>
	</g>
</g>
<g>
</g>
<g>
</g>
<g>
</g>
<g>
</g>
<g>
</g>
<g>
</g>
<g>
</g>
<g>
</g>
<g>
</g>
<g>
</g>
<g>
</g>
<g>
</g>
<g>
</g>
<g>
</g>
<g>
</g>
</svg>
