<?xml version="1.0" encoding="iso-8859-1"?>
<!-- Generator: Adobe Illustrator 16.0.0, SVG Export Plug-In . SVG Version: 6.00 Build 0)  -->
<!DOCTYPE svg PUBLIC "-//W3C//DTD SVG 1.1//EN" "http://www.w3.org/Graphics/SVG/1.1/DTD/svg11.dtd">
<svg version="1.1" id="Capa_1" xmlns="http://www.w3.org/2000/svg" xmlns:xlink="http://www.w3.org/1999/xlink" x="0px" y="0px"
	 width="32px" height="32px" viewBox="0 0 32 32" style="enable-background:new 0 0 32 32;" xml:space="preserve">
<g>
	<g id="Picture">
		<g>
			<path d="M29.25,0H2.75C1.233,0,0,1.289,0,2.875v26.25C0,30.71,1.233,32,2.75,32h26.5c1.518,0,2.75-1.29,2.75-2.875V2.875
				C32,1.289,30.768,0,29.25,0z M30,29.125C30,29.607,29.664,30,29.25,30H2.75C2.336,30,2,29.607,2,29.125V2.875
				C2,2.393,2.336,2,2.75,2h26.5C29.664,2,30,2.393,30,2.875V29.125z M12,8c-2.206,0-4,1.795-4,4c0,2.206,1.794,4,4,4s4-1.794,4-4
				C16,9.795,14.206,8,12,8z M12,14c-1.103,0-2-0.896-2-2s0.897-2,2-2s2,0.896,2,2S13.103,14,12,14z M27,4H5C4.447,4,4,4.448,4,5v20
				c0,0.553,0.447,1,1,1h22c0.553,0,1-0.447,1-1V5C28,4.448,27.553,4,27,4z M7,24c-0.169,0-0.32-0.053-0.46-0.126l3.896-3.896
				c0.391-0.391,1.023-0.391,1.414,0L15.871,24H7z M26,23c0,0.551-0.448,1-1,1h-6.301l-3.422-3.422l5.288-5.285
				c0.392-0.39,1.022-0.39,1.414,0L26,19.312V23z M26,16.484l-2.607-2.606c-1.17-1.168-3.072-1.169-4.242,0.001l-5.287,5.285
				l-0.6-0.6c-1.17-1.168-3.072-1.17-4.242,0L6,21.586V7c0-0.552,0.448-1,1-1h18c0.552,0,1,0.448,1,1V16.484z"/>
		</g>
	</g>
</g>
<g>
</g>
<g>
</g>
<g>
</g>
<g>
</g>
<g>
</g>
<g>
</g>
<g>
</g>
<g>
</g>
<g>
</g>
<g>
</g>
<g>
</g>
<g>
</g>
<g>
</g>
<g>
</g>
<g>
</g>
</svg>
