<?xml version="1.0" encoding="iso-8859-1"?>
<!-- Generator: Adobe Illustrator 16.0.0, SVG Export Plug-In . SVG Version: 6.00 Build 0)  -->
<!DOCTYPE svg PUBLIC "-//W3C//DTD SVG 1.1//EN" "http://www.w3.org/Graphics/SVG/1.1/DTD/svg11.dtd">
<svg version="1.1" id="Capa_1" xmlns="http://www.w3.org/2000/svg" xmlns:xlink="http://www.w3.org/1999/xlink" x="0px" y="0px"
	 width="32px" height="32px" viewBox="0 0 32 32" style="enable-background:new 0 0 32 32;" xml:space="preserve">
<g>
	<g id="Pointer">
		<g>
			<path d="M16,0C8.832,0,3,5.832,3,13c0,11.441,11.986,18.566,12.496,18.864C15.651,31.954,15.826,32,16,32
				s0.349-0.046,0.504-0.136C17.014,31.566,29,24.441,29,13C29,5.832,23.168,0,16,0z M15.999,29.818C13.779,28.366,5,22.049,5,13
				C5,6.935,9.935,2,16,2c6.064,0,11,4.935,11,11C27,22.029,18.219,28.363,15.999,29.818z M16,10c-1.656,0-3,1.344-3,3s1.344,3,3,3
				c1.656,0,3-1.344,3-3S17.656,10,16,10z"/>
		</g>
	</g>
</g>
<g>
</g>
<g>
</g>
<g>
</g>
<g>
</g>
<g>
</g>
<g>
</g>
<g>
</g>
<g>
</g>
<g>
</g>
<g>
</g>
<g>
</g>
<g>
</g>
<g>
</g>
<g>
</g>
<g>
</g>
</svg>
