<?xml version="1.0" encoding="iso-8859-1"?>
<!-- Generator: Adobe Illustrator 16.0.0, SVG Export Plug-In . SVG Version: 6.00 Build 0)  -->
<!DOCTYPE svg PUBLIC "-//W3C//DTD SVG 1.1//EN" "http://www.w3.org/Graphics/SVG/1.1/DTD/svg11.dtd">
<svg version="1.1" id="Capa_1" xmlns="http://www.w3.org/2000/svg" xmlns:xlink="http://www.w3.org/1999/xlink" x="0px" y="0px"
	 width="32.032px" height="32.032px" viewBox="0 0 32.032 32.032" style="enable-background:new 0 0 32.032 32.032;"
	 xml:space="preserve">
<g>
	<g id="Play">
		<g>
			<path d="M31.192,17.631c-0.549-0.094-1.068,0.27-1.166,0.814c-1.181,6.713-7.024,11.586-13.897,11.586
				c-7.782,0-14.112-6.287-14.112-14.018C2.016,8.286,8.347,2,16.128,2c6.873,0,12.72,4.873,13.899,11.586
				c0.098,0.544,0.621,0.905,1.166,0.813c0.55-0.096,0.916-0.613,0.82-1.157C30.662,5.568,23.981,0,16.128,0
				C7.235,0,0.002,7.185,0.002,16.016c0,8.832,7.233,16.017,16.126,16.017c7.853,0,14.534-5.568,15.883-13.242
				C32.106,18.244,31.739,17.729,31.192,17.631z M13.438,11.121c-0.01-0.005-0.02-0.004-0.028-0.008
				c-0.062-0.028-0.129-0.037-0.194-0.053c-0.065-0.015-0.128-0.037-0.192-0.039c-0.011,0-0.021-0.006-0.03-0.006
				c-0.053,0-0.097,0.021-0.146,0.029c-0.07,0.011-0.138,0.017-0.205,0.041c-0.062,0.023-0.115,0.062-0.171,0.097
				c-0.053,0.033-0.106,0.061-0.152,0.103c-0.055,0.05-0.093,0.111-0.135,0.172c-0.028,0.039-0.064,0.067-0.087,0.111
				c-0.005,0.01-0.004,0.021-0.008,0.03c-0.029,0.06-0.037,0.125-0.052,0.19c-0.017,0.066-0.038,0.13-0.04,0.196
				c0,0.011-0.007,0.02-0.007,0.03v8c0,0.012,0.007,0.021,0.007,0.029c0.002,0.066,0.023,0.131,0.04,0.197
				c0.016,0.064,0.023,0.131,0.052,0.189c0.004,0.01,0.002,0.021,0.008,0.028c0.046,0.097,0.109,0.176,0.179,0.248
				c0.016,0.017,0.033,0.024,0.05,0.039c0.07,0.063,0.148,0.116,0.233,0.157c0.029,0.015,0.059,0.027,0.089,0.039
				c0.109,0.039,0.225,0.066,0.342,0.068c0.001,0,0.001,0,0.001,0h0.002c0.001,0,0.001,0,0.001,0c0.002,0,0.004-0.002,0.006-0.002
				c0.147,0,0.286-0.037,0.413-0.098c0.009-0.004,0.019-0.002,0.026-0.006l8.005-4c0.34-0.17,0.554-0.518,0.554-0.896
				s-0.214-0.725-0.554-0.895L13.438,11.121z M13.993,18.396v-4.765l4.767,2.382L13.993,18.396z"/>
		</g>
	</g>
</g>
<g>
</g>
<g>
</g>
<g>
</g>
<g>
</g>
<g>
</g>
<g>
</g>
<g>
</g>
<g>
</g>
<g>
</g>
<g>
</g>
<g>
</g>
<g>
</g>
<g>
</g>
<g>
</g>
<g>
</g>
</svg>
