<?xml version="1.0" encoding="iso-8859-1"?>
<!-- Generator: Adobe Illustrator 16.0.0, SVG Export Plug-In . SVG Version: 6.00 Build 0)  -->
<!DOCTYPE svg PUBLIC "-//W3C//DTD SVG 1.1//EN" "http://www.w3.org/Graphics/SVG/1.1/DTD/svg11.dtd">
<svg version="1.1" id="Capa_1" xmlns="http://www.w3.org/2000/svg" xmlns:xlink="http://www.w3.org/1999/xlink" x="0px" y="0px"
	 width="32px" height="32px" viewBox="0 0 32 32" style="enable-background:new 0 0 32 32;" xml:space="preserve">
<g>
	<g id="Cloud_x5F_Rain">
		<g>
			<path d="M7.177,24.432C6.522,25.379,5,27.723,5,29c0,1.654,1.346,3,3,3s3-1.346,3-3c0-1.277-1.522-3.621-2.177-4.568
				C8.45,23.891,7.55,23.891,7.177,24.432z M8,30c-0.551,0-1-0.449-1-0.999c0.008-0.306,0.424-1.177,1-2.147
				C8.576,27.824,8.992,28.695,9,29C9,29.551,8.551,30,8,30z M15.177,24.432C14.522,25.379,13,27.723,13,29c0,1.654,1.346,3,3,3
				c1.654,0,3-1.346,3-3c0-1.277-1.521-3.621-2.177-4.568C16.45,23.891,15.55,23.891,15.177,24.432z M16,30
				c-0.551,0-1-0.449-1-0.999c0.008-0.306,0.424-1.177,1-2.147c0.576,0.972,0.992,1.842,1,2.146C17,29.551,16.551,30,16,30z
				 M23.177,24.432C22.521,25.379,21,27.723,21,29c0,1.654,1.346,3,3,3s3-1.346,3-3c0-1.277-1.521-3.621-2.177-4.568
				C24.45,23.891,23.55,23.891,23.177,24.432z M24,30c-0.551,0-1-0.449-1-0.999c0.008-0.306,0.424-1.177,1-2.147
				c0.576,0.972,0.992,1.842,1,2.146C25,29.551,24.551,30,24,30z M22,2c-2.018,0-3.966,0.608-5.617,1.736
				C15.33,1.504,13.053,0,10.5,0C6.916,0,4,2.916,4,6.5c0,0.691,0.111,1.377,0.326,2.03C1.729,9.592,0,12.107,0,15
				c0,3.859,3.14,7,7,7h15c5.514,0,10-4.484,10-10C32,6.485,27.514,2,22,2z M22,20H7c-2.757,0-5-2.243-5-5
				c0-2.316,1.641-4.367,3.901-4.874c0.307-0.069,0.563-0.278,0.693-0.565C6.723,9.274,6.71,8.943,6.557,8.667
				C6.193,8.006,6,7.257,6,6.5C6,4.019,8.019,2,10.5,2c2.133,0,3.988,1.516,4.411,3.604c0.072,0.354,0.329,0.642,0.673,0.753
				c0.345,0.112,0.722,0.027,0.986-0.218C18.059,4.76,19.986,4,22,4c4.411,0,8,3.589,8,8S26.411,20,22,20z M22,6
				c-0.552,0-1,0.447-1,1s0.448,1,1,1c2.206,0,4,1.795,4,4c0,0.552,0.448,1,1,1s1-0.448,1-1C28,8.691,25.309,6,22,6z"/>
		</g>
	</g>
</g>
<g>
</g>
<g>
</g>
<g>
</g>
<g>
</g>
<g>
</g>
<g>
</g>
<g>
</g>
<g>
</g>
<g>
</g>
<g>
</g>
<g>
</g>
<g>
</g>
<g>
</g>
<g>
</g>
<g>
</g>
</svg>
