<?xml version="1.0" encoding="iso-8859-1"?>
<!-- Generator: Adobe Illustrator 16.0.0, SVG Export Plug-In . SVG Version: 6.00 Build 0)  -->
<!DOCTYPE svg PUBLIC "-//W3C//DTD SVG 1.1//EN" "http://www.w3.org/Graphics/SVG/1.1/DTD/svg11.dtd">
<svg version="1.1" id="Capa_1" xmlns="http://www.w3.org/2000/svg" xmlns:xlink="http://www.w3.org/1999/xlink" x="0px" y="0px"
	 width="32px" height="32px" viewBox="0 0 32 32" style="enable-background:new 0 0 32 32;" xml:space="preserve">
<g>
	<g id="Badge_x5F_3">
		<g>
			<path d="M25.984,15.621c0-0.033-0.002-0.064-0.004-0.098C25.77,9.129,21.38,4,16,4c-5.379,0-9.767,5.127-9.979,11.52
				c-0.004,0.036-0.005,0.07-0.005,0.107C6.013,15.752,6,15.874,6,16c0,1.163,0.146,2.284,0.404,3.348
				c0.005,0.146,0.039,0.291,0.111,0.428c0.384,1.386,0.969,2.658,1.719,3.771c0.008,0.019,0.019,0.03,0.028,0.046
				C10.098,26.279,12.884,28,16,28c3.124,0,5.915-1.729,7.75-4.43c0.003-0.006,0.007-0.01,0.01-0.016C25.158,21.49,26,18.861,26,16
				C26,15.872,25.986,15.748,25.984,15.621z M17,6.087c2.195,0.345,4.113,1.805,5.385,3.913H17V6.087z M17,12h6.327
				c0.228,0.647,0.403,1.328,0.517,2.039C23.729,14.026,23.626,14,23.5,14c-1.37,0-2.083,0.761-2.604,1.315
				C20.451,15.79,20.232,16,19.749,16s-0.7-0.209-1.146-0.684c-0.375-0.4-0.854-0.904-1.604-1.156L17,12L17,12z M15,6.087V10H9.615
				C10.887,7.892,12.804,6.432,15,6.087z M8.673,12H15v2.145c-0.815,0.253-1.303,0.787-1.685,1.208
				C12.879,15.833,12.705,16,12.249,16c-0.484,0-0.701-0.209-1.145-0.684C10.583,14.761,9.871,14,8.5,14
				c-0.126,0-0.228,0.026-0.344,0.039C8.27,13.328,8.445,12.647,8.673,12z M16,26c-0.774,0-1.521-0.146-2.229-0.402
				c0.442-0.264,0.762-0.608,1.026-0.902C15.245,24.201,15.449,24,16,24c0.484,0,0.701,0.209,1.146,0.686
				c0.276,0.295,0.615,0.647,1.074,0.914C17.516,25.855,16.771,26,16,26z M22.215,22.284c-0.585,0.271-0.99,0.682-1.318,1.03
				C20.451,23.79,20.232,24,19.749,24s-0.7-0.209-1.146-0.684C18.084,22.761,17.371,22,16,22c-1.459,0-2.168,0.781-2.685,1.354
				C12.879,23.833,12.705,24,12.249,24c-0.484,0-0.701-0.209-1.146-0.684c-0.328-0.352-0.733-0.762-1.318-1.032
				C9.341,21.6,8.97,20.84,8.682,20.021c0.358,0.054,0.582,0.254,0.962,0.662C10.165,21.239,10.877,22,12.249,22
				c1.366,0,2.049-0.754,2.548-1.305C15.245,20.201,15.449,20,16,20c0.484,0,0.701,0.209,1.146,0.686
				C17.666,21.239,18.379,22,19.749,22c1.371,0,2.084-0.761,2.604-1.314c0.383-0.408,0.604-0.608,0.965-0.662
				C23.029,20.84,22.659,21.6,22.215,22.284z M23.835,18.021C23.727,18.011,23.615,18,23.5,18c-1.37,0-2.083,0.761-2.604,1.314
				C20.451,19.79,20.232,20,19.749,20s-0.7-0.21-1.146-0.684C18.084,18.761,17.371,18,16,18c-1.459,0-2.168,0.781-2.685,1.354
				C12.879,19.833,12.705,20,12.249,20c-0.484,0-0.701-0.21-1.145-0.684C10.583,18.761,9.871,18,8.5,18
				c-0.115,0-0.225,0.011-0.335,0.021c-0.102-0.617-0.154-1.256-0.16-1.91C8.142,16.041,8.294,16,8.5,16
				c0.483,0,0.7,0.209,1.144,0.684C10.165,17.239,10.877,18,12.249,18c1.366,0,2.049-0.754,2.548-1.305
				C15.245,16.201,15.449,16,16,16c0.484,0,0.701,0.209,1.146,0.686C17.666,17.239,18.379,18,19.749,18
				c1.371,0,2.084-0.761,2.604-1.314C22.799,16.209,23.018,16,23.5,16c0.206,0,0.357,0.041,0.496,0.111
				C23.99,16.766,23.938,17.404,23.835,18.021z M16,0C8.28,0,2,7.178,2,16s6.28,16,14,16c7.721,0,14-7.178,14-16S23.721,0,16,0z
				 M16,30C9.383,30,4,23.721,4,16C4,8.28,9.383,2,16,2s12,6.28,12,14C28,23.721,22.617,30,16,30z"/>
		</g>
	</g>
</g>
<g>
</g>
<g>
</g>
<g>
</g>
<g>
</g>
<g>
</g>
<g>
</g>
<g>
</g>
<g>
</g>
<g>
</g>
<g>
</g>
<g>
</g>
<g>
</g>
<g>
</g>
<g>
</g>
<g>
</g>
</svg>
