<?xml version="1.0" encoding="iso-8859-1"?>
<!-- Generator: Adobe Illustrator 16.0.0, SVG Export Plug-In . SVG Version: 6.00 Build 0)  -->
<!DOCTYPE svg PUBLIC "-//W3C//DTD SVG 1.1//EN" "http://www.w3.org/Graphics/SVG/1.1/DTD/svg11.dtd">
<svg version="1.1" id="Capa_1" xmlns="http://www.w3.org/2000/svg" xmlns:xlink="http://www.w3.org/1999/xlink" x="0px" y="0px"
	 width="32.031px" height="32.031px" viewBox="0 0 32.031 32.031" style="enable-background:new 0 0 32.031 32.031;"
	 xml:space="preserve">
<g>
	<g id="Rewind">
		<g>
			<path d="M16.029,11.985c-0.002-0.066-0.023-0.13-0.04-0.195c-0.016-0.065-0.022-0.132-0.052-0.192
				c-0.004-0.009-0.003-0.02-0.008-0.029c-0.021-0.044-0.06-0.072-0.087-0.111c-0.042-0.061-0.08-0.122-0.135-0.172
				c-0.046-0.042-0.101-0.069-0.151-0.103c-0.057-0.035-0.109-0.073-0.172-0.097c-0.066-0.024-0.135-0.03-0.204-0.041
				c-0.05-0.008-0.094-0.029-0.146-0.029c-0.012,0-0.021,0.006-0.031,0.006c-0.064,0.002-0.127,0.024-0.192,0.039
				c-0.065,0.016-0.134,0.024-0.193,0.053c-0.01,0.004-0.021,0.003-0.029,0.008l-7.999,4c-0.34,0.17-0.553,0.516-0.553,0.896
				c0,0.379,0.213,0.725,0.553,0.895l7.999,4c0.009,0.004,0.019,0.002,0.026,0.007c0.128,0.06,0.266,0.097,0.413,0.099
				c0.002,0,0.005,0,0.007,0h0.001c0.001,0,0.001,0,0.001,0c0.118,0,0.232-0.027,0.343-0.067c0.031-0.013,0.06-0.024,0.089-0.038
				c0.085-0.042,0.163-0.096,0.234-0.158c0.016-0.015,0.033-0.023,0.049-0.039c0.068-0.07,0.132-0.152,0.179-0.248
				c0.005-0.01,0.004-0.021,0.008-0.027c0.028-0.062,0.036-0.127,0.052-0.191c0.017-0.066,0.038-0.13,0.04-0.196
				c0-0.011,0.007-0.021,0.007-0.03v-2.381l6.552,3.275c0.011,0.004,0.021,0.002,0.026,0.007c0.128,0.06,0.267,0.097,0.414,0.099
				c0.002,0,0.005,0,0.007,0s0.002,0,0.002,0c0.118,0,0.231-0.027,0.342-0.067c0.031-0.013,0.062-0.024,0.091-0.038
				c0.084-0.042,0.161-0.096,0.233-0.158c0.017-0.015,0.032-0.023,0.049-0.039c0.067-0.07,0.131-0.152,0.179-0.248
				c0.006-0.01,0.004-0.021,0.008-0.027c0.028-0.062,0.037-0.127,0.054-0.191c0.016-0.066,0.036-0.13,0.038-0.195
				c0-0.012,0.007-0.021,0.007-0.031v-8c0-0.011-0.007-0.02-0.007-0.03c-0.002-0.066-0.022-0.13-0.038-0.195
				c-0.017-0.065-0.022-0.132-0.054-0.192c-0.004-0.009-0.002-0.02-0.008-0.029c-0.021-0.044-0.06-0.071-0.086-0.11
				c-0.044-0.062-0.08-0.123-0.136-0.173c-0.047-0.042-0.101-0.069-0.149-0.102c-0.058-0.036-0.111-0.074-0.175-0.098
				c-0.065-0.024-0.135-0.03-0.202-0.041c-0.05-0.008-0.095-0.029-0.146-0.029c-0.011,0-0.021,0.006-0.031,0.006
				c-0.063,0.002-0.127,0.024-0.192,0.039c-0.063,0.016-0.133,0.024-0.192,0.053c-0.009,0.004-0.021,0.003-0.029,0.008l-6.552,3.276
				v-2.382C16.035,12.005,16.029,11.996,16.029,11.985z M14.035,18.396l-4.763-2.381l4.764-2.383L14.035,18.396L14.035,18.396z
				 M22.034,13.634v4.765l-4.764-2.381L22.034,13.634z M15.901,0C8.049,0,1.368,5.569,0.017,13.242
				c-0.096,0.544,0.271,1.062,0.818,1.157c0.545,0.091,1.069-0.269,1.166-0.813C3.183,6.873,9.029,2,15.901,2
				c7.782,0,14.113,6.287,14.113,14.016c0,7.729-6.33,14.016-14.113,14.016c-6.872,0-12.718-4.873-13.897-11.586
				c-0.098-0.545-0.619-0.907-1.166-0.813c-0.547,0.097-0.914,0.613-0.818,1.157c1.351,7.673,8.03,13.242,15.883,13.242
				c8.894,0,16.126-7.187,16.126-16.016C32.028,7.184,24.794,0,15.901,0z"/>
		</g>
	</g>
</g>
<g>
</g>
<g>
</g>
<g>
</g>
<g>
</g>
<g>
</g>
<g>
</g>
<g>
</g>
<g>
</g>
<g>
</g>
<g>
</g>
<g>
</g>
<g>
</g>
<g>
</g>
<g>
</g>
<g>
</g>
</svg>
