<?xml version="1.0" encoding="iso-8859-1"?>
<!-- Generator: Adobe Illustrator 16.0.0, SVG Export Plug-In . SVG Version: 6.00 Build 0)  -->
<!DOCTYPE svg PUBLIC "-//W3C//DTD SVG 1.1//EN" "http://www.w3.org/Graphics/SVG/1.1/DTD/svg11.dtd">
<svg version="1.1" id="Capa_1" xmlns="http://www.w3.org/2000/svg" xmlns:xlink="http://www.w3.org/1999/xlink" x="0px" y="0px"
	 width="32.025px" height="32.025px" viewBox="0 0 32.025 32.025" style="enable-background:new 0 0 32.025 32.025;"
	 xml:space="preserve">
<g>
	<g id="Arrow_x5F_Right_x5F_2">
		<g>
			<path d="M30.548,12.492L18.829,1.16C18.085,0.416,17.081,0,16.013,0c-1.069,0-2.073,0.416-2.828,1.172S12.013,2.932,12.013,4
				s0.416,2.073,1.172,2.828l4.167,4.332c0.068,0.068,0.16,0.188,0.16,0.367c0,0.133-0.051,0.257-0.146,0.35
				c-0.059,0.059-0.176,0.15-0.354,0.15H4.013c-2.184,0-3.971,1.767-4,3.945v0.036C0.021,18.214,1.817,20,4.013,20h13
				c0.18,0,0.299,0.093,0.354,0.146c0.097,0.097,0.146,0.221,0.146,0.354c0,0.182-0.092,0.299-0.146,0.354l-4.193,4.358
				c-0.742,0.741-1.158,1.746-1.158,2.813c0,1.068,0.416,2.074,1.172,2.828c0.755,0.756,1.759,1.172,2.828,1.172
				c1.068,0,2.073-0.416,2.829-1.172l11.541-11.16c0.06-0.036,0.112-0.08,0.164-0.131c0.944-0.943,1.464-2.199,1.464-3.535
				C32.013,14.691,31.491,13.436,30.548,12.492z M29.261,18.016c-0.041,0.025-0.08,0.06-0.115,0.094L17.438,29.43
				c-0.777,0.778-2.083,0.769-2.839,0.012c-0.379-0.377-0.587-0.879-0.587-1.414c0-0.533,0.208-1.035,0.586-1.413l4.195-4.359
				c0.459-0.46,0.719-1.087,0.719-1.755c0-0.667-0.26-1.294-0.729-1.764C18.312,18.264,17.683,18,17.013,18h-13
				c-1.098,0-1.995-0.895-2-1.99c0.005-1.09,0.902-1.981,2-1.981h13c0.67,0,1.299-0.263,1.773-0.738
				c0.467-0.468,0.727-1.095,0.727-1.762c0-0.668-0.26-1.296-0.732-1.769l-4.167-4.331C14.221,5.036,14.013,4.534,14.013,4
				s0.208-1.036,0.586-1.414c0.756-0.756,2.072-0.756,2.828,0l11.719,11.332c0.555,0.555,0.867,1.309,0.867,2.109
				C30.013,16.768,29.747,17.466,29.261,18.016z"/>
		</g>
	</g>
</g>
<g>
</g>
<g>
</g>
<g>
</g>
<g>
</g>
<g>
</g>
<g>
</g>
<g>
</g>
<g>
</g>
<g>
</g>
<g>
</g>
<g>
</g>
<g>
</g>
<g>
</g>
<g>
</g>
<g>
</g>
</svg>
