<?xml version="1.0" encoding="iso-8859-1"?>
<!-- Generator: Adobe Illustrator 16.0.0, SVG Export Plug-In . SVG Version: 6.00 Build 0)  -->
<!DOCTYPE svg PUBLIC "-//W3C//DTD SVG 1.1//EN" "http://www.w3.org/Graphics/SVG/1.1/DTD/svg11.dtd">
<svg version="1.1" id="Capa_1" xmlns="http://www.w3.org/2000/svg" xmlns:xlink="http://www.w3.org/1999/xlink" x="0px" y="0px"
	 width="32.031px" height="32.031px" viewBox="0 0 32.031 32.031" style="enable-background:new 0 0 32.031 32.031;"
	 xml:space="preserve">
<g>
	<g id="Pause">
		<g>
			<path d="M12,12.023v8c0,0.553,0.447,1,1,1s1-0.447,1-1v-8c0-0.553-0.447-1-1-1S12,11.47,12,12.023z M20,20.023v-8
				c0-0.553-0.447-1-1-1s-1,0.447-1,1v8c0,0.553,0.447,1,1,1S20,20.575,20,20.023z M18.79,0.231
				c-0.552-0.093-1.063,0.271-1.158,0.812c-0.095,0.544,0.269,1.063,0.812,1.158c6.715,1.176,11.588,6.981,11.588,13.821
				c0,6.824-4.873,12.631-11.586,13.804c-0.545,0.097-0.908,0.613-0.813,1.157c0.085,0.485,0.509,0.827,0.984,0.827
				c0.057,0,0.114-0.005,0.173-0.015c7.673-1.341,13.242-7.977,13.242-15.79C32.031,8.209,26.462,1.574,18.79,0.231z M14.399,1.046
				c-0.095-0.544-0.613-0.908-1.157-0.813C5.569,1.573,0,8.208,0,16.023c0,7.798,5.569,14.434,13.241,15.775
				c0.059,0.01,0.117,0.016,0.174,0.016c0.477,0,0.899-0.343,0.984-0.827c0.095-0.544-0.269-1.062-0.812-1.158
				C6.873,28.654,2,22.847,2,16.007C2,9.182,6.873,3.376,13.586,2.203C14.13,2.108,14.494,1.59,14.399,1.046z"/>
		</g>
	</g>
</g>
<g>
</g>
<g>
</g>
<g>
</g>
<g>
</g>
<g>
</g>
<g>
</g>
<g>
</g>
<g>
</g>
<g>
</g>
<g>
</g>
<g>
</g>
<g>
</g>
<g>
</g>
<g>
</g>
<g>
</g>
</svg>
