<?xml version="1.0" encoding="iso-8859-1"?>
<!-- Generator: Adobe Illustrator 16.0.0, SVG Export Plug-In . SVG Version: 6.00 Build 0)  -->
<!DOCTYPE svg PUBLIC "-//W3C//DTD SVG 1.1//EN" "http://www.w3.org/Graphics/SVG/1.1/DTD/svg11.dtd">
<svg version="1.1" id="Capa_1" xmlns="http://www.w3.org/2000/svg" xmlns:xlink="http://www.w3.org/1999/xlink" x="0px" y="0px"
	 width="32.017px" height="32.017px" viewBox="0 0 32.017 32.017" style="enable-background:new 0 0 32.017 32.017;"
	 xml:space="preserve">
<g>
	<g id="Scissors">
		<g>
			<path d="M20.922,20.188l-2.75-3.031c0.524,0.184,1.072,0.293,1.625,0.293c1.302,0,2.608-0.508,3.623-1.528l7.129-8.49
				c0.945-0.951,1.468-2.217,1.468-3.562c0-1.347-0.521-2.612-1.468-3.563c-0.006-0.007-0.014-0.008-0.021-0.013
				c-0.006-0.006-0.008-0.015-0.014-0.02c-0.048-0.042-0.103-0.061-0.153-0.092c-0.056-0.035-0.106-0.079-0.168-0.103
				c-0.062-0.023-0.128-0.026-0.191-0.037c-0.062-0.011-0.122-0.03-0.185-0.028c-0.066,0.001-0.131,0.022-0.196,0.038
				c-0.06,0.014-0.119,0.019-0.177,0.043c-0.063,0.027-0.116,0.076-0.176,0.117c-0.045,0.032-0.098,0.052-0.139,0.093
				c-0.007,0.005-0.007,0.013-0.013,0.019c-0.007,0.006-0.015,0.008-0.021,0.015L16.007,14.772L2.919,0.337
				C2.914,0.33,2.905,0.328,2.899,0.323C2.894,0.317,2.893,0.309,2.887,0.304C2.842,0.26,2.787,0.24,2.74,0.205
				c-0.056-0.039-0.104-0.084-0.166-0.11C2.512,0.068,2.444,0.062,2.378,0.048c-0.06-0.013-0.115-0.034-0.177-0.035
				C2.134,0.011,2.069,0.031,2.005,0.042C1.944,0.053,1.883,0.055,1.825,0.077C1.764,0.101,1.71,0.145,1.652,0.182
				C1.604,0.213,1.548,0.23,1.503,0.271C1.498,0.277,1.496,0.286,1.49,0.292C1.483,0.296,1.477,0.297,1.471,0.304
				C0.522,1.255,0,2.521,0,3.867s0.521,2.611,1.412,3.5l7.242,8.615c0.977,0.982,2.26,1.475,3.542,1.475
				c0.559,0,1.113-0.109,1.646-0.297l-2.746,3.028c-2.859-1.63-6.548-1.178-8.918,1.209c-2.796,2.812-2.916,7.323-0.273,10.276
				c0.01,0.012,0.027,0.016,0.037,0.026c0.014,0.014,0.018,0.029,0.031,0.043c0.057,0.053,0.123,0.08,0.188,0.117
				c0.038,0.021,0.07,0.051,0.109,0.065c0.123,0.05,0.25,0.079,0.379,0.079c0.127,0,0.254-0.028,0.375-0.077
				c0.041-0.018,0.074-0.048,0.113-0.07c0.062-0.034,0.127-0.062,0.182-0.11c0.013-0.012,0.018-0.027,0.03-0.041
				c0.012-0.012,0.027-0.017,0.04-0.027l12.618-13.915l12.618,13.915c0.014,0.015,0.028,0.019,0.041,0.027
				c0.014,0.014,0.019,0.029,0.029,0.041c0.057,0.052,0.121,0.078,0.185,0.113c0.038,0.021,0.071,0.053,0.112,0.067
				c0.119,0.049,0.246,0.077,0.374,0.077c0.13,0,0.257-0.029,0.379-0.079c0.039-0.016,0.07-0.046,0.108-0.065
				c0.062-0.037,0.132-0.064,0.188-0.117c0.015-0.014,0.021-0.029,0.03-0.043c0.013-0.013,0.027-0.017,0.039-0.026
				c2.643-2.953,2.521-7.468-0.273-10.276C27.469,19.011,23.779,18.559,20.922,20.188z M29.738,2.623
				C29.914,3.01,30.01,3.43,30.01,3.867c0,0.807-0.312,1.566-0.938,2.199l-7.129,8.49c-0.948,0.955-2.375,1.123-3.508,0.53
				L29.738,2.623z M10.129,14.619L2.887,6.004c-0.567-0.57-0.882-1.33-0.882-2.137c0-0.438,0.101-0.857,0.273-1.244l11.303,12.465
				C12.451,15.684,11.033,15.524,10.129,14.619z M2.736,29.407c-1.206-2.095-0.91-4.806,0.857-6.582
				c1.623-1.633,4.082-2.021,6.102-1.09L2.736,29.407z M29.28,29.407l-6.959-7.672c2.02-0.932,4.479-0.543,6.101,1.09
				C30.19,24.602,30.487,27.312,29.28,29.407z"/>
		</g>
	</g>
</g>
<g>
</g>
<g>
</g>
<g>
</g>
<g>
</g>
<g>
</g>
<g>
</g>
<g>
</g>
<g>
</g>
<g>
</g>
<g>
</g>
<g>
</g>
<g>
</g>
<g>
</g>
<g>
</g>
<g>
</g>
</svg>
