<?xml version="1.0" encoding="iso-8859-1"?>
<!-- Generator: Adobe Illustrator 16.0.0, SVG Export Plug-In . SVG Version: 6.00 Build 0)  -->
<!DOCTYPE svg PUBLIC "-//W3C//DTD SVG 1.1//EN" "http://www.w3.org/Graphics/SVG/1.1/DTD/svg11.dtd">
<svg version="1.1" id="Capa_1" xmlns="http://www.w3.org/2000/svg" xmlns:xlink="http://www.w3.org/1999/xlink" x="0px" y="0px"
	 width="32px" height="32px" viewBox="0 0 32 32" style="enable-background:new 0 0 32 32;" xml:space="preserve">
<g>
	<g id="Badge_x5F_2">
		<g>
			<path d="M27,0c-1.104,0-2,0.896-2,2c0,0.738,0.404,1.376,1,1.723V7.71C25.354,7.901,24.684,8,24,8
				c-3.131,0-5.787-2.066-6.68-4.906l0.387-0.387c0.391-0.391,0.391-1.023,0-1.414l-1-1c-0.092-0.092-0.203-0.165-0.325-0.216
				c-0.245-0.101-0.52-0.101-0.765,0c-0.122,0.051-0.233,0.124-0.325,0.216l-1,1c-0.391,0.391-0.391,1.023,0,1.414l0.387,0.387
				C13.787,5.934,11.131,8,8,8C7.315,8,6.645,7.902,6,7.71V3.723C6.595,3.375,7,2.737,7,2c0-1.104-0.896-2-2-2S3,0.896,3,2
				c0,0.738,0.405,1.376,1,1.723V16c0,4.064,2.543,7.812,5.235,10.645c0.005,0.004,0.006,0.013,0.012,0.019
				c0.004,0.002,0.009,0.004,0.012,0.008c2.899,3.043,5.961,5.021,6.204,5.177c0.01,0.006,0.021,0.008,0.032,0.014
				c0.052,0.031,0.107,0.053,0.163,0.074c0.028,0.01,0.055,0.022,0.084,0.03c0.079,0.021,0.16,0.033,0.243,0.033
				C15.99,31.998,15.995,32,16,32l0,0l0,0c0.005,0,0.01-0.002,0.015-0.002c0.083-0.002,0.164-0.014,0.243-0.035
				c0.029-0.006,0.055-0.021,0.083-0.031c0.057-0.021,0.111-0.043,0.164-0.072c0.011-0.008,0.021-0.01,0.031-0.016
				c0.241-0.152,3.269-2.109,6.153-5.121c0-0.002,0.004-0.002,0.004-0.004c0.002-0.002,0.004-0.006,0.006-0.008
				C25.417,23.871,28,20.098,28,16V3.723C28.596,3.375,29,2.737,29,2C29,0.896,28.104,0,27,0z M8,10c3.483,0,6.505-1.994,8-4.896
				C17.495,8.005,20.518,10,24,10c0.023,0,0.046-0.003,0.068-0.004l-8.103,8.327L7.915,9.996C7.943,9.996,7.972,10,8,10z M6,10.893
				L8.038,13H6V10.893z M6,16v-1h3.972l1.934,2H6.07C6.028,16.668,6,16.334,6,16z M6.55,19h7.29l0.731,0.756l-1.27,1.305
				C13.205,21.029,13.107,21,13,21H7.462C7.1,20.352,6.79,19.682,6.55,19z M8.768,23h2.646l-1.438,1.479
				C9.558,24.006,9.151,23.512,8.768,23z M16,29.793c-0.889-0.621-2.759-2.002-4.647-3.861l4.609-4.736l4.631,4.789
				C18.725,27.816,16.881,29.18,16,29.793z M21.975,24.535L20.49,23h2.742C22.833,23.533,22.41,24.045,21.975,24.535z M24.538,21H19
				c-0.132,0-0.256,0.029-0.372,0.074l-1.271-1.314l0.74-0.76h7.354C25.21,19.682,24.9,20.352,24.538,21z M26,16
				c0,0.335-0.027,0.668-0.07,1h-5.886l1.948-2.002C21.995,14.998,21.997,15,22,15h4V16z M26,13h-2.062L26,10.879V13z M19,12
				c0-1.654-1.346-3-3-3c-1.654,0-3,1.346-3,3s1.346,3,3,3C17.654,15,19,13.653,19,12z M15,12c0-0.552,0.449-1,1-1s1,0.448,1,1
				c0,0.551-0.449,1-1,1S15,12.55,15,12z M14.293,24.293c-0.391,0.391-0.391,1.023,0,1.414L14.586,26l-0.293,0.293
				c-0.391,0.391-0.391,1.023,0,1.414C14.488,27.902,14.744,28,15,28s0.512-0.098,0.707-0.293L16,27.414l0.293,0.293
				C16.488,27.902,16.744,28,17,28s0.512-0.098,0.707-0.293c0.391-0.391,0.391-1.023,0-1.414L17.414,26l0.293-0.293
				c0.391-0.391,0.391-1.023,0-1.414s-1.023-0.391-1.414,0L16,24.586l-0.293-0.293C15.316,23.902,14.684,23.902,14.293,24.293z"/>
		</g>
	</g>
</g>
<g>
</g>
<g>
</g>
<g>
</g>
<g>
</g>
<g>
</g>
<g>
</g>
<g>
</g>
<g>
</g>
<g>
</g>
<g>
</g>
<g>
</g>
<g>
</g>
<g>
</g>
<g>
</g>
<g>
</g>
</svg>
