<?xml version="1.0" encoding="iso-8859-1"?>
<!-- Generator: Adobe Illustrator 16.0.0, SVG Export Plug-In . SVG Version: 6.00 Build 0)  -->
<!DOCTYPE svg PUBLIC "-//W3C//DTD SVG 1.1//EN" "http://www.w3.org/Graphics/SVG/1.1/DTD/svg11.dtd">
<svg version="1.1" id="Capa_1" xmlns="http://www.w3.org/2000/svg" xmlns:xlink="http://www.w3.org/1999/xlink" x="0px" y="0px"
	 width="32.005px" height="32.004px" viewBox="0 0 32.005 32.004" style="enable-background:new 0 0 32.005 32.004;"
	 xml:space="preserve">
<g>
	<g id="Mix_x5F_Tracks">
		<g>
			<path d="M0.837,14.389c0.551,0.095,1.076-0.268,1.173-0.811c1.191-6.701,7.072-11.564,14-11.564
				c6.913,0,12.793,4.863,13.981,11.563c0.097,0.543,0.621,0.906,1.172,0.812c0.492-0.084,0.839-0.507,0.839-0.982
				c0-0.057-0.005-0.114-0.017-0.172C30.629,5.577,23.909,0.018,15.994,0.018c-7.898,0-14.619,5.559-15.979,13.216
				C-0.08,13.786,0.288,14.294,0.837,14.389z M31.166,17.616c-0.551-0.095-1.076,0.27-1.173,0.812
				c-1.19,6.699-7.071,11.562-13.999,11.562c-6.913,0-12.793-4.863-13.981-11.562c-0.097-0.543-0.621-0.906-1.172-0.812
				c-0.551,0.096-0.918,0.613-0.824,1.153c1.358,7.657,8.078,13.216,15.993,13.216c7.898,0,14.618-5.559,15.979-13.215
				c0.012-0.059,0.017-0.117,0.017-0.174C32.004,18.122,31.658,17.702,31.166,17.616z M20.521,25.186
				c0.146,0.081,0.31,0.12,0.472,0.12c0.192,0,0.387-0.058,0.554-0.17l4.792-3.24c0.278-0.188,0.444-0.504,0.444-0.843
				c0-0.34-0.167-0.655-0.444-0.844l-4.792-3.242c-0.306-0.207-0.7-0.227-1.024-0.051c-0.323,0.177-0.525,0.52-0.525,0.895v2.432H18
				c-0.591,0-1.181-0.146-1.753-0.434c-0.496-0.247-1.093-0.042-1.336,0.461c-0.245,0.501-0.041,1.107,0.454,1.355
				c0.85,0.427,1.737,0.642,2.636,0.642h1.996v2.026C19.994,24.667,20.196,25.01,20.521,25.186z M21.99,19.704l1.993,1.352
				l-1.993,1.348V19.704z M7.02,12.139h1c0.59,0,1.178,0.146,1.75,0.432c0.142,0.072,0.293,0.105,0.441,0.105
				c0.369,0,0.722-0.207,0.896-0.564c0.245-0.501,0.042-1.109-0.452-1.356c-0.85-0.427-1.736-0.642-2.636-0.642h-1
				c-0.552,0-0.998,0.453-0.998,1.012C6.021,11.686,6.468,12.139,7.02,12.139z M26.337,10.485l-4.792-3.24
				c-0.305-0.207-0.699-0.227-1.024-0.05c-0.326,0.176-0.526,0.519-0.526,0.893v2.026h-1.996c-3.302,0-5.988,2.726-5.988,6.076
				c0,2.235-1.791,4.053-3.99,4.053h-1c-0.552,0-0.998,0.452-0.998,1.012c0,0.562,0.446,1.015,0.998,1.015h1
				c3.301,0,5.986-2.728,5.986-6.077c0-2.234,1.791-4.051,3.992-4.051h1.996v2.432c0,0.373,0.202,0.717,0.526,0.893
				c0.146,0.08,0.31,0.119,0.472,0.119c0.192,0,0.387-0.057,0.554-0.17l4.792-3.242c0.278-0.188,0.444-0.504,0.444-0.843
				S26.615,10.673,26.337,10.485z M21.99,12.677V9.98l1.993,1.348L21.99,12.677z"/>
		</g>
	</g>
</g>
<g>
</g>
<g>
</g>
<g>
</g>
<g>
</g>
<g>
</g>
<g>
</g>
<g>
</g>
<g>
</g>
<g>
</g>
<g>
</g>
<g>
</g>
<g>
</g>
<g>
</g>
<g>
</g>
<g>
</g>
</svg>
