<?xml version="1.0" encoding="iso-8859-1"?>
<!-- Generator: Adobe Illustrator 16.0.0, SVG Export Plug-In . SVG Version: 6.00 Build 0)  -->
<!DOCTYPE svg PUBLIC "-//W3C//DTD SVG 1.1//EN" "http://www.w3.org/Graphics/SVG/1.1/DTD/svg11.dtd">
<svg version="1.1" id="Capa_1" xmlns="http://www.w3.org/2000/svg" xmlns:xlink="http://www.w3.org/1999/xlink" x="0px" y="0px"
	 width="32px" height="32px" viewBox="0 0 32 32" style="enable-background:new 0 0 32 32;" xml:space="preserve">
<g>
	<g id="WIFI">
		<g>
			<path d="M16,26c-1.654,0-3,1.346-3,3s1.346,3,3,3s3-1.346,3-3S17.655,26,16,26z M16,30c-0.552,0-1-0.448-1-1s0.448-1,1-1
				s1,0.448,1,1S16.551,30,16,30z M31.538,4.52C26.889,1.562,21.517,0,16,0C10.482,0,5.111,1.562,0.462,4.52
				C-0.002,4.816-0.141,5.434,0.157,5.9c0.297,0.465,0.912,0.603,1.381,0.307C5.863,3.455,10.865,2,16,2
				c5.136,0,10.138,1.455,14.463,4.207C30.628,6.312,30.816,6.363,31,6.363c0.33,0,0.653-0.164,0.846-0.463
				C32.141,5.434,32.001,4.816,31.538,4.52z M21.827,19.682c-3.512-2.199-8.141-2.199-11.652,0
				c-0.468,0.293-0.609,0.909-0.316,1.379c0.294,0.467,0.91,0.608,1.379,0.315c2.873-1.801,6.655-1.801,9.528,0
				c0.165,0.104,0.349,0.151,0.529,0.151c0.332,0,0.658-0.166,0.85-0.469C22.436,20.591,22.292,19.975,21.827,19.682z
				 M26.594,12.055C23.417,10.057,19.751,9,16,9c-3.752,0-7.416,1.057-10.594,3.055c-0.468,0.294-0.608,0.911-0.314,1.379
				c0.295,0.469,0.913,0.608,1.379,0.314C9.33,11.95,12.625,11,16,11c3.375,0,6.67,0.95,9.529,2.748
				c0.165,0.104,0.351,0.153,0.531,0.153c0.332,0,0.656-0.165,0.849-0.468C27.204,12.966,27.062,12.349,26.594,12.055z"/>
		</g>
	</g>
</g>
<g>
</g>
<g>
</g>
<g>
</g>
<g>
</g>
<g>
</g>
<g>
</g>
<g>
</g>
<g>
</g>
<g>
</g>
<g>
</g>
<g>
</g>
<g>
</g>
<g>
</g>
<g>
</g>
<g>
</g>
</svg>
