<?xml version="1.0" encoding="iso-8859-1"?>
<!-- Generator: Adobe Illustrator 16.0.0, SVG Export Plug-In . SVG Version: 6.00 Build 0)  -->
<!DOCTYPE svg PUBLIC "-//W3C//DTD SVG 1.1//EN" "http://www.w3.org/Graphics/SVG/1.1/DTD/svg11.dtd">
<svg version="1.1" id="Capa_1" xmlns="http://www.w3.org/2000/svg" xmlns:xlink="http://www.w3.org/1999/xlink" x="0px" y="0px"
	 width="32.002px" height="32.002px" viewBox="0 0 32.002 32.002" style="enable-background:new 0 0 32.002 32.002;"
	 xml:space="preserve">
<g>
	<g id="Expand">
		<g>
			<path d="M12.001,0.001L3.001,0C2.2,0,1.446,0.312,0.88,0.879C0.313,1.445,0.001,2.199,0.001,3v9.001c0,1.653,1.346,3,3,3
				s3-1.346,3-3v-1.639l3.879,3.759c1.132,1.132,3.108,1.134,4.242,0c1.17-1.17,1.17-3.072,0.011-4.232l-3.77-3.888h1.638
				c1.654,0,3-1.346,3-3C15.001,1.347,13.655,0.001,12.001,0.001z M12.001,4.001h-4c-0.401,0-0.765,0.24-0.921,0.61
				C6.924,4.98,7.004,5.408,7.283,5.697l5.425,5.596c0.39,0.39,0.39,1.024,0,1.414c-0.377,0.379-1.027,0.389-1.425-0.011
				L5.697,7.282C5.408,7.003,4.98,6.923,4.611,7.08c-0.37,0.157-0.61,0.52-0.61,0.921v4c0,0.551-0.448,1-1,1
				c-0.552-0.001-1-0.449-1-1V3c0-0.267,0.104-0.518,0.293-0.707S2.734,2,3.001,2l9,0.001c0.552,0,1,0.448,1,1
				C13.001,3.552,12.553,4.001,12.001,4.001z M31.122,0.879C30.556,0.312,29.802,0,29.001,0l-9,0.001c-1.654,0-3,1.346-3,3
				c0,1.654,1.346,3,3,3h1.639l-3.76,3.877c-1.17,1.171-1.17,3.073,0,4.244c1.135,1.133,3.121,1.12,4.23,0.011l3.891-3.771v1.639
				c0,1.654,1.346,3,3,3s3-1.347,3-3V3C32.001,2.199,31.688,1.445,31.122,0.879z M30.001,12.001c0,0.551-0.448,0.999-1,1
				c-0.552,0-1-0.449-1-1v-4c0-0.401-0.24-0.764-0.609-0.921c-0.127-0.053-0.259-0.079-0.391-0.079
				c-0.255,0-0.506,0.098-0.695,0.281l-5.598,5.425c-0.377,0.378-1.036,0.378-1.414,0c-0.391-0.39-0.391-1.024,0.012-1.425
				l5.413-5.585c0.279-0.289,0.359-0.717,0.203-1.086c-0.155-0.37-0.521-0.61-0.921-0.61h-4c-0.552,0-1-0.449-1-1
				c0-0.552,0.448-1,1-1l9-0.001c0.268,0,0.518,0.104,0.707,0.293S30.001,2.733,30.001,3V12.001z M29.001,17.001
				c-1.654,0-3,1.347-3,3v1.64l-3.878-3.759c-1.134-1.135-3.11-1.134-4.243-0.001c-1.17,1.17-1.17,3.073-0.011,4.23l3.771,3.89
				h-1.639c-1.654,0-3,1.347-3,3c0,1.654,1.346,3,3,3l9,0.001c0.801,0,1.555-0.312,2.121-0.879s0.879-1.318,0.879-2.121v-9.001
				C32.001,18.35,30.655,17.002,29.001,17.001z M30.001,29.002c0,0.268-0.104,0.52-0.293,0.707s-0.439,0.293-0.707,0.293l-9-0.001
				c-0.552,0-1-0.446-1-1c0-0.551,0.448-1,1-1h4c0.4,0,0.766-0.24,0.921-0.608c0.156-0.369,0.076-0.799-0.203-1.086l-5.425-5.598
				c-0.391-0.391-0.391-1.021,0-1.413c0.376-0.377,1.025-0.394,1.425,0.011l5.587,5.413c0.288,0.278,0.715,0.357,1.086,0.202
				c0.369-0.156,0.609-0.521,0.609-0.921v-4c0-0.552,0.448-1,1-1c0.551,0,1,0.448,1,1V29.002z M12.001,26.001h-1.638l3.759-3.877
				c1.17-1.17,1.17-3.073,0-4.244c-1.133-1.131-3.12-1.12-4.231-0.01l-3.89,3.771v-1.64c0-1.653-1.346-3-3-3
				c-1.654,0.001-3,1.349-3,3v9.001c0,0.803,0.312,1.557,0.879,2.121s1.32,0.879,2.121,0.879l9-0.001c1.654,0,3-1.346,3-3
				C15.001,27.348,13.655,26.001,12.001,26.001z M12.001,30.001l-9,0.001c-0.267,0-0.518-0.104-0.707-0.293
				s-0.293-0.439-0.293-0.707v-9.001c0-0.552,0.449-1,1-1c0.552,0,1,0.448,1,1v4c0,0.399,0.24,0.765,0.61,0.921
				c0.369,0.155,0.797,0.076,1.086-0.202l5.597-5.424c0.377-0.379,1.037-0.378,1.414-0.001c0.39,0.393,0.39,1.023-0.011,1.425
				l-5.414,5.587c-0.279,0.287-0.359,0.717-0.203,1.086c0.156,0.368,0.52,0.608,0.921,0.608h4c0.552,0,1,0.449,1,1
				C13.001,29.555,12.553,30.001,12.001,30.001z"/>
		</g>
	</g>
</g>
<g>
</g>
<g>
</g>
<g>
</g>
<g>
</g>
<g>
</g>
<g>
</g>
<g>
</g>
<g>
</g>
<g>
</g>
<g>
</g>
<g>
</g>
<g>
</g>
<g>
</g>
<g>
</g>
<g>
</g>
</svg>
