<?xml version="1.0" encoding="iso-8859-1"?>
<!-- Generator: Adobe Illustrator 16.0.0, SVG Export Plug-In . SVG Version: 6.00 Build 0)  -->
<!DOCTYPE svg PUBLIC "-//W3C//DTD SVG 1.1//EN" "http://www.w3.org/Graphics/SVG/1.1/DTD/svg11.dtd">
<svg version="1.1" id="Capa_1" xmlns="http://www.w3.org/2000/svg" xmlns:xlink="http://www.w3.org/1999/xlink" x="0px" y="0px"
	 width="32px" height="32px" viewBox="0 0 32 32" style="enable-background:new 0 0 32 32;" xml:space="preserve">
<g>
	<g id="Speaker">
		<g>
			<path d="M16,0c-0.553,0-1,0.448-1,1c0,0.553,0.447,1,1,1c7.721,0,14,6.28,14,14c0,0.553,0.447,1,1,1s1-0.447,1-1
				C32,7.178,24.822,0,16,0z M25.076,12.879c0.16,0.385,0.531,0.617,0.924,0.617c0.128,0,0.258-0.025,0.383-0.077
				c0.512-0.212,0.754-0.797,0.541-1.307c-1.312-3.161-3.876-5.725-7.035-7.036c-0.508-0.211-1.095,0.03-1.308,0.541
				c-0.212,0.51,0.03,1.095,0.541,1.307C21.796,8.033,23.967,10.203,25.076,12.879z M29.421,19.572
				c-0.129-0.195-0.276-0.379-0.446-0.547c0,0,0-0.002-0.002-0.002L12.976,3.025c-0.023-0.023-0.052-0.039-0.076-0.062
				c-1.37-1.296-3.532-1.278-4.874,0.062C7.364,3.687,7,4.564,7,5.5v8.67c-1.052-0.37-2.31-0.103-3.121,0.709l-3,3
				C0.312,18.445,0,19.198,0,20c0,0.801,0.312,1.555,0.879,2.122l9,9C10.445,31.688,11.198,32,12,32
				c0.801,0,1.554-0.312,2.121-0.878l3.001-3.001C17.688,27.555,18,26.801,18,26c0-0.348-0.059-0.684-0.17-1h8.678
				c0.67-0.001,1.307-0.195,1.859-0.546c0.02-0.013,0.041-0.021,0.062-0.034c0.172-0.113,0.334-0.25,0.485-0.396
				c0.021-0.019,0.04-0.028,0.06-0.047c0.17-0.17,0.316-0.354,0.445-0.547c0.014-0.021,0.021-0.045,0.034-0.063
				C29.807,22.811,30,22.172,30,21.5s-0.193-1.311-0.545-1.863C29.441,19.615,29.436,19.593,29.421,19.572z M15.707,26.707l-3,3
				c-0.378,0.38-1.038,0.377-1.414,0.001l-8.999-9C2.104,20.52,2,20.268,2,20s0.104-0.52,0.293-0.707l3-3
				C5.482,16.104,5.733,16,6,16s0.518,0.104,0.707,0.294C6.896,16.482,7,16.732,7,17c0,0,0,0.001,0,0.002
				C7.001,21.412,10.59,25,15,25c0.267,0,0.518,0.104,0.707,0.294C15.896,25.482,16,25.732,16,26S15.896,26.52,15.707,26.707z
				 M15,23c-3.309,0-6-2.691-6-6V8.949L23.051,23H15z M27.561,22.561C27.561,22.562,27.559,22.562,27.561,22.561
				c-0.586,0.586-1.537,0.586-2.121,0l-16-16C9.156,6.277,9,5.9,9,5.5s0.156-0.776,0.439-1.061c0.554-0.553,1.507-0.558,2.079-0.028
				c0.013,0.013,0.029,0.016,0.042,0.028c0.001,0.001,0.002,0.001,0.003,0.002l15.998,15.997v0.002c0.002,0,0.002,0.002,0.002,0.002
				c0.146,0.146,0.254,0.313,0.328,0.494c0,0,0,0,0,0.002C28.107,21.479,27.998,22.123,27.561,22.561z"/>
		</g>
	</g>
</g>
<g>
</g>
<g>
</g>
<g>
</g>
<g>
</g>
<g>
</g>
<g>
</g>
<g>
</g>
<g>
</g>
<g>
</g>
<g>
</g>
<g>
</g>
<g>
</g>
<g>
</g>
<g>
</g>
<g>
</g>
</svg>
