<?xml version="1.0" encoding="iso-8859-1"?>
<!-- Generator: Adobe Illustrator 16.0.0, SVG Export Plug-In . SVG Version: 6.00 Build 0)  -->
<!DOCTYPE svg PUBLIC "-//W3C//DTD SVG 1.1//EN" "http://www.w3.org/Graphics/SVG/1.1/DTD/svg11.dtd">
<svg version="1.1" id="Capa_1" xmlns="http://www.w3.org/2000/svg" xmlns:xlink="http://www.w3.org/1999/xlink" x="0px" y="0px"
	 width="32px" height="32px" viewBox="0 0 32 32" style="enable-background:new 0 0 32 32;" xml:space="preserve">
<g>
	<g id="Speech_x5F_Balloon">
		<g>
			<path d="M29.125,0.015H2.875C1.29,0.015,0,1.248,0,2.765v26.221c0,0.797,0.312,1.549,0.881,2.12
				c0.569,0.567,1.322,0.88,2.12,0.88c0.801,0,1.554-0.312,2.108-0.867l6.598-6.371c0.473-0.473,1.101-0.732,1.768-0.732h15.65
				c1.585,0,2.875-1.232,2.875-2.75v-18.5C32,1.248,30.71,0.015,29.125,0.015z M30,21.265c0,0.413-0.393,0.75-0.875,0.75h-15.65
				c-1.201,0-2.332,0.468-3.169,1.307l-6.598,6.371c-0.381,0.381-1.03,0.381-1.413-0.001C2.103,29.497,2,29.253,2,28.985
				l0.001-16.971H2v-9.25c0-0.414,0.393-0.75,0.875-0.75h26.25c0.482,0,0.875,0.336,0.875,0.75V21.265z M16,14.015
				c-1.104,0-2,0.896-2,2c0,1.104,0.896,2,2,2c1.104,0,2-0.896,2-2C18,14.911,17.104,14.015,16,14.015z M8,14.015
				c-1.104,0-2,0.896-2,2c0,1.104,0.896,2,2,2s2-0.896,2-2C10,14.911,9.104,14.015,8,14.015z M24,14.015c-1.104,0-2,0.896-2,2
				c0,1.104,0.896,2,2,2s2-0.896,2-2C26,14.911,25.104,14.015,24,14.015z"/>
		</g>
	</g>
</g>
<g>
</g>
<g>
</g>
<g>
</g>
<g>
</g>
<g>
</g>
<g>
</g>
<g>
</g>
<g>
</g>
<g>
</g>
<g>
</g>
<g>
</g>
<g>
</g>
<g>
</g>
<g>
</g>
<g>
</g>
</svg>
