<?xml version="1.0" encoding="iso-8859-1"?>
<!-- Generator: Adobe Illustrator 16.0.0, SVG Export Plug-In . SVG Version: 6.00 Build 0)  -->
<!DOCTYPE svg PUBLIC "-//W3C//DTD SVG 1.1//EN" "http://www.w3.org/Graphics/SVG/1.1/DTD/svg11.dtd">
<svg version="1.1" id="Capa_1" xmlns="http://www.w3.org/2000/svg" xmlns:xlink="http://www.w3.org/1999/xlink" x="0px" y="0px"
	 width="32px" height="32px" viewBox="0 0 32 32" style="enable-background:new 0 0 32 32;" xml:space="preserve">
<g>
	<g id="Speech_x5F_Balloon_x5F_Dialogue">
		<g>
			<path d="M29.125,7.028h-4.25V2.75C24.875,1.232,23.585,0,22,0H2.875C1.29,0,0,1.232,0,2.75v19.221
				c0,0.797,0.312,1.549,0.881,2.119c0.569,0.568,1.322,0.881,2.12,0.881c0.801,0,1.554-0.312,2.108-0.865l2.141-2.067
				C7.597,23.184,8.691,24.03,10,24.03h8.525c0.666,0,1.295,0.26,1.779,0.743l6.571,6.349C27.443,31.688,28.197,32,28.998,32
				c0.798,0,1.551-0.311,2.122-0.883C31.688,30.549,32,29.797,32,29V9.778C32,8.263,30.71,7.028,29.125,7.028z M3.708,22.678
				c-0.381,0.381-1.029,0.381-1.413-0.002C2.103,22.482,2,22.238,2,21.971V2.75C2,2.335,2.393,2,2.875,2H22
				c0.482,0,0.875,0.336,0.875,0.75v11.5c0,0.414-0.393,0.75-0.875,0.75h-8.525c-1.201,0-2.332,0.468-3.169,1.307L3.708,22.678z
				 M30,29c0,0.268-0.104,0.512-0.293,0.703c-0.389,0.387-1.021,0.395-1.428-0.01l-6.572-6.346c-0.85-0.853-1.98-1.318-3.182-1.318
				H10c-0.482,0-0.875-0.338-0.875-0.75v-1.053l2.582-2.494C12.18,17.26,12.808,17,13.475,17H22c1.585,0,2.875-1.233,2.875-2.75
				V9.028h4.25c0.482,0,0.875,0.336,0.875,0.75V29z M12.5,12c0.828,0,1.5-0.672,1.5-1.5S13.328,9,12.5,9S11,9.671,11,10.5
				S11.672,12,12.5,12z M6.5,9C5.672,9,5,9.671,5,10.5S5.672,12,6.5,12S8,11.328,8,10.5S7.328,9,6.5,9z M18.5,12
				c0.828,0,1.5-0.672,1.5-1.5S19.328,9,18.5,9S17,9.671,17,10.5S17.672,12,18.5,12z"/>
		</g>
	</g>
</g>
<g>
</g>
<g>
</g>
<g>
</g>
<g>
</g>
<g>
</g>
<g>
</g>
<g>
</g>
<g>
</g>
<g>
</g>
<g>
</g>
<g>
</g>
<g>
</g>
<g>
</g>
<g>
</g>
<g>
</g>
</svg>
