<?xml version="1.0" encoding="iso-8859-1"?>
<!-- Generator: Adobe Illustrator 16.0.0, SVG Export Plug-In . SVG Version: 6.00 Build 0)  -->
<!DOCTYPE svg PUBLIC "-//W3C//DTD SVG 1.1//EN" "http://www.w3.org/Graphics/SVG/1.1/DTD/svg11.dtd">
<svg version="1.1" id="Capa_1" xmlns="http://www.w3.org/2000/svg" xmlns:xlink="http://www.w3.org/1999/xlink" x="0px" y="0px"
	 width="32px" height="32px" viewBox="0 0 32 32" style="enable-background:new 0 0 32 32;" xml:space="preserve">
<g>
	<g id="Full_x5F_Screen">
		<g>
			<path d="M18.143,10H3.857C1.73,10,0,11.73,0,13.857v14.286C0,30.27,1.73,32,3.857,32h14.286C20.27,32,22,30.27,22,28.143V13.857
				C22,11.73,20.27,10,18.143,10z M20,28.143C20,29.167,19.167,30,18.143,30H3.857C2.833,30,2,29.167,2,28.143V13.857
				C2,12.833,2.833,12,3.857,12h14.286C19.167,12,20,12.833,20,13.857V28.143z M28.143,0H13.857C11.73,0,10,1.73,10,3.857V7
				c0,0.552,0.447,1,1,1s1-0.448,1-1V3.857C12,2.833,12.833,2,13.857,2h14.286C29.167,2,30,2.833,30,3.857v14.286
				C30,19.167,29.167,20,28.143,20H25c-0.553,0-1,0.447-1,1s0.447,1,1,1h3.143C30.27,22,32,20.27,32,18.143V3.857
				C32,1.73,30.27,0,28.143,0z"/>
		</g>
	</g>
</g>
<g>
</g>
<g>
</g>
<g>
</g>
<g>
</g>
<g>
</g>
<g>
</g>
<g>
</g>
<g>
</g>
<g>
</g>
<g>
</g>
<g>
</g>
<g>
</g>
<g>
</g>
<g>
</g>
<g>
</g>
</svg>
