<?xml version="1.0" encoding="iso-8859-1"?>
<!-- Generator: Adobe Illustrator 16.0.0, SVG Export Plug-In . SVG Version: 6.00 Build 0)  -->
<!DOCTYPE svg PUBLIC "-//W3C//DTD SVG 1.1//EN" "http://www.w3.org/Graphics/SVG/1.1/DTD/svg11.dtd">
<svg version="1.1" id="Capa_1" xmlns="http://www.w3.org/2000/svg" xmlns:xlink="http://www.w3.org/1999/xlink" x="0px" y="0px"
	 width="32px" height="32px" viewBox="0 0 32 32" style="enable-background:new 0 0 32 32;" xml:space="preserve">
<g>
	<g id="Transform">
		<g>
			<path d="M29.5,8C30.879,8,32,6.879,32,5.5v-3C32,1.121,30.879,0,29.5,0h-3C25.121,0,24,1.121,24,2.5V3H8V2.5
				C8,1.121,6.879,0,5.5,0h-3C1.122,0,0,1.121,0,2.5v3C0,6.879,1.122,8,2.5,8H3v16H2.5C1.122,24,0,25.121,0,26.5v3
				C0,30.879,1.122,32,2.5,32h3C6.879,32,8,30.879,8,29.5V29h16v0.5c0,1.379,1.121,2.5,2.5,2.5h3c1.379,0,2.5-1.121,2.5-2.5v-3
				c0-1.379-1.121-2.5-2.5-2.5H29V8H29.5z M2.5,6C2.224,6,2,5.775,2,5.5v-3C2,2.225,2.224,2,2.5,2h3C5.775,2,6,2.225,6,2.5v3
				C6,5.775,5.775,6,5.5,6H2.5z M6,29.5C6,29.775,5.775,30,5.5,30h-3C2.224,30,2,29.775,2,29.5v-3C2,26.225,2.224,26,2.5,26h3
				C5.775,26,6,26.225,6,26.5V29.5z M24,26.5V27H8v-0.5C8,25.121,6.879,24,5.5,24H5V8h0.5C6.879,8,8,6.879,8,5.5V5h16v0.5
				C24,6.879,25.121,8,26.5,8H27v16h-0.5C25.121,24,24,25.121,24,26.5z M29.5,26c0.275,0,0.5,0.225,0.5,0.5v3
				c0,0.275-0.225,0.5-0.5,0.5h-3c-0.275,0-0.5-0.225-0.5-0.5v-3c0-0.275,0.225-0.5,0.5-0.5H29.5z M26.5,6C26.225,6,26,5.775,26,5.5
				v-3C26,2.225,26.225,2,26.5,2h3C29.775,2,30,2.225,30,2.5v3C30,5.775,29.775,6,29.5,6H26.5z"/>
		</g>
	</g>
</g>
<g>
</g>
<g>
</g>
<g>
</g>
<g>
</g>
<g>
</g>
<g>
</g>
<g>
</g>
<g>
</g>
<g>
</g>
<g>
</g>
<g>
</g>
<g>
</g>
<g>
</g>
<g>
</g>
<g>
</g>
</svg>
