<?xml version="1.0" encoding="iso-8859-1"?>
<!-- Generator: Adobe Illustrator 16.0.0, SVG Export Plug-In . SVG Version: 6.00 Build 0)  -->
<!DOCTYPE svg PUBLIC "-//W3C//DTD SVG 1.1//EN" "http://www.w3.org/Graphics/SVG/1.1/DTD/svg11.dtd">
<svg version="1.1" id="Capa_1" xmlns="http://www.w3.org/2000/svg" xmlns:xlink="http://www.w3.org/1999/xlink" x="0px" y="0px"
	 width="32px" height="32px" viewBox="0 0 32 32" style="enable-background:new 0 0 32 32;" xml:space="preserve">
<g>
	<g id="Stamp">
		<g>
			<path d="M30.545,5.138C31.125,4.761,32,4.191,32,3V1c0-0.553-0.448-1-1-1h-2c-1.193,0-1.762,0.876-2.139,1.455
				C26.662,1.764,26.5,2,26.4,2c-0.103,0-0.262-0.235-0.463-0.544C25.585,0.911,24.995,0,23.801,0c-1.193,0-1.763,0.876-2.14,1.455
				C21.46,1.764,21.299,2,21.199,2s-0.26-0.236-0.461-0.545C20.361,0.876,19.792,0,18.6,0c-1.19,0-1.761,0.876-2.137,1.455
				C16.262,1.764,16.1,2,16,2c-0.099,0-0.26-0.236-0.461-0.545C15.162,0.876,14.592,0,13.4,0c-1.193,0-1.763,0.876-2.139,1.456
				C11.061,1.765,10.899,2,10.801,2c-0.1,0-0.262-0.236-0.463-0.545C9.961,0.875,9.392,0,8.199,0c-1.191,0-1.76,0.875-2.137,1.454
				C5.861,1.764,5.699,2,5.6,2C5.5,2,5.339,1.764,5.138,1.455C4.761,0.876,4.192,0,3,0H1C0.448,0,0,0.447,0,1v2
				c0,1.194,0.911,1.785,1.456,2.138C1.764,5.338,2,5.5,2,5.6S1.764,5.861,1.456,6.061C0.911,6.414,0,7.006,0,8.2
				c0,1.193,0.876,1.763,1.456,2.14C1.764,10.539,2,10.701,2,10.8c0,0.1-0.236,0.262-0.545,0.462C0.875,11.64,0,12.208,0,13.4
				s0.875,1.762,1.455,2.138C1.764,15.739,2,15.901,2,16c0,0.1-0.236,0.261-0.545,0.461C0.875,16.839,0,17.408,0,18.602
				c0,1.192,0.875,1.76,1.455,2.139C1.764,20.939,2,21.102,2,21.2c0,0.098-0.236,0.262-0.545,0.462C0.875,22.039,0,22.607,0,23.8
				c0,1.193,0.875,1.763,1.455,2.14C1.764,26.141,2,26.301,2,26.398c0,0.102-0.236,0.263-0.545,0.463C0.875,27.239,0,27.809,0,29v2
				c0,0.552,0.448,1,1,1h2c1.194,0,1.785-0.911,2.139-1.455C5.339,30.236,5.5,30,5.601,30c0.1,0,0.26,0.236,0.46,0.544
				C6.414,31.088,7.005,32,8.2,32c1.193,0,1.762-0.876,2.139-1.456C10.54,30.236,10.701,30,10.8,30c0.1,0,0.262,0.236,0.462,0.546
				C11.639,31.124,12.208,32,13.4,32c1.193,0,1.762-0.876,2.138-1.455C15.739,30.236,15.901,30,16,30s0.261,0.236,0.462,0.546
				C16.839,31.124,17.409,32,18.602,32c1.193,0,1.762-0.876,2.137-1.455C20.939,30.236,21.102,30,21.2,30
				c0.1,0,0.261,0.236,0.462,0.546C22.039,31.124,22.607,32,23.8,32c1.193,0,1.763-0.876,2.14-1.454
				C26.139,30.236,26.301,30,26.4,30c0.099,0,0.261,0.236,0.461,0.546C27.238,31.125,27.809,32,29,32h2c0.552,0,1-0.448,1-1v-2
				c0-1.193-0.911-1.785-1.456-2.139C30.236,26.661,30,26.5,30,26.398c0-0.101,0.236-0.26,0.544-0.459
				C31.089,25.586,32,24.994,32,23.8c0-1.192-0.876-1.762-1.456-2.14C30.236,21.46,30,21.3,30,21.2c0-0.101,0.236-0.263,0.545-0.464
				C31.125,20.361,32,19.792,32,18.602c0-1.192-0.875-1.764-1.455-2.141C30.236,16.261,30,16.1,30,16
				c0-0.099,0.236-0.26,0.545-0.462C31.125,15.161,32,14.592,32,13.4c0-1.193-0.875-1.762-1.455-2.139
				C30.236,11.062,30,10.899,30,10.8c0-0.099,0.236-0.261,0.545-0.462C31.125,9.961,32,9.392,32,8.2
				c0-1.192-0.875-1.762-1.455-2.139C30.236,5.861,30,5.699,30,5.6S30.236,5.339,30.545,5.138z M30,3
				c0,0.099-0.236,0.261-0.545,0.461C28.875,3.839,28,4.407,28,5.6s0.875,1.762,1.455,2.139C29.764,7.939,30,8.101,30,8.2
				c0,0.099-0.236,0.26-0.545,0.461C28.875,9.038,28,9.606,28,10.8c0,1.192,0.875,1.763,1.455,2.139C29.764,13.14,30,13.301,30,13.4
				s-0.236,0.261-0.546,0.462C28.875,14.239,28,14.809,28,16c0,1.191,0.875,1.762,1.455,2.139c0.309,0.2,0.545,0.362,0.545,0.463
				c0,0.1-0.236,0.26-0.545,0.459C28.876,19.438,28,20.008,28,21.2s0.875,1.762,1.455,2.138C29.764,23.539,30,23.7,30,23.8
				c0,0.101-0.236,0.263-0.544,0.461C28.911,24.614,28,25.206,28,26.398c0,1.194,0.912,1.787,1.456,2.141
				C29.764,28.739,30,28.9,30,29v1h-1c-0.1,0-0.26-0.236-0.461-0.545C28.162,28.875,27.592,28,26.4,28
				c-1.192,0-1.762,0.875-2.139,1.455C24.061,29.764,23.898,30,23.8,30c-0.098,0-0.26-0.236-0.461-0.545
				C22.962,28.875,22.393,28,21.2,28c-1.193,0-1.763,0.875-2.138,1.455C18.861,29.764,18.7,30,18.602,30
				c-0.101,0-0.262-0.236-0.463-0.546C17.762,28.875,17.191,28,16,28c-1.193,0-1.762,0.875-2.138,1.455
				C13.661,29.764,13.5,30,13.4,30s-0.261-0.236-0.461-0.545C12.562,28.875,11.993,28,10.8,28c-1.192,0-1.761,0.875-2.138,1.455
				C8.461,29.764,8.3,30,8.2,30c-0.1,0-0.261-0.236-0.461-0.545C7.386,28.911,6.794,28,5.601,28c-1.194,0-1.786,0.911-2.14,1.455
				C3.261,29.764,3.1,30,3,30H2v-1c0-0.1,0.236-0.261,0.545-0.461C3.125,28.161,4,27.592,4,26.398c0-1.19-0.875-1.76-1.455-2.139
				C2.236,24.062,2,23.898,2,23.8c0-0.098,0.236-0.26,0.545-0.461C3.125,22.963,4,22.393,4,21.2c0-1.193-0.875-1.763-1.455-2.14
				C2.236,18.859,2,18.699,2,18.602c0-0.101,0.237-0.263,0.546-0.463C3.125,17.761,4,17.191,4,16c0-1.192-0.875-1.762-1.455-2.139
				C2.236,13.661,2,13.5,2,13.4c0-0.099,0.236-0.261,0.545-0.462C3.124,12.562,4,11.992,4,10.8c0-1.192-0.875-1.761-1.455-2.138
				C2.236,8.461,2,8.3,2,8.2c0-0.1,0.236-0.261,0.544-0.461C3.089,7.386,4,6.794,4,5.6S3.088,3.814,2.544,3.461
				C2.236,3.261,2,3.1,2,3V2h1c0.099,0,0.261,0.236,0.461,0.545C3.838,3.125,4.408,4,5.6,4c1.193,0,1.762-0.876,2.139-1.455
				C7.939,2.235,8.101,2,8.199,2c0.1,0,0.261,0.236,0.462,0.545C9.038,3.125,9.608,4,10.801,4c1.192,0,1.761-0.875,2.137-1.455
				C13.139,2.236,13.3,2,13.4,2c0.099,0,0.261,0.236,0.462,0.545C14.239,3.125,14.809,4,16,4c1.193,0,1.764-0.876,2.139-1.455
				C18.34,2.235,18.501,2,18.6,2c0.102,0,0.262,0.236,0.463,0.545C19.438,3.125,20.007,4,21.199,4c1.193,0,1.762-0.875,2.139-1.455
				C23.539,2.236,23.7,2,23.801,2c0.1,0,0.26,0.235,0.459,0.543C24.613,3.089,25.205,4,26.4,4c1.192,0,1.785-0.911,2.139-1.455
				C28.74,2.235,28.9,2,29,2h1V3z M26,5H6C5.448,5,5,5.448,5,6v20c0,0.553,0.448,1,1,1h20c0.552,0,1-0.447,1-1V6
				C27,5.448,26.552,5,26,5z M25,25H7V7h18V25z M10,18c0.446,0,0.612,0.109,0.943,0.331C11.366,18.613,11.944,19,12.997,19
				c1.052,0,1.631-0.387,2.054-0.668C15.382,18.109,15.548,18,15.995,18c0.449,0,0.614,0.111,0.948,0.333
				C17.366,18.614,17.945,19,18.997,19c1.053,0,1.632-0.386,2.055-0.667C21.385,18.111,21.551,18,22,18c0.552,0,1-0.447,1-1
				s-0.448-1-1-1c-1.055,0-1.633,0.387-2.057,0.668C19.611,16.891,19.445,17,18.997,17c-0.447,0-0.614-0.109-0.945-0.332
				C17.628,16.387,17.049,16,15.995,16c-1.052,0-1.631,0.387-2.054,0.668C13.61,16.891,13.444,17,12.997,17
				c-0.447,0-0.613-0.109-0.944-0.332C11.63,16.387,11.052,16,10,16c-0.552,0-1,0.447-1,1S9.448,18,10,18z M10,22
				c0.446,0,0.612,0.109,0.943,0.331C11.366,22.613,11.944,23,12.997,23c1.052,0,1.631-0.387,2.054-0.668
				C15.382,22.109,15.548,22,15.995,22c0.449,0,0.614,0.111,0.948,0.332C17.366,22.614,17.945,23,18.997,23
				c1.053,0,1.632-0.386,2.055-0.668C21.385,22.111,21.551,22,22,22c0.552,0,1-0.448,1-1c0-0.553-0.448-1-1-1
				c-1.055,0-1.633,0.387-2.057,0.668C19.611,20.891,19.445,21,18.997,21c-0.447,0-0.614-0.109-0.945-0.332
				C17.628,20.387,17.049,20,15.995,20c-1.052,0-1.631,0.387-2.054,0.668C13.61,20.891,13.444,21,12.997,21
				c-0.447,0-0.613-0.109-0.944-0.332C11.63,20.387,11.052,20,10,20c-0.552,0-1,0.447-1,1C9,21.552,9.448,22,10,22z M20,13h2
				c0.553,0,1-0.448,1-1v-2c0-0.552-0.447-1-1-1h-2c-0.553,0-1,0.448-1,1v2C19,12.552,19.447,13,20,13z"/>
		</g>
	</g>
</g>
<g>
</g>
<g>
</g>
<g>
</g>
<g>
</g>
<g>
</g>
<g>
</g>
<g>
</g>
<g>
</g>
<g>
</g>
<g>
</g>
<g>
</g>
<g>
</g>
<g>
</g>
<g>
</g>
<g>
</g>
</svg>
