<?xml version="1.0" encoding="iso-8859-1"?>
<!-- Generator: Adobe Illustrator 16.0.0, SVG Export Plug-In . SVG Version: 6.00 Build 0)  -->
<!DOCTYPE svg PUBLIC "-//W3C//DTD SVG 1.1//EN" "http://www.w3.org/Graphics/SVG/1.1/DTD/svg11.dtd">
<svg version="1.1" id="Capa_1" xmlns="http://www.w3.org/2000/svg" xmlns:xlink="http://www.w3.org/1999/xlink" x="0px" y="0px"
	 width="32px" height="32.001px" viewBox="0 0 32 32.001" style="enable-background:new 0 0 32 32.001;" xml:space="preserve">
<g>
	<g id="Star">
		<g>
			<path d="M31.946,11.674C31.81,11.271,31.427,11,31,11H20.388L16.949,0.684C16.812,0.274,16.432,0,16,0s-0.812,0.275-0.948,0.684
				L11.613,11H1c-0.427,0-0.808,0.271-0.946,0.675c-0.139,0.404-0.005,0.853,0.332,1.114l8.442,6.566L5.052,30.684
				c-0.137,0.41,0.005,0.86,0.351,1.118c0.344,0.257,0.817,0.267,1.171,0.019l9.426-6.6l9.427,6.6C25.601,31.939,25.8,32,26,32
				c0.211,0,0.421-0.066,0.599-0.198c0.346-0.258,0.486-0.708,0.352-1.118l-3.776-11.328l8.442-6.565
				C31.952,12.526,32.085,12.079,31.946,11.674z M3.915,13h7.032L9.5,17.343L3.915,13z M24.097,28.445l-7.521-5.266
				C16.401,23.061,16.201,23,16,23s-0.401,0.061-0.573,0.182l-7.521,5.264L16,4.162L24.097,28.445z M22.501,17.343L21.056,13h7.03
				L22.501,17.343z"/>
		</g>
	</g>
</g>
<g>
</g>
<g>
</g>
<g>
</g>
<g>
</g>
<g>
</g>
<g>
</g>
<g>
</g>
<g>
</g>
<g>
</g>
<g>
</g>
<g>
</g>
<g>
</g>
<g>
</g>
<g>
</g>
<g>
</g>
</svg>
