<?xml version="1.0" encoding="iso-8859-1"?>
<!-- Generator: Adobe Illustrator 16.0.0, SVG Export Plug-In . SVG Version: 6.00 Build 0)  -->
<!DOCTYPE svg PUBLIC "-//W3C//DTD SVG 1.1//EN" "http://www.w3.org/Graphics/SVG/1.1/DTD/svg11.dtd">
<svg version="1.1" id="Capa_1" xmlns="http://www.w3.org/2000/svg" xmlns:xlink="http://www.w3.org/1999/xlink" x="0px" y="0px"
	 width="32px" height="32px" viewBox="0 0 32 32" style="enable-background:new 0 0 32 32;" xml:space="preserve">
<g>
	<g id="Badge_x5F_6">
		<g>
			<path d="M25.707,24.286l-0.503-0.502l6.082-6.076c0.921-0.918,0.921-2.521,0.001-3.438l-6.068-6.064l0.488-0.489l6-5.994
				c0.391-0.39,0.391-1.021,0-1.412s-1.023-0.391-1.414,0l-6,5.994l-0.488,0.488l-1.087-1.087l3.989-3.985
				c0.391-0.39,0.391-1.021,0-1.412s-1.023-0.391-1.414,0l-3.988,3.985l-1.087-1.085l1.489-1.488c0.391-0.39,0.391-1.021,0-1.412
				s-1.023-0.391-1.414,0l-1.488,1.487l-1.07-1.068c-0.947-0.946-2.49-0.946-3.439,0L13.21,1.81l-1.503-1.501
				c-0.391-0.391-1.023-0.391-1.414,0C10.098,0.502,10,0.759,10,1.015s0.098,0.511,0.293,0.706l1.503,1.502L10.71,4.308
				c-0.001-0.001-0.001-0.002-0.003-0.003l-4-3.996c-0.391-0.391-1.023-0.391-1.414,0C5.098,0.502,5,0.759,5,1.015
				s0.098,0.511,0.293,0.706l4,3.996C9.294,5.718,9.295,5.719,9.297,5.72L8.21,6.805L7.707,6.303L7.706,6.302L1.707,0.309
				c-0.391-0.391-1.023-0.391-1.414,0C0.098,0.502,0,0.759,0,1.015s0.098,0.511,0.293,0.706l6.503,6.497l-6.082,6.077
				C0.254,14.753,0,15.367,0,16.014c0,0.648,0.254,1.261,0.714,1.718l6.068,6.062l-6.489,6.484C0.098,30.474,0,30.73,0,30.987
				c0,0.256,0.098,0.51,0.293,0.704c0.391,0.392,1.023,0.392,1.414,0L7.706,25.7c0,0,0.001,0,0.001-0.002l0.489-0.488l1.086,1.087
				L5.293,30.28C5.098,30.474,5,30.73,5,30.987c0,0.256,0.098,0.51,0.293,0.704c0.391,0.392,1.023,0.392,1.414,0l3.989-3.983
				l1.086,1.084l-1.489,1.488C10.098,30.474,10,30.73,10,30.987c0,0.256,0.098,0.51,0.293,0.704c0.391,0.392,1.023,0.392,1.414,0
				l1.489-1.485l1.069,1.067c0.949,0.947,2.493,0.947,3.441,0l1.082-1.082l1.504,1.5c0.392,0.392,1.022,0.392,1.414,0
				c0.392-0.389,0.392-1.02,0-1.411l-1.503-1.502l1.087-1.085c0.001,0,0.001,0.003,0.002,0.003l4,3.995
				c0.392,0.392,1.022,0.392,1.414,0c0.392-0.389,0.392-1.02,0-1.411l-4-3.996c-0.001,0-0.003,0-0.004-0.002l1.087-1.086
				l0.503,0.502l6,5.993c0.392,0.392,1.022,0.392,1.414,0c0.392-0.389,0.392-1.021,0-1.411L25.707,24.286z M15.707,2.141
				c0.17-0.169,0.445-0.169,0.613,0l6.069,6.063L16,14.586L9.624,8.218L15.707,2.141z M8.196,22.384l-6.069-6.063
				c-0.221-0.222-0.221-0.392,0-0.612L8.21,9.63L14.586,16L8.196,22.384z M16.293,29.859c-0.169,0.171-0.444,0.171-0.613,0
				l-6.07-6.062L16,17.412l6.376,6.369L16.293,29.859z M23.79,22.37L17.414,16l6.391-6.383l6.068,6.062
				C29.984,15.791,30,15.919,30,15.988c0,0.066-0.016,0.193-0.127,0.307L23.79,22.37z M24,13.002c-1.654,0-3,1.345-3,2.997
				c0,1.65,1.346,2.996,3,2.996S27,17.65,27,16C27,14.348,25.654,13.002,24,13.002z M24,16.998c-0.551,0-1-0.447-1-0.998
				S23.449,15,24,15c0.552,0,1,0.448,1,0.999S24.552,16.998,24,16.998z M8,13.002c-1.654,0-3,1.345-3,2.997
				c0,1.65,1.346,2.996,3,2.996S11,17.65,11,16C11,14.348,9.654,13.002,8,13.002z M8,16.998c-0.551,0-1-0.447-1-0.998S7.449,15,8,15
				C8.552,15,9,15.449,9,16S8.552,16.998,8,16.998z"/>
		</g>
	</g>
</g>
<g>
</g>
<g>
</g>
<g>
</g>
<g>
</g>
<g>
</g>
<g>
</g>
<g>
</g>
<g>
</g>
<g>
</g>
<g>
</g>
<g>
</g>
<g>
</g>
<g>
</g>
<g>
</g>
<g>
</g>
</svg>
