<?xml version="1.0" encoding="iso-8859-1"?>
<!-- Generator: Adobe Illustrator 16.0.0, SVG Export Plug-In . SVG Version: 6.00 Build 0)  -->
<!DOCTYPE svg PUBLIC "-//W3C//DTD SVG 1.1//EN" "http://www.w3.org/Graphics/SVG/1.1/DTD/svg11.dtd">
<svg version="1.1" id="Capa_1" xmlns="http://www.w3.org/2000/svg" xmlns:xlink="http://www.w3.org/1999/xlink" x="0px" y="0px"
	 width="32px" height="32px" viewBox="0 0 32 32" style="enable-background:new 0 0 32 32;" xml:space="preserve">
<g>
	<g id="T-Shirt">
		<g>
			<path d="M26.5,0H20c-0.553,0-1,0.447-1,1c0,1.084-1.374,2-3,2s-3-0.916-3-2c0-0.553-0.447-1-1-1H5.5C2.468,0,0,2.468,0,5.5V12
				c0,1.71,1.935,3,4.5,3c0.025,0,0.047-0.013,0.071-0.015L4,29c0,1.654,1.346,3,3,3h18c1.654,0,3-1.346,2.999-3.041L27.43,14.985
				C27.453,14.987,27.475,15,27.5,15c2.564,0,4.5-1.29,4.5-3V5.5C32,2.468,29.532,0,26.5,0z M4.651,13.03
				C4.6,13.022,4.554,13,4.5,13C2.876,13,2,12.29,2,12s0.876-1,2.5-1c0.084,0,0.158-0.028,0.236-0.048L4.651,13.03z M5.001,4.459
				L4.813,9.063C4.713,9.029,4.611,9,4.5,9C3.56,9,2.707,9.177,2,9.48V5.5C2,3.57,3.57,2,5.5,2h0.257
				C5.28,2.708,5.001,3.554,5.001,4.459z M25,30H7c-0.552,0-1-0.448-1.001-0.959L7,4.5C7,3.121,8.121,2,9.5,2h1.678
				C11.736,3.721,13.677,5,16,5s4.264-1.279,4.822-3H22.5c1.379,0,2.5,1.121,2.501,2.541L26,29C26,29.552,25.552,30,25,30z M27.5,13
				c-0.055,0-0.1,0.022-0.15,0.03l-0.086-2.078C27.342,10.972,27.416,11,27.5,11c1.624,0,2.5,0.71,2.5,1S29.124,13,27.5,13z
				 M30,9.48C29.293,9.177,28.439,9,27.5,9c-0.111,0-0.214,0.029-0.312,0.063L27,4.5c0-0.925-0.281-1.784-0.762-2.5H26.5
				C28.43,2,30,3.57,30,5.5V9.48z M20,8c-1.104,0-2,0.896-2,2s0.896,2,2,2s2-0.896,2-2S21.104,8,20,8z"/>
		</g>
	</g>
</g>
<g>
</g>
<g>
</g>
<g>
</g>
<g>
</g>
<g>
</g>
<g>
</g>
<g>
</g>
<g>
</g>
<g>
</g>
<g>
</g>
<g>
</g>
<g>
</g>
<g>
</g>
<g>
</g>
<g>
</g>
</svg>
