<?xml version="1.0" encoding="iso-8859-1"?>
<!-- Generator: Adobe Illustrator 16.0.0, SVG Export Plug-In . SVG Version: 6.00 Build 0)  -->
<!DOCTYPE svg PUBLIC "-//W3C//DTD SVG 1.1//EN" "http://www.w3.org/Graphics/SVG/1.1/DTD/svg11.dtd">
<svg version="1.1" id="Capa_1" xmlns="http://www.w3.org/2000/svg" xmlns:xlink="http://www.w3.org/1999/xlink" x="0px" y="0px"
	 width="32px" height="32px" viewBox="0 0 32 32" style="enable-background:new 0 0 32 32;" xml:space="preserve">
<g>
	<g id="Label">
		<g>
			<path d="M31.631,14.562l-2.972-4.953C28.141,8.616,27.121,8,26,8H3c-1.654,0-3,1.346-3,3v10c0,1.654,1.346,3,3,3h23
				c1.125,0,2.146-0.621,2.633-1.564l3.031-5.055C31.884,16.956,32,16.479,32,16C32,15.519,31.882,15.039,31.631,14.562z
				 M29.918,16.408l-3.031,5.053C26.715,21.794,26.375,22,26,22H3c-0.552,0-1-0.449-1-1V11c0-0.552,0.448-1,1-1h23
				c0.374,0,0.714,0.206,0.916,0.587l2.971,4.953C29.962,15.683,30,15.838,30,16S29.962,16.318,29.918,16.408z M23,12
				c-2.205,0-4,1.795-4,4s1.795,4,4,4s4-1.795,4-4S25.205,12,23,12z M23,18c-1.104,0-2-0.896-2-2c0-1.103,0.896-2,2-2s2,0.897,2,2
				C25,17.104,24.104,18,23,18z"/>
		</g>
	</g>
</g>
<g>
</g>
<g>
</g>
<g>
</g>
<g>
</g>
<g>
</g>
<g>
</g>
<g>
</g>
<g>
</g>
<g>
</g>
<g>
</g>
<g>
</g>
<g>
</g>
<g>
</g>
<g>
</g>
<g>
</g>
</svg>
