<?xml version="1.0" encoding="iso-8859-1"?>
<!-- Generator: Adobe Illustrator 16.0.0, SVG Export Plug-In . SVG Version: 6.00 Build 0)  -->
<!DOCTYPE svg PUBLIC "-//W3C//DTD SVG 1.1//EN" "http://www.w3.org/Graphics/SVG/1.1/DTD/svg11.dtd">
<svg version="1.1" id="Capa_1" xmlns="http://www.w3.org/2000/svg" xmlns:xlink="http://www.w3.org/1999/xlink" x="0px" y="0px"
	 width="32px" height="32px" viewBox="0 0 32 32" style="enable-background:new 0 0 32 32;" xml:space="preserve">
<g>
	<g id="Target">
		<g>
			<path d="M31,15h-1.051C29.457,8.079,23.922,2.544,17,2.051v-1.05C17,0.448,16.553,0,16,0s-1,0.448-1,1.001v1.05
				C8.078,2.544,2.543,8.079,2.051,15H1c-0.553,0-1,0.448-1,1c0,0.553,0.447,1.001,1,1.001h1.051
				C2.543,23.922,8.078,29.457,15,29.949V31c0,0.553,0.447,1,1,1s1-0.447,1-1v-1.051c6.922-0.492,12.457-6.027,12.949-12.948H31
				c0.553,0,1-0.448,1-1.001C32,15.448,31.553,15,31,15z M26,17.001h1.949C27.466,22.818,22.818,27.467,17,27.949V26
				c0-0.552-0.447-1-1-1s-1,0.448-1,1v1.949C9.182,27.467,4.534,22.818,4.051,17.001H6c0.553,0,1-0.448,1-1.001c0-0.552-0.447-1-1-1
				H4.051C4.534,9.182,9.182,4.534,15,4.051V6c0,0.553,0.447,1.001,1,1.001S17,6.553,17,6V4.051
				C22.818,4.534,27.466,9.182,27.949,15H26c-0.553,0-1,0.448-1,1C25,16.553,25.447,17.001,26,17.001z M19,16c0-1.653-1.346-3-3-3
				c-1.654,0-3,1.347-3,3c0,1.654,1.346,3,3,3C17.654,19,19,17.654,19,16z M15,16c0-0.551,0.449-1,1-1s1,0.449,1,1
				c0,0.552-0.449,1.001-1,1.001S15,16.552,15,16z M17,10c0-0.552-0.447-0.999-1-0.999c-3.859,0-7,3.14-7,6.999
				c0,0.553,0.447,1.001,1,1.001s1-0.448,1-1.001c0-2.756,2.243-5,5-5C16.553,11,17,10.553,17,10z M22,15c-0.553,0-1,0.448-1,1
				c0,2.757-2.243,5-5,5c-0.553,0-1,0.448-1,1c0,0.553,0.447,1,1,1c3.859,0,7-3.141,7-7C23,15.448,22.553,15,22,15z"/>
		</g>
	</g>
</g>
<g>
</g>
<g>
</g>
<g>
</g>
<g>
</g>
<g>
</g>
<g>
</g>
<g>
</g>
<g>
</g>
<g>
</g>
<g>
</g>
<g>
</g>
<g>
</g>
<g>
</g>
<g>
</g>
<g>
</g>
</svg>
