<?xml version="1.0" encoding="iso-8859-1"?>
<!-- Generator: Adobe Illustrator 16.0.0, SVG Export Plug-In . SVG Version: 6.00 Build 0)  -->
<!DOCTYPE svg PUBLIC "-//W3C//DTD SVG 1.1//EN" "http://www.w3.org/Graphics/SVG/1.1/DTD/svg11.dtd">
<svg version="1.1" id="Capa_1" xmlns="http://www.w3.org/2000/svg" xmlns:xlink="http://www.w3.org/1999/xlink" x="0px" y="0px"
	 width="32.029px" height="32.029px" viewBox="0 0 32.029 32.029" style="enable-background:new 0 0 32.029 32.029;"
	 xml:space="preserve">
<g>
	<g id="Phone_x5F_2">
		<g>
			<path d="M30.988,2.617l-0.899-0.899c-1.108-1.106-2.711-1.691-4.631-1.691c-4.745,0-11.097,3.397-16.58,8.871
				C0.917,16.846-2.244,26.146,1.686,30.067l0.899,0.897c0.671,0.668,1.562,1.037,2.512,1.037c0.95,0,1.841-0.369,2.513-1.039
				l3.598-3.59c1.384-1.381,1.386-3.631,0-5.014l-0.899-0.898c-0.958-0.957-0.518-3.442,3.597-7.55
				c3.504-3.496,5.532-4.019,6.43-4.019c0.476,0,0.846,0.141,1.135,0.43l0.898,0.896c1.341,1.34,3.685,1.342,5.024,0l3.595-3.59
				c0.674-0.669,1.042-1.56,1.042-2.507C32.029,4.174,31.66,3.286,30.988,2.617z M29.561,6.206l-3.598,3.59
				c-0.58,0.578-1.589,0.58-2.168,0l-0.898-0.896c-0.668-0.667-1.553-1.021-2.562-1.021c-2.148,0-4.792,1.551-7.857,4.609
				c-6.325,6.312-4.622,9.376-3.597,10.399l0.898,0.896c0.599,0.598,0.599,1.568,0,2.164l-3.596,3.59
				c-0.582,0.578-1.591,0.578-2.17,0l-0.897-0.896c-3.025-3.021,0.269-11.408,7.192-18.318c5.041-5.031,10.987-8.281,15.151-8.281
				c1.394,0,2.471,0.37,3.203,1.103l0.897,0.896c0.29,0.29,0.449,0.675,0.449,1.083C30.011,5.532,29.851,5.916,29.561,6.206z"/>
		</g>
	</g>
</g>
<g>
</g>
<g>
</g>
<g>
</g>
<g>
</g>
<g>
</g>
<g>
</g>
<g>
</g>
<g>
</g>
<g>
</g>
<g>
</g>
<g>
</g>
<g>
</g>
<g>
</g>
<g>
</g>
<g>
</g>
</svg>
