<?xml version="1.0" encoding="iso-8859-1"?>
<!-- Generator: Adobe Illustrator 16.0.0, SVG Export Plug-In . SVG Version: 6.00 Build 0)  -->
<!DOCTYPE svg PUBLIC "-//W3C//DTD SVG 1.1//EN" "http://www.w3.org/Graphics/SVG/1.1/DTD/svg11.dtd">
<svg version="1.1" id="Capa_1" xmlns="http://www.w3.org/2000/svg" xmlns:xlink="http://www.w3.org/1999/xlink" x="0px" y="0px"
	 width="32px" height="32px" viewBox="0 0 32 32" style="enable-background:new 0 0 32 32;" xml:space="preserve">
<g>
	<g id="Ray">
		<g>
			<path d="M26.889,13.54c-0.174-0.332-0.516-0.54-0.89-0.54h-7V1c0-0.436-0.282-0.821-0.696-0.953
				c-0.416-0.131-0.867,0.02-1.119,0.376l-12,17c-0.215,0.306-0.243,0.705-0.071,1.037C5.283,18.792,5.625,19,5.999,19h7v12
				c0,0.436,0.282,0.819,0.697,0.953c0.1,0.03,0.202,0.047,0.303,0.047c0.319,0,0.626-0.152,0.817-0.423l12-17
				C27.031,14.271,27.061,13.872,26.889,13.54z M14.999,27.85V18c0-0.553-0.448-1-1-1h-6.07l9.07-12.851V14c0,0.553,0.448,1,1,1
				h6.07L14.999,27.85z"/>
		</g>
	</g>
</g>
<g>
</g>
<g>
</g>
<g>
</g>
<g>
</g>
<g>
</g>
<g>
</g>
<g>
</g>
<g>
</g>
<g>
</g>
<g>
</g>
<g>
</g>
<g>
</g>
<g>
</g>
<g>
</g>
<g>
</g>
</svg>
