<?xml version="1.0" encoding="iso-8859-1"?>
<!-- Generator: Adobe Illustrator 16.0.0, SVG Export Plug-In . SVG Version: 6.00 Build 0)  -->
<!DOCTYPE svg PUBLIC "-//W3C//DTD SVG 1.1//EN" "http://www.w3.org/Graphics/SVG/1.1/DTD/svg11.dtd">
<svg version="1.1" id="Capa_1" xmlns="http://www.w3.org/2000/svg" xmlns:xlink="http://www.w3.org/1999/xlink" x="0px" y="0px"
	 width="32px" height="32px" viewBox="0 0 32 32" style="enable-background:new 0 0 32 32;" xml:space="preserve">
<g>
	<g id="Trash_x5F_Can">
		<g>
			<path d="M29,1h-9c0-0.553-0.447-1-1-1h-6c-0.553,0-1,0.447-1,1H3C1.346,1,0,2.346,0,4v2c0,0.552,0.447,1,1,1h3v22
				c0,1.654,1.346,3,3,3h18c1.654,0,3-1.346,3-3V7h3c0.553,0,1-0.448,1-1V4C32,2.346,30.654,1,29,1z M26,29c0,0.551-0.448,1-1,1H7
				c-0.552,0-1-0.449-1-1V7h20V29z M30,5H2V4c0-0.552,0.448-1,1-1h26c0.552,0,1,0.448,1,1V5z M10,28c0.553,0,1-0.448,1-1V12
				c0-0.553-0.447-1-1-1s-1,0.447-1,1v15C9,27.552,9.447,28,10,28z M14,28c0.553,0,1-0.448,1-1V12c0-0.553-0.447-1-1-1s-1,0.447-1,1
				v15C13,27.552,13.447,28,14,28z M18,28c0.553,0,1-0.448,1-1V12c0-0.553-0.447-1-1-1s-1,0.447-1,1v15C17,27.552,17.447,28,18,28z
				 M22,28c0.553,0,1-0.448,1-1V12c0-0.553-0.447-1-1-1s-1,0.447-1,1v15C21,27.552,21.447,28,22,28z"/>
		</g>
	</g>
</g>
<g>
</g>
<g>
</g>
<g>
</g>
<g>
</g>
<g>
</g>
<g>
</g>
<g>
</g>
<g>
</g>
<g>
</g>
<g>
</g>
<g>
</g>
<g>
</g>
<g>
</g>
<g>
</g>
<g>
</g>
</svg>
