<?xml version="1.0" encoding="iso-8859-1"?>
<!-- Generator: Adobe Illustrator 16.0.0, SVG Export Plug-In . SVG Version: 6.00 Build 0)  -->
<!DOCTYPE svg PUBLIC "-//W3C//DTD SVG 1.1//EN" "http://www.w3.org/Graphics/SVG/1.1/DTD/svg11.dtd">
<svg version="1.1" id="Capa_1" xmlns="http://www.w3.org/2000/svg" xmlns:xlink="http://www.w3.org/1999/xlink" x="0px" y="0px"
	 width="32px" height="32px" viewBox="0 0 32 32" style="enable-background:new 0 0 32 32;" xml:space="preserve">
<g>
	<g id="Umbrella">
		<g>
			<path d="M31.969,17.387C31.656,9.185,25.152,2.559,17,2.051V1c0-0.553-0.448-1-1-1s-1,0.447-1,1v1.051
				C6.848,2.559,0.344,9.185,0.031,17.387C0.011,17.589,0,17.793,0,18c0,0.552,0.448,1,1,1s1-0.448,1-1c0-2.205,1.794-4,4-4
				s4,1.795,4,4c0,0.552,0.448,1,1,1s1-0.448,1-1c0-1.857,1.28-3.41,3-3.858V27c0,1.654-1.346,3-3,3s-3-1.346-3-3
				c0-0.553-0.448-1-1-1s-1,0.447-1,1c0,2.757,2.243,5,5,5s5-2.243,5-5V14.142c1.721,0.448,3,2,3,3.858c0,0.552,0.448,1,1,1
				s1-0.448,1-1c0-2.205,1.794-4,4-4s4,1.795,4,4c0,0.552,0.448,1,1,1c0.553,0,1-0.448,1-1C32,17.793,31.988,17.589,31.969,17.387z
				 M26,12c-2.086,0-3.924,1.07-5,2.69C19.924,13.07,18.086,12,16,12s-3.924,1.07-5,2.69C9.924,13.07,8.086,12,6,12
				c-1.089,0-2.108,0.297-2.989,0.806C5.078,7.652,10.116,4,16,4s10.922,3.652,12.988,8.806C28.107,12.297,27.089,12,26,12z"/>
		</g>
	</g>
</g>
<g>
</g>
<g>
</g>
<g>
</g>
<g>
</g>
<g>
</g>
<g>
</g>
<g>
</g>
<g>
</g>
<g>
</g>
<g>
</g>
<g>
</g>
<g>
</g>
<g>
</g>
<g>
</g>
<g>
</g>
</svg>
