<?xml version="1.0" encoding="iso-8859-1"?>
<!-- Generator: Adobe Illustrator 16.0.0, SVG Export Plug-In . SVG Version: 6.00 Build 0)  -->
<!DOCTYPE svg PUBLIC "-//W3C//DTD SVG 1.1//EN" "http://www.w3.org/Graphics/SVG/1.1/DTD/svg11.dtd">
<svg version="1.1" id="Capa_1" xmlns="http://www.w3.org/2000/svg" xmlns:xlink="http://www.w3.org/1999/xlink" x="0px" y="0px"
	 width="32px" height="32px" viewBox="0 0 32 32" style="enable-background:new 0 0 32 32;" xml:space="preserve">
<g>
	<g id="Wallet">
		<g>
			<path d="M31,19h-1V5c0-2.757-2.243-5-5-5H5C2.243,0,0,2.243,0,5v22c0,2.757,2.243,5,5,5h20c2.757,0,5-2.243,5-5v-2h1
				c0.552,0,1-0.448,1-1v-4C32,19.448,31.552,19,31,19z M2,5c0-1.654,1.346-3,3-3h20c1.654,0,3,1.346,3,3v8.025
				c-0.59-0.446-1.27-0.776-2.02-0.927C25.982,12.064,26,12.035,26,12V5c0-0.552-0.448-1-1-1H6C4.359,4,2.912,4.806,2,6.03V5z M6,8
				c-1.302,0-2.401,0.838-2.815,2C3.072,9.686,3,9.353,3,9c0-1.654,1.346-3,3-3h18v2H6z M24,10v2H6c-0.551,0-1-0.448-1-1
				c0-0.551,0.449-1,1-1H24z M28,27c0,1.654-1.346,3-3,3H5c-1.654,0-3-1.346-3-3V12.975C2.838,13.609,3.87,14,5,14h20
				c1.654,0,3,1.346,3,3v2h-5c-1.654,0-3,1.346-3,3s1.346,3,3,3h5V27z M30,23h-7c-0.552,0-1-0.448-1-1c0-0.551,0.448-1,1-1h7V23z"/>
		</g>
	</g>
</g>
<g>
</g>
<g>
</g>
<g>
</g>
<g>
</g>
<g>
</g>
<g>
</g>
<g>
</g>
<g>
</g>
<g>
</g>
<g>
</g>
<g>
</g>
<g>
</g>
<g>
</g>
<g>
</g>
<g>
</g>
</svg>
