<?xml version="1.0" encoding="iso-8859-1"?>
<!-- Generator: Adobe Illustrator 16.0.0, SVG Export Plug-In . SVG Version: 6.00 Build 0)  -->
<!DOCTYPE svg PUBLIC "-//W3C//DTD SVG 1.1//EN" "http://www.w3.org/Graphics/SVG/1.1/DTD/svg11.dtd">
<svg version="1.1" id="Capa_1" xmlns="http://www.w3.org/2000/svg" xmlns:xlink="http://www.w3.org/1999/xlink" x="0px" y="0px"
	 width="32px" height="32px" viewBox="0 0 32 32" style="enable-background:new 0 0 32 32;" xml:space="preserve">
<g>
	<g id="Globe">
		<g>
			<path d="M16,2C7.178,2,0,8.28,0,16c0,7.721,7.178,14,16,14c8.822,0,16-6.279,16-14C32,8.28,24.822,2,16,2z M10.357,5.026
				C9.77,5.754,9.247,6.6,8.796,7.537C8.222,7.278,7.68,6.997,7.191,6.686C8.15,6.018,9.215,5.46,10.357,5.026z M5.553,8.039
				c0.732,0.525,1.561,0.993,2.47,1.394C7.463,11.105,7.119,12.989,7.031,15H2.059C2.317,12.338,3.594,9.926,5.553,8.039z M2.059,17
				h4.973c0.088,2.014,0.432,3.896,0.992,5.57c-0.908,0.399-1.732,0.871-2.464,1.396C3.597,22.079,2.317,19.665,2.059,17z
				 M7.195,25.318c0.49-0.312,1.022-0.603,1.599-0.858c0.452,0.938,0.975,1.785,1.563,2.515C9.217,26.541,8.153,25.984,7.195,25.318
				z M15,27.855c-1.688-0.437-3.201-1.941-4.286-4.102c1.319-0.391,2.765-0.64,4.286-0.717V27.855z M15,21.038
				c-1.815,0.079-3.521,0.368-5.065,0.838C9.438,20.404,9.119,18.75,9.03,17H15V21.038z M15,15H9.03
				c0.089-1.75,0.408-3.405,0.904-4.876c1.546,0.469,3.251,0.758,5.066,0.837V15z M15,8.963c-1.521-0.078-2.969-0.326-4.287-0.717
				C11.798,6.088,13.311,4.579,15,4.144V8.963z M29.941,15h-4.975c-0.088-2.014-0.433-3.899-0.992-5.574
				c0.906-0.4,1.729-0.87,2.463-1.396C28.4,9.918,29.684,12.334,29.941,15z M24.803,6.682c-0.488,0.312-1.021,0.601-1.597,0.858
				c-0.452-0.938-0.976-1.785-1.563-2.514C22.783,5.459,23.846,6.016,24.803,6.682z M17,4.144c1.688,0.436,3.201,1.942,4.285,4.1
				C19.967,8.634,18.521,8.883,17,8.961V4.144z M17,10.963c1.814-0.08,3.521-0.369,5.064-0.838c0.498,1.472,0.815,3.125,0.906,4.875
				H17V10.963z M17,17h5.971c-0.09,1.751-0.408,3.404-0.906,4.877c-1.543-0.469-3.248-0.759-5.062-0.839L17,17L17,17z M17,27.855
				v-4.818c1.521,0.078,2.971,0.324,4.288,0.715C20.203,25.912,18.689,27.421,17,27.855z M21.643,26.975
				c0.588-0.728,1.108-1.572,1.562-2.507c0.571,0.259,1.114,0.538,1.604,0.849C23.848,25.982,22.784,26.541,21.643,26.975z
				 M26.443,23.963c-0.73-0.525-1.56-0.995-2.467-1.396c0.561-1.674,0.902-3.557,0.99-5.565h4.975
				C29.684,19.663,28.404,22.075,26.443,23.963z"/>
		</g>
	</g>
</g>
<g>
</g>
<g>
</g>
<g>
</g>
<g>
</g>
<g>
</g>
<g>
</g>
<g>
</g>
<g>
</g>
<g>
</g>
<g>
</g>
<g>
</g>
<g>
</g>
<g>
</g>
<g>
</g>
<g>
</g>
</svg>
