<?xml version="1.0" encoding="iso-8859-1"?>
<!-- Generator: Adobe Illustrator 19.0.0, SVG Export Plug-In . SVG Version: 6.00 Build 0)  -->
<svg version="1.1" id="Layer_1" xmlns="http://www.w3.org/2000/svg" xmlns:xlink="http://www.w3.org/1999/xlink" x="0px" y="0px"
	 viewBox="0 0 464 464" style="enable-background:new 0 0 464 464;" xml:space="preserve">
<g>
	<g>
		<g>
			<rect x="97" y="16" style="fill:#DC7850;" width="270" height="16"/>
		</g>
	</g>
	<g>
		<g>
			<rect x="97" y="104" style="fill:#A4BFCE;" width="270" height="16"/>
		</g>
	</g>
	<g>
		<g>
			<rect x="97" y="184" style="fill:#A4BFCE;" width="270" height="16"/>
		</g>
	</g>
	<g>
		<g>
			<rect x="97" y="264" style="fill:#A4BFCE;" width="270" height="16"/>
		</g>
	</g>
	<g>
		<g>
			<rect x="97" y="344" style="fill:#A4BFCE;" width="270" height="16"/>
		</g>
	</g>
	<g>
		<g>
			<path style="fill:#E68C5A;" d="M96,0H64c-4.418,0-8,3.582-8,8v429.995h48V8C104,3.582,100.418,0,96,0z"/>
		</g>
	</g>
	<g>
		<g>
			<path style="fill:#E68C5A;" d="M400,0h-32c-4.418,0-8,3.582-8,8v429.995h48V8C408,3.582,404.418,0,400,0z"/>
		</g>
	</g>
	<g>
		<g>
			<g>
				<path style="fill:#DC7850;" d="M136,136L136,136c-8.837,0-16-7.163-16-16v-16c0-8.837,7.163-16,16-16l0,0
					c8.837,0,16,7.163,16,16v16C152,128.837,144.837,136,136,136z"/>
			</g>
		</g>
		<g>
			<g>
				<path style="fill:#C85A46;" d="M120,104v16c0,8.836,7.164,16,16,16V88C127.164,88,120,95.163,120,104z"/>
			</g>
		</g>
	</g>
	<g>
		<g>
			<g>
				<path style="fill:#DC7850;" d="M168,136L168,136c-8.837,0-16-7.163-16-16v-16c0-8.837,7.163-16,16-16l0,0
					c8.837,0,16,7.163,16,16v16C184,128.837,176.837,136,168,136z"/>
			</g>
		</g>
		<g>
			<g>
				<path style="fill:#C85A46;" d="M152,104v16c0,8.836,7.164,16,16,16V88C159.164,88,152,95.163,152,104z"/>
			</g>
		</g>
	</g>
	<g>
		<g>
			<g>
				<path style="fill:#DC7850;" d="M296,136L296,136c-8.837,0-16-7.163-16-16v-16c0-8.837,7.163-16,16-16l0,0
					c8.837,0,16,7.163,16,16v16C312,128.837,304.837,136,296,136z"/>
			</g>
		</g>
		<g>
			<g>
				<path style="fill:#C85A46;" d="M280,104v16c0,8.836,7.164,16,16,16V88C287.164,88,280,95.163,280,104z"/>
			</g>
		</g>
	</g>
	<g>
		<g>
			<g>
				<path style="fill:#8C5F56;" d="M248,136L248,136c-8.837,0-16-7.163-16-16v-16c0-8.837,7.163-16,16-16l0,0
					c8.837,0,16,7.163,16,16v16C264,128.837,256.837,136,248,136z"/>
			</g>
		</g>
		<g>
			<g>
				<path style="fill:#734B46;" d="M232,104v16c0,8.836,7.164,16,16,16V88C239.164,88,232,95.163,232,104z"/>
			</g>
		</g>
	</g>
	<g>
		<g>
			<g>
				<path style="fill:#DC7850;" d="M136,216L136,216c-8.837,0-16-7.163-16-16v-16c0-8.837,7.163-16,16-16l0,0
					c8.837,0,16,7.163,16,16v16C152,208.837,144.837,216,136,216z"/>
			</g>
		</g>
		<g>
			<g>
				<path style="fill:#C85A46;" d="M120,184v16c0,8.836,7.164,16,16,16v-48C127.164,168,120,175.163,120,184z"/>
			</g>
		</g>
	</g>
	<g>
		<g>
			<g>
				<path style="fill:#DC7850;" d="M168,216L168,216c-8.837,0-16-7.163-16-16v-16c0-8.837,7.163-16,16-16l0,0
					c8.837,0,16,7.163,16,16v16C184,208.837,176.837,216,168,216z"/>
			</g>
		</g>
		<g>
			<g>
				<path style="fill:#C85A46;" d="M152,184v16c0,8.836,7.164,16,16,16v-48C159.164,168,152,175.163,152,184z"/>
			</g>
		</g>
	</g>
	<g>
		<g>
			<g>
				<path style="fill:#DC7850;" d="M296,216L296,216c-8.837,0-16-7.163-16-16v-16c0-8.837,7.163-16,16-16l0,0
					c8.837,0,16,7.163,16,16v16C312,208.837,304.837,216,296,216z"/>
			</g>
		</g>
		<g>
			<g>
				<path style="fill:#C85A46;" d="M280,184v16c0,8.836,7.164,16,16,16v-48C287.164,168,280,175.163,280,184z"/>
			</g>
		</g>
	</g>
	<g>
		<g>
			<g>
				<path style="fill:#DC7850;" d="M328,216L328,216c-8.837,0-16-7.163-16-16v-16c0-8.837,7.163-16,16-16l0,0
					c8.837,0,16,7.163,16,16v16C344,208.837,336.837,216,328,216z"/>
			</g>
		</g>
		<g>
			<g>
				<path style="fill:#C85A46;" d="M312,184v16c0,8.836,7.164,16,16,16v-48C319.164,168,312,175.163,312,184z"/>
			</g>
		</g>
	</g>
	<g>
		<g>
			<g>
				<path style="fill:#DC7850;" d="M152,296L152,296c-8.837,0-16-7.163-16-16v-16c0-8.837,7.163-16,16-16l0,0
					c8.837,0,16,7.163,16,16v16C168,288.837,160.837,296,152,296z"/>
			</g>
		</g>
		<g>
			<g>
				<path style="fill:#C85A46;" d="M136,264v16c0,8.836,7.164,16,16,16v-48C143.164,248,136,255.163,136,264z"/>
			</g>
		</g>
	</g>
	<g>
		<g>
			<g>
				<path style="fill:#DC7850;" d="M120,296L120,296c-8.837,0-16-7.163-16-16v-16c0-8.837,7.163-16,16-16l0,0
					c8.837,0,16,7.163,16,16v16C136,288.837,128.837,296,120,296z"/>
			</g>
		</g>
		<g>
			<g>
				<path style="fill:#C85A46;" d="M104,264v16c0,8.836,7.164,16,16,16v-48C111.164,248,104,255.163,104,264z"/>
			</g>
		</g>
	</g>
	<g>
		<g>
			<g>
				<path style="fill:#DC7850;" d="M184,296L184,296c-8.837,0-16-7.163-16-16v-16c0-8.837,7.163-16,16-16l0,0
					c8.837,0,16,7.163,16,16v16C200,288.837,192.837,296,184,296z"/>
			</g>
		</g>
		<g>
			<g>
				<path style="fill:#C85A46;" d="M168,264v16c0,8.836,7.164,16,16,16v-48C175.164,248,168,255.163,168,264z"/>
			</g>
		</g>
	</g>
	<g>
		<g>
			<g>
				<path style="fill:#DC7850;" d="M216,296L216,296c-8.837,0-16-7.163-16-16v-16c0-8.837,7.163-16,16-16l0,0
					c8.837,0,16,7.163,16,16v16C232,288.837,224.837,296,216,296z"/>
			</g>
		</g>
		<g>
			<g>
				<path style="fill:#C85A46;" d="M200,264v16c0,8.836,7.164,16,16,16v-48C207.164,248,200,255.163,200,264z"/>
			</g>
		</g>
	</g>
	<g>
		<g>
			<g>
				<path style="fill:#DC7850;" d="M136,376L136,376c-8.837,0-16-7.163-16-16v-16c0-8.837,7.163-16,16-16l0,0
					c8.837,0,16,7.163,16,16v16C152,368.837,144.837,376,136,376z"/>
			</g>
		</g>
		<g>
			<g>
				<path style="fill:#C85A46;" d="M120,344v16c0,8.836,7.164,16,16,16v-48C127.164,328,120,335.163,120,344z"/>
			</g>
		</g>
	</g>
	<g>
		<g>
			<g>
				<path style="fill:#DC7850;" d="M168,376L168,376c-8.837,0-16-7.163-16-16v-16c0-8.837,7.163-16,16-16l0,0
					c8.837,0,16,7.163,16,16v16C184,368.837,176.837,376,168,376z"/>
			</g>
		</g>
		<g>
			<g>
				<path style="fill:#C85A46;" d="M152,344v16c0,8.836,7.164,16,16,16v-48C159.164,328,152,335.163,152,344z"/>
			</g>
		</g>
	</g>
	<g>
		<g>
			<g>
				<path style="fill:#DC7850;" d="M216,376L216,376c-8.837,0-16-7.163-16-16v-16c0-8.837,7.163-16,16-16l0,0
					c8.837,0,16,7.163,16,16v16C232,368.837,224.837,376,216,376z"/>
			</g>
		</g>
		<g>
			<g>
				<path style="fill:#C85A46;" d="M200,344v16c0,8.836,7.164,16,16,16v-48C207.164,328,200,335.163,200,344z"/>
			</g>
		</g>
	</g>
	<g>
		<g>
			<g>
				<path style="fill:#DC7850;" d="M248,376L248,376c-8.837,0-16-7.163-16-16v-16c0-8.837,7.163-16,16-16l0,0
					c8.837,0,16,7.163,16,16v16C264,368.837,256.837,376,248,376z"/>
			</g>
		</g>
		<g>
			<g>
				<path style="fill:#C85A46;" d="M232,344v16c0,8.836,7.164,16,16,16v-48C239.164,328,232,335.163,232,344z"/>
			</g>
		</g>
	</g>
	<g>
		<g>
			<g>
				<path style="fill:#8C5F56;" d="M200,216L200,216c-8.837,0-16-7.163-16-16v-16c0-8.837,7.163-16,16-16l0,0
					c8.837,0,16,7.163,16,16v16C216,208.837,208.837,216,200,216z"/>
			</g>
		</g>
		<g>
			<g>
				<path style="fill:#734B46;" d="M184,184v16c0,8.836,7.164,16,16,16v-48C191.164,168,184,175.163,184,184z"/>
			</g>
		</g>
	</g>
	<g>
		<g>
			<g>
				<path style="fill:#8C5F56;" d="M232,216L232,216c-8.837,0-16-7.163-16-16v-16c0-8.837,7.163-16,16-16l0,0
					c8.837,0,16,7.163,16,16v16C248,208.837,240.837,216,232,216z"/>
			</g>
		</g>
		<g>
			<g>
				<path style="fill:#734B46;" d="M216,184v16c0,8.836,7.164,16,16,16v-48C223.164,168,216,175.163,216,184z"/>
			</g>
		</g>
	</g>
	<g>
		<g>
			<g>
				<path style="fill:#8C5F56;" d="M264,296L264,296c-8.837,0-16-7.163-16-16v-16c0-8.837,7.163-16,16-16l0,0
					c8.837,0,16,7.163,16,16v16C280,288.837,272.837,296,264,296z"/>
			</g>
		</g>
		<g>
			<g>
				<path style="fill:#734B46;" d="M248,264v16c0,8.836,7.164,16,16,16v-48C255.164,248,248,255.163,248,264z"/>
			</g>
		</g>
	</g>
	<g>
		<g>
			<g>
				<path style="fill:#8C5F56;" d="M296,296L296,296c-8.837,0-16-7.163-16-16v-16c0-8.837,7.163-16,16-16l0,0
					c8.837,0,16,7.163,16,16v16C312,288.837,304.837,296,296,296z"/>
			</g>
		</g>
		<g>
			<g>
				<path style="fill:#734B46;" d="M280,264v16c0,8.836,7.164,16,16,16v-48C287.164,248,280,255.163,280,264z"/>
			</g>
		</g>
	</g>
	<g>
		<g>
			<g>
				<path style="fill:#8C5F56;" d="M280,376L280,376c-8.837,0-16-7.163-16-16v-16c0-8.837,7.163-16,16-16l0,0
					c8.837,0,16,7.163,16,16v16C296,368.837,288.837,376,280,376z"/>
			</g>
		</g>
		<g>
			<g>
				<path style="fill:#734B46;" d="M264,344v16c0,8.836,7.164,16,16,16v-48C271.164,328,264,335.163,264,344z"/>
			</g>
		</g>
	</g>
	<g>
		<g>
			<g>
				<path style="fill:#8C5F56;" d="M328,376L328,376c-8.837,0-16-7.163-16-16v-16c0-8.837,7.163-16,16-16l0,0
					c8.837,0,16,7.163,16,16v16C344,368.837,336.837,376,328,376z"/>
			</g>
		</g>
		<g>
			<g>
				<path style="fill:#734B46;" d="M312,344v16c0,8.836,7.164,16,16,16v-48C319.164,328,312,335.163,312,344z"/>
			</g>
		</g>
	</g>
	<g>
		<g>
			<path style="fill:#C85A46;" d="M416,464H48c-4.418,0-8-3.582-8-8v-16c0-4.418,3.582-8,8-8h368c4.418,0,8,3.582,8,8v16
				C424,460.418,420.418,464,416,464z"/>
		</g>
	</g>
</g>
<g>
</g>
<g>
</g>
<g>
</g>
<g>
</g>
<g>
</g>
<g>
</g>
<g>
</g>
<g>
</g>
<g>
</g>
<g>
</g>
<g>
</g>
<g>
</g>
<g>
</g>
<g>
</g>
<g>
</g>
</svg>
