<?xml version="1.0" encoding="iso-8859-1"?>
<!-- Generator: Adobe Illustrator 19.0.0, SVG Export Plug-In . SVG Version: 6.00 Build 0)  -->
<svg version="1.1" id="Layer_1" xmlns="http://www.w3.org/2000/svg" xmlns:xlink="http://www.w3.org/1999/xlink" x="0px" y="0px"
	 viewBox="0 0 464 464" style="enable-background:new 0 0 464 464;" xml:space="preserve">
<g>
	<path style="fill:#AF5050;" d="M231.243,100.651c-2.716-48.706-12.058-80.836-16.053-94.822c-1.495-5.231-7.612-7.493-12.139-4.475
		l-7.519,5.013c-3.952,2.635-4.692,8.043-1.687,11.721c16.861,20.637,26.581,54.96,31.986,82.563H231.243z"/>
	<g>
		<g>
			<g>
				<path style="fill:#E15050;" d="M328,72c-60,0-58,24-96,24s-36-24-96-24S16,139,16,232c0,81,41,232,160,232c25,0,34.667-8,56-8
					s31,8,56,8c119,0,160-151,160-232C448,139,388,72,328,72z"/>
			</g>
		</g>
	</g>
	<g>
		<g>
			<g>
				<g>
					<path style="fill:#D24146;" d="M128,232c0-66.731,30.941-119.914,70.558-144.725C185.325,80.409,171.543,72,136,72
						C76,72,16,139,16,232c0,81,41,232,160,232c25,0,34.667-8,56-8c5.848,0,10.792,0.625,15.443,1.497
						C159.514,427.774,128,303.002,128,232z"/>
				</g>
			</g>
		</g>
	</g>
	<g>
		<g>
			<path style="fill:#E15050;" d="M152.016,432.609c-1.125,0-2.273-0.156-3.406-0.492c-13.008-3.836-25.234-10.547-36.344-19.945
				c-5.063-4.281-5.695-11.852-1.414-16.914c4.281-5.055,11.844-5.695,16.914-1.414c8.547,7.234,17.852,12.367,27.641,15.258
				c6.352,1.875,9.984,8.547,8.109,14.906C161.977,429.227,157.195,432.609,152.016,432.609z"/>
		</g>
	</g>
	<g>
		<g>
			<path style="fill:#E77373;" d="M367.992,387.312c-2.266,0-4.563-0.641-6.594-1.977c-5.531-3.648-7.063-11.086-3.422-16.625
				C384.102,329.047,396,270.039,396,232c0-7.539-0.523-15.047-1.563-22.297c-0.945-6.563,3.609-12.641,10.172-13.578
				c6.508-0.977,12.641,3.609,13.578,10.172C419.391,214.672,420,223.32,420,232c0,41.5-13.133,106.117-41.977,149.914
				C375.719,385.414,371.891,387.312,367.992,387.312z"/>
		</g>
	</g>
	<g>
		<g>
			<path style="fill:#E15050;" d="M87,372c-4.313,0-8.484-2.328-10.633-6.414C54.008,323.039,44,267.836,44,232
				c0-6.625,5.375-12,12-12s12,5.375,12,12c0,32.891,9.156,83.5,29.617,122.414c3.078,5.867,0.828,13.125-5.039,16.211
				C90.797,371.555,88.883,372,87,372z"/>
		</g>
	</g>
	<g>
		<g>
			<path style="fill:#ED9696;" d="M386.281,164.008c-3.977,0-7.859-1.977-10.148-5.578c-1.984-3.141-4.133-6.164-6.375-8.992
				c-5.109-6.441-10.727-11.855-16.711-16.102c-5.406-3.836-6.68-11.328-2.844-16.73c3.844-5.414,11.336-6.664,16.734-2.84
				c7.828,5.559,15.102,12.539,21.617,20.754c2.773,3.484,5.414,7.211,7.859,11.066c3.547,5.602,1.875,13.016-3.719,16.563
				C390.703,163.406,388.477,164.008,386.281,164.008z"/>
		</g>
	</g>
</g>
<g>
</g>
<g>
</g>
<g>
</g>
<g>
</g>
<g>
</g>
<g>
</g>
<g>
</g>
<g>
</g>
<g>
</g>
<g>
</g>
<g>
</g>
<g>
</g>
<g>
</g>
<g>
</g>
<g>
</g>
</svg>
