<?xml version="1.0" encoding="iso-8859-1"?>
<!-- Generator: Adobe Illustrator 19.0.0, SVG Export Plug-In . SVG Version: 6.00 Build 0)  -->
<svg version="1.1" id="Layer_1" xmlns="http://www.w3.org/2000/svg" xmlns:xlink="http://www.w3.org/1999/xlink" x="0px" y="0px"
	 viewBox="0 0 464 464" style="enable-background:new 0 0 464 464;" xml:space="preserve">
<g>
	<g>
		<g>
			<g>
				<path style="fill:#FFD23C;" d="M398.873,375.768l-25.702-248.452C365.687,54.976,304.73,0,232.004,0h-0.008
					C159.269,0,98.313,54.976,90.829,127.316L65.127,375.768C60.246,422.955,97.264,464,144.702,464h174.595
					C366.736,464,403.754,422.955,398.873,375.768z M232.004,40c26.048,0,49.89,9.721,67.947,25.9
					c24.229,21.71,7.932,62.1-24.6,62.1h-86.7c-32.533,0-48.829-40.392-24.599-62.1C182.11,49.721,205.954,40,232.004,40z"/>
			</g>
		</g>
	</g>
	<g>
		<g>
			<g>
				<path style="fill:#FFC34B;" d="M375,378.237l-25.702-248.451C343.059,69.478,292.634,24,232.004,24
					c-60.634,0-111.063,45.478-117.302,105.786L89,378.238c-1.652,15.975,3.361,31.341,14.118,43.268
					C113.874,433.432,128.642,440,144.702,440h174.595c16.06,0,30.829-6.568,41.585-18.495
					C371.638,409.579,376.653,394.213,375,378.237z M275.351,128h-86.7c-32.533,0-48.83-40.392-24.599-62.101
					C182.11,49.721,205.954,40,232.004,40c26.048,0,49.89,9.721,67.947,25.9C324.18,87.61,307.883,128,275.351,128z"/>
			</g>
		</g>
	</g>
	<g>
		<g>
			<g>
				<g>
					<path style="fill:#FFAA32;" d="M240.008,28.266c-0.094,0-0.18-0.004-0.273-0.008C237.179,28.086,234.601,28,232,28
						c-2.211,0-4-1.789-4-4s1.789-4,4-4c2.773,0,5.539,0.094,8.266,0.273c2.203,0.148,3.875,2.055,3.727,4.258
						C243.851,26.645,242.094,28.266,240.008,28.266z"/>
				</g>
			</g>
		</g>
		<g>
			<g>
				<g>
					<path style="fill:#FFAA32;" d="M303.625,444h-15.891c-2.211,0-4-1.789-4-4s1.789-4,4-4h15.891c2.211,0,4,1.789,4,4
						S305.836,444,303.625,444z M271.844,444h-15.891c-2.211,0-4-1.789-4-4s1.789-4,4-4h15.891c2.211,0,4,1.789,4,4
						S274.054,444,271.844,444z M240.062,444h-15.891c-2.211,0-4-1.789-4-4s1.789-4,4-4h15.891c2.211,0,4,1.789,4,4
						S242.273,444,240.062,444z M208.281,444h-15.898c-2.211,0-4-1.789-4-4s1.789-4,4-4h15.898c2.211,0,4,1.789,4,4
						S210.492,444,208.281,444z M176.492,444h-15.891c-2.211,0-4-1.789-4-4s1.789-4,4-4h15.891c2.211,0,4,1.789,4,4
						S178.703,444,176.492,444z M144.711,444c-5.727,0-11.383-0.789-16.797-2.344c-2.125-0.609-3.352-2.824-2.742-4.945
						c0.602-2.129,2.828-3.363,4.945-2.742c4.703,1.348,9.609,2.031,14.586,2.031c2.211,0,4,1.789,4,4S146.922,444,144.711,444z
						 M319.515,443.996c-2.203,0-3.992-1.781-4-3.984c-0.008-2.211,1.773-4.008,3.984-4.016c4.992-0.02,9.898-0.723,14.57-2.09
						c2.141-0.625,4.344,0.605,4.961,2.719c0.625,2.117-0.594,4.34-2.711,4.961c-5.398,1.578-11.047,2.391-16.789,2.41
						C319.523,443.996,319.523,443.996,319.515,443.996z M114.601,435.281c-0.742,0-1.492-0.203-2.156-0.633
						c-4.508-2.887-8.641-6.41-12.297-10.469c-0.023-0.023-0.555-0.621-0.578-0.648c-1.438-1.676-1.242-4.199,0.438-5.637
						c1.672-1.434,4.188-1.246,5.641,0.434c3.617,4.027,7.211,7.082,11.109,9.586c1.859,1.191,2.406,3.668,1.211,5.527
						C117.203,434.633,115.914,435.281,114.601,435.281z M349.594,435.152c-1.305,0-2.594-0.645-3.359-1.828
						c-1.195-1.855-0.664-4.332,1.188-5.531c3.828-2.473,7.359-5.488,10.492-8.969l0.625-0.695c1.453-1.672,3.984-1.828,5.641-0.379
						c1.664,1.457,1.836,3.984,0.375,5.645l-0.727,0.82c-3.578,3.965-7.648,7.441-12.063,10.297
						C351.094,434.945,350.344,435.152,349.594,435.152z M93.898,411.699c-1.5,0-2.938-0.848-3.617-2.297
						c-2.43-5.16-4.086-10.633-4.93-16.262c-0.328-2.184,1.172-4.223,3.359-4.551c2.156-0.285,4.219,1.176,4.547,3.363
						c0.734,4.863,2.164,9.586,4.258,14.043c0.945,2,0.086,4.383-1.914,5.324C95.047,411.578,94.469,411.699,93.898,411.699z
						 M370.195,411.496c-0.57,0-1.141-0.117-1.688-0.371c-2-0.93-2.867-3.309-1.938-5.313c2.07-4.465,3.484-9.199,4.195-14.07
						c0.328-2.188,2.391-3.711,4.539-3.375c2.188,0.32,3.703,2.352,3.383,4.539c-0.828,5.633-2.469,11.109-4.867,16.273
						C373.148,410.641,371.703,411.496,370.195,411.496z M89.164,380.707c-0.141,0-0.281-0.008-0.422-0.02
						c-2.195-0.23-3.789-2.195-3.563-4.395l1.641-15.809c0.227-2.199,2.195-3.758,4.391-3.566c2.195,0.23,3.789,2.195,3.563,4.395
						l-1.641,15.809C92.922,379.176,91.187,380.707,89.164,380.707z M374.812,380.48c-2.023,0-3.758-1.531-3.969-3.586
						l-1.641-15.805c-0.227-2.199,1.367-4.164,3.563-4.395c2.141-0.219,4.164,1.367,4.391,3.566l1.641,15.805
						c0.227,2.199-1.367,4.164-3.563,4.395C375.094,380.473,374.953,380.48,374.812,380.48z M92.437,349.094
						c-0.141,0-0.281-0.008-0.422-0.02c-2.195-0.23-3.789-2.195-3.563-4.391l1.633-15.809c0.227-2.203,2.242-3.77,4.391-3.57
						c2.195,0.23,3.789,2.195,3.563,4.391l-1.633,15.809C96.195,347.563,94.461,349.094,92.437,349.094z M371.539,348.867
						c-2.023,0-3.758-1.531-3.969-3.59l-1.633-15.805c-0.227-2.195,1.367-4.16,3.563-4.391c2.164-0.223,4.164,1.367,4.391,3.57
						l1.633,15.805c0.227,2.195-1.367,4.16-3.563,4.391C371.82,348.859,371.679,348.867,371.539,348.867z M95.711,317.477
						c-0.141,0-0.281-0.008-0.422-0.02c-2.195-0.23-3.789-2.195-3.563-4.391l1.633-15.805c0.227-2.203,2.211-3.777,4.391-3.57
						c2.195,0.23,3.789,2.195,3.563,4.391l-1.633,15.805C99.469,315.945,97.734,317.477,95.711,317.477z M368.265,317.254
						c-2.023,0-3.758-1.531-3.969-3.59l-1.633-15.809c-0.227-2.195,1.367-4.16,3.563-4.391c2.125-0.168,4.164,1.367,4.391,3.57
						l1.633,15.809c0.227,2.195-1.367,4.16-3.563,4.391C368.547,317.246,368.406,317.254,368.265,317.254z M98.976,285.863
						c-0.141,0-0.281-0.008-0.422-0.02c-2.195-0.23-3.789-2.195-3.563-4.395l1.641-15.809c0.227-2.199,2.242-3.773,4.391-3.566
						c2.195,0.23,3.789,2.195,3.563,4.395l-1.641,15.809C102.734,284.332,101,285.863,98.976,285.863z M365,285.641
						c-2.023,0-3.758-1.531-3.969-3.59l-1.633-15.809c-0.227-2.195,1.367-4.16,3.563-4.391c2.148-0.172,4.164,1.367,4.391,3.57
						l1.633,15.809c0.227,2.195-1.367,4.16-3.563,4.391C365.281,285.633,365.14,285.641,365,285.641z M102.25,254.25
						c-0.141,0-0.281-0.008-0.422-0.02c-2.195-0.23-3.789-2.195-3.563-4.391l1.633-15.809c0.227-2.203,2.227-3.785,4.391-3.57
						c2.195,0.23,3.789,2.195,3.563,4.391l-1.633,15.809C106.008,252.719,104.273,254.25,102.25,254.25z M361.726,254.023
						c-2.023,0-3.758-1.531-3.969-3.59l-1.633-15.805c-0.227-2.195,1.367-4.16,3.563-4.391c2.172-0.18,4.164,1.371,4.391,3.57
						l1.633,15.805c0.227,2.195-1.367,4.16-3.563,4.391C362.008,254.016,361.867,254.023,361.726,254.023z M105.515,222.633
						c-0.141,0-0.281-0.008-0.422-0.02c-2.195-0.23-3.789-2.195-3.563-4.395l1.641-15.805c0.227-2.199,2.195-3.727,4.391-3.566
						c2.195,0.23,3.789,2.195,3.563,4.395l-1.641,15.805C109.273,221.102,107.539,222.633,105.515,222.633z M358.461,222.41
						c-2.023,0-3.758-1.531-3.969-3.586l-1.641-15.809c-0.227-2.199,1.367-4.164,3.563-4.395c2.141-0.18,4.164,1.371,4.391,3.566
						l1.641,15.809c0.227,2.199-1.367,4.164-3.563,4.395C358.742,222.402,358.601,222.41,358.461,222.41z M108.789,191.02
						c-0.141,0-0.281-0.008-0.422-0.02c-2.195-0.23-3.789-2.195-3.563-4.391l1.633-15.805c0.227-2.203,2.234-3.734,4.391-3.57
						c2.195,0.23,3.789,2.195,3.563,4.391l-1.633,15.805C112.547,189.488,110.812,191.02,108.789,191.02z M355.187,190.797
						c-2.023,0-3.758-1.531-3.969-3.59l-1.633-15.809c-0.227-2.195,1.367-4.16,3.563-4.391c2.164-0.188,4.164,1.367,4.391,3.57
						l1.633,15.809c0.227,2.195-1.367,4.16-3.563,4.391C355.469,190.789,355.328,190.797,355.187,190.797z M112.062,159.406
						c-0.141,0-0.281-0.008-0.422-0.02c-2.195-0.23-3.789-2.195-3.563-4.391l1.633-15.809c0.227-2.203,2.211-3.738,4.391-3.57
						c2.195,0.23,3.789,2.195,3.563,4.391l-1.633,15.809C115.82,157.875,114.086,159.406,112.062,159.406z M351.914,159.18
						c-2.023,0-3.758-1.531-3.969-3.59l-1.633-15.805c-0.227-2.195,1.367-4.16,3.563-4.391c2.133-0.191,4.164,1.367,4.391,3.57
						l1.633,15.805c0.227,2.195-1.367,4.16-3.563,4.391C352.195,159.172,352.054,159.18,351.914,159.18z M115.484,127.813
						c-0.203,0-0.414-0.016-0.617-0.047c-2.188-0.34-3.68-2.383-3.344-4.566c0.836-5.387,2.039-10.773,3.578-16.008
						c0.617-2.121,2.852-3.355,4.961-2.707c2.125,0.621,3.336,2.844,2.711,4.965c-1.438,4.895-2.563,9.934-3.344,14.977
						C119.125,126.398,117.422,127.813,115.484,127.813z M348.476,127.586c-1.938,0-3.641-1.41-3.945-3.387
						c-0.781-5.039-1.914-10.074-3.367-14.957c-0.625-2.117,0.578-4.344,2.695-4.977c2.148-0.613,4.352,0.582,4.977,2.695
						c1.555,5.23,2.766,10.617,3.602,16.012c0.336,2.184-1.156,4.227-3.344,4.566C348.89,127.57,348.679,127.586,348.476,127.586z
						 M124.445,97.418c-0.547,0-1.102-0.113-1.633-0.352c-2.016-0.902-2.922-3.27-2.016-5.285c2.227-4.973,4.828-9.852,7.727-14.496
						c1.172-1.875,3.656-2.434,5.508-1.277c1.875,1.168,2.445,3.637,1.273,5.512c-2.703,4.336-5.125,8.891-7.211,13.535
						C127.429,96.539,125.969,97.418,124.445,97.418z M339.476,97.219c-1.523,0-2.977-0.875-3.648-2.355
						c-2.086-4.637-4.523-9.184-7.234-13.512c-1.172-1.875-0.602-4.344,1.266-5.516c1.883-1.16,4.352-0.605,5.516,1.266
						c2.906,4.637,5.508,9.508,7.75,14.473c0.906,2.016,0.008,4.383-2.008,5.293C340.586,97.105,340.031,97.219,339.476,97.219z
						 M141.203,70.52c-0.906,0-1.813-0.301-2.555-0.922c-1.703-1.414-1.938-3.934-0.523-5.633
						c3.484-4.191,7.289-8.195,11.305-11.895c1.641-1.492,4.164-1.383,5.656,0.23c1.492,1.625,1.391,4.156-0.234,5.652
						c-3.758,3.461-7.313,7.203-10.57,11.121C143.492,70.027,142.351,70.52,141.203,70.52z M322.672,70.375
						c-1.148,0-2.281-0.492-3.078-1.441c-3.25-3.91-6.805-7.641-10.586-11.098c-1.625-1.488-1.742-4.02-0.25-5.648
						c1.492-1.633,4.016-1.742,5.656-0.25c4.039,3.695,7.852,7.695,11.336,11.879c1.406,1.699,1.18,4.223-0.523,5.633
						C324.484,70.07,323.578,70.375,322.672,70.375z M164.531,49.086c-1.258,0-2.508-0.598-3.281-1.715
						c-1.266-1.813-0.82-4.305,0.992-5.566c4.461-3.109,9.195-5.949,14.063-8.449c1.969-1,4.383-0.234,5.391,1.73
						c1.008,1.969,0.227,4.379-1.734,5.387c-4.555,2.336-8.977,4.992-13.141,7.895C166.117,48.852,165.32,49.086,164.531,49.086z
						 M299.304,48.973c-0.789,0-1.586-0.23-2.281-0.715c-4.188-2.902-8.617-5.551-13.164-7.871c-1.961-1.004-2.75-3.41-1.742-5.379
						c1.008-1.98,3.414-2.742,5.383-1.746c4.859,2.48,9.602,5.313,14.086,8.426c1.813,1.258,2.266,3.75,1.008,5.566
						C301.812,48.371,300.57,48.973,299.304,48.973z M192.719,34.66c-1.648,0-3.195-1.027-3.773-2.676
						c-0.734-2.082,0.367-4.367,2.445-5.098c5.141-1.805,10.461-3.277,15.82-4.379c2.141-0.426,4.281,0.941,4.727,3.113
						c0.438,2.164-0.953,4.277-3.117,4.723c-5.008,1.027-9.977,2.406-14.773,4.09C193.609,34.59,193.156,34.66,192.719,34.66z
						 M271.078,34.59c-0.438,0-0.883-0.07-1.32-0.223c-4.805-1.68-9.781-3.047-14.797-4.07c-2.164-0.441-3.563-2.551-3.125-4.715
						c0.445-2.172,2.602-3.551,4.719-3.121c5.367,1.09,10.695,2.555,15.844,4.352c2.086,0.73,3.188,3.012,2.453,5.094
						C274.281,33.559,272.734,34.59,271.078,34.59z"/>
				</g>
			</g>
		</g>
		<g>
			<g>
				<g>
					<path style="fill:#FFAA32;" d="M224,28.266c-2.086,0-3.844-1.621-3.984-3.734c-0.148-2.203,1.523-4.109,3.727-4.258
						C226.469,20.094,229.234,20,232,20c2.211,0,4,1.789,4,4s-1.789,4-4,4c-2.594,0-5.172,0.086-7.727,0.258
						C224.179,28.262,224.094,28.266,224,28.266z"/>
				</g>
			</g>
		</g>
	</g>
	<path style="fill:#AF5050;" d="M232,234v-2c0-21.667-8-32-8-32l-8,8c0,0,10.675,10.488,14.795,26H232z"/>
	<g>
		<g>
			<g>
				<path style="fill:#E15050;" d="M274.65,225.669c-9.617-3.177-19.78-1.693-29.172,3.392c-8.45,4.575-18.507,4.575-26.957,0
					c-9.392-5.085-19.554-6.568-29.172-3.392c-24.229,8.003-35.752,42.396-25.737,76.819s37.774,55.839,62.003,47.836
					c2.254-0.744,4.358-1.787,6.385-2.967c2.027,1.18,4.131,2.223,6.385,2.967c24.229,8.003,51.989-13.413,62.003-47.836
					S298.879,233.672,274.65,225.669z"/>
			</g>
		</g>
	</g>
	<g>
		<g>
			<g>
				<path style="fill:#F08C53;" d="M248.828,336c-4.422,0-8-3.582-8-8s3.578-8,8-8c4.586,0,15.781-9.086,20.836-26.453
					c1.234-4.238,5.625-6.684,9.914-5.449c4.242,1.234,6.68,5.676,5.445,9.918C278.726,319.672,263.164,336,248.828,336z"/>
			</g>
		</g>
	</g>
	<g>
		<g>
			<g>
				<path style="fill:#FFC855;" d="M278.211,271.953c-3.492,0-6.711-2.313-7.695-5.848c-1.867-6.68-4.836-9.699-5.898-10.051
					c-4.195-1.387-6.477-5.914-5.086-10.105c1.383-4.195,5.914-6.477,10.102-5.09c7.305,2.414,13.242,10.047,16.289,20.934
					c1.188,4.258-1.297,8.672-5.547,9.859C279.656,271.855,278.929,271.953,278.211,271.953z"/>
			</g>
		</g>
	</g>
	<g>
		<g>
			<g>
				<g>
					<path style="fill:#D24146;" d="M195.612,302.487c-9.252-31.802-0.095-63.531,20.455-74.496
						c-8.7-4.079-17.923-5.228-26.718-2.323c-24.229,8.003-35.752,42.396-25.737,76.819c10.014,34.422,37.774,55.839,62.003,47.836
						c1.746-0.577,3.347-1.439,4.947-2.299C215.401,340.819,201.95,324.273,195.612,302.487z"/>
				</g>
			</g>
		</g>
	</g>
</g>
<g>
</g>
<g>
</g>
<g>
</g>
<g>
</g>
<g>
</g>
<g>
</g>
<g>
</g>
<g>
</g>
<g>
</g>
<g>
</g>
<g>
</g>
<g>
</g>
<g>
</g>
<g>
</g>
<g>
</g>
</svg>
