<?xml version="1.0" encoding="iso-8859-1"?>
<!-- Generator: Adobe Illustrator 19.0.0, SVG Export Plug-In . SVG Version: 6.00 Build 0)  -->
<svg version="1.1" id="Layer_1" xmlns="http://www.w3.org/2000/svg" xmlns:xlink="http://www.w3.org/1999/xlink" x="0px" y="0px"
	 viewBox="0 0 464 464" style="enable-background:new 0 0 464 464;" xml:space="preserve">
<g>
	<g>
		<g>
			<path style="fill:#00BEA5;" d="M232,464L232,464c-75.111,0-136-60.889-136-136V136C96,60.889,156.889,0,232,0l0,0
				c75.111,0,136,60.889,136,136v192C368,403.111,307.111,464,232,464z"/>
		</g>
	</g>
	<g>
		<g>
			<path style="fill:#00AA9A;" d="M152,328V136c0-65.509,46.328-120.173,108-133.085C250.96,1.022,241.602,0,232,0
				C156.889,0,96,60.889,96,136v192c0,75.111,60.889,136,136,136c9.602,0,18.96-1.022,28-2.915C198.328,448.173,152,393.509,152,328
				z"/>
		</g>
	</g>
	<g>
		<g>
			<circle style="fill:#009D93;" cx="232" cy="128" r="100"/>
		</g>
	</g>
	<g>
		<path style="fill:#009D93;" d="M96,280v48c0,4.337,0.252,8.614,0.649,12.847c32.081,53.948,104.988,83.442,166.648,108.27
			c5.29,2.13,10.529,4.248,15.716,6.364c6.876-2.538,13.51-5.544,19.812-9.11c-9.501-4.004-19.391-8.002-29.551-12.094
			C188.055,401.57,96,364.504,96,280z"/>
		<path style="fill:#009D93;" d="M96,208v59.626c31.705,54.709,105.185,84.481,167.297,109.491
			c28.418,11.444,55.923,22.564,75.641,34.727c3.306-4.211,6.33-8.637,9.129-13.227c-20.832-12.966-48.787-24.258-78.793-36.34
			C188.055,329.57,96,292.504,96,208z"/>
		<path style="fill:#009D93;" d="M368,195.626V136c0,71.714-66.298,109.256-136.006,138.97C162.29,245.257,96,207.709,96,136v59.626
			c31.705,54.709,105.185,84.481,167.297,109.491c44.531,17.933,86.93,35.057,100.296,56.685c1.712-6.68,3.056-13.502,3.737-20.537
			c-0.065-0.063-0.135-0.125-0.201-0.188c0.075-0.125,0.155-0.248,0.229-0.373C367.746,336.517,368,332.289,368,328v-48
			c0,19.333-4.904,36.136-13.346,50.999c-8.497-5.932-18.511-11.482-29.599-16.862c17.563-13.293,32.53-28.538,42.945-46.511V208
			c0,43.512-24.46,74.41-59.238,98.641c-12.405-5.448-25.729-10.823-39.489-16.364c-5.596-2.254-11.245-4.529-16.91-6.838
			C299.39,262.227,344.84,235.589,368,195.626z"/>
	</g>
	<g>
		<circle style="fill:#FFE5D1;" cx="232" cy="128" r="88"/>
	</g>
	<g>
		<path style="fill:#FFD6B3;" d="M180.667,128c0-42.31,29.87-77.62,69.667-86.058C244.416,40.687,238.291,40,232,40
			c-48.601,0-88,39.399-88,88s39.399,88,88,88c6.291,0,12.416-0.687,18.333-1.942C210.537,205.619,180.667,170.31,180.667,128z"/>
	</g>
	<g>
		<g>
			<path style="fill:#C3A587;" d="M240.608,47.448c-3.975-0.745-7.799,1.955-8.493,5.944c-0.709,3.989,1.955,7.792,5.944,8.493
				c2.721,0.487,3.595,2.177,3.839,2.886c0.236,0.666,0.473,1.977-0.594,3.187c-1.726,1.941-6.567,3.373-15.089,1.54
				c-11.501-2.478-11.587-11.029-10.613-15.906c1.187-5.94,5.175-11.698,10.378-13.351c-8.043,0.545-15.774,2.181-23.074,4.746
				c-0.715,1.869-1.296,3.785-1.684,5.733c-2.707,13.557,3.022,29.047,21.9,33.115c3.853,0.831,7.255,1.182,10.262,1.182
				c10.556,0,16.228-4.311,18.913-7.355c4.326-4.898,5.615-11.53,3.445-17.732C253.456,53.378,247.791,48.715,240.608,47.448z"/>
		</g>
	</g>
	<g>
		<g>
			<path style="fill:#6E4141;" d="M192,144L192,144c-4.418,0-8-3.582-8-8v-8c0-4.418,3.582-8,8-8l0,0c4.418,0,8,3.582,8,8v8
				C200,140.418,196.418,144,192,144z"/>
		</g>
	</g>
	<g>
		<g>
			<path style="fill:#6E4141;" d="M272,144L272,144c-4.418,0-8-3.582-8-8v-8c0-4.418,3.582-8,8-8l0,0c4.418,0,8,3.582,8,8v8
				C280,140.418,276.418,144,272,144z"/>
		</g>
	</g>
	<g>
		<g>
			<path style="fill:#E6B996;" d="M232,188.149c-8.375,0-16.438-2.102-23.305-6.074c-3.82-2.215-5.133-7.109-2.914-10.934
				c2.211-3.824,7.078-5.125,10.93-2.918c8.875,5.141,21.703,5.141,30.578,0c3.836-2.207,8.719-0.906,10.93,2.918
				c2.219,3.824,0.906,8.719-2.914,10.934C248.438,186.048,240.375,188.149,232,188.149z"/>
		</g>
	</g>
</g>
<g>
</g>
<g>
</g>
<g>
</g>
<g>
</g>
<g>
</g>
<g>
</g>
<g>
</g>
<g>
</g>
<g>
</g>
<g>
</g>
<g>
</g>
<g>
</g>
<g>
</g>
<g>
</g>
<g>
</g>
</svg>
