<?xml version="1.0" encoding="iso-8859-1"?>
<!-- Generator: Adobe Illustrator 19.0.0, SVG Export Plug-In . SVG Version: 6.00 Build 0)  -->
<svg version="1.1" id="Layer_1" xmlns="http://www.w3.org/2000/svg" xmlns:xlink="http://www.w3.org/1999/xlink" x="0px" y="0px"
	 viewBox="0 0 464 464" style="enable-background:new 0 0 464 464;" xml:space="preserve">
<g>
	<g>
		<g>
			<path style="fill:#00BEA5;" d="M280,192h-96c-22,0-40-18-40-40l0,0c0-22,18-40,40-40h96c22,0,40,18,40,40l0,0
				C320,174,302,192,280,192z"/>
		</g>
	</g>
	<g>
		<g>
			<path style="fill:#E15050;" d="M328,272H136c-22,0-40-18-40-40l0,0c0-22,18-40,40-40h192c22,0,40,18,40,40l0,0
				C368,254,350,272,328,272z"/>
		</g>
	</g>
	<g>
		<g>
			<path style="fill:#FFC855;" d="M424,432H40c-22,0-40-18-40-40l0,0c0-22,18-40,40-40h384c22,0,40,18,40,40l0,0
				C464,414,446,432,424,432z"/>
		</g>
	</g>
	<g>
		<g>
			<path style="fill:#00BED2;" d="M376,352H88c-22,0-40-18-40-40l0,0c0-22,18-40,40-40h288c22,0,40,18,40,40l0,0
				C416,334,398,352,376,352z"/>
		</g>
	</g>
	<g>
		<g>
			<path style="fill:#FFC855;" d="M232,112L232,112c-22,0-40-18-40-40l0,0c0-22,18-40,40-40l0,0c22,0,40,18,40,40l0,0
				C272,94,254,112,232,112z"/>
		</g>
	</g>
	<g>
		<g>
			<path style="fill:#FFDE99;" d="M408,384h16c4.418,0,8-3.582,8-8l0,0c0-4.418-3.582-8-8-8h-16c-4.418,0-8,3.582-8,8l0,0
				C400,380.418,403.582,384,408,384z"/>
		</g>
	</g>
	<g>
		<g>
			<path style="fill:#FFD680;" d="M296,384h80c4.418,0,8-3.582,8-8l0,0c0-4.418-3.582-8-8-8h-80c-4.418,0-8,3.582-8,8l0,0
				C288,380.418,291.581,384,296,384z"/>
		</g>
	</g>
	<g>
		<g>
			<path style="fill:#66D8E4;" d="M360,304h16c4.418,0,8-3.582,8-8l0,0c0-4.418-3.582-8-8-8h-16c-4.418,0-8,3.582-8,8l0,0
				C352,300.418,355.582,304,360,304z"/>
		</g>
	</g>
	<g>
		<g>
			<path style="fill:#33CBDB;" d="M272,304h56c4.418,0,8-3.582,8-8l0,0c0-4.418-3.582-8-8-8h-56c-4.418,0-8,3.582-8,8l0,0
				C264,300.418,267.582,304,272,304z"/>
		</g>
	</g>
	<g>
		<g>
			<path style="fill:#ED9696;" d="M312,224h16c4.418,0,8-3.582,8-8l0,0c0-4.418-3.582-8-8-8h-16c-4.418,0-8,3.582-8,8l0,0
				C304,220.418,307.582,224,312,224z"/>
		</g>
	</g>
	<g>
		<g>
			<path style="fill:#66D8C9;" d="M264,144h16c4.418,0,8-3.582,8-8l0,0c0-4.418-3.582-8-8-8h-16c-4.418,0-8,3.582-8,8l0,0
				C256,140.418,259.582,144,264,144z"/>
		</g>
	</g>
	<g>
		<g>
			<path style="fill:#E77373;" d="M256,224h24c4.418,0,8-3.582,8-8l0,0c0-4.418-3.582-8-8-8h-24c-4.418,0-8,3.582-8,8l0,0
				C248,220.418,251.582,224,256,224z"/>
		</g>
	</g>
	<g>
		<g>
			<path style="fill:#FFB44B;" d="M216,72L216,72c0-17.795,11.855-32.794,28-37.946C240.186,32.837,236.205,32,232,32
				c-22,0-40,18-40,40l0,0c0,22,18,40,40,40c4.205,0,8.186-0.837,12-2.054C227.855,104.794,216,89.795,216,72z"/>
		</g>
	</g>
	<g>
		<g>
			<circle style="fill:#FFDE99;" cx="244" cy="60" r="12"/>
		</g>
	</g>
	<path style="fill:#FFB44B;" d="M184,432c-22,0-40-18-40-40l0,0c0-21.999,17.999-39.999,39.998-40H40c-22,0-40,18-40,40l0,0
		c0,22,18,40,40,40"/>
	<path style="fill:#00A6BD;" d="M208,352c-22,0-40-18-40-40l0,0c0-21.999,17.999-39.999,39.998-40H88c-22,0-40,18-40,40l0,0
		c0,22,18,40,40,40"/>
	<path style="fill:#D24146;" d="M192,232L192,232c0-22,18-40,40-40h-96c-22,0-40,18-40,40l0,0c0,22,18,40,40,40h96
		C210,272,192,254,192,232z"/>
	<g>
		<path style="fill:#00AA9A;" d="M216,152L216,152c0-22,18-40,40-40h-72c-22,0-40,18-40,40l0,0c0,22,18,40,40,40h72
			C234,192,216,174,216,152z"/>
	</g>
</g>
<g>
</g>
<g>
</g>
<g>
</g>
<g>
</g>
<g>
</g>
<g>
</g>
<g>
</g>
<g>
</g>
<g>
</g>
<g>
</g>
<g>
</g>
<g>
</g>
<g>
</g>
<g>
</g>
<g>
</g>
</svg>
