<?xml version="1.0" encoding="iso-8859-1"?>
<!-- Generator: Adobe Illustrator 19.0.0, SVG Export Plug-In . SVG Version: 6.00 Build 0)  -->
<svg version="1.1" id="Layer_1" xmlns="http://www.w3.org/2000/svg" xmlns:xlink="http://www.w3.org/1999/xlink" x="0px" y="0px"
	 viewBox="0 0 464 464" style="enable-background:new 0 0 464 464;" xml:space="preserve">
<g>
	<g>
		<g>
			<path style="fill:#FFE5D1;" d="M416,184c-2.119,0-4.191,0.185-6.237,0.451C388.798,105.884,317.173,48,232,48
				S75.202,105.884,54.237,184.451C52.191,184.185,50.119,184,48,184c-26.51,0-48,21.49-48,48s21.49,48,48,48
				c2.119,0,4.191-0.185,6.237-0.451C75.202,358.116,146.827,416,232,416s156.798-57.884,177.763-136.451
				c2.046,0.266,4.118,0.451,6.237,0.451c26.51,0,48-21.49,48-48S442.51,184,416,184z"/>
		</g>
	</g>
	<g>
		<g>
			<path style="fill:#FFD6B3;" d="M120,232c0-89.192,63.466-163.544,147.698-180.401C256.136,49.321,244.231,48,232,48
				c-85.173,0-156.798,57.884-177.763,136.451C52.191,184.185,50.119,184,48,184c-26.51,0-48,21.49-48,48s21.49,48,48,48
				c2.119,0,4.191-0.185,6.237-0.451C75.202,358.116,146.827,416,232,416c12.231,0,24.136-1.321,35.698-3.599
				C183.466,395.544,120,321.191,120,232z"/>
		</g>
	</g>
	<g>
		<g>
			<path style="fill:#C3A587;" d="M232.025,48.001c-0.008,0-0.017-0.001-0.025-0.001c-17.602,0-34.571,2.597-50.688,7.212
				c-9.517,10.76-14.802,23.876-14.531,36.381C167.242,113.063,184.625,136,232,136c15.594,0,27.977-2.543,36.813-7.563
				c9.125-5.188,14.156-12.914,14.156-21.758c0-16.676-19.57-34.68-51.188-34.68c-4.422,0-8,3.582-8,8s3.578,8,8,8
				c21.797,0,35.188,10.879,35.188,18.68c0,3.637-3.297,6.273-6.063,7.848C256.508,117.023,247.93,120,232,120
				c-30.43,0-48.836-10.746-49.219-28.75C182.36,71.839,202.48,49.326,232.025,48.001z"/>
		</g>
	</g>
	<g>
		<g>
			<g>
				<path style="fill:#AA7D6B;" d="M168,248c-4.422,0-8-3.582-8-8c0-4.41-3.586-8-8-8s-8,3.59-8,8c0,4.418-3.578,8-8,8s-8-3.582-8-8
					c0-13.234,10.766-24,24-24s24,10.766,24,24C176,244.418,172.422,248,168,248z"/>
			</g>
		</g>
	</g>
	<g>
		<g>
			<g>
				<path style="fill:#AA7D6B;" d="M328,248c-4.422,0-8-3.582-8-8c0-4.41-3.586-8-8-8s-8,3.59-8,8c0,4.418-3.578,8-8,8s-8-3.582-8-8
					c0-13.234,10.766-24,24-24s24,10.766,24,24C336,244.418,332.422,248,328,248z"/>
			</g>
		</g>
	</g>
	<g>
		<g>
			<ellipse style="fill:#8C5F56;" cx="232" cy="332" rx="72" ry="52"/>
		</g>
	</g>
	<g>
		<g>
			<path style="fill:#E6B996;" d="M176,208.004c-0.836,0-1.688-0.133-2.531-0.414l-48-16c-4.188-1.398-6.453-5.93-5.055-10.121
				c1.398-4.188,5.883-6.469,10.117-5.059l48,16c4.188,1.398,6.453,5.93,5.055,10.121C182.469,205.883,179.352,208.004,176,208.004z
				"/>
		</g>
	</g>
	<g>
		<g>
			<path style="fill:#E6B996;" d="M288,208.004c-3.352,0-6.469-2.121-7.586-5.473c-1.398-4.191,0.867-8.723,5.055-10.121l48-16
				c4.219-1.41,8.727,0.871,10.117,5.059c1.398,4.191-0.867,8.723-5.055,10.121l-48,16C289.688,207.871,288.836,208.004,288,208.004
				z"/>
		</g>
	</g>
	<g>
		<g>
			<path style="fill:#6E4141;" d="M247.677,308.801c0.948,4.669-0.085,10.054-4.535,15.347C230.103,333.504,216,324.398,216,312
				c0-1.096,0.113-2.165,0.323-3.199c-7.974,5.4-13.019,14.798-12.245,25.318c1.016,13.803,12.296,24.954,26.109,25.824
				C246.472,360.968,260,348.064,260,332C260,322.346,255.112,313.835,247.677,308.801z"/>
		</g>
	</g>
</g>
<g>
</g>
<g>
</g>
<g>
</g>
<g>
</g>
<g>
</g>
<g>
</g>
<g>
</g>
<g>
</g>
<g>
</g>
<g>
</g>
<g>
</g>
<g>
</g>
<g>
</g>
<g>
</g>
<g>
</g>
</svg>
