<?xml version="1.0" encoding="iso-8859-1"?>
<!-- Generator: Adobe Illustrator 19.0.0, SVG Export Plug-In . SVG Version: 6.00 Build 0)  -->
<svg version="1.1" id="Layer_1" xmlns="http://www.w3.org/2000/svg" xmlns:xlink="http://www.w3.org/1999/xlink" x="0px" y="0px"
	 viewBox="0 0 464 464" style="enable-background:new 0 0 464 464;" xml:space="preserve">
<g>
	<g>
		<g>
			<path style="fill:#DC7850;" d="M308,64H100l-25.408,40.653C65.056,119.91,60,137.54,60,155.532V432c0,17.673,14.327,32,32,32h224
				c17.673,0,32-14.327,32-32V155.532c0-17.992-5.056-35.622-14.592-50.88L308,64z"/>
		</g>
	</g>
	<path style="fill:#C85A46;" d="M132,432V155.532c0-17.992,5.056-35.623,14.592-50.88L172,64h-72l-25.408,40.652
		C65.056,119.91,60,137.54,60,155.532V432c0,17.673,14.327,32,32,32h72C146.327,464,132,449.673,132,432z"/>
	<g>
		<g>
			<path style="fill:#FFC855;" d="M308,64H100c-8.837,0-16-7.163-16-16V16c0-8.837,7.163-16,16-16h208c8.837,0,16,7.163,16,16v32
				C324,56.837,316.837,64,308,64z"/>
		</g>
	</g>
	<g>
		<g>
			<path style="fill:#FFB44B;" d="M172,48V16c0-8.837,7.164-16,16-16h-88c-8.836,0-16,7.163-16,16v32c0,8.836,7.164,16,16,16h88
				C179.164,64,172,56.836,172,48z"/>
		</g>
	</g>
	<g>
		<g>
			<path style="fill:#FFC855;" d="M284,376H124c-8.837,0-16-7.163-16-16V216c0-8.837,7.163-16,16-16h160c8.837,0,16,7.163,16,16v144
				C300,368.837,292.837,376,284,376z"/>
		</g>
	</g>
	<path style="fill:#FFE5D1;" d="M252,272c-0.909,0-1.794,0.094-2.661,0.239C242.816,253.474,224.987,240,204,240
		s-38.816,13.474-45.339,32.239C157.794,272.093,156.909,272,156,272c-8.837,0-16,7.164-16,16c0,8.837,7.163,16,16,16
		c0.909,0,1.794-0.094,2.661-0.239C165.184,322.526,183.013,336,204,336s38.816-13.474,45.339-32.239
		c0.867,0.146,1.752,0.239,2.661,0.239c8.837,0,16-7.163,16-16C268,279.164,260.837,272,252,272z"/>
	<g>
		<g>
			<path style="fill:#6E4141;" d="M184,296L184,296c-2.209,0-4-1.791-4-4v-8c0-2.209,1.791-4,4-4l0,0c2.209,0,4,1.791,4,4v8
				C188,294.209,186.209,296,184,296z"/>
		</g>
	</g>
	<g>
		<g>
			<path style="fill:#6E4141;" d="M224,296L224,296c-2.209,0-4-1.791-4-4v-8c0-2.209,1.791-4,4-4l0,0c2.209,0,4,1.791,4,4v8
				C228,294.209,226.209,296,224,296z"/>
		</g>
	</g>
	<g>
		<g>
			<path style="fill:#E6B996;" d="M204,321.25c-5.727,0-11.289-2.242-15.68-6.316c-1.625-1.504-1.719-4.035-0.211-5.656
				c1.508-1.617,4.047-1.703,5.648-0.211c2.055,1.91,5.5,4.184,10.242,4.184s8.188-2.273,10.242-4.184
				c1.609-1.496,4.141-1.406,5.648,0.211c1.508,1.621,1.414,4.152-0.211,5.656C215.289,319.008,209.727,321.25,204,321.25z"/>
		</g>
	</g>
	<g>
		<g>
			<path style="fill:#C3A587;" d="M210.953,244.141c-2.133,0.574-3.391,2.773-2.813,4.906c0.242,0.887-0.727,1.824-1.148,2.188
				c-2.039,1.727-5.898,2.676-9.344,1.121c-4.805-2.176-6.508-5.215-6.07-7.254c0.508-2.331,4.076-4.578,10.569-5.008
				c-6.606,0.252-12.857,1.83-18.517,4.49c-0.647,5.931,3.4,11.744,10.721,15.061c2.352,1.066,4.734,1.52,7.008,1.52
				c4.305,0,8.219-1.629,10.813-3.836c3.305-2.813,4.688-6.691,3.688-10.375C215.281,244.824,213.125,243.551,210.953,244.141z"/>
		</g>
	</g>
	<g>
		<g>
			<path style="fill:#FFB44B;" d="M124,200c-8.836,0-16,7.163-16,16v144c0,8.836,7.164,16,16,16h8V200H124z"/>
		</g>
	</g>
	<g>
		<g>
			<path style="fill:#FFB44B;" d="M204,240c20.993,0,38.791,13.499,45.31,32.271c0.879-0.149,1.769-0.271,2.69-0.271
				c8.836,0,16,7.163,16,16c0,8.836-7.164,16-16,16c-0.921,0-1.812-0.122-2.69-0.271C242.791,322.501,224.993,336,204,336
				s-38.791-13.499-45.31-32.271c-0.879,0.149-1.769,0.271-2.69,0.271c-8.836,0-16-7.164-16-16c0-8.837,7.164-16,16-16
				c0.921,0,1.812,0.122,2.69,0.271C165.209,253.499,183.007,240,204,240 M204,224c-23.5,0-44.819,12.901-55.95,33
				c-13.813,3.543-24.05,16.099-24.05,31s10.238,27.457,24.05,31c11.131,20.099,32.45,33,55.95,33s44.819-12.901,55.95-33
				c13.813-3.543,24.05-16.099,24.05-31s-10.238-27.457-24.05-31C248.819,236.901,227.5,224,204,224L204,224z"/>
		</g>
	</g>
	<g>
		<g>
			<g>
				<path style="fill:#CDE6F5;" d="M404,192c0-59-25.072-104-56-104s-56,45-56,104c0,20.669,11.205,38.704,27.867,48.4
					c7.448,4.334,12.133,12.18,12.133,20.797V296h32v-34.803c0-8.617,4.686-16.463,12.133-20.797
					C392.795,230.704,404,212.669,404,192z"/>
			</g>
		</g>
		<g>
			<g>
				<path style="fill:#FFC855;" d="M348,464L348,464c-13.255,0-24-10.745-24-24V304c0-4.418,3.582-8,8-8h32c4.418,0,8,3.582,8,8v136
					C372,453.255,361.255,464,348,464z"/>
			</g>
		</g>
		<g>
			<g>
				<path style="fill:#FFB44B;" d="M348,440V304c0-4.418,3.582-8,8-8h-24c-4.418,0-8,3.582-8,8v136c0,13.255,10.745,24,24,24
					c4.394,0,8.458-1.267,12-3.329C352.856,456.514,348,448.861,348,440z"/>
			</g>
		</g>
		<g>
			<g>
				<g>
					<path style="fill:#B7D3E2;" d="M348,88c-11.432,0-22.053,6.18-30.915,16.912c2.271-0.543,4.568-0.912,6.915-0.912
						c30.928,0,56,48.461,56,112c0,9.16-1.982,17.787-5.377,25.559c0.526-0.363,0.952-0.834,1.51-1.159
						C392.795,230.704,404,212.668,404,192C404,133,378.928,88,348,88z"/>
				</g>
			</g>
		</g>
	</g>
</g>
<g>
</g>
<g>
</g>
<g>
</g>
<g>
</g>
<g>
</g>
<g>
</g>
<g>
</g>
<g>
</g>
<g>
</g>
<g>
</g>
<g>
</g>
<g>
</g>
<g>
</g>
<g>
</g>
<g>
</g>
</svg>
