<?xml version="1.0" encoding="iso-8859-1"?>
<!-- Generator: Adobe Illustrator 19.0.0, SVG Export Plug-In . SVG Version: 6.00 Build 0)  -->
<svg version="1.1" id="Layer_1" xmlns="http://www.w3.org/2000/svg" xmlns:xlink="http://www.w3.org/1999/xlink" x="0px" y="0px"
	 viewBox="0 0 464 464" style="enable-background:new 0 0 464 464;" xml:space="preserve">
<g>
	<path style="fill:#C8F0FF;" d="M437.302,228c1.728-3.637,2.698-7.705,2.698-12c0-12.206-7.858-22.479-18.753-26.313
		c-4.997-12.989-16.511-22.644-30.586-25.016c0.785-2.775,1.34-5.645,1.34-8.671c0-17.673-14.327-32-32-32
		c-12.688,0-23.552,7.443-28.728,18.147c-3.518-1.33-7.29-2.147-11.272-2.147c-9.865,0-18.576,4.559-24.446,11.576
		C293.382,136.017,280.158,124,264,124c-1.097,0-2.134,0.215-3.202,0.323C254.699,110.026,240.525,100,224,100
		c-22.091,0-40,17.909-40,40c0,3.736,0.677,7.281,1.635,10.712C181.425,148.985,176.832,148,172,148
		c-5.105,0-9.944,1.092-14.343,3.008C152.243,135.332,137.517,124,120,124c-19.378,0-35.525,13.785-39.202,32.081
		C80.526,156.074,80.273,156,80,156c-17.673,0-32,14.327-32,32c0,0.376,0.098,0.725,0.11,1.097C34.275,192.626,24,205.065,24,220
		c0,2.762,0.35,5.443,1.008,8H437.302z"/>
	<path style="fill:#B9E9FF;" d="M248,228c22.091,0,40-17.909,40-40s-17.909-40-40-40c-16.963,0-31.45,10.564-37.266,25.469
		C207.317,172.519,203.72,172,200,172c-22.091,0-40,17.909-40,40c0,5.69,1.196,11.099,3.338,16C163.338,228,244.28,228,248,228z"/>
	<path style="fill:#B9E9FF;" d="M344,188c-22.091,0-40,17.909-40,40h80C384,205.909,366.091,188,344,188z"/>
	<path style="fill:#AAE1FF;" d="M226.845,228h79.039c3.802-4.246,6.116-9.852,6.116-16c0-13.255-10.745-24-24-24
		c-3.937,0-7.648,0.954-10.926,2.634C272.01,179.637,260.9,172,248,172c-17.673,0-32,14.327-32,32
		C216,213.561,220.198,222.136,226.845,228z"/>
	<path style="fill:#AAE1FF;" d="M360,204c-13.255,0-24,10.745-24,24h48C384,214.745,373.255,204,360,204z"/>
	<path style="fill:#B9E9FF;" d="M119.198,228c-3.706-18.258-19.847-32-39.198-32c-1.623,0-3.22,0.108-4.793,0.296
		c4.073-9.524,11.732-17.149,21.284-21.171C98.922,155.36,115.579,140,136,140c6.91,0,13.31,1.912,18.981,4.996
		C148.236,132.525,135.178,124,120,124c-19.378,0-35.525,13.785-39.202,32.081C80.526,156.074,80.273,156,80,156
		c-17.673,0-32,14.327-32,32c0,0.376,0.098,0.725,0.11,1.097C34.275,192.626,24,205.065,24,220c0,2.765,0.37,5.441,1.029,8H119.198z
		"/>
	<path style="fill:#AAE1FF;" d="M196.662,228c2.142-4.901,3.338-10.31,3.338-16c0-22.091-17.909-40-40-40
		c-14.822,0-27.752,8.068-34.662,20.047C121.523,189.492,116.936,188,112,188c-13.255,0-24,10.745-24,24
		c0,6.148,2.314,11.754,6.116,16H196.662z"/>
	<path style="fill:#FFC855;" d="M382.356,436H81.644c-19.447,0-36.076-13.987-39.408-33.146L16,252h432l-26.235,150.854
		C418.432,422.013,401.803,436,382.356,436z"/>
	<path style="fill:#FFB44B;" d="M448,252H16c-8.837,0-16-7.163-16-16l0,0c0-8.837,7.163-16,16-16h432c8.837,0,16,7.163,16,16l0,0
		C464,244.837,456.837,252,448,252z"/>
	<path style="fill:#FFB44B;" d="M130.235,402.854L104,252H16l26.235,150.854C45.567,422.013,62.197,436,81.644,436h88
		C150.197,436,133.567,422.013,130.235,402.854z"/>
	<path style="fill:#FFA54B;" d="M136,252H16c-8.837,0-16-7.163-16-16l0,0c0-8.837,7.163-16,16-16h120c8.837,0,16,7.163,16,16l0,0
		C152,244.837,144.837,252,136,252z"/>
	<circle style="fill:#AAE1FF;" cx="168" cy="100" r="8"/>
	<circle style="fill:#B9E9FF;" cx="224" cy="36" r="8"/>
	<circle style="fill:#C8F0FF;" cx="264" cy="60" r="8"/>
	<circle style="fill:#C8F0FF;" cx="104" cy="100" r="8"/>
	<circle style="fill:#B9E9FF;" cx="144" cy="68" r="8"/>
	<circle style="fill:#AAE1FF;" cx="288" cy="108" r="8"/>
	<circle style="fill:#B9E9FF;" cx="320" cy="84" r="8"/>
</g>
<g>
</g>
<g>
</g>
<g>
</g>
<g>
</g>
<g>
</g>
<g>
</g>
<g>
</g>
<g>
</g>
<g>
</g>
<g>
</g>
<g>
</g>
<g>
</g>
<g>
</g>
<g>
</g>
<g>
</g>
</svg>
