<?xml version="1.0" encoding="iso-8859-1"?>
<!-- Generator: Adobe Illustrator 19.0.0, SVG Export Plug-In . SVG Version: 6.00 Build 0)  -->
<svg version="1.1" id="Layer_1" xmlns="http://www.w3.org/2000/svg" xmlns:xlink="http://www.w3.org/1999/xlink" x="0px" y="0px"
	 viewBox="0 0 448 448" style="enable-background:new 0 0 448 448;" xml:space="preserve">
<g>
	<g>
		<g>
			<circle style="fill:#FFC855;" cx="224" cy="224" r="224"/>
		</g>
	</g>
	<g>
		<g>
			<path style="fill:#00BEA5;" d="M65.608,65.608c-87.477,87.477-87.478,229.306,0,316.784L382.392,65.608
				C294.914-21.869,153.086-21.869,65.608,65.608z"/>
		</g>
	</g>
	<g>
		<g>
			<path style="fill:#00AA9A;" d="M127.834,127.834c87.478-87.478,201.447-115.337,254.558-62.225
				c-87.478-87.478-229.306-87.478-316.784,0c-87.477,87.477-87.478,229.306,0,316.784
				C12.497,329.281,40.356,215.311,127.834,127.834z"/>
		</g>
	</g>
	<g>
		<g>
			
				<ellipse transform="matrix(0.7071 -0.7071 0.7071 0.7071 -92.7817 223.9993)" style="fill:#E15050;" cx="224" cy="223.997" rx="223.998" ry="95.999"/>
		</g>
	</g>
	<g>
		<g>
			<path style="fill:#D24146;" d="M308.504,16.494c6.975,19.301,25.517,45.998,51.261,71.741
				c25.743,25.743,52.44,44.286,71.741,51.261c-10.935-26.885-27.302-52.077-49.114-73.888
				C360.58,43.797,335.388,27.429,308.504,16.494z"/>
		</g>
	</g>
	<g>
		<g>
			<path style="fill:#AF373C;" d="M374.047,57.675c-2.047-1.85-4.149-3.605-6.247-5.365c-0.799-0.671-1.573-1.386-2.38-2.044
				c-2.195-1.791-4.44-3.486-6.685-5.181c-0.75-0.566-1.478-1.174-2.233-1.729c-2.951-2.17-5.946-4.255-8.977-6.261
				c-0.059-0.039-0.117-0.083-0.176-0.123c-3.063-2.024-6.164-3.962-9.3-5.819c-0.035-0.021-0.069-0.044-0.104-0.065
				c-9.499-5.619-19.325-10.474-29.387-14.57c-0.018-0.007-0.036-0.016-0.054-0.023c2.436,6.74,6.359,14.417,11.429,22.604
				c24.765,1.846,46.404,10.454,62.459,26.51C379.662,62.878,376.879,60.234,374.047,57.675z"/>
		</g>
	</g>
	<g>
		<g>
			<path style="fill:#FFDE99;" d="M412.698,182.358c-1.005-1.005-1.751-2.282-2.11-3.768c-1.376-5.651-3.022-11.308-4.9-16.81
				c-1.431-4.182,0.801-8.723,4.983-10.154c4.176-1.425,8.739,0.784,10.154,4.983c2.033,5.955,3.823,12.087,5.309,18.214
				c1.044,4.292-1.591,8.618-5.889,9.656C417.438,185.164,414.604,184.264,412.698,182.358z"/>
		</g>
	</g>
	<g>
		<g>
			<path style="fill:#00BEA5;" d="M21.966,191.694c-1.812-1.812-2.729-4.464-2.204-7.176c7.309-37.99,25.075-73.125,51.398-101.602
				c3-3.243,8.06-3.442,11.303-0.442c3.149,2.641,3.447,8.054,0.442,11.303c-24.285,26.284-40.686,58.706-47.431,93.769
				c-0.834,4.337-5.027,7.182-9.369,6.342C24.474,193.572,23.06,192.788,21.966,191.694z"/>
		</g>
	</g>
	<g>
		<g>
			<path style="fill:#00BEA5;" d="M19.16,247.777c-1.276-1.276-2.127-2.989-2.304-4.933c-0.685-7.535-0.961-15.17-0.818-22.683
				c0.083-4.414,3.729-7.927,8.154-7.844c4.403,0.083,7.927,3.729,7.844,8.154c-0.133,6.927,0.122,13.965,0.751,20.937
				c0.398,4.397-2.839,8.286-7.248,8.684C23.082,250.318,20.784,249.401,19.16,247.777z"/>
		</g>
	</g>
	<g>
		<g>
			<path style="fill:#FFD680;" d="M397.633,318.404c-2.359-2.359-3.077-6.049-1.508-9.209
				c15.297-30.897,21.976-65.507,19.296-100.094c-0.342-4.408,2.95-8.253,7.358-8.596c4.419-0.342,8.248,2.978,8.596,7.358
				c2.9,37.46-4.331,74.953-20.92,108.436c-1.956,3.955-6.756,5.574-10.717,3.613C398.937,319.52,398.23,319.001,397.633,318.404z"
				/>
		</g>
	</g>
</g>
<g>
</g>
<g>
</g>
<g>
</g>
<g>
</g>
<g>
</g>
<g>
</g>
<g>
</g>
<g>
</g>
<g>
</g>
<g>
</g>
<g>
</g>
<g>
</g>
<g>
</g>
<g>
</g>
<g>
</g>
</svg>
