<?xml version="1.0" encoding="iso-8859-1"?>
<!-- Generator: Adobe Illustrator 19.0.0, SVG Export Plug-In . SVG Version: 6.00 Build 0)  -->
<svg version="1.1" id="Layer_1" xmlns="http://www.w3.org/2000/svg" xmlns:xlink="http://www.w3.org/1999/xlink" x="0px" y="0px"
	 viewBox="0 0 464 464" style="enable-background:new 0 0 464 464;" xml:space="preserve">
<g>
	<g>
		<g>
			<rect x="224" y="188.995" style="fill:#FFA046;" width="16" height="30.01"/>
		</g>
	</g>
	<g>
		<path style="fill:#FFC855;" d="M360,392L360,392c-17.673,0-32-14.327-32-32v-44.816c0-52.858-41.353-98.2-94.202-99.167
			C179.956,215.032,136,258.382,136,312v48c0,17.673-14.327,32-32,32l0,0c-8.837,0-16,7.163-16,16l0,0c0,8.837,7.163,16,16,16h256
			c8.837,0,16-7.163,16-16l0,0C376,399.163,368.837,392,360,392z"/>
		<path style="fill:#FFB44B;" d="M233.798,216.017C179.956,215.031,136,258.383,136,312v48c0,17.65-14.29,31.961-31.931,31.998
			c-0.023,0-0.046-0.003-0.069-0.003c-8.837,0-16,7.163-16,16s7.163,16,16,16V424h56v-0.005c-8.837,0-16-7.163-16-16s7.163-16,16-16
			c0.023,0,0.046,0.003,0.069,0.003C177.71,391.961,192,377.65,192,360v-48c0-43.154,28.495-79.611,67.681-91.701
			C251.475,217.729,242.823,216.182,233.798,216.017z"/>
		<path style="fill:#FFB44B;" d="M192.323,418.995C192.118,420.636,192,422.304,192,424c0,22.091,17.909,40,40,40s40-17.909,40-40
			c0-1.696-0.118-3.364-0.323-5.005H192.323z"/>
		<path style="fill:#FFA046;" d="M192.315,418.995c-0.205,1.64-0.315,3.31-0.315,5.005c0,22.092,17.909,40,40,40
			c4.21,0,8.189-0.83,12-2.035c-11.023-3.487-20.013-11.541-24.63-21.97h49.295c2.14-4.9,3.335-10.307,3.335-15.995
			c0-1.696-0.117-3.365-0.322-5.005H192.315z"/>
		<g>
			<g>
				<path style="fill:#FFB44B;" d="M360,424H104c-8.837,0-16-7.163-16-16l0,0c0-8.837,7.163-16,16-16h256c8.837,0,16,7.163,16,16
					l0,0C376,416.837,368.837,424,360,424z"/>
			</g>
		</g>
		<g>
			<g>
				<path style="fill:#FFA046;" d="M176,408c0-8.837,7.164-16,16-16h-88c-8.836,0-16,7.163-16,16c0,8.836,7.164,16,16,16h88
					C183.164,424,176,416.836,176,408z"/>
			</g>
		</g>
		<g>
			<g>
				<path style="fill:#FFD680;" d="M304,368c-4.422,0-8-3.578-8-8v-44.813c0-8.383-1.484-16.594-4.414-24.391
					c-1.547-4.141,0.547-8.75,4.68-10.305c4.141-1.531,8.75,0.539,10.305,4.68c3.602,9.609,5.43,19.703,5.43,30.016V360
					C312,364.422,308.422,368,304,368z"/>
			</g>
		</g>
		<g>
			<g>
				<path style="fill:#FFE6A1;" d="M280,267.305c-1.969,0-3.938-0.719-5.477-2.172c-4.305-4.039-9.094-7.461-14.234-10.156
					c-3.914-2.055-5.422-6.891-3.367-10.805c2.047-3.914,6.875-5.406,10.805-3.367c6.422,3.375,12.391,7.633,17.75,12.672
					c3.219,3.023,3.375,8.086,0.352,11.305C284.258,266.461,282.133,267.305,280,267.305z"/>
			</g>
		</g>
	</g>
	<g>
		<g>
			<path style="fill:#FF6472;" d="M240.326,192h-16.653c-4.289,0-7.815-3.382-7.993-7.667l-6.681-160.354
				C208.454,10.9,218.91,0,232,0l0,0c13.09,0,23.546,10.9,23.001,23.979l-6.681,160.354C248.141,188.618,244.615,192,240.326,192z"
				/>
		</g>
	</g>
	<g>
		<g>
			<path style="fill:#D25566;" d="M232.659,184.333l-6.681-160.354c-0.419-10.068,5.708-18.789,14.511-22.295
				C237.858,0.635,235.012,0,232,0c-13.09,0-23.546,10.9-23.001,23.979l6.682,160.354c0.178,4.285,3.704,7.667,7.993,7.667h16.652
				c0.058,0,0.106-0.031,0.163-0.032C236.279,191.879,232.835,188.561,232.659,184.333z"/>
		</g>
	</g>
</g>
<g>
</g>
<g>
</g>
<g>
</g>
<g>
</g>
<g>
</g>
<g>
</g>
<g>
</g>
<g>
</g>
<g>
</g>
<g>
</g>
<g>
</g>
<g>
</g>
<g>
</g>
<g>
</g>
<g>
</g>
</svg>
