<?xml version="1.0" encoding="iso-8859-1"?>
<!-- Generator: Adobe Illustrator 19.0.0, SVG Export Plug-In . SVG Version: 6.00 Build 0)  -->
<svg version="1.1" id="Layer_1" xmlns="http://www.w3.org/2000/svg" xmlns:xlink="http://www.w3.org/1999/xlink" x="0px" y="0px"
	 viewBox="0 0 464 464" style="enable-background:new 0 0 464 464;" xml:space="preserve">
<g>
	<g>
		<g>
			<polygon style="fill:#D24146;" points="136,208 104,240 104,167.995 136,167.995 			"/>
		</g>
	</g>
	<g>
		<g>
			<g>
				<path style="fill:#9D9396;" d="M304,352c-4.422,0-8-3.578-8-8c0-36.055,28.383-56,48-56c4.422,0,8,3.578,8,8s-3.578,8-8,8
					c-9.414,0-32,11.508-32,40C312,348.422,308.422,352,304,352z"/>
			</g>
		</g>
	</g>
	<g>
		<g>
			<g>
				<path style="fill:#9D9396;" d="M384,240c4.422,0,8,3.578,8,8c0,36.055-28.383,56-48,56c-4.422,0-8-3.578-8-8s3.578-8,8-8
					c9.414,0,32-11.508,32-40C376,243.578,379.578,240,384,240z"/>
			</g>
		</g>
	</g>
	<g>
		<g>
			<path style="fill:#AF373C;" d="M420,256h-40c-6.627,0-12-5.373-12-12l0,0c0-6.627,5.373-12,12-12h40c6.627,0,12,5.373,12,12l0,0
				C432,250.627,426.627,256,420,256z"/>
		</g>
	</g>
	<g>
		<g>
			<g>
				<path style="fill:#5F505A;" d="M72,416c-39.703,0-72-32.297-72-72s32.297-72,72-72s72,32.297,72,72S111.703,416,72,416z M72,304
					c-22.055,0-40,17.945-40,40s17.945,40,40,40s40-17.945,40-40S94.055,304,72,304z"/>
			</g>
		</g>
	</g>
	<g>
		<g>
			<g>
				<path style="fill:#5F505A;" d="M344,416c-66.172,0-120-53.828-120-120s53.828-120,120-120s120,53.828,120,120
					S410.172,416,344,416z M344,208c-48.523,0-88,39.477-88,88s39.477,88,88,88s88-39.477,88-88S392.523,208,344,208z"/>
			</g>
		</g>
	</g>
	<path style="fill:#E15050;" d="M328,48h-16v32h16v48.29C106.683,136.357,56,311.206,56,344h32c0-1.8,25.873-175.429,240-183.694
		V296h32V80C360,62.352,345.648,48,328,48z"/>
	<g>
		<g>
			<circle style="fill:#5F505A;" cx="344" cy="296" r="24"/>
		</g>
	</g>
	<g>
		<g>
			<circle style="fill:#5F505A;" cx="72" cy="344" r="24"/>
		</g>
	</g>
	<g>
		<g>
			<path style="fill:#AF373C;" d="M308,360h-40c-6.627,0-12-5.373-12-12l0,0c0-6.627,5.373-12,12-12h40c6.627,0,12,5.373,12,12l0,0
				C320,354.627,314.627,360,308,360z"/>
		</g>
	</g>
	<g>
		<g>
			<path style="fill:#9D9396;" d="M320,80h-32c-8.837,0-16-7.163-16-16l0,0c0-8.837,7.163-16,16-16h32c8.837,0,16,7.163,16,16l0,0
				C336,72.837,328.837,80,320,80z"/>
		</g>
	</g>
	<path style="fill:#9D9396;" d="M152,120h-48c0-8.837-7.163-16-16-16s-16,7.163-16,16v16c0,8.836,7.163,16,16,16h64
		c8.837,0,16-7.164,16-16C168,127.163,160.837,120,152,120z"/>
	<g>
		<g>
			<rect x="104" y="152" style="fill:#84787E;" width="32" height="24"/>
		</g>
	</g>
</g>
<g>
</g>
<g>
</g>
<g>
</g>
<g>
</g>
<g>
</g>
<g>
</g>
<g>
</g>
<g>
</g>
<g>
</g>
<g>
</g>
<g>
</g>
<g>
</g>
<g>
</g>
<g>
</g>
<g>
</g>
</svg>
