<?xml version="1.0" encoding="iso-8859-1"?>
<!-- Generator: Adobe Illustrator 19.0.0, SVG Export Plug-In . SVG Version: 6.00 Build 0)  -->
<svg version="1.1" id="Layer_1" xmlns="http://www.w3.org/2000/svg" xmlns:xlink="http://www.w3.org/1999/xlink" x="0px" y="0px"
	 viewBox="0 0 464 464" style="enable-background:new 0 0 464 464;" xml:space="preserve">
<g>
	<g>
		<g>
			<path style="fill:#E15050;" d="M392,464H72c-8.837,0-16-7.163-16-16V16c0-8.837,7.163-16,16-16h320c8.837,0,16,7.163,16,16v432
				C408,456.837,400.837,464,392,464z"/>
		</g>
	</g>
	<g>
		<g>
			<path style="fill:#D24146;" d="M96,440L96,440c-4.418,0-8-3.582-8-8V32c0-4.418,3.582-8,8-8l0,0c4.418,0,8,3.582,8,8v400
				C104,436.418,100.418,440,96,440z"/>
		</g>
	</g>
	<g>
		<g>
			<polygon style="fill:#FFC855;" points="168,168 143.997,152 120,168 120,0 168,0 			"/>
		</g>
	</g>
	<g>
		<g>
			<polygon style="fill:#FFB44B;" points="144,0 120,0 120,168 143.997,152 144,152.002 			"/>
		</g>
	</g>
	<g>
		<g>
			<path style="fill:#FFFFFF;" d="M307.141,195.547l-39.227-98.063C264.641,89.297,256.828,84,248,84s-16.641,5.297-19.914,13.484
				l-39.227,98.063c-2.461,6.148,0.531,13.133,6.688,15.594c6.156,2.469,13.141-0.523,15.594-6.688L217.723,188h60.555l6.582,16.453
				c1.874,4.695,6.382,7.547,11.14,7.547c1.484,0,2.992-0.273,4.453-0.859C306.609,208.68,309.602,201.695,307.141,195.547z
				 M227.323,164L248,112.313L268.677,164H227.323z"/>
		</g>
	</g>
	<g>
		<g>
			<path style="fill:#FFE6A1;" d="M222.764,282.42C226.015,277.012,228,270.757,228,264c0-19.852-16.148-36-36-36h-40
				c-6.625,0-12,5.375-12,12v48v64c0,6.625,5.375,12,12,12h48c24.258,0,44-19.742,44-44C244,304.079,235.467,290.146,222.764,282.42
				z M164,252h28c6.617,0,12,5.383,12,12s-5.383,12-12,12h-28V252z M200,340h-36v-40h28h8c11.031,0,20,8.969,20,20
				S211.031,340,200,340z"/>
		</g>
	</g>
	<g>
		<g>
			<g>
				<path style="fill:#FFC855;" d="M328.023,364c-4.555,0-9.156-0.445-13.758-1.352c-26.508-5.234-47.781-26.57-52.945-53.094
					c-3.961-20.328,1.203-41.023,14.172-56.773C288.477,237.031,307.609,228,328,228c12.102,0,23.992,3.227,34.383,9.32
					c5.93,3.484,9.625,10.039,9.625,17.109V264c0,6.625-5.375,12-12,12s-12-5.375-12-12v-7.195C341.844,253.656,334.977,252,328,252
					c-13.195,0-25.578,5.852-33.984,16.047c-8.516,10.336-11.758,23.453-9.133,36.922c3.313,17.055,16.992,30.766,34.031,34.133
					c12.164,2.422,24.328-0.078,34.227-6.984c5.43-3.797,12.914-2.461,16.711,2.977c3.789,5.438,2.453,12.922-2.977,16.711
					C355.352,359.836,341.914,364,328.023,364z"/>
			</g>
		</g>
	</g>
</g>
<g>
</g>
<g>
</g>
<g>
</g>
<g>
</g>
<g>
</g>
<g>
</g>
<g>
</g>
<g>
</g>
<g>
</g>
<g>
</g>
<g>
</g>
<g>
</g>
<g>
</g>
<g>
</g>
<g>
</g>
</svg>
