<?xml version="1.0" encoding="iso-8859-1"?>
<!-- Generator: Adobe Illustrator 19.0.0, SVG Export Plug-In . SVG Version: 6.00 Build 0)  -->
<svg version="1.1" id="Layer_1" xmlns="http://www.w3.org/2000/svg" xmlns:xlink="http://www.w3.org/1999/xlink" x="0px" y="0px"
	 viewBox="0 0 463.993 463.993" style="enable-background:new 0 0 463.993 463.993;" xml:space="preserve">
<g>
	<g>
		<g>
			<path style="fill:#DC7850;" d="M462.945,8.489c-2.117-5.125-7.078-8.438-12.625-8.438H56c-30.875,0-56,25.125-56,56V450.2
				c0,5.578,3.328,10.555,8.477,12.688c1.711,0.711,3.5,1.055,5.273,1.055c3.57,0,7.07-1.398,9.703-4.031l44.961-44.961
				c1.938-1.938,3.242-4.391,3.773-7.094l54.633-280.984L407.789,72.24c2.695-0.516,5.148-1.813,7.094-3.758l45.102-45.102
				C463.906,19.458,465.07,13.614,462.945,8.489z"/>
		</g>
	</g>
	<g>
		<g>
			<path style="fill:#C85A46;" d="M16.006,64.161c0-26.51,21.49-48,48-48h399.737c0.459-2.525,0.234-5.182-0.798-7.672
				c-2.117-5.125-7.078-8.438-12.625-8.438H56c-30.875,0-56,25.125-56,56V450.2c0,5.578,3.328,10.555,8.477,12.688
				c1.711,0.711,3.5,1.055,5.273,1.055c0.759,0,1.511-0.096,2.256-0.221V64.161z"/>
		</g>
	</g>
	<g>
		<g>
			<polygon style="fill:#FFC855;" points="0,306.184 87.423,329.498 91.859,306.68 0,282.184 			"/>
		</g>
	</g>
	<g>
		<g>
			<polygon style="fill:#E15050;" points="0,330.184 82.987,352.315 87.423,329.498 0,306.184 			"/>
		</g>
	</g>
	<g>
		<g>
			<polygon style="fill:#FFE6A1;" points="0,354.184 78.55,375.132 82.987,352.315 0,330.184 			"/>
		</g>
	</g>
	<g>
		<g>
			<polygon style="fill:#FFC855;" points="327.417,87.867 304,0.052 280,0.052 304.601,92.303 			"/>
		</g>
	</g>
	<g>
		<g>
			<polygon style="fill:#E15050;" points="350.234,83.43 328,0.052 304,0.052 327.417,87.867 			"/>
		</g>
	</g>
	<g>
		<g>
			<polygon style="fill:#FFE6A1;" points="373.051,78.993 352,0.052 328,0.052 350.234,83.43 			"/>
		</g>
	</g>
	<g>
		<g>
			<polygon style="fill:#FFB44B;" points="16.006,286.453 0,282.184 0,306.184 16.006,310.453 			"/>
		</g>
	</g>
	<g>
		<g>
			<polygon style="fill:#FFB44B;" points="308.296,16.161 304,0.052 280,0.052 284.296,16.161 			"/>
		</g>
	</g>
	<g>
		<g>
			<polygon style="fill:#D24146;" points="332.296,16.161 328,0.052 304,0.052 308.296,16.161 			"/>
		</g>
	</g>
	<g>
		<g>
			<polygon style="fill:#D24146;" points="16.006,310.453 0,306.184 0,330.184 16.006,334.453 			"/>
		</g>
	</g>
	<g>
		<g>
			<polygon style="fill:#FFD796;" points="16.006,334.453 0,330.184 0,354.184 16.006,358.453 			"/>
		</g>
	</g>
	<g>
		<g>
			<polygon style="fill:#FFD796;" points="356.296,16.161 352,0.052 328,0.052 332.296,16.161 			"/>
		</g>
	</g>
	<g>
		<g>
			<path style="fill:#EEA053;" d="M240,32.051h16c4.418,0,8,3.582,8,8l0,0c0,4.418-3.582,8-8,8h-16c-4.418,0-8-3.582-8-8l0,0
				C232,35.633,235.582,32.051,240,32.051z"/>
		</g>
	</g>
	<g>
		<g>
			<path style="fill:#E79052;" d="M136,32.052h72c4.418,0,8,3.582,8,8l0,0c0,4.418-3.582,8-8,8h-72c-4.418,0-8-3.582-8-8l0,0
				C128,35.633,131.582,32.052,136,32.052z"/>
		</g>
	</g>
</g>
<g>
</g>
<g>
</g>
<g>
</g>
<g>
</g>
<g>
</g>
<g>
</g>
<g>
</g>
<g>
</g>
<g>
</g>
<g>
</g>
<g>
</g>
<g>
</g>
<g>
</g>
<g>
</g>
<g>
</g>
</svg>
