<?xml version="1.0" encoding="iso-8859-1"?>
<!-- Generator: Adobe Illustrator 19.0.0, SVG Export Plug-In . SVG Version: 6.00 Build 0)  -->
<svg version="1.1" id="Layer_1" xmlns="http://www.w3.org/2000/svg" xmlns:xlink="http://www.w3.org/1999/xlink" x="0px" y="0px"
	 viewBox="0 0 464 464" style="enable-background:new 0 0 464 464;" xml:space="preserve">
<g>
	<path style="fill:#FFC3A0;" d="M255.389,188.468V183h-48v5.468c0,6.887-4.407,13.001-10.94,15.179l-8.617,2.873
		c3.151,21.208,21.431,37.48,43.516,37.48c22.094,0,40.38-16.286,43.519-37.507l-8.537-2.846
		C259.796,201.469,255.389,195.355,255.389,188.468z"/>
	<path style="fill:#8C5F56;" d="M263.389,0c-36.229,0-68.172,3.81-84.492,6.171c-7.256,1.05-13.694,5.108-17.761,11.209L151.389,32
		l-2.351,1.175c-8.18,4.09-12.891,12.893-11.757,21.967L143.389,104h176c9.333-15.667,16-96,16-96S315.888,0,263.389,0z"/>
	<g>
		<g>
			<path style="fill:#734B46;" d="M137.282,55.143L143.389,104h91.958c0,0,64-32,76.042-80c0,0-129.333-31.333-160,8l-2.351,1.176
				C140.858,37.266,136.147,46.068,137.282,55.143z"/>
		</g>
	</g>
	<g>
		<g>
			<rect x="175.389" y="386" style="fill:#FFD6B3;" width="40" height="46"/>
		</g>
	</g>
	<g>
		<g>
			<rect x="247.389" y="386" style="fill:#FFD6B3;" width="40" height="46"/>
		</g>
	</g>
	<g>
		<g>
			<rect x="135.389" y="448" style="fill:#FFE5D1;" width="88" height="16"/>
		</g>
	</g>
	<g>
		<g>
			<path style="fill:#FFC855;" d="M207.389,420.944V424h-24l-16-8l0,0c-17.673,0-32,14.326-32,32h88v-32l-4.422-2.211
				C213.647,411.129,207.389,414.997,207.389,420.944z"/>
		</g>
	</g>
	<g>
		<g>
			<path style="fill:#00BEA5;" d="M151.389,420.438c-9.525,5.543-16,15.748-16,27.563h32
				C167.389,436.186,160.914,425.981,151.389,420.438z"/>
		</g>
	</g>
	<g>
		<g>
			<path style="fill:#E15050;" d="M183.389,400v24l-16-8l0,0C167.389,407.163,174.552,400,183.389,400L183.389,400z"/>
		</g>
	</g>
	<g>
		<g>
			<rect x="239.389" y="448" style="fill:#FFE5D1;" width="88" height="16"/>
		</g>
	</g>
	<g>
		<g>
			<path style="fill:#FFC855;" d="M255.389,420.944V424h24l16-8l0,0c17.673,0,32,14.326,32,32h-88v-32l4.422-2.211
				C249.13,411.129,255.389,414.997,255.389,420.944z"/>
		</g>
	</g>
	<g>
		<g>
			<path style="fill:#00BEA5;" d="M311.389,420.438c9.525,5.543,16,15.748,16,27.563h-32
				C295.389,436.186,301.864,425.981,311.389,420.438z"/>
		</g>
	</g>
	<g>
		<g>
			<path style="fill:#E15050;" d="M279.389,400v24l16-8l0,0C295.389,407.163,288.225,400,279.389,400L279.389,400z"/>
		</g>
	</g>
	<g>
		<g>
			<path style="fill:#E15050;" d="M167.389,328v56c0,4.418,3.582,8,8,8h40c4.418,0,8-3.582,8-8v-16c0-4.418,3.582-8,8-8l0,0
				c4.418,0,8,3.582,8,8v16c0,4.418,3.582,8,8,8h40c4.418,0,8-3.582,8-8v-56H167.389z"/>
		</g>
	</g>
	<path style="fill:#FFD6B3;" d="M143.389,269v51c-4.418,0-8,3.582-8,8v8c0,13.255,10.745,24,24,24h8v-91H143.389z"/>
	<path style="fill:#FFD6B3;" d="M319.389,320v-51h-24v91h8c13.255,0,24-10.745,24-24v-8C327.389,323.582,323.807,320,319.389,320z"
		/>
	<g>
		<g>
			<path style="fill:#00BEA5;" d="M328.856,226.272c-0.893-6.248-5.375-11.389-11.444-13.122l-36.594-10.456
				c-4.467-1.275-9.354,1.285-10.338,5.826c-3.901,17.985-19.941,31.281-39.091,31.301c-19.15-0.02-35.19-13.315-39.091-31.301
				c-0.985-4.541-5.871-7.102-10.338-5.826l-36.594,10.456c-6.069,1.733-10.551,6.874-11.444,13.122l-5.228,36.598
				c-0.688,4.818,3.051,9.131,7.919,9.131h30.776v56h64h64v-56h30.776c4.869,0,8.608-4.313,7.919-9.131L328.856,226.272z"/>
		</g>
	</g>
	<g>
		<g>
			<path style="fill:#00AA9A;" d="M137.586,218.197c-1.914,2.255-3.229,5.023-3.665,8.074l-5.228,36.598
				c-0.688,4.819,3.051,9.131,7.919,9.131h30.776v-17.373c0-4.243-1.686-8.313-4.686-11.314L137.586,218.197z"/>
		</g>
	</g>
	<g>
		<g>
			<path style="fill:#00AA9A;" d="M334.084,262.869l-5.228-36.597c-0.436-3.051-1.75-5.819-3.665-8.074l-25.116,25.116
				c-3.001,3.001-4.686,7.07-4.686,11.314V272h30.776C331.033,272,334.772,267.688,334.084,262.869z"/>
		</g>
	</g>
	<g>
		<g>
			<rect x="167.389" y="328" style="fill:#D24146;" width="128" height="16"/>
		</g>
	</g>
	<g>
		<g>
			<path style="fill:#FFE5D1;" d="M311.389,96v-8c0-8.837-7.163-16-16-16h-128c-8.837,0-16,7.163-16,16v8c-8.836,0-16,7.163-16,16
				c0,8.836,7.164,16,16,16v7.513c0,14.891,8.77,28.385,22.377,34.433l42.315,18.806c4.818,2.142,10.031,3.248,15.304,3.248h0.008
				c5.272,0,10.485-1.106,15.303-3.248l42.315-18.806c13.608-6.048,22.377-19.542,22.377-34.433V128c8.836,0,16-7.164,16-16
				C327.389,103.163,320.225,96,311.389,96z"/>
		</g>
	</g>
	<g>
		<g>
			<g>
				<path style="fill:#FFD6B3;" d="M199.389,168c-9.75-5.5-16-17.597-16-32.487V88c0-8.837,7.164-16,16-16h-32
					c-8.836,0-16,7.163-16,16v8c-8.836,0-16,7.163-16,16c0,8.836,7.164,16,16,16v7.513c0,14.891,8.77,28.386,22.377,34.433
					l42.315,18.807c4.818,2.142,10.031,3.248,15.304,3.248h0.008c3.116,0,6.178-0.504,9.183-1.262L199.389,168z"/>
			</g>
		</g>
	</g>
	<g>
		<g>
			<path style="fill:#6E4141;" d="M191.389,128L191.389,128c-4.418,0-8-3.582-8-8v-8c0-4.418,3.582-8,8-8l0,0c4.418,0,8,3.582,8,8v8
				C199.389,124.418,195.807,128,191.389,128z"/>
		</g>
	</g>
	<g>
		<g>
			<path style="fill:#6E4141;" d="M271.389,128L271.389,128c-4.418,0-8-3.582-8-8v-8c0-4.418,3.582-8,8-8l0,0c4.418,0,8,3.582,8,8v8
				C279.389,124.418,275.807,128,271.389,128z"/>
		</g>
	</g>
	<g>
		<g>
			<path style="fill:#E6B996;" d="M231.693,168c-8.375,0-16.438-2.102-23.305-6.074c-3.82-2.215-5.133-7.109-2.914-10.934
				c2.203-3.824,7.086-5.125,10.93-2.918c8.875,5.141,21.703,5.141,30.578,0c3.844-2.207,8.711-0.906,10.93,2.918
				c2.219,3.824,0.906,8.719-2.914,10.934C248.131,165.898,240.068,168,231.693,168z"/>
		</g>
	</g>
</g>
<g>
</g>
<g>
</g>
<g>
</g>
<g>
</g>
<g>
</g>
<g>
</g>
<g>
</g>
<g>
</g>
<g>
</g>
<g>
</g>
<g>
</g>
<g>
</g>
<g>
</g>
<g>
</g>
<g>
</g>
</svg>
