<?xml version="1.0" encoding="iso-8859-1"?>
<!-- Generator: Adobe Illustrator 19.0.0, SVG Export Plug-In . SVG Version: 6.00 Build 0)  -->
<svg version="1.1" id="Layer_1" xmlns="http://www.w3.org/2000/svg" xmlns:xlink="http://www.w3.org/1999/xlink" x="0px" y="0px"
	 viewBox="0 0 464 464" style="enable-background:new 0 0 464 464;" xml:space="preserve">
<g>
	<g>
		<g>
			<ellipse style="fill:#FFC855;" cx="448" cy="324" rx="16" ry="24"/>
		</g>
	</g>
	<g>
		<g>
			
				<rect x="262.097" y="230.929" transform="matrix(-0.7071 0.7071 -0.7071 -0.7071 652.6183 271.4159)" style="fill:#503C46;" width="16" height="79.881"/>
		</g>
	</g>
	<g>
		<g>
			<path style="fill:#5F505A;" d="M270.142,225.657l-45.255,45.255c-3.124,3.124-8.189,3.124-11.314,0l0,0
				c-3.124-3.124-3.124-8.19,0-11.314l45.255-45.255c3.124-3.124,8.19-3.124,11.314,0l0,0
				C273.266,217.467,273.266,222.533,270.142,225.657z"/>
		</g>
	</g>
	<g>
		<g>
			<path style="fill:#00AA9A;" d="M308.434,70.369C305.833,59.592,296.189,52,285.104,52H56c-8.836,0-16,7.163-16,16v216h48V84
				c0-4.418,3.582-8,8-8h139.272c7.45,0,13.915,5.143,15.59,12.402L296,284h64L308.434,70.369z"/>
		</g>
	</g>
	<g>
		<g>
			<path style="fill:#00BEA5;" d="M432,380H16c-8.837,0-16-7.163-16-16v-64c0-8.837,7.163-16,16-16h416c8.837,0,16,7.163,16,16v64
				C448,372.837,440.837,380,432,380z"/>
		</g>
	</g>
	<g>
		<g>
			<path style="fill:#00AA9A;" d="M64,332c-26.51,0-48,21.49-48,48h96C112,353.49,90.51,332,64,332z"/>
		</g>
	</g>
	<g>
		<g>
			<path style="fill:#00AA9A;" d="M376,332c-26.51,0-48,21.49-48,48h96C424,353.49,402.51,332,376,332z"/>
		</g>
	</g>
	<g>
		<g>
			<circle style="fill:#5F505A;" cx="64" cy="380" r="32"/>
		</g>
	</g>
	<g>
		<g>
			<circle style="fill:#503C46;" cx="64" cy="380" r="16"/>
		</g>
	</g>
	<g>
		<g>
			<circle style="fill:#5F505A;" cx="376" cy="380" r="32"/>
		</g>
	</g>
	<g>
		<g>
			<circle style="fill:#503C46;" cx="376" cy="380" r="16"/>
		</g>
	</g>
	<g>
		<g>
			<path style="fill:#00DCEB;" d="M274.261,85.799L320,284h40L309.793,76h-27.737C276.912,76,273.104,80.786,274.261,85.799z"/>
		</g>
	</g>
	<g>
		<g>
			<path style="fill:#5F505A;" d="M100,156L100,156c-6.627,0-12,5.373-12,12v116h24V168C112,161.373,106.627,156,100,156z"/>
		</g>
	</g>
	<g>
		<g>
			<circle style="fill:#FFB44B;" cx="412" cy="312" r="12"/>
		</g>
	</g>
</g>
<g>
</g>
<g>
</g>
<g>
</g>
<g>
</g>
<g>
</g>
<g>
</g>
<g>
</g>
<g>
</g>
<g>
</g>
<g>
</g>
<g>
</g>
<g>
</g>
<g>
</g>
<g>
</g>
<g>
</g>
</svg>
