<?xml version="1.0" encoding="iso-8859-1"?>
<!-- Generator: Adobe Illustrator 19.0.0, SVG Export Plug-In . SVG Version: 6.00 Build 0)  -->
<svg version="1.1" id="Layer_1" xmlns="http://www.w3.org/2000/svg" xmlns:xlink="http://www.w3.org/1999/xlink" x="0px" y="0px"
	 viewBox="0 0 464.001 464.001" style="enable-background:new 0 0 464.001 464.001;" xml:space="preserve">
<g>
	<g>
		<g>
			<g>
				<path style="fill:#FFC855;" d="M312,89.143c0-8.787-5.085-16.385-12.472-20.014c-1.981-0.973-1.981-3.57,0-4.543
					C306.915,60.956,312,53.358,312,44.571c0-12.309-9.978-22.286-22.286-22.286C289.714,9.977,279.736,0,267.429,0
					c-8.786,0-16.385,5.084-20.014,12.472c-0.973,1.981-3.57,1.981-4.543,0C239.242,5.084,231.643,0,222.857,0
					c-8.786,0-16.385,5.084-20.014,12.472c-0.973,1.981-3.57,1.981-4.543,0C194.671,5.084,187.072,0,178.286,0
					c-8.786,0-16.385,5.084-20.014,12.472c-0.973,1.981-3.57,1.981-4.543,0C150.099,5.084,142.5,0,133.714,0
					S117.329,5.084,113.7,12.472c-0.973,1.981-3.57,1.981-4.543,0C105.528,5.084,97.929,0,89.143,0S72.758,5.084,69.129,12.472
					c-0.973,1.981-3.57,1.981-4.543,0C60.956,5.084,53.358,0,44.571,0C32.264,0,22.286,9.977,22.286,22.286
					C9.978,22.286,0,32.263,0,44.571c0,8.786,5.085,16.385,12.472,20.014c1.981,0.973,1.981,3.57,0,4.543
					C5.085,72.758,0,80.356,0,89.143c0,8.786,5.085,16.385,12.472,20.014c1.981,0.973,1.981,3.57,0,4.543
					C5.085,117.329,0,124.928,0,133.714s5.085,16.385,12.472,20.014c1.981,0.973,1.981,3.57,0,4.543
					C5.085,161.901,0,169.499,0,178.286c0,8.786,5.085,16.385,12.472,20.014c1.981,0.973,1.981,3.57,0,4.543
					C5.085,206.472,0,214.071,0,222.857s5.085,16.385,12.472,20.014c1.981,0.973,1.981,3.57,0,4.543
					C5.085,251.044,0,258.642,0,267.429c0,12.308,9.978,22.286,22.286,22.286c0,12.308,9.978,22.286,22.286,22.286
					c8.786,0,16.385-5.085,20.014-12.472c0.973-1.981,3.57-1.981,4.543,0C72.758,306.915,80.357,312,89.143,312
					s16.385-5.085,20.014-12.472c0.973-1.981,3.57-1.981,4.543,0c3.629,7.387,11.228,12.472,20.014,12.472
					s16.385-5.085,20.014-12.472c0.973-1.981,3.57-1.981,4.543,0C161.901,306.915,169.5,312,178.286,312s16.385-5.085,20.014-12.472
					c0.973-1.981,3.57-1.981,4.543,0c3.629,7.387,11.228,12.472,20.014,12.472c8.786,0,16.385-5.085,20.014-12.472
					c0.973-1.981,3.57-1.981,4.543,0c3.629,7.387,11.228,12.472,20.014,12.472c12.308,0,22.286-9.978,22.286-22.286
					c12.308,0,22.286-9.978,22.286-22.286c0-8.787-5.085-16.385-12.472-20.014c-1.981-0.973-1.981-3.57,0-4.543
					c7.387-3.629,12.472-11.228,12.472-20.014c0-8.787-5.085-16.385-12.472-20.014c-1.981-0.973-1.981-3.57,0-4.543
					c7.387-3.629,12.472-11.228,12.472-20.014c0-8.787-5.085-16.385-12.472-20.014c-1.981-0.973-1.981-3.57,0-4.543
					C306.915,150.099,312,142.5,312,133.714c0-8.787-5.085-16.385-12.472-20.014c-1.981-0.973-1.981-3.57,0-4.543
					C306.915,105.528,312,97.929,312,89.143z"/>
			</g>
		</g>
		<g>
			<g>
				<circle style="fill:#FFB44B;" cx="66.857" cy="245.143" r="11.143"/>
			</g>
		</g>
		<g>
			<g>
				<circle style="fill:#FFB44B;" cx="66.857" cy="200.571" r="11.143"/>
			</g>
		</g>
		<g>
			<g>
				<circle style="fill:#FFB44B;" cx="66.857" cy="156" r="11.143"/>
			</g>
		</g>
		<g>
			<g>
				<circle style="fill:#FFB44B;" cx="66.857" cy="111.429" r="11.143"/>
			</g>
		</g>
		<g>
			<g>
				<circle style="fill:#FFB44B;" cx="66.857" cy="66.857" r="11.143"/>
			</g>
		</g>
		<g>
			<g>
				<circle style="fill:#FFB44B;" cx="111.429" cy="245.143" r="11.143"/>
			</g>
		</g>
		<g>
			<g>
				<circle style="fill:#FFB44B;" cx="111.429" cy="200.571" r="11.143"/>
			</g>
		</g>
		<g>
			<g>
				<circle style="fill:#FFB44B;" cx="111.429" cy="156" r="11.143"/>
			</g>
		</g>
		<g>
			<g>
				<circle style="fill:#FFB44B;" cx="111.429" cy="111.429" r="11.143"/>
			</g>
		</g>
		<g>
			<g>
				<circle style="fill:#FFB44B;" cx="111.429" cy="66.857" r="11.143"/>
			</g>
		</g>
		<g>
			<g>
				<circle style="fill:#FFB44B;" cx="156" cy="156" r="11.143"/>
			</g>
		</g>
		<g>
			<g>
				<circle style="fill:#FFB44B;" cx="156" cy="111.429" r="11.143"/>
			</g>
		</g>
		<g>
			<g>
				<circle style="fill:#FFB44B;" cx="156" cy="66.857" r="11.143"/>
			</g>
		</g>
		<g>
			<g>
				<circle style="fill:#FFB44B;" cx="200.571" cy="111.429" r="11.143"/>
			</g>
		</g>
		<g>
			<g>
				<circle style="fill:#FFB44B;" cx="200.571" cy="66.857" r="11.143"/>
			</g>
		</g>
		<g>
			<g>
				<circle style="fill:#FFB44B;" cx="245.143" cy="111.429" r="11.143"/>
			</g>
		</g>
		<g>
			<g>
				<circle style="fill:#FFB44B;" cx="245.143" cy="66.857" r="11.143"/>
			</g>
		</g>
	</g>
	<g>
		<g>
			<g>
				<path style="fill:#FFC855;" d="M464,241.143c0-8.787-5.085-16.385-12.472-20.014c-1.981-0.973-1.981-3.57,0-4.543
					c7.387-3.629,12.472-11.228,12.472-20.014c0-12.309-9.978-22.286-22.286-22.286c0-12.309-9.978-22.286-22.286-22.286
					c-8.786,0-16.385,5.084-20.014,12.472c-0.973,1.981-3.57,1.981-4.543,0C391.242,157.084,383.643,152,374.857,152
					s-16.385,5.084-20.014,12.472c-0.973,1.981-3.57,1.981-4.543,0C346.671,157.084,339.072,152,330.286,152
					c-8.786,0-16.385,5.084-20.014,12.472c-0.973,1.981-3.57,1.981-4.543,0C302.099,157.084,294.5,152,285.714,152
					s-16.385,5.084-20.014,12.472c-0.973,1.981-3.57,1.981-4.543,0C257.529,157.084,249.929,152,241.143,152
					s-16.385,5.084-20.014,12.472c-0.973,1.981-3.57,1.981-4.543,0c-3.63-7.388-11.228-12.472-20.015-12.472
					c-12.308,0-22.286,9.977-22.286,22.286c-12.308,0-22.286,9.977-22.286,22.286c0,8.786,5.085,16.385,12.472,20.014
					c1.981,0.973,1.981,3.57,0,4.543C157.085,224.758,152,232.356,152,241.143c0,8.786,5.085,16.385,12.472,20.014
					c1.981,0.973,1.981,3.57,0,4.543C157.085,269.329,152,276.928,152,285.714c0,8.786,5.085,16.385,12.472,20.014
					c1.981,0.973,1.981,3.57,0,4.543c-7.387,3.63-12.472,11.228-12.472,20.015c0,8.786,5.085,16.385,12.472,20.014
					c1.981,0.973,1.981,3.57,0,4.543C157.085,358.472,152,366.071,152,374.857c0,8.786,5.085,16.385,12.472,20.014
					c1.981,0.973,1.981,3.57,0,4.543C157.085,403.043,152,410.642,152,419.429c0,12.308,9.978,22.286,22.286,22.286
					c0,12.308,9.978,22.286,22.286,22.286c8.786,0,16.385-5.085,20.014-12.472c0.973-1.981,3.57-1.981,4.543,0
					c3.629,7.387,11.228,12.472,20.014,12.472c8.786,0,16.385-5.085,20.014-12.472c0.973-1.981,3.57-1.981,4.543,0
					c3.629,7.387,11.228,12.472,20.014,12.472s16.385-5.085,20.014-12.472c0.973-1.981,3.57-1.981,4.543,0
					C313.901,458.915,321.5,464,330.286,464s16.385-5.085,20.014-12.472c0.973-1.981,3.57-1.981,4.543,0
					c3.629,7.387,11.228,12.472,20.014,12.472s16.385-5.085,20.014-12.472c0.973-1.981,3.57-1.981,4.543,0
					c3.629,7.387,11.228,12.472,20.014,12.472c12.308,0,22.286-9.978,22.286-22.286c12.308,0,22.286-9.978,22.286-22.286
					c0-8.787-5.085-16.385-12.472-20.014c-1.981-0.973-1.981-3.57,0-4.543c7.387-3.629,12.472-11.228,12.472-20.014
					c0-8.787-5.085-16.385-12.472-20.014c-1.981-0.973-1.981-3.57,0-4.543c7.387-3.629,12.472-11.228,12.472-20.014
					c0-8.787-5.085-16.385-12.472-20.014c-1.981-0.973-1.981-3.57,0-4.543C458.915,302.099,464,294.5,464,285.714
					c0-8.787-5.085-16.385-12.472-20.014c-1.981-0.973-1.981-3.57,0-4.543C458.915,257.528,464,249.929,464,241.143z"/>
			</g>
		</g>
		<g>
			<g>
				<circle style="fill:#FFB44B;" cx="218.857" cy="397.143" r="11.143"/>
			</g>
		</g>
		<g>
			<g>
				<circle style="fill:#FFB44B;" cx="218.857" cy="352.571" r="11.143"/>
			</g>
		</g>
		<g>
			<g>
				<circle style="fill:#FFB44B;" cx="218.857" cy="308" r="11.143"/>
			</g>
		</g>
		<g>
			<g>
				<circle style="fill:#FFB44B;" cx="218.857" cy="263.429" r="11.143"/>
			</g>
		</g>
		<g>
			<g>
				<circle style="fill:#FFB44B;" cx="218.857" cy="218.857" r="11.143"/>
			</g>
		</g>
		<g>
			<g>
				<circle style="fill:#FFB44B;" cx="263.429" cy="397.143" r="11.143"/>
			</g>
		</g>
		<g>
			<g>
				<circle style="fill:#FFB44B;" cx="263.429" cy="352.571" r="11.143"/>
			</g>
		</g>
		<g>
			<g>
				<circle style="fill:#FFB44B;" cx="263.429" cy="308" r="11.143"/>
			</g>
		</g>
		<g>
			<g>
				<circle style="fill:#FFB44B;" cx="263.429" cy="263.429" r="11.143"/>
			</g>
		</g>
		<g>
			<g>
				<circle style="fill:#FFB44B;" cx="263.429" cy="218.857" r="11.143"/>
			</g>
		</g>
		<g>
			<g>
				<circle style="fill:#FFB44B;" cx="308" cy="397.143" r="11.143"/>
			</g>
		</g>
		<g>
			<g>
				<circle style="fill:#FFB44B;" cx="308" cy="352.571" r="11.143"/>
			</g>
		</g>
		<g>
			<g>
				<circle style="fill:#FFB44B;" cx="308" cy="308" r="11.143"/>
			</g>
		</g>
		<g>
			<g>
				<circle style="fill:#FFB44B;" cx="308" cy="263.429" r="11.143"/>
			</g>
		</g>
		<g>
			<g>
				<circle style="fill:#FFB44B;" cx="308" cy="218.857" r="11.143"/>
			</g>
		</g>
		<g>
			<g>
				<circle style="fill:#FFB44B;" cx="352.571" cy="397.143" r="11.143"/>
			</g>
		</g>
		<g>
			<g>
				<circle style="fill:#FFB44B;" cx="352.571" cy="352.571" r="11.143"/>
			</g>
		</g>
		<g>
			<g>
				<circle style="fill:#FFB44B;" cx="352.571" cy="308" r="11.143"/>
			</g>
		</g>
		<g>
			<g>
				<circle style="fill:#FFB44B;" cx="352.571" cy="263.429" r="11.143"/>
			</g>
		</g>
		<g>
			<g>
				<circle style="fill:#FFB44B;" cx="352.571" cy="218.857" r="11.143"/>
			</g>
		</g>
		<g>
			<g>
				<circle style="fill:#FFB44B;" cx="397.143" cy="397.143" r="11.143"/>
			</g>
		</g>
		<g>
			<g>
				<circle style="fill:#FFB44B;" cx="397.143" cy="352.571" r="11.143"/>
			</g>
		</g>
		<g>
			<g>
				<circle style="fill:#FFB44B;" cx="397.143" cy="308" r="11.143"/>
			</g>
		</g>
		<g>
			<g>
				<circle style="fill:#FFB44B;" cx="397.143" cy="263.429" r="11.143"/>
			</g>
		</g>
		<g>
			<g>
				<circle style="fill:#FFB44B;" cx="397.143" cy="218.857" r="11.143"/>
			</g>
		</g>
	</g>
	<g>
		<g>
			<g>
				<path style="fill:#FFB44B;" d="M153.729,299.528c0.448-0.912,1.247-1.354,2.065-1.427c-2.38-3.546-3.794-7.795-3.794-12.387
					c0-8.787,5.084-16.385,12.472-20.014c1.981-0.974,1.981-3.57,0-4.543C157.084,257.528,152,249.929,152,241.143
					c0-8.787,5.084-16.385,12.472-20.015c1.981-0.973,1.981-3.57,0-4.543C157.084,212.956,152,205.357,152,196.571
					c0-12.309,9.978-22.286,22.286-22.286c0-12.309,9.978-22.286,22.286-22.286c8.786,0,16.385,5.084,20.014,12.472
					c0.487,0.991,1.379,1.486,2.272,1.486c0.892,0,1.785-0.495,2.271-1.486c3.629-7.387,11.228-12.472,20.014-12.472
					s16.385,5.084,20.014,12.472c0.487,0.991,1.379,1.486,2.272,1.486c0.892,0,1.785-0.495,2.271-1.486
					c3.63-7.387,11.228-12.471,20.014-12.471c4.592,0,8.841,1.414,12.387,3.794c0.073-0.819,0.515-1.618,1.427-2.066
					c5.051-2.481,8.976-6.843,10.985-12.146c-0.838,0.507-1.716,0.949-2.513,1.52c-6.355-4.549-14.081-7.101-22.286-7.101
					s-15.931,2.552-22.286,7.101c-6.354-4.549-14.08-7.101-22.286-7.101s-15.931,2.552-22.286,7.101
					c-6.354-4.548-14.081-7.101-22.286-7.101c-16.35,0-30.338,10.301-35.817,24.754C146.301,166.233,136,180.222,136,196.571
					c0,8.205,2.552,15.931,7.101,22.286c-4.549,6.355-7.101,14.081-7.101,22.286c0,8.206,2.552,15.931,7.101,22.285
					c-4.549,6.355-7.101,14.081-7.101,22.286c0,8.205,2.552,15.931,7.101,22.286c-0.57,0.797-1.013,1.675-1.52,2.513
					C146.886,308.504,151.247,304.579,153.729,299.528z"/>
			</g>
		</g>
		<g>
			<g>
				<path style="fill:#FFB44B;" d="M303.309,160.69c0.916,1.183,1.754,2.427,2.42,3.781c0.486,0.991,1.379,1.486,2.271,1.486
					c0.071,0,0.134-0.053,0.206-0.06C306.866,163.903,305.205,162.158,303.309,160.69z"/>
			</g>
		</g>
		<g>
			<g>
				<path style="fill:#FFB44B;" d="M164.472,305.729c-1.354-0.666-2.598-1.504-3.78-2.419c1.467,1.896,3.213,3.557,5.208,4.896
					C165.984,307.245,165.542,306.254,164.472,305.729z"/>
			</g>
		</g>
	</g>
</g>
<g>
</g>
<g>
</g>
<g>
</g>
<g>
</g>
<g>
</g>
<g>
</g>
<g>
</g>
<g>
</g>
<g>
</g>
<g>
</g>
<g>
</g>
<g>
</g>
<g>
</g>
<g>
</g>
<g>
</g>
</svg>
