<?xml version="1.0" encoding="iso-8859-1"?>
<!-- Generator: Adobe Illustrator 19.0.0, SVG Export Plug-In . SVG Version: 6.00 Build 0)  -->
<svg version="1.1" id="Layer_1" xmlns="http://www.w3.org/2000/svg" xmlns:xlink="http://www.w3.org/1999/xlink" x="0px" y="0px"
	 viewBox="0 0 464 464" style="enable-background:new 0 0 464 464;" xml:space="preserve">
<g>
	<g>
		<g>
			<rect x="31.958" y="280" style="fill:#00BEA5;" width="400.083" height="32"/>
		</g>
	</g>
	<g>
		<g>
			<rect x="31.958" y="296" style="fill:#00AA9A;" width="400.083" height="16"/>
		</g>
	</g>
	<g>
		<g>
			<rect x="56" y="137" style="fill:#C85A46;" width="16" height="182"/>
		</g>
	</g>
	<g>
		<g>
			<rect x="104" y="137" style="fill:#C85A46;" width="16" height="182"/>
		</g>
	</g>
	<g>
		<g>
			<rect x="200" y="137" style="fill:#C85A46;" width="16" height="182"/>
		</g>
	</g>
	<g>
		<g>
			<rect x="248" y="137" style="fill:#C85A46;" width="16" height="182"/>
		</g>
	</g>
	<g>
		<g>
			<rect x="152" y="137" style="fill:#C85A46;" width="16" height="182"/>
		</g>
	</g>
	<g>
		<g>
			<rect x="296" y="137" style="fill:#C85A46;" width="16" height="182"/>
		</g>
	</g>
	<g>
		<g>
			<rect x="392" y="137" style="fill:#C85A46;" width="16" height="182"/>
		</g>
	</g>
	<g>
		<g>
			<rect x="344" y="137" style="fill:#C85A46;" width="16" height="182"/>
		</g>
	</g>
	<g>
		<g>
			<rect x="33" y="312" style="fill:#DC7850;" width="398" height="48"/>
		</g>
	</g>
	<g>
		<g>
			<rect x="33" y="128" style="fill:#DC7850;" width="398" height="16"/>
		</g>
	</g>
	<g>
		<g>
			<rect x="8" y="80" style="fill:#DC7850;" width="16" height="336"/>
		</g>
	</g>
	<g>
		<g>
			<rect x="24" y="80" style="fill:#E68C5A;" width="16" height="336"/>
		</g>
	</g>
	<g>
		<g>
			<path style="fill:#C85A46;" d="M40,424H8c-4.418,0-8-3.582-8-8l0,0c0-4.418,3.582-8,8-8h32c4.418,0,8,3.582,8,8l0,0
				C48,420.418,44.418,424,40,424z"/>
		</g>
	</g>
	<g>
		<g>
			<path style="fill:#C85A46;" d="M8,100.623C12.906,102.77,18.302,104,24,104s11.094-1.23,16-3.377V72H8V100.623z"/>
		</g>
	</g>
	<g>
		<g>
			<circle style="fill:#00BEA5;" cx="24" cy="64" r="24"/>
		</g>
	</g>
	<g>
		<g>
			<path style="fill:#00AA9A;" d="M16,64c0-10.435,6.7-19.224,16-22.53C29.486,40.576,26.82,40,24,40C10.745,40,0,50.745,0,64
				s10.745,24,24,24c2.82,0,5.486-0.576,8-1.47C22.7,83.224,16,74.435,16,64z"/>
		</g>
	</g>
	<g>
		<g>
			<rect x="424" y="80" style="fill:#DC7850;" width="16" height="336"/>
		</g>
	</g>
	<g>
		<g>
			<rect x="440" y="80" style="fill:#E68C5A;" width="16" height="336"/>
		</g>
	</g>
	<g>
		<g>
			<path style="fill:#C85A46;" d="M456,424h-32c-4.418,0-8-3.582-8-8l0,0c0-4.418,3.582-8,8-8h32c4.418,0,8,3.582,8,8l0,0
				C464,420.418,460.418,424,456,424z"/>
		</g>
	</g>
	<g>
		<g>
			<path style="fill:#C85A46;" d="M424,100.623c4.906,2.147,10.302,3.377,16,3.377s11.094-1.23,16-3.377V72h-32V100.623z"/>
		</g>
	</g>
	<g>
		<g>
			<circle style="fill:#00BEA5;" cx="440" cy="64" r="24"/>
		</g>
	</g>
	<g>
		<g>
			<path style="fill:#00AA9A;" d="M432,64c0-10.435,6.7-19.224,16-22.53c-2.514-0.894-5.18-1.47-8-1.47c-13.255,0-24,10.745-24,24
				s10.745,24,24,24c2.82,0,5.486-0.576,8-1.47C438.7,83.224,432,74.435,432,64z"/>
		</g>
	</g>
</g>
<g>
</g>
<g>
</g>
<g>
</g>
<g>
</g>
<g>
</g>
<g>
</g>
<g>
</g>
<g>
</g>
<g>
</g>
<g>
</g>
<g>
</g>
<g>
</g>
<g>
</g>
<g>
</g>
<g>
</g>
</svg>
