<?xml version="1.0" encoding="iso-8859-1"?>
<!-- Generator: Adobe Illustrator 19.0.0, SVG Export Plug-In . SVG Version: 6.00 Build 0)  -->
<svg version="1.1" id="Layer_1" xmlns="http://www.w3.org/2000/svg" xmlns:xlink="http://www.w3.org/1999/xlink" x="0px" y="0px"
	 viewBox="0 0 463.999 463.999" style="enable-background:new 0 0 463.999 463.999;" xml:space="preserve">
<g>
	<g>
		<g>
			<path style="fill:#00BEA5;" d="M116.05,98.674c-0.022,0.013-0.044,0.025-0.066,0.038c-18.745,56.298-81.263,81.533-81.716,81.715
				c-0.013,0.021-0.024,0.042-0.037,0.064C43.48,245.983,4.296,292.148,4.296,292.148h223.407V68.741
				C209.988,84.846,162.755,102.559,116.05,98.674z"/>
		</g>
	</g>
	<g>
		<g>
			<path style="fill:#00AA9A;" d="M227.704,292.148V68.741c-10.374,9.431-30.9,19.379-55.483,25.253L227.704,292.148z"/>
		</g>
	</g>
	<g>
		<g>
			<path style="fill:#00AA9A;" d="M115.971,98.745c-6.789,20.364-19.315,36.608-32.546,49.125l144.278,144.278L116.05,98.674
				L115.971,98.745z"/>
		</g>
	</g>
	<g>
		<g>
			<path style="fill:#00AA9A;" d="M30.379,239.021l197.324,53.126L34.232,180.49C37.349,202.566,34.912,222.365,30.379,239.021z"/>
		</g>
	</g>
	<g>
		<g>
			<path style="fill:#00BEA5;" d="M455.407,296.444H8.593l20.896,83.585c2.869,11.475,13.18,19.526,25.008,19.526h355.006
				c11.829,0,22.139-8.05,25.008-19.526L455.407,296.444z"/>
		</g>
	</g>
	<g>
		<g>
			<polygon style="fill:#00AA9A;" points="444.667,339.407 455.407,296.444 8.593,296.444 19.333,339.407 			"/>
		</g>
	</g>
	<path style="fill:#009D93;" d="M459.704,287.852H232V68.741c0-2.375-1.922-4.296-4.296-4.296c-2.375,0-4.296,1.922-4.296,4.296
		V276.12L119.717,96.524c-1.183-2.064-3.818-2.752-5.865-1.573c-2.056,1.187-2.761,3.814-1.569,5.87L215.97,280.411L36.376,176.723
		c-2.047-1.171-4.682-0.483-5.865,1.573c-1.192,2.056-0.487,4.682,1.569,5.87l179.589,103.686H4.296
		c-2.373,0-4.296,1.924-4.296,4.296c0,2.373,1.924,4.296,4.296,4.296h455.407c2.373,0,4.296-1.923,4.296-4.296
		C464,289.775,462.076,287.852,459.704,287.852z"/>
	<g>
		<g>
			<path style="fill:#5F505A;" d="M227.703,302.148c-2.563,0-5.117-0.977-7.07-2.93c-3.906-3.906-3.906-10.234,0-14.141
				L378.86,126.858c3.906-3.906,10.234-3.906,14.141,0s3.906,10.234,0,14.141L234.773,299.217
				C232.82,301.171,230.266,302.148,227.703,302.148z"/>
		</g>
	</g>
	<g>
		<g>
			<circle style="fill:#737369;" cx="227.704" cy="292.148" r="15.852"/>
		</g>
	</g>
</g>
<g>
</g>
<g>
</g>
<g>
</g>
<g>
</g>
<g>
</g>
<g>
</g>
<g>
</g>
<g>
</g>
<g>
</g>
<g>
</g>
<g>
</g>
<g>
</g>
<g>
</g>
<g>
</g>
<g>
</g>
</svg>
