<?xml version="1.0" encoding="iso-8859-1"?>
<!-- Generator: Adobe Illustrator 19.0.0, SVG Export Plug-In . SVG Version: 6.00 Build 0)  -->
<svg version="1.1" id="Layer_1" xmlns="http://www.w3.org/2000/svg" xmlns:xlink="http://www.w3.org/1999/xlink" x="0px" y="0px"
	 viewBox="0 0 463.989 463.989" style="enable-background:new 0 0 463.989 463.989;" xml:space="preserve">
<g>
	<g>
		<g>
			<rect x="80.984" y="271.994" style="fill:#FF6472;" width="302" height="32"/>
		</g>
	</g>
	<g>
		<g>
			<rect x="80.984" y="287.994" style="fill:#D25566;" width="302" height="16"/>
		</g>
	</g>
	<g>
		<g>
			<rect x="103.984" y="127.994" style="fill:#C85A46;" width="16" height="184"/>
		</g>
	</g>
	<g>
		<g>
			<rect x="199.984" y="127.994" style="fill:#C85A46;" width="16" height="184"/>
		</g>
	</g>
	<g>
		<g>
			<rect x="247.984" y="127.994" style="fill:#C85A46;" width="16" height="184"/>
		</g>
	</g>
	<g>
		<g>
			<rect x="151.984" y="127.994" style="fill:#C85A46;" width="16" height="184"/>
		</g>
	</g>
	<g>
		<g>
			<rect x="295.984" y="127.994" style="fill:#C85A46;" width="16" height="184"/>
		</g>
	</g>
	<g>
		<g>
			<rect x="343.984" y="127.994" style="fill:#C85A46;" width="16" height="184"/>
		</g>
	</g>
	<g>
		<g>
			<rect x="80.984" y="303.994" style="fill:#DC7850;" width="302" height="48"/>
		</g>
	</g>
	<g>
		<g>
			<path style="fill:#DC7850;" d="M79.984,386.554v16.296c46.028,8.584,97.917,13.145,152,13.145c54.09,0,105.979-4.563,152-13.145
				v-16.294c-45.74,8.759-97.674,13.438-152,13.438C177.665,399.994,125.731,395.313,79.984,386.554z"/>
		</g>
	</g>
	<g>
		<g>
			<rect x="55.984" y="71.994" style="fill:#DC7850;" width="16" height="336"/>
		</g>
	</g>
	<g>
		<g>
			<rect x="71.984" y="71.994" style="fill:#E68C5A;" width="16" height="336"/>
		</g>
	</g>
	<g>
		<g>
			<path style="fill:#C85A46;" d="M55.984,92.617c4.906,2.147,10.302,3.377,16,3.377s11.094-1.23,16-3.377V63.994h-32V92.617z"/>
		</g>
	</g>
	<g>
		<g>
			<circle style="fill:#FF6472;" cx="71.984" cy="55.994" r="24"/>
		</g>
	</g>
	<g>
		<g>
			<path style="fill:#D25566;" d="M63.984,55.994c0-10.435,6.7-19.224,16-22.53c-2.514-0.894-5.18-1.47-8-1.47
				c-13.255,0-24,10.745-24,24s10.745,24,24,24c2.82,0,5.486-0.576,8-1.47C70.684,75.218,63.984,66.429,63.984,55.994z"/>
		</g>
	</g>
	<g>
		<g>
			<rect x="375.984" y="71.994" style="fill:#DC7850;" width="16" height="336"/>
		</g>
	</g>
	<g>
		<g>
			<rect x="391.984" y="71.994" style="fill:#E68C5A;" width="16" height="336"/>
		</g>
	</g>
	<g>
		<g>
			<path style="fill:#C85A46;" d="M375.984,92.617c4.906,2.147,10.302,3.377,16,3.377s11.094-1.23,16-3.377V63.994h-32V92.617z"/>
		</g>
	</g>
	<g>
		<g>
			<circle style="fill:#FF6472;" cx="391.984" cy="55.994" r="24"/>
		</g>
	</g>
	<g>
		<g>
			<path style="fill:#D25566;" d="M383.984,55.994c0-10.435,6.7-19.224,16-22.53c-2.514-0.894-5.18-1.47-8-1.47
				c-13.255,0-24,10.745-24,24s10.745,24,24,24c2.82,0,5.486-0.576,8-1.47C390.684,75.218,383.984,66.429,383.984,55.994z"/>
		</g>
	</g>
	<g>
		<g>
			<rect x="80.001" y="119.994" style="fill:#DC7850;" width="303.967" height="16"/>
		</g>
	</g>
	<g>
		<g>
			<path style="fill:#C85A46;" d="M231.986,431.994c-86.008,0-166.485-11.516-226.609-32.438c-4.18-1.453-6.383-6.008-4.93-10.18
				s6.031-6.375,10.18-4.93c58.484,20.344,137.094,31.547,221.359,31.547c84.281,0,162.898-11.203,221.367-31.555
				c4.188-1.461,8.734,0.758,10.188,4.922c1.453,4.18-0.75,8.734-4.922,10.188C398.502,420.471,318.018,431.994,231.986,431.994z"/>
		</g>
	</g>
</g>
<g>
</g>
<g>
</g>
<g>
</g>
<g>
</g>
<g>
</g>
<g>
</g>
<g>
</g>
<g>
</g>
<g>
</g>
<g>
</g>
<g>
</g>
<g>
</g>
<g>
</g>
<g>
</g>
<g>
</g>
</svg>
