<?xml version="1.0" encoding="iso-8859-1"?>
<!-- Generator: Adobe Illustrator 19.0.0, SVG Export Plug-In . SVG Version: 6.00 Build 0)  -->
<svg version="1.1" id="Layer_1" xmlns="http://www.w3.org/2000/svg" xmlns:xlink="http://www.w3.org/1999/xlink" x="0px" y="0px"
	 viewBox="0 0 464.019 464.019" style="enable-background:new 0 0 464.019 464.019;" xml:space="preserve">
<g>
	<rect x="340" y="143.009" style="fill:#C95264;" width="8" height="146"/>
	<rect x="116" y="140.009" style="fill:#C95264;" width="8" height="179"/>
	<rect x="28" y="175.009" style="fill:#C95264;" width="8" height="99"/>
	<rect x="428" y="175.009" style="fill:#C95264;" width="8" height="116"/>
	<path style="fill:#C95264;" d="M252.016,30.009c0-11.031-8.969-20-20-20s-20,8.969-20,20c0,8.186,4.944,15.227,12,18.32v77.68H228
		v228h8v-228h4.016v-77.68C247.071,45.236,252.016,38.195,252.016,30.009z M232.016,42.009c-6.617,0-12-5.383-12-12s5.383-12,12-12
		s12,5.383,12,12S238.633,42.009,232.016,42.009z"/>
	<g>
		<g>
			<g>
				<circle style="fill:#FFC855;" cx="232.017" cy="278.009" r="24"/>
			</g>
		</g>
		<g>
			<g>
				<path style="fill:#FFAA4B;" d="M224.017,278.009c0-10.435,6.7-19.224,16-22.53c-2.514-0.894-5.18-1.47-8-1.47
					c-13.255,0-24,10.745-24,24s10.745,24,24,24c2.82,0,5.486-0.576,8-1.47C230.716,297.233,224.017,288.443,224.017,278.009z"/>
			</g>
		</g>
	</g>
	<g>
		<g>
			<g>
				<circle style="fill:#FFC855;" cx="344.017" cy="214.009" r="16"/>
			</g>
		</g>
		<g>
			<g>
				<path style="fill:#FFAA4B;" d="M338.683,214.009c0-6.956,4.466-12.816,10.667-15.02c-1.676-0.596-3.453-0.98-5.333-0.98
					c-8.837,0-16,7.163-16,16s7.163,16,16,16c1.88,0,3.658-0.384,5.333-0.98C343.15,226.825,338.683,220.965,338.683,214.009z"/>
			</g>
		</g>
	</g>
	<g>
		<g>
			<g>
				<circle style="fill:#FFC855;" cx="120.017" cy="246.009" r="16"/>
			</g>
		</g>
		<g>
			<g>
				<path style="fill:#FFAA4B;" d="M114.683,246.009c0-6.956,4.466-12.816,10.667-15.02c-1.676-0.596-3.453-0.98-5.333-0.98
					c-8.837,0-16,7.163-16,16s7.163,16,16,16c1.88,0,3.658-0.384,5.333-0.98C119.15,258.825,114.683,252.965,114.683,246.009z"/>
			</g>
		</g>
	</g>
	<g>
		<g>
			<g>
				<circle style="fill:#FFC855;" cx="32.017" cy="286.009" r="16"/>
			</g>
		</g>
		<g>
			<g>
				<path style="fill:#FFAA4B;" d="M26.683,286.009c0-6.956,4.466-12.816,10.667-15.02c-1.676-0.596-3.453-0.98-5.333-0.98
					c-8.837,0-16,7.163-16,16s7.163,16,16,16c1.88,0,3.658-0.384,5.333-0.98C31.15,298.825,26.683,292.965,26.683,286.009z"/>
			</g>
		</g>
	</g>
	<g>
		<g>
			<g>
				<circle style="fill:#FFC855;" cx="432.017" cy="302.009" r="16"/>
			</g>
		</g>
		<g>
			<g>
				<path style="fill:#FFAA4B;" d="M426.683,302.009c0-6.956,4.466-12.816,10.667-15.02c-1.676-0.596-3.453-0.98-5.333-0.98
					c-8.837,0-16,7.163-16,16s7.163,16,16,16c1.88,0,3.658-0.384,5.333-0.98C431.15,314.825,426.683,308.965,426.683,302.009z"/>
			</g>
		</g>
	</g>
	<g>
		<g>
			<path style="fill:#FFC855;" d="M275.932,430.009c-24.3,0-44-19.7-44-44c0-19.688,12.935-36.349,30.767-41.967
				c-4.711-1.287-9.647-2.033-14.767-2.033c-30.928,0-56,25.072-56,56s25.072,56,56,56c21.355,0,39.909-11.96,49.354-29.542
				C290.96,427.987,283.685,430.009,275.932,430.009z"/>
		</g>
	</g>
	<g>
		<g>
			<path style="fill:#FFAA4B;" d="M264.017,446.009c-30.928,0-56-25.072-56-56c0-18.794,9.29-35.385,23.495-45.542
				c-22.914,7.019-39.58,28.329-39.58,53.542c0,30.928,25.072,56,56,56c12.106,0,23.238-3.942,32.395-10.475
				C275.159,445.109,269.699,446.009,264.017,446.009z"/>
		</g>
	</g>
	<g>
		<g>
			<path style="fill:#FFC855;" d="M120.087,382.143l-14.846,7.805c-6.648,3.495-14.418-2.15-13.148-9.553l2.835-16.532
				l-12.011-11.708c-5.378-5.243-2.41-14.376,5.022-15.457l16.599-2.412l7.423-15.041c3.324-6.735,12.928-6.735,16.252,0
				l7.423,15.041l16.599,2.412c7.433,1.08,10.4,10.214,5.022,15.457l-12.011,11.708l2.835,16.532
				c1.27,7.403-6.5,13.048-13.148,9.553L120.087,382.143z"/>
		</g>
	</g>
	<g>
		<g>
			<g>
				<path style="fill:#FFAA4B;" d="M102.689,383.709l2.835-16.532L93.513,355.47c-5.378-5.243-2.411-14.376,5.022-15.457
					l16.599-2.412l7.423-15.041c1.097-2.222,2.902-3.638,4.915-4.394c-3.797-5.551-12.391-5.244-15.511,1.08l-7.423,15.041
					l-16.599,2.412c-7.433,1.08-10.4,10.214-5.022,15.457l12.011,11.708l-2.835,16.532c-1.203,7.016,5.708,12.354,12.093,9.927
					C102.925,388.502,102.257,386.227,102.689,383.709z"/>
			</g>
		</g>
	</g>
	<g>
		<g>
			<path style="fill:#FFC855;" d="M344.1,353.957l-14.846,7.805c-6.648,3.495-14.418-2.15-13.148-9.553l2.835-16.532L306.93,323.97
				c-5.378-5.243-2.41-14.376,5.022-15.457l16.599-2.412l7.423-15.041c3.324-6.735,12.928-6.735,16.252,0l7.423,15.041l16.599,2.412
				c7.433,1.08,10.4,10.214,5.022,15.457l-12.011,11.708l2.835,16.532c1.27,7.403-6.5,13.048-13.148,9.553L344.1,353.957z"/>
		</g>
	</g>
	<g>
		<g>
			<g>
				<path style="fill:#FFAA4B;" d="M326.702,355.523l2.835-16.532l-12.011-11.708c-5.378-5.243-2.411-14.376,5.022-15.457
					l16.599-2.412l7.423-15.041c1.097-2.222,2.902-3.638,4.915-4.394c-3.797-5.551-12.391-5.244-15.511,1.08l-7.423,15.041
					l-16.599,2.412c-7.433,1.08-10.4,10.214-5.022,15.457l12.011,11.708l-2.835,16.532c-1.203,7.016,5.708,12.354,12.093,9.927
					C326.939,360.316,326.271,358.041,326.702,355.523z"/>
			</g>
		</g>
	</g>
	<g>
		<g>
			<g>
				<path style="fill:#FF6472;" d="M456.009,198.177c-1.57,0-3.148-0.457-4.539-1.414c-58.625-40.469-136.57-62.754-219.469-62.754
					c-82.891,0-160.828,22.281-219.453,62.746c-3.648,2.508-8.625,1.582-11.133-2.043c-2.508-3.637-1.594-8.617,2.039-11.129
					c61.281-42.285,142.445-65.574,228.547-65.574c86.109,0,167.281,23.293,228.563,65.582c3.633,2.512,4.547,7.492,2.039,11.129
					C461.048,196.97,458.548,198.177,456.009,198.177z"/>
			</g>
		</g>
	</g>
</g>
<g>
</g>
<g>
</g>
<g>
</g>
<g>
</g>
<g>
</g>
<g>
</g>
<g>
</g>
<g>
</g>
<g>
</g>
<g>
</g>
<g>
</g>
<g>
</g>
<g>
</g>
<g>
</g>
<g>
</g>
</svg>
