<?xml version="1.0" encoding="iso-8859-1"?>
<!-- Generator: Adobe Illustrator 19.0.0, SVG Export Plug-In . SVG Version: 6.00 Build 0)  -->
<svg version="1.1" id="Layer_1" xmlns="http://www.w3.org/2000/svg" xmlns:xlink="http://www.w3.org/1999/xlink" x="0px" y="0px"
	 viewBox="0 0 464 464" style="enable-background:new 0 0 464 464;" xml:space="preserve">
<g>
	<g>
		<g>
			<path style="fill:#CDE6F5;" d="M368,0c-4.422,0-8,3.582-8,8v128c0,4.41-3.586,8-8,8s-8-3.59-8-8V8c0-4.418-3.578-8-8-8
				s-8,3.582-8,8v128c0,4.41-3.586,8-8,8s-8-3.59-8-8V8c0-4.418-3.578-8-8-8s-8,3.582-8,8v128c0,4.41-3.586,8-8,8s-8-3.59-8-8V8
				c0-4.418-3.578-8-8-8s-8,3.582-8,8v144c0,21.754,12.478,40.63,30.646,49.893c5.58,2.845,9.354,8.284,9.354,14.547V264h32v-47.56
				c0-6.263,3.775-11.702,9.354-14.547C363.522,192.63,376,173.754,376,152V8C376,3.582,372.422,0,368,0z"/>
		</g>
	</g>
	<g>
		<g>
			<path style="fill:#CDE6F5;" d="M232,128c0-61.333-32.235-128-72-128S88,66.667,88,128c0,29.089,17.266,54.108,42.1,65.455
				c8.488,3.878,13.9,12.371,13.9,21.704V272h32v-56.842c0-9.332,5.412-17.825,13.9-21.704C214.734,182.108,232,157.089,232,128z"/>
		</g>
	</g>
	<g>
		<g>
			<path style="fill:#CDE6F5;" d="M232,128c0-61.333-32.235-128-72-128S88,66.667,88,128c0,29.089,17.266,54.108,42.1,65.455
				c8.488,3.878,13.9,12.371,13.9,21.704V272h32v-56.842c0-9.332,5.412-17.825,13.9-21.704C214.734,182.108,232,157.089,232,128z"/>
		</g>
	</g>
	<g>
		<g>
			<path style="fill:#FFC855;" d="M160,464L160,464c-17.673,0-32-14.327-32-32V264c0-4.418,3.582-8,8-8h48c4.418,0,8,3.582,8,8v168
				C192,449.673,177.673,464,160,464z"/>
		</g>
	</g>
	<g>
		<g>
			<path style="fill:#FFB44B;" d="M152,432V264c0-4.418,3.582-8,8-8h-24c-4.418,0-8,3.582-8,8v168c0,17.673,14.327,32,32,32
				c4.25,0,8.289-0.868,12-2.373C160.282,456.875,152,445.422,152,432z"/>
		</g>
	</g>
	<g>
		<g>
			<g>
				<path style="fill:#B7D3E2;" d="M160,0c-12.595,0-24.422,6.719-34.721,17.807C128.786,16.738,132.347,16,136,16
					c39.765,0,72,66.667,72,128c0,20.82-8.944,39.456-23.079,52.585c1.514-1.219,3.159-2.299,4.979-3.131
					C214.734,182.107,232,157.088,232,128C232,66.667,199.765,0,160,0z"/>
			</g>
		</g>
	</g>
	<g>
		<g>
			<g>
				<path style="fill:#B7D3E2;" d="M318.646,201.893C300.479,192.63,288,173.754,288,152v-8c-4.414,0-8-3.59-8-8V8
					c0-4.418-3.578-8-8-8s-8,3.582-8,8v144c0,21.754,12.479,40.63,30.646,49.893c5.58,2.845,9.354,8.284,9.354,14.547V264h24v-47.56
					C328,210.177,324.226,204.738,318.646,201.893z"/>
			</g>
		</g>
	</g>
	<g>
		<g>
			<g>
				<path style="fill:#B7D3E2;" d="M360,144c4.414,0,8-3.59,8-8V8c0-2.929,1.651-5.381,4-6.775C370.807,0.517,369.49,0,368,0
					c-4.422,0-8,3.582-8,8v128c0,2.923-1.652,5.375-4,6.771C357.194,143.481,358.512,144,360,144z"/>
			</g>
		</g>
		<g>
			<g>
				<path style="fill:#B7D3E2;" d="M328,144c4.414,0,8-3.59,8-8V8c0-2.929,1.651-5.381,4-6.775C338.807,0.517,337.49,0,336,0
					c-4.422,0-8,3.582-8,8v128c0,2.923-1.653,5.375-4,6.771C325.194,143.481,326.511,144,328,144z"/>
			</g>
		</g>
		<g>
			<g>
				<path style="fill:#B7D3E2;" d="M296,144c4.414,0,8-3.59,8-8V8c0-2.929,1.651-5.381,4-6.775C306.806,0.517,305.49,0,304,0
					c-4.422,0-8,3.582-8,8v128c0,2.923-1.653,5.375-4,6.771C293.194,143.481,294.511,144,296,144z"/>
			</g>
		</g>
	</g>
	<g>
		<g>
			<path style="fill:#DC5869;" d="M320,464L320,464c-17.673,0-32-14.327-32-32V264c0-4.418,3.582-8,8-8h48c4.418,0,8,3.582,8,8v168
				C352,449.673,337.673,464,320,464z"/>
		</g>
	</g>
	<g>
		<g>
			<path style="fill:#C95264;" d="M312,432V264c0-4.418,3.582-8,8-8h-24c-4.418,0-8,3.582-8,8v168c0,17.673,14.327,32,32,32
				c4.25,0,8.289-0.868,12-2.373C320.282,456.875,312,445.422,312,432z"/>
		</g>
	</g>
</g>
<g>
</g>
<g>
</g>
<g>
</g>
<g>
</g>
<g>
</g>
<g>
</g>
<g>
</g>
<g>
</g>
<g>
</g>
<g>
</g>
<g>
</g>
<g>
</g>
<g>
</g>
<g>
</g>
<g>
</g>
</svg>
