<?xml version="1.0" encoding="iso-8859-1"?>
<!-- Generator: Adobe Illustrator 19.0.0, SVG Export Plug-In . SVG Version: 6.00 Build 0)  -->
<svg version="1.1" id="Layer_1" xmlns="http://www.w3.org/2000/svg" xmlns:xlink="http://www.w3.org/1999/xlink" x="0px" y="0px"
	 viewBox="0 0 464 464" style="enable-background:new 0 0 464 464;" xml:space="preserve">
<g>
	<g>
		<g>
			<path style="fill:#FFE0CC;" d="M272,384h-80C90.38,384,8,301.62,8,200v-88c0-4.418,3.582-8,8-8h432c4.418,0,8,3.582,8,8v88
				C456,301.62,373.62,384,272,384z"/>
		</g>
		<path style="fill:#EBCDB4;" d="M272,360h-80c-88.365,0-160-71.634-160-160l0,0h400l0,0C432,288.366,360.366,360,272,360z"/>
	</g>
	<path style="fill:#FFEAE0;" d="M448,104H16c-4.418,0-8,3.582-8,8v88c101.621,0,184,82.379,184,184c0,4.418,3.582,8,8,8h64
		c4.418,0,8-3.582,8-8c0-101.621,82.379-184,184-184v-88C456,107.582,452.418,104,448,104z"/>
	<g>
		<path style="fill:#FFE0CC;" d="M440,72H24c-4.418,0-8,3.582-8,8v24h432V80C448,75.582,444.418,72,440,72z"/>
	</g>
	<g>
		<path style="fill:#FFE0CC;" d="M120,184H8c-4.418,0-8-3.582-8-8v-48c0-4.418,3.582-8,8-8h112c4.418,0,8,3.582,8,8v48
			C128,180.418,124.418,184,120,184z"/>
	</g>
	<g>
		<path style="fill:#FFE0CC;" d="M456,184H344c-4.418,0-8-3.582-8-8v-48c0-4.418,3.582-8,8-8h112c4.418,0,8,3.582,8,8v48
			C464,180.418,460.418,184,456,184z"/>
	</g>
	<g>
		<path style="fill:#EBCDB4;" d="M240,104h-16v-8c0-4.418,3.582-8,8-8l0,0c4.418,0,8,3.582,8,8V104z"/>
	</g>
	<g>
		<path style="fill:#EBCDB4;" d="M272,104h-16v-8c0-4.418,3.582-8,8-8l0,0c4.418,0,8,3.582,8,8V104z"/>
	</g>
	<g>
		<path style="fill:#EBCDB4;" d="M208,104h-16v-8c0-4.418,3.582-8,8-8l0,0c4.418,0,8,3.582,8,8V104z"/>
	</g>
	<g>
		<path style="fill:#EBCDB4;" d="M336,104h-16v-8c0-4.418,3.582-8,8-8l0,0c4.418,0,8,3.582,8,8V104z"/>
	</g>
	<g>
		<path style="fill:#EBCDB4;" d="M368,104h-16v-8c0-4.418,3.582-8,8-8l0,0c4.418,0,8,3.582,8,8V104z"/>
	</g>
	<g>
		<path style="fill:#EBCDB4;" d="M400,104h-16v-8c0-4.418,3.582-8,8-8l0,0c4.418,0,8,3.582,8,8V104z"/>
	</g>
	<g>
		<path style="fill:#EBCDB4;" d="M432,104h-16v-8c0-4.418,3.582-8,8-8l0,0c4.418,0,8,3.582,8,8V104z"/>
	</g>
	<g>
		<path style="fill:#EBCDB4;" d="M304,104h-16v-8c0-4.418,3.582-8,8-8l0,0c4.418,0,8,3.582,8,8V104z"/>
	</g>
	<g>
		<path style="fill:#EBCDB4;" d="M80,104H64v-8c0-4.418,3.582-8,8-8l0,0c4.418,0,8,3.582,8,8V104z"/>
	</g>
	<g>
		<path style="fill:#EBCDB4;" d="M112,104H96v-8c0-4.418,3.582-8,8-8l0,0c4.418,0,8,3.582,8,8V104z"/>
	</g>
	<g>
		<path style="fill:#EBCDB4;" d="M144,104h-16v-8c0-4.418,3.582-8,8-8l0,0c4.418,0,8,3.582,8,8V104z"/>
	</g>
	<g>
		<path style="fill:#EBCDB4;" d="M176,104h-16v-8c0-4.418,3.582-8,8-8l0,0c4.418,0,8,3.582,8,8V104z"/>
	</g>
	<g>
		<path style="fill:#EBCDB4;" d="M48,104H32v-8c0-4.418,3.582-8,8-8l0,0c4.418,0,8,3.582,8,8V104z"/>
	</g>
</g>
<g>
</g>
<g>
</g>
<g>
</g>
<g>
</g>
<g>
</g>
<g>
</g>
<g>
</g>
<g>
</g>
<g>
</g>
<g>
</g>
<g>
</g>
<g>
</g>
<g>
</g>
<g>
</g>
<g>
</g>
</svg>
