<?xml version="1.0" encoding="iso-8859-1"?>
<!-- Generator: Adobe Illustrator 19.0.0, SVG Export Plug-In . SVG Version: 6.00 Build 0)  -->
<svg version="1.1" id="Layer_1" xmlns="http://www.w3.org/2000/svg" xmlns:xlink="http://www.w3.org/1999/xlink" x="0px" y="0px"
	 viewBox="0 0 464 464" style="enable-background:new 0 0 464 464;" xml:space="preserve">
<g>
	<path style="fill:#8C5F56;" d="M343.173,80.153C412.548,83.09,439.997,128,439.997,128l-48,40
		c-18.596-37.193-38.486-53.633-48.824-60.179V80.153z"/>
	<path style="fill:#734B46;" d="M343.173,97.48c49.872,6.87,74.293,35.815,80.408,44.2L391.997,168
		c-18.596-37.193-38.486-53.633-48.824-60.179V97.48z"/>
	<path style="fill:#8C5F56;" d="M120.827,80.153C51.452,83.09,24.003,128,24.003,128l48,40
		c18.596-37.193,38.486-53.633,48.824-60.179C120.827,107.821,120.827,80.153,120.827,80.153z"/>
	<path style="fill:#734B46;" d="M120.827,97.48c-49.872,6.87-74.293,35.815-80.408,44.2L72.003,168
		c18.596-37.193,38.486-53.633,48.824-60.179C120.827,107.821,120.827,97.48,120.827,97.48z"/>
	<g>
		<g>
			<path style="fill:#FFC855;" d="M202.675,464L202.675,464c11.779,0,21.327-9.549,21.327-21.327V344h-56l13.532,101.491
				C182.948,456.087,191.986,464,202.675,464z"/>
		</g>
	</g>
	<g>
		<g>
			<path style="fill:#FFC855;" d="M261.33,464L261.33,464c-11.779,0-21.327-9.549-21.327-21.327V344h56l-13.532,101.491
				C281.058,456.087,272.02,464,261.33,464z"/>
		</g>
	</g>
	<g>
		<path style="fill:#FFB44B;" d="M292.803,368l3.2-24h-32h-24v98.672c0,11.779,9.549,21.328,21.328,21.328
			c4.42,0,8.517-1.41,11.95-3.747c-5.597-3.844-9.277-10.278-9.277-17.581V368H292.803z"/>
		<path style="fill:#FFB44B;" d="M168.003,344l13.532,101.491c1.413,10.596,10.451,18.509,21.14,18.509
			c4.476,0,8.62-1.391,12.05-3.747c-4.869-3.313-8.362-8.548-9.19-14.762L195.203,368h28.8v-24h-32H168.003z"/>
	</g>
	<g>
		<g>
			<path style="fill:#FFC855;" d="M205.465,227.049l-100.459,58c-10.522,6.075-23.977,2.47-30.053-8.053l0,0
				c-6.075-10.522-2.47-23.977,8.053-30.053l100.459-58c10.522-6.075,23.977-2.47,30.053,8.053l0,0
				C219.593,207.519,215.988,220.974,205.465,227.049z"/>
		</g>
	</g>
	<g>
		<g>
			<path style="fill:#FFB44B;" d="M199.514,204.993l-100.459,58c-8.691,5.018-12.561,15.059-10.256,24.335
				c5.31,1.297,11.1,0.669,16.208-2.279l100.459-58c8.691-5.018,12.561-15.06,10.257-24.336
				C210.412,201.417,204.621,202.044,199.514,204.993z"/>
		</g>
	</g>
	<g>
		<g>
			<path style="fill:#FFC855;" d="M259.006,227.049l100.459,58c10.522,6.075,23.977,2.47,30.053-8.053l0,0
				c6.075-10.522,2.47-23.977-8.053-30.053l-100.459-58c-10.522-6.075-23.977-2.47-30.053,8.053l0,0
				C244.879,207.519,248.484,220.974,259.006,227.049z"/>
		</g>
	</g>
	<g>
		<g>
			<path style="fill:#FFB44B;" d="M264.958,204.993l100.459,58c8.691,5.018,12.561,15.059,10.256,24.335
				c-5.31,1.297-11.1,0.669-16.208-2.279l-100.459-58c-8.691-5.018-12.561-15.06-10.257-24.336
				C254.06,201.417,259.85,202.044,264.958,204.993z"/>
		</g>
	</g>
	<g>
		<g>
			<path style="fill:#00BEA5;" d="M296.003,184h-128l-45.086,157.802c-1.46,5.111,2.377,10.198,7.692,10.198h101.394h101.394
				c5.315,0,9.152-5.087,7.692-10.198L296.003,184z"/>
		</g>
	</g>
	<g>
		<g>
			<ellipse style="fill:#E69B4B;" cx="232.003" cy="200" rx="40" ry="24"/>
		</g>
	</g>
	<g>
		<g>
			<ellipse style="fill:#FFC855;" cx="232.003" cy="108" rx="120" ry="100"/>
		</g>
	</g>
	<g>
		<g>
			<path style="fill:#6E4141;" d="M180.003,144L180.003,144c-6.627,0-12-5.373-12-12v-16c0-6.627,5.373-12,12-12l0,0
				c6.627,0,12,5.373,12,12v16C192.003,138.627,186.63,144,180.003,144z"/>
		</g>
	</g>
	<g>
		<g>
			<path style="fill:#6E4141;" d="M284.003,144L284.003,144c-6.627,0-12-5.373-12-12v-16c0-6.627,5.373-12,12-12l0,0
				c6.627,0,12,5.373,12,12v16C296.003,138.627,290.63,144,284.003,144z"/>
		</g>
	</g>
	<g>
		<g>
			<g>
				<path style="fill:#E69B4B;" d="M231.698,184c-13.617,0-26.375-3.273-35.922-9.211c-3.75-2.328-4.898-7.266-2.563-11.016
					c2.336-3.758,7.273-4.898,11.016-2.563c6.938,4.313,16.953,6.789,27.469,6.789s20.531-2.477,27.469-6.789
					c3.734-2.336,8.68-1.195,11.016,2.563c2.336,3.75,1.188,8.688-2.563,11.016C258.073,180.727,245.315,184,231.698,184z"/>
			</g>
		</g>
	</g>
	<g>
		<g>
			<path style="fill:#FFB44B;" d="M152.003,108c0-49.537,43.267-90.551,100-98.5c-6.518-0.913-13.17-1.5-20-1.5
				c-66.274,0-120,44.771-120,100s53.726,100,120,100c6.83,0,13.482-0.586,20-1.5C195.27,198.551,152.003,157.537,152.003,108z"/>
		</g>
	</g>
	<g>
		<g>
			<path style="fill:#8C5F56;" d="M249.604,1.109V1.09c-0.24-0.027-0.485-0.04-0.725-0.066c-2.175-0.232-4.351-0.449-6.558-0.591
				C238.917,0.18,235.488,0,232.003,0s-6.914,0.18-10.319,0.433c-2.207,0.142-4.383,0.359-6.558,0.591
				c-0.24,0.026-0.485,0.039-0.725,0.066v0.019c-55.807,6.209-100.625,41.35-111.744,86.818
				c71.664-0.861,129.345-35.922,129.345-79.126c0,43.204,57.681,78.266,129.345,79.126C350.229,42.459,305.411,7.318,249.604,1.109
				z"/>
		</g>
	</g>
	<g>
		<g>
			<g>
				<path style="fill:#734B46;" d="M255.583,1.976c-1.989-0.299-3.96-0.643-5.979-0.867V1.09c-0.24-0.027-0.484-0.04-0.725-0.065
					c-2.175-0.232-4.352-0.449-6.558-0.591C238.917,0.18,235.488,0,232.003,0s-6.914,0.18-10.319,0.434
					c-2.207,0.142-4.383,0.359-6.558,0.591c-0.24,0.025-0.485,0.039-0.725,0.065v0.019c-55.807,6.209-100.625,41.35-111.744,86.818
					c17.186-0.207,33.529-2.425,48.504-6.206C164.245,40.808,204.924,9.434,255.583,1.976z"/>
			</g>
		</g>
	</g>
	<g>
		<g>
			<circle style="fill:#B2C56D;" cx="280.003" cy="320" r="8"/>
		</g>
	</g>
	<g>
		<g>
			<circle style="fill:#FFC855;" cx="312.003" cy="320" r="8"/>
		</g>
	</g>
	<g>
		<g>
			<circle style="fill:#B2C56D;" cx="216.003" cy="320" r="8"/>
		</g>
	</g>
	<g>
		<g>
			<circle style="fill:#FFC855;" cx="248.003" cy="320" r="8"/>
		</g>
	</g>
	<g>
		<g>
			<circle style="fill:#FFC855;" cx="280.003" cy="272" r="8"/>
		</g>
	</g>
	<g>
		<g>
			<circle style="fill:#B2C56D;" cx="184.003" cy="272" r="8"/>
		</g>
	</g>
	<g>
		<g>
			<circle style="fill:#FFC855;" cx="216.003" cy="272" r="8"/>
		</g>
	</g>
	<g>
		<g>
			<circle style="fill:#B2C56D;" cx="248.003" cy="272" r="8"/>
		</g>
	</g>
	<g>
		<g>
			<circle style="fill:#FFC855;" cx="296.003" cy="296" r="8"/>
		</g>
	</g>
	<g>
		<g>
			<circle style="fill:#B2C56D;" cx="200.003" cy="296" r="8"/>
		</g>
	</g>
	<g>
		<g>
			<circle style="fill:#B2C56D;" cx="152.003" cy="320" r="8"/>
		</g>
	</g>
	<g>
		<g>
			<circle style="fill:#FFC855;" cx="232.003" cy="296" r="8"/>
		</g>
	</g>
	<g>
		<g>
			<circle style="fill:#B2C56D;" cx="264.003" cy="296" r="8"/>
		</g>
	</g>
	<g>
		<g>
			<circle style="fill:#B2C56D;" cx="312.003" cy="272" r="8"/>
		</g>
	</g>
	<g>
		<g>
			<circle style="fill:#FFC855;" cx="184.003" cy="320" r="8"/>
		</g>
	</g>
	<g>
		<g>
			<circle style="fill:#FFC855;" cx="152.003" cy="272" r="8"/>
		</g>
	</g>
	<g>
		<g>
			<circle style="fill:#FFC855;" cx="168.003" cy="296" r="8"/>
		</g>
	</g>
	<g>
		<g>
			<path style="fill:#B2C56D;" d="M325.842,288.436c-3.344,0.958-5.839,3.912-5.839,7.564c0,4.418,3.582,8,8,8
				c0.767,0,1.459-0.235,2.161-0.437L325.842,288.436z"/>
		</g>
	</g>
	<g>
		<g>
			<path style="fill:#B2C56D;" d="M136.003,304c4.418,0,8-3.582,8-8c0-3.652-2.495-6.605-5.839-7.564l-4.322,15.127
				C134.543,303.765,135.236,304,136.003,304z"/>
		</g>
	</g>
</g>
<g>
</g>
<g>
</g>
<g>
</g>
<g>
</g>
<g>
</g>
<g>
</g>
<g>
</g>
<g>
</g>
<g>
</g>
<g>
</g>
<g>
</g>
<g>
</g>
<g>
</g>
<g>
</g>
<g>
</g>
</svg>
