<?xml version="1.0" encoding="iso-8859-1"?>
<!-- Generator: Adobe Illustrator 19.0.0, SVG Export Plug-In . SVG Version: 6.00 Build 0)  -->
<svg version="1.1" id="Layer_1" xmlns="http://www.w3.org/2000/svg" xmlns:xlink="http://www.w3.org/1999/xlink" x="0px" y="0px"
	 viewBox="0 0 464 464" style="enable-background:new 0 0 464 464;" xml:space="preserve">
<g>
	<path style="fill:#00BEA5;" d="M324.542,88C313.339,37.262,276.153,0,232,0s-81.339,37.262-92.542,88H324.542z"/>
	<path style="fill:#00AA9A;" d="M317.248,64.871C296.705,54.548,266.139,48,232,48c-12.877,0-25.237,0.94-36.75,2.655
		C205.272,25.249,222.36,7.189,248,1.799C242.786,0.703,237.464,0,232,0c-44.153,0-81.339,37.262-92.543,88h185.085
		C322.756,79.908,320.284,72.177,317.248,64.871z"/>
	<g>
		<g>
			<path style="fill:#FFC855;" d="M196.342,269.335l-50.518,39.293c-6.975,5.425-17.027,4.169-22.453-2.806l0,0
				c-5.425-6.975-4.169-17.027,2.806-22.453l50.518-39.293c6.975-5.425,17.027-4.169,22.453,2.806l0,0
				C204.573,253.857,203.317,263.91,196.342,269.335z"/>
		</g>
	</g>
	<g>
		<g>
			<path style="fill:#FFC855;" d="M267.658,269.335l50.518,39.293c6.975,5.425,17.027,4.169,22.453-2.806l0,0
				c5.425-6.975,4.169-17.027-2.806-22.453l-50.518-39.293c-6.975-5.425-17.027-4.169-22.453,2.806l0,0
				C259.427,253.857,260.683,263.91,267.658,269.335z"/>
		</g>
	</g>
	<path style="fill:#FFB44B;" d="M324.342,291.37L274,252.213h-84l-50.342,39.157c-6.372,4.956-7.905,13.749-3.998,20.553
		c3.549,0.079,7.144-0.945,10.164-3.294L190,274.268V315h84v-40.732l44.176,34.361c3.021,2.35,6.615,3.373,10.164,3.294
		C332.247,305.118,330.713,296.326,324.342,291.37z"/>
	<path style="fill:#00BED2;" d="M291.167,251h-20.669c0.975,4.132,1.502,8.49,1.502,13c0,26.51-17.909,48-40,48s-40-21.49-40-48
		c0-4.51,0.528-8.868,1.502-13h-20.669l-19.281,115.685c-0.813,4.876,2.948,9.315,7.891,9.315h141.113
		c4.944,0,8.704-4.439,7.891-9.315L291.167,251z"/>
	<g>
		<g>
			<g>
				<path style="fill:#00D2BE;" d="M290.667,248h-21.063c1.493,5.014,2.396,10.367,2.396,16h21.333L290.667,248z"/>
			</g>
		</g>
		<g>
			<g>
				<path style="fill:#00D2BE;" d="M170.667,264H192c0-5.633,0.903-10.986,2.396-16h-21.063L170.667,264z"/>
			</g>
		</g>
	</g>
	<path style="fill:#E15050;" d="M120,48c-19.406,0-35.564,13.827-39.21,32.162C57.995,81.812,40,100.783,40,124
		c0,6.789,1.583,13.192,4.328,18.934C36.876,148.792,32,157.785,32,168c0,15.391,10.873,28.226,25.352,31.289
		C56.56,202.076,56,204.959,56,208c0,17.673,14.327,32,32,32c3.041,0,5.924-0.56,8.711-1.352C99.774,253.126,112.609,264,128,264
		c17.673,0,32-14.327,32-32V88C160,65.909,142.091,48,120,48z"/>
	<path style="fill:#D24146;" d="M159.326,81.312c-0.166-0.912-0.326-1.825-0.555-2.713c-0.218-0.903-0.54-1.76-0.819-2.638
		c-0.801-2.41-1.756-4.753-2.955-6.955c0,0,0-0.001-0.001-0.002C149.322,65.915,142.916,64,136,64
		c-19.406,0-35.564,13.827-39.21,32.162C73.995,97.812,56,116.783,56,140c0,6.789,1.583,13.192,4.328,18.934
		C52.876,164.792,48,173.785,48,184c0,4.691,1.109,9.09,2.924,13.102l0.003,0.001c0.782,0.352,1.586,0.658,2.392,0.96
		c1.318,0.468,2.642,0.93,4.033,1.225C56.56,202.076,56,204.959,56,208c0,17.673,14.327,32,32,32c3.041,0,5.924-0.56,8.711-1.352
		C99.774,253.126,112.609,264,128,264c17.673,0,32-14.327,32-32V88C160,85.709,159.696,83.498,159.326,81.312z"/>
	<path style="fill:#E15050;" d="M432,168c0-10.215-4.875-19.208-12.328-25.066C422.417,137.192,424,130.789,424,124
		c0-23.217-17.995-42.188-40.79-43.838C379.564,61.827,363.406,48,344,48c-22.091,0-40,17.909-40,40v144c0,17.673,14.327,32,32,32
		c15.391,0,28.226-10.874,31.289-25.352c2.787,0.792,5.67,1.352,8.711,1.352c17.673,0,32-14.327,32-32
		c0-3.041-0.56-5.924-1.352-8.711C421.127,196.226,432,183.391,432,168z"/>
	<path style="fill:#D24146;" d="M392,192c0-10.215-4.875-19.208-12.328-25.066C382.417,161.192,384,154.789,384,148
		c0-23.217-17.995-42.188-40.79-43.838c-3.439-17.296-18.057-30.426-35.988-31.876C305.157,77.112,304,82.418,304,88v144
		c0,14.632,9.88,26.836,23.29,30.648c1.215,0.346,2.458,0.618,3.714,0.848c1.639,0.259,3.285,0.503,4.996,0.503
		c2.079,0,4.1-0.233,6.068-0.611c0.661-0.127,1.283-0.352,1.929-0.519c1.275-0.33,2.538-0.685,3.746-1.163
		c0.727-0.288,1.417-0.645,2.116-0.983c1.049-0.508,2.079-1.046,3.06-1.661c0.696-0.437,1.366-0.908,2.025-1.396
		c0.888-0.657,1.737-1.361,2.551-2.105c0.623-0.569,1.238-1.145,1.814-1.761c0.741-0.792,1.413-1.646,2.072-2.511
		c0.514-0.677,1.049-1.336,1.509-2.054c0.612-0.953,1.115-1.976,1.625-2.995c0.361-0.721,0.778-1.408,1.084-2.159
		c1.527-3.731,2.401-7.8,2.401-12.081c0-3.041-0.56-5.924-1.352-8.711C381.127,220.226,392,207.391,392,192z"/>
	<g>
		<g>
			<ellipse style="fill:#FFC855;" cx="232" cy="164" rx="136" ry="100"/>
		</g>
	</g>
	<g>
		<g>
			<path style="fill:#FFB44B;" d="M144,164c0-49.196,48.356-90.004,112-98.351C248.196,64.626,240.204,64,232,64
				c-75.111,0-136,44.771-136,100s60.889,100,136,100c8.204,0,16.196-0.625,24-1.649C192.356,254.004,144,213.196,144,164z"/>
		</g>
	</g>
	<g>
		<g>
			<path style="fill:#FFE6A1;" d="M232,264c40.295,0,76.386-12.96,101.289-33.434C322.704,203.907,281.42,184,232,184
				s-90.704,19.907-101.289,46.566C155.614,251.04,191.705,264,232,264z"/>
		</g>
	</g>
	<g>
		<g>
			<path style="fill:#FFD680;" d="M253.371,262.619c0.819-0.096,1.638-0.19,2.452-0.297c-45.332-5.992-82.777-28.493-100.585-58.718
				c-11.84,7.501-20.462,16.725-24.527,26.962c3.065,2.52,6.308,4.921,9.699,7.203c0.109,0.073,0.218,0.146,0.327,0.218
				c3.244,2.169,6.642,4.214,10.159,6.149c0.305,0.167,0.607,0.337,0.915,0.503c3.311,1.79,6.753,3.453,10.281,5.021
				c0.554,0.245,1.097,0.5,1.656,0.74c3.303,1.421,6.719,2.711,10.191,3.927c0.825,0.287,1.63,0.598,2.464,0.873
				c3.252,1.08,6.604,2.021,9.986,2.914c1.095,0.287,2.163,0.613,3.271,0.88c3.218,0.779,6.523,1.41,9.843,2.013
				c1.305,0.236,2.577,0.529,3.896,0.736c3.354,0.531,6.788,0.895,10.23,1.24c1.308,0.13,2.582,0.335,3.901,0.438
				c4.755,0.372,9.578,0.58,14.47,0.58c4.356,0,8.638-0.22,12.887-0.516C247.746,263.269,250.563,262.953,253.371,262.619z"/>
		</g>
	</g>
	<g>
		<g>
			<circle style="fill:#E15050;" cx="232" cy="176" r="24"/>
		</g>
	</g>
	<g>
		<g>
			<circle style="fill:#ED9696;" cx="240" cy="168" r="8"/>
		</g>
	</g>
	<g>
		<g>
			<path style="fill:#D24146;" d="M220,176c0-11.171,7.667-20.475,18-23.151c-1.928-0.5-3.916-0.849-6-0.849
				c-13.255,0-24,10.745-24,24s10.745,24,24,24c2.084,0,4.072-0.349,6-0.849C227.667,196.475,220,187.17,220,176z"/>
		</g>
	</g>
	<g>
		<g>
			<g>
				<path style="fill:#E69B4B;" d="M231.695,232.001c-13.617,0-26.375-3.273-35.922-9.211c-3.75-2.328-4.898-7.266-2.563-11.016
					c2.336-3.758,7.273-4.898,11.016-2.563c6.938,4.313,16.953,6.789,27.469,6.789s20.531-2.477,27.469-6.789
					c3.734-2.336,8.68-1.195,11.016,2.563c2.336,3.75,1.188,8.688-2.563,11.016C258.07,228.728,245.313,232.001,231.695,232.001z"/>
			</g>
		</g>
	</g>
	<g>
		<g>
			<path style="fill:#6E4141;" d="M180,168L180,168c-6.627,0-12-5.373-12-12v-16c0-6.627,5.373-12,12-12l0,0c6.627,0,12,5.373,12,12
				v16C192,162.627,186.627,168,180,168z"/>
		</g>
	</g>
	<g>
		<g>
			<path style="fill:#6E4141;" d="M284,168L284,168c-6.627,0-12-5.373-12-12v-16c0-6.627,5.373-12,12-12l0,0c6.627,0,12,5.373,12,12
				v16C296,162.627,290.627,168,284,168z"/>
		</g>
	</g>
	<g>
		<g>
			<path style="fill:#00BEA5;" d="M224,376v66.197c0,12.042-9.762,21.803-21.803,21.803l0,0c-10.537,0-19.567-7.536-21.452-17.903
				L168,376H224z"/>
		</g>
	</g>
	<g>
		<g>
			<path style="fill:#00BEA5;" d="M240,376v66.197c0,12.042,9.762,21.803,21.803,21.803l0,0c10.537,0,19.567-7.536,21.452-17.903
				L296,376H240z"/>
		</g>
	</g>
	<g>
		<g>
			<polygon style="fill:#00D2BE;" points="160,328 304,328 301.333,312 162.667,312 			"/>
		</g>
	</g>
	<g>
		<g>
			<g>
				<path style="fill:#00D2BE;" d="M165.334,296h36.912c-3.452-4.618-6.16-10.032-7.921-16H168L165.334,296z"/>
			</g>
		</g>
		<g>
			<g>
				<path style="fill:#00D2BE;" d="M296,280h-26.325c-1.761,5.968-4.469,11.382-7.921,16h36.912L296,280z"/>
			</g>
		</g>
	</g>
	<g>
		<g>
			<polygon style="fill:#00AA9A;" points="168,376 170.909,392 224,392 224,376 			"/>
		</g>
	</g>
	<g>
		<g>
			<polygon style="fill:#00AA9A;" points="293.091,392 296,376 240,376 240,392 			"/>
		</g>
	</g>
	<g>
		<g>
			<polygon style="fill:#00D2BE;" points="154.667,360 309.333,360 306.667,344 157.333,344 			"/>
		</g>
	</g>
</g>
<g>
</g>
<g>
</g>
<g>
</g>
<g>
</g>
<g>
</g>
<g>
</g>
<g>
</g>
<g>
</g>
<g>
</g>
<g>
</g>
<g>
</g>
<g>
</g>
<g>
</g>
<g>
</g>
<g>
</g>
</svg>
