<?xml version="1.0" encoding="iso-8859-1"?>
<!-- Generator: Adobe Illustrator 19.0.0, SVG Export Plug-In . SVG Version: 6.00 Build 0)  -->
<svg version="1.1" id="Layer_1" xmlns="http://www.w3.org/2000/svg" xmlns:xlink="http://www.w3.org/1999/xlink" x="0px" y="0px"
	 viewBox="0 0 464 464" style="enable-background:new 0 0 464 464;" xml:space="preserve">
<g>
	<path style="fill:#DC7850;" d="M304.617,14.578C303.875,6.266,297.023,0,288.68,0H175.32c-8.344,0-15.195,6.266-15.938,14.578
		L120.03,455.289l15.938,1.422L175.32,16H224v440h16V16h48.68l39.352,440.711l15.938-1.422L304.617,14.578z"/>
	<g>
		<g>
			<path style="fill:#C85A46;" d="M136,463.999h-16c-4.418,0-8-3.582-8-8l0,0c0-4.418,3.582-8,8-8h16c4.418,0,8,3.582,8,8l0,0
				C144,460.418,140.418,463.999,136,463.999z"/>
		</g>
	</g>
	<g>
		<g>
			<path style="fill:#C85A46;" d="M344,464h-16c-4.418,0-8-3.582-8-8l0,0c0-4.418,3.582-8,8-8h16c4.418,0,8,3.582,8,8l0,0
				C352,460.418,348.418,464,344,464z"/>
		</g>
	</g>
	<g>
		<g>
			<path style="fill:#C85A46;" d="M240,464h-16c-4.418,0-8-3.582-8-8l0,0c0-4.418,3.582-8,8-8h16c4.418,0,8,3.582,8,8l0,0
				C248,460.418,244.418,464,240,464z"/>
		</g>
	</g>
	<g>
		<g>
			<path style="fill:#E68C5A;" d="M328,288H136c-8.837,0-16-7.163-16-16V48c0-8.837,7.163-16,16-16h192c8.837,0,16,7.163,16,16v224
				C344,280.837,336.836,288,328,288z"/>
		</g>
	</g>
	<g>
		<g>
			<path style="fill:#C85A46;" d="M336,328H128c-4.418,0-8-3.582-8-8l0,0c0-4.418,3.582-8,8-8h208c4.418,0,8,3.582,8,8l0,0
				C344,324.418,340.418,328,336,328z"/>
		</g>
	</g>
	<g>
		<g>
			<path style="fill:#C85A46;" d="M304,16H160c-4.418,0-8-3.582-8-8l0,0c0-4.418,3.582-8,8-8h144c4.418,0,8,3.582,8,8l0,0
				C312,12.418,308.418,16,304,16z"/>
		</g>
	</g>
	<g>
		<g>
			<rect x="136" y="48" style="fill:#FFE6A1;" width="192" height="224"/>
		</g>
	</g>
</g>
<g>
</g>
<g>
</g>
<g>
</g>
<g>
</g>
<g>
</g>
<g>
</g>
<g>
</g>
<g>
</g>
<g>
</g>
<g>
</g>
<g>
</g>
<g>
</g>
<g>
</g>
<g>
</g>
<g>
</g>
</svg>
