<?xml version="1.0" encoding="iso-8859-1"?>
<!-- Generator: Adobe Illustrator 19.0.0, SVG Export Plug-In . SVG Version: 6.00 Build 0)  -->
<svg version="1.1" id="Layer_1" xmlns="http://www.w3.org/2000/svg" xmlns:xlink="http://www.w3.org/1999/xlink" x="0px" y="0px"
	 viewBox="0 0 464 464" style="enable-background:new 0 0 464 464;" xml:space="preserve">
<g>
	<rect x="120.999" y="216" style="fill:#C85A46;" width="18" height="16"/>
	<rect x="324.999" y="216" style="fill:#C85A46;" width="18" height="16"/>
	<polygon style="fill:#DC7850;" points="111.025,444 94.999,444 112.714,137 128.74,137 	"/>
	<polygon style="fill:#C85A46;" points="112.714,137 128.74,137 127.413,160 111.387,160 	"/>
	<polygon style="fill:#DC7850;" points="352.813,444 368.839,444 351.123,137 335.097,137 	"/>
	<polygon style="fill:#C85A46;" points="351.123,137 335.097,137 336.424,160 352.45,160 	"/>
	<path style="fill:#00BEA5;" d="M288,0H176c-17.673,0-32,14.327-32,32v80v32.001V200h176v-55.999V112V32C320,14.327,305.673,0,288,0
		z"/>
	<g>
		<g>
			<path style="fill:#00AA9A;" d="M306.244,5.756L304,8l-0.006,0.006C288.699,22.124,280,41.992,280,62.807V152
				c0,8.837-7.163,16-16,16h-64c-8.837,0-16-7.163-16-16V62.807c0-20.815-8.699-40.683-23.994-54.801L160,8l-2.244-2.244
				C149.457,11.537,144,21.119,144,32v80v32.001V200h176v-55.999V112V32C320,21.119,314.543,11.537,306.244,5.756z"/>
		</g>
	</g>
	<g>
		<g>
			<path style="fill:#00BEA5;" d="M312,256H152c-8.837,0-16-7.163-16-16v-32c0-8.837,7.163-16,16-16h160c8.837,0,16,7.163,16,16v32
				C328,248.837,320.837,256,312,256z"/>
		</g>
	</g>
	<g>
		<g>
			<path style="fill:#00AA9A;" d="M152,256h160c8.836,0,16-7.164,16-16v-24H136v24C136,248.836,143.164,256,152,256z"/>
		</g>
	</g>
	<g>
		<g>
			<path style="fill:#009D93;" d="M176,256l13.2-17.6c3.022-4.029,7.764-6.4,12.8-6.4h60c5.036,0,9.778,2.371,12.8,6.4L288,256H176z
				"/>
		</g>
	</g>
	<g>
		<g>
			<path style="fill:#E68C5A;" d="M360,144H104c-4.418,0-8-3.582-8-8v-16c0-4.418,3.582-8,8-8h256c4.418,0,8,3.582,8,8v16
				C368,140.418,364.418,144,360,144z"/>
		</g>
	</g>
	<g>
		<g>
			<path style="fill:#DC7850;" d="M96,128v8c0,4.418,3.582,8,8,8h256c4.418,0,8-3.582,8-8v-8H96z"/>
		</g>
	</g>
	<g>
		<g>
			<path style="fill:#C85A46;" d="M112,464H96c-4.418,0-8-3.582-8-8v-8c0-4.418,3.582-8,8-8h16c4.418,0,8,3.582,8,8v8
				C120,460.418,116.418,464,112,464z"/>
		</g>
	</g>
	<g>
		<g>
			<path style="fill:#C85A46;" d="M368,464h-16c-4.418,0-8-3.582-8-8v-8c0-4.418,3.582-8,8-8h16c4.418,0,8,3.582,8,8v8
				C376,460.418,372.418,464,368,464z"/>
		</g>
	</g>
</g>
<g>
</g>
<g>
</g>
<g>
</g>
<g>
</g>
<g>
</g>
<g>
</g>
<g>
</g>
<g>
</g>
<g>
</g>
<g>
</g>
<g>
</g>
<g>
</g>
<g>
</g>
<g>
</g>
<g>
</g>
</svg>
