<?xml version="1.0" encoding="iso-8859-1"?>
<!-- Generator: Adobe Illustrator 19.0.0, SVG Export Plug-In . SVG Version: 6.00 Build 0)  -->
<svg version="1.1" id="Layer_1" xmlns="http://www.w3.org/2000/svg" xmlns:xlink="http://www.w3.org/1999/xlink" x="0px" y="0px"
	 viewBox="0 0 464 464" style="enable-background:new 0 0 464 464;" xml:space="preserve">
<g>
	<path style="fill:#FFC855;" d="M191.637,58.964c-15.774,9.233-28.098,23.708-34.585,41.036h149.894
		c-6.508-17.387-18.893-31.902-34.745-41.13c-6.821-3.971-11.016-11.741-9.113-19.401c1.178-4.744,1.271-9.918-0.056-15.312
		c-2.836-11.52-12.248-20.85-23.84-23.373C218.384-3.746,200,11.98,200,32c0,2.533,0.306,4.986,0.879,7.335
		C202.768,47.087,198.523,54.933,191.637,58.964z"/>
	<path style="fill:#FFB44B;" d="M200,32c0,2.533,0.307,4.986,0.879,7.335c1.889,7.751-2.356,15.598-9.242,19.628
		c-15.774,9.233-28.099,23.708-34.585,41.037h27.541c6.951-13.777,17.766-25.265,31.044-33.037
		c6.886-4.03,11.131-11.876,9.242-19.628C224.307,44.986,224,42.533,224,40c0-16.762,12.901-30.463,29.308-31.837
		c-3.977-3.58-8.795-6.221-14.116-7.379C218.384-3.746,200,11.979,200,32z"/>
	<g>
		<g>
			<path style="fill:#00BEA5;" d="M304,144H160c-8.837,0-16-7.163-16-16v-16c0-8.837,7.163-16,16-16h144c8.837,0,16,7.163,16,16v16
				C320,136.837,312.837,144,304,144z"/>
		</g>
	</g>
	<g>
		<g>
			<path style="fill:#00AA9A;" d="M208,128v-16c0-8.837,7.164-16,16-16h-64c-8.836,0-16,7.163-16,16v16c0,8.836,7.164,16,16,16h64
				C215.164,144,208,136.836,208,128z"/>
		</g>
	</g>
	<g>
		<g>
			<path style="fill:#CDE6F5;" d="M312,464H152c-17.673,0-32-14.327-32-32V218.067c0-16.843,5.905-33.153,16.687-46.092L159.998,144
				h144.005l23.31,27.975C338.096,184.914,344,201.224,344,218.066V432C344,449.673,329.673,464,312,464z"/>
		</g>
	</g>
	<g>
		<g>
			<path style="fill:#E6F3FA;" d="M320,256.004c-4.422,0-8-3.582-8-8v-29.938c0-2.793-0.305-5.617-0.891-8.395
				c-0.93-4.32,1.828-8.574,6.148-9.496c4.289-0.934,8.57,1.828,9.492,6.152c0.828,3.875,1.25,7.824,1.25,11.738v29.938
				C328,252.422,324.422,256.004,320,256.004z"/>
		</g>
	</g>
	<g>
		<g>
			<path style="fill:#FFFFFF;" d="M304.008,189.488c-2.297,0-4.57-0.98-6.156-2.879l-11.234-13.488
				c-2.828-3.395-2.367-8.441,1.031-11.27c3.391-2.824,8.43-2.363,11.266,1.027l11.234,13.488c2.828,3.395,2.367,8.441-1.031,11.27
				C307.625,188.879,305.813,189.488,304.008,189.488z"/>
		</g>
	</g>
	<g>
		<g>
			<path style="fill:#B7D3E2;" d="M176,432V218.066c0-16.843,5.905-33.153,16.687-46.092L215.998,144h-56l-23.311,27.975
				C125.905,184.914,120,201.224,120,218.066V432c0,17.673,14.327,32,32,32h56C190.327,464,176,449.673,176,432z"/>
		</g>
	</g>
	<g>
		<g>
			<path style="fill:#B7D3E2;" d="M304,256h40v-16h-40c-4.418,0-8,3.582-8,8l0,0C296,252.418,299.582,256,304,256z"/>
		</g>
	</g>
	<g>
		<g>
			<path style="fill:#FFFFFF;" d="M312,440H152c-4.418,0-8-3.582-8-8V264h176v168C320,436.418,316.418,440,312,440z"/>
		</g>
	</g>
	<g>
		<g>
			<path style="fill:#E6F3FA;" d="M176,264h-32v168c0,4.418,3.582,8,8,8h25.131c-0.666-2.571-1.131-5.221-1.131-8V264z"/>
		</g>
	</g>
	<g>
		<g>
			<path style="fill:#B7D3E2;" d="M304,384h40v-16h-40c-4.418,0-8,3.582-8,8l0,0C296,380.418,299.582,384,304,384z"/>
		</g>
	</g>
	<g>
		<g>
			<path style="fill:#B7D3E2;" d="M320,352h24v-16h-24c-4.418,0-8,3.582-8,8l0,0C312,348.418,315.582,352,320,352z"/>
		</g>
	</g>
	<g>
		<g>
			<path style="fill:#B7D3E2;" d="M304,320h40v-16h-40c-4.418,0-8,3.582-8,8l0,0C296,316.418,299.582,320,304,320z"/>
		</g>
	</g>
	<g>
		<g>
			<path style="fill:#B7D3E2;" d="M320,288h24v-16h-24c-4.418,0-8,3.582-8,8l0,0C312,284.418,315.582,288,320,288z"/>
		</g>
	</g>
</g>
<g>
</g>
<g>
</g>
<g>
</g>
<g>
</g>
<g>
</g>
<g>
</g>
<g>
</g>
<g>
</g>
<g>
</g>
<g>
</g>
<g>
</g>
<g>
</g>
<g>
</g>
<g>
</g>
<g>
</g>
</svg>
