<?xml version="1.0" encoding="iso-8859-1"?>
<!-- Generator: Adobe Illustrator 19.0.0, SVG Export Plug-In . SVG Version: 6.00 Build 0)  -->
<svg version="1.1" id="Layer_1" xmlns="http://www.w3.org/2000/svg" xmlns:xlink="http://www.w3.org/1999/xlink" x="0px" y="0px"
	 viewBox="0 0 464 464" style="enable-background:new 0 0 464 464;" xml:space="preserve">
<g>
	<path style="fill:#E15050;" d="M99.958,216c8.357,0,16.527,1.736,24.042,5.023v28.179c-0.013-0.012-0.028-0.022-0.042-0.034
		c-6.594-5.914-15.125-9.168-24-9.168c-19.852,0-36,16.148-36,36v64c0,19.852,16.148,36,36,36c8.875,0,17.391-3.254,23.992-9.16
		c0.016-0.014,0.034-0.026,0.049-0.04v28.178c-7.513,3.286-15.683,5.022-24.042,5.022c-33.086,0-60-26.914-60-60v-64
		C39.958,242.915,66.872,216,99.958,216z"/>
	<g>
		<path style="fill:#D24146;" d="M124,249.202c-0.013-0.012-0.028-0.022-0.042-0.034c-5.585-5.009-12.562-8.101-19.958-8.932
			v-24.083c6.942,0.467,13.702,2.116,20,4.87V249.202z"/>
		<path style="fill:#D24146;" d="M104,375.765c7.393-0.832,14.359-3.922,19.951-8.925c0.016-0.014,0.034-0.026,0.049-0.04v28.178
			c-6.296,2.754-13.057,4.402-20,4.869C104,399.847,104,375.765,104,375.765z"/>
	</g>
	<path style="fill:#E15050;" d="M364.042,216c-8.357,0-16.527,1.736-24.042,5.023v28.179c0.013-0.012,0.028-0.022,0.042-0.034
		c6.594-5.914,15.125-9.168,24-9.168c19.852,0,36,16.148,36,36v64c0,19.852-16.148,36-36,36c-8.875,0-17.391-3.254-23.992-9.16
		c-0.016-0.014-0.034-0.026-0.049-0.04v28.178c7.513,3.286,15.683,5.022,24.042,5.022c33.086,0,60-26.914,60-60v-64
		C424.042,242.915,397.128,216,364.042,216z"/>
	<g>
		<path style="fill:#D24146;" d="M340,249.202c0.013-0.012,0.028-0.022,0.042-0.034c5.585-5.009,12.562-8.101,19.958-8.932v-24.083
			c-6.942,0.467-13.702,2.116-20,4.87V249.202z"/>
		<path style="fill:#D24146;" d="M360,375.765c-7.393-0.832-14.359-3.922-19.951-8.925c-0.016-0.014-0.034-0.026-0.049-0.04v28.178
			c6.296,2.754,13.057,4.402,20,4.869V375.765z"/>
	</g>
	<path style="fill:#FFC855;" d="M191.585,58.964C175.81,68.197,163.486,82.672,157,100h149.894
		c-6.508-17.387-18.893-31.902-34.745-41.13c-6.821-3.971-11.016-11.741-9.113-19.401c1.178-4.744,1.271-9.918-0.056-15.312
		c-2.836-11.52-12.248-20.85-23.84-23.373C218.332-3.746,199.948,11.98,199.948,32c0,2.533,0.306,4.986,0.879,7.335
		C202.716,47.087,198.47,54.933,191.585,58.964z"/>
	<path style="fill:#FFB44B;" d="M199.948,32c0,2.533,0.307,4.986,0.879,7.335c1.889,7.751-2.356,15.598-9.242,19.628
		C175.81,68.197,163.486,82.672,157,100h27.541c6.951-13.777,17.766-25.265,31.044-33.037c6.886-4.03,11.131-11.876,9.242-19.628
		c-0.572-2.349-0.879-4.803-0.879-7.335c0-16.762,12.901-30.463,29.308-31.837c-3.977-3.58-8.795-6.221-14.116-7.379
		C218.332-3.746,199.948,11.979,199.948,32z"/>
	<g>
		<g>
			<path style="fill:#E15050;" d="M304.041,144h-144c-8.837,0-16-7.163-16-16v-16c0-8.837,7.163-16,16-16h144
				c8.837,0,16,7.163,16,16v16C320.041,136.837,312.878,144,304.041,144z"/>
		</g>
	</g>
	<g>
		<g>
			<path style="fill:#D24146;" d="M208.041,128v-16c0-8.837,7.164-16,16-16h-64c-8.836,0-16,7.163-16,16v16c0,8.836,7.164,16,16,16
				h64C215.205,144,208.041,136.836,208.041,128z"/>
		</g>
	</g>
	<g>
		<g>
			<path style="fill:#FFC855;" d="M312.041,464h-160c-17.673,0-32-14.327-32-32V218.067c0-16.843,5.905-33.153,16.687-46.092
				L160.039,144h144.005l23.31,27.975c10.782,12.939,16.686,29.249,16.686,46.091V432C344.041,449.673,329.714,464,312.041,464z"/>
		</g>
	</g>
	<g>
		<g>
			<path style="fill:#FFB44B;" d="M176.041,432V218.066c0-16.843,5.905-33.153,16.687-46.092L216.039,144h-56l-23.311,27.975
				c-10.782,12.939-16.687,29.249-16.687,46.092V432c0,17.673,14.327,32,32,32h56C190.368,464,176.041,449.673,176.041,432z"/>
		</g>
	</g>
	<g>
		<g>
			<path style="fill:#FFC855;" d="M144.042,392c-4.422,0-8-3.582-8-8v-72c0-4.418,3.578-8,8-8s8,3.582,8,8v72
				C152.042,388.418,148.464,392,144.042,392z"/>
		</g>
	</g>
	<g>
		<g>
			<path style="fill:#FFC855;" d="M144.042,440c-4.422,0-8-3.582-8-8v-16c0-4.418,3.578-8,8-8s8,3.582,8,8v16
				C152.042,436.418,148.464,440,144.042,440z"/>
		</g>
	</g>
	<g>
		<g>
			<path style="fill:#FFD988;" d="M320.042,296c-4.422,0-8-3.582-8-8v-69.934c0-4.418,3.578-8,8-8s8,3.582,8,8V288
				C328.042,292.418,324.464,296,320.042,296z"/>
		</g>
	</g>
	<g>
		<g>
			<path style="fill:#FFE9BB;" d="M308.924,195.34c-2.297,0-4.57-0.98-6.156-2.879l-12.875-15.453
				c-2.828-3.395-2.367-8.438,1.031-11.266c3.391-2.828,8.43-2.367,11.266,1.023l12.875,15.453
				c2.828,3.395,2.367,8.438-1.031,11.266C312.542,194.73,310.729,195.34,308.924,195.34z"/>
		</g>
	</g>
	<path style="fill:#AF5050;" d="M232.041,262v-1.368c0-19.386-7.158-28.632-7.158-28.632l-7.158,7.158
		c0,0,9.361,9.194,13.126,22.842H232.041z"/>
	<g>
		<g>
			<g>
				<path style="fill:#E15050;" d="M270.202,254.967c-8.605-2.842-17.698-1.515-26.101,3.035c-7.561,4.093-16.559,4.093-24.12,0
					c-8.403-4.549-17.496-5.877-26.101-3.035c-21.679,7.16-31.988,37.933-23.028,68.732s33.798,49.962,55.477,42.801
					c2.017-0.666,3.899-1.599,5.713-2.655c1.813,1.056,3.696,1.989,5.713,2.655c21.678,7.161,46.516-12.002,55.477-42.801
					S291.881,262.127,270.202,254.967z"/>
			</g>
		</g>
	</g>
	<g>
		<g>
			<g>
				<path style="fill:#F08C53;" d="M247.098,353.684c-3.956,0-7.158-3.205-7.158-7.158s3.201-7.158,7.158-7.158
					c4.103,0,14.12-8.13,18.643-23.669c1.104-3.792,5.033-5.98,8.87-4.876c3.796,1.104,5.977,5.078,4.872,8.874
					C273.849,339.075,259.925,353.684,247.098,353.684z"/>
			</g>
		</g>
	</g>
	<g>
		<g>
			<g>
				<path style="fill:#FFC855;" d="M273.388,296.379c-3.125,0-6.005-2.069-6.885-5.232c-1.671-5.977-4.327-8.678-5.278-8.993
					c-3.754-1.241-5.795-5.292-4.551-9.042c1.237-3.754,5.292-5.795,9.038-4.554c6.536,2.16,11.848,8.989,14.574,18.73
					c1.063,3.81-1.16,7.759-4.963,8.822C274.681,296.292,274.031,296.379,273.388,296.379z"/>
			</g>
		</g>
	</g>
	<g>
		<g>
			<g>
				<g>
					<path style="fill:#D24146;" d="M199.484,323.699c-8.279-28.455-0.085-56.844,18.302-66.654
						c-7.784-3.649-16.037-4.677-23.905-2.078c-21.679,7.161-31.989,37.933-23.028,68.733c8.96,30.799,33.798,49.962,55.476,42.801
						c1.562-0.516,2.994-1.288,4.426-2.057C217.19,357.996,205.155,343.192,199.484,323.699z"/>
				</g>
			</g>
		</g>
	</g>
</g>
<g>
</g>
<g>
</g>
<g>
</g>
<g>
</g>
<g>
</g>
<g>
</g>
<g>
</g>
<g>
</g>
<g>
</g>
<g>
</g>
<g>
</g>
<g>
</g>
<g>
</g>
<g>
</g>
<g>
</g>
</svg>
