<?xml version="1.0" encoding="iso-8859-1"?>
<!-- Generator: Adobe Illustrator 19.0.0, SVG Export Plug-In . SVG Version: 6.00 Build 0)  -->
<svg version="1.1" id="Layer_1" xmlns="http://www.w3.org/2000/svg" xmlns:xlink="http://www.w3.org/1999/xlink" x="0px" y="0px"
	 viewBox="0 0 464.05 464.05" style="enable-background:new 0 0 464.05 464.05;" xml:space="preserve">
<g>
	<g>
		<g>
			<path style="fill:#84787E;" d="M263.033,116.019h-62c-0.552,0-1-0.448-1-1v-23c0-4.418,3.582-8,8-8h48c4.418,0,8,3.582,8,8v23
				C264.033,115.571,263.585,116.019,263.033,116.019z"/>
		</g>
	</g>
	<g>
		<g>
			<path style="fill:#FF6472;" d="M460.9,303.074l-56-184c-5.602-18.398-18.039-33.523-35.016-42.57
				c-16.969-9.047-36.438-10.953-54.828-5.352c-15.961,4.867-29.594,15.039-38.828,28.883h-88.406
				c-9.234-13.844-22.867-24.016-38.82-28.883c-18.375-5.586-37.852-3.695-54.836,5.352c-16.977,9.047-29.414,24.172-35.016,42.57
				l-56,184c-5.594,18.398-3.695,37.875,5.359,54.844c9.047,16.969,24.164,29.398,42.563,35c6.836,2.078,13.898,3.133,20.984,3.133
				c31.898,0,59.57-20.516,68.859-51.055l20.281-66.625c0.235-0.777,0.223-1.553,0.222-2.326l141.227,0.049
				c-0.001,0.774-0.013,1.553,0.223,2.332l20.266,66.57c9.289,30.539,36.961,51.055,68.859,51.055
				c7.086,0,14.148-1.055,20.984-3.133c18.398-5.602,33.516-18.031,42.563-35C464.595,340.949,466.494,321.472,460.9,303.074z"/>
		</g>
	</g>
	<g>
		<g>
			<g>
				<path style="fill:#D25566;" d="M360.02,72.234c-14.43-5.145-30.042-5.627-44.964-1.082
					c-15.961,4.867-29.594,15.039-38.828,28.883h18.424c16.339,0,31.833-6.166,44.629-16.326
					C345.466,78.798,352.459,74.917,360.02,72.234z"/>
			</g>
		</g>
		<g>
			<g>
				<g>
					<path style="fill:#D25566;" d="M371.167,344.995l-7.018-21.636c-9.142-28.184-35.394-47.274-65.023-47.284l-89.674-0.031
						c0,0.006-0.001,0.012-0.001,0.012l93.195,0.037c-0.001,0.774-0.013,1.553,0.223,2.332l19.644,64.53
						c5.453,17.913,16.879,33.796,33.075,43.192c18.02,10.454,38.564,12.493,57.39,6.77c0.979-0.298,1.909-0.691,2.869-1.028
						C394.775,384.441,377.996,367.445,371.167,344.995z"/>
				</g>
			</g>
		</g>
		<g>
			<g>
				<path style="fill:#D25566;" d="M56.542,357.917c-9.055-16.969-10.953-36.445-5.359-54.844l56-184
					c5.602-18.398,18.039-33.523,35.016-42.57c3.203-1.706,6.517-3.074,9.873-4.269c-1.022-0.363-2.027-0.765-3.07-1.083
					c-18.375-5.586-37.852-3.695-54.836,5.352c-16.977,9.047-29.414,24.172-35.016,42.57l-56,184
					c-5.594,18.398-3.695,37.875,5.359,54.844c9.047,16.969,24.164,29.398,42.563,35c6.836,2.078,13.898,3.133,20.984,3.133
					c8.45,0,16.586-1.477,24.179-4.161C79.154,385.904,65.107,373.984,56.542,357.917z"/>
			</g>
		</g>
	</g>
	<g>
		<g>
			<circle style="fill:#84787E;" cx="128.033" cy="180.019" r="64"/>
		</g>
	</g>
	<g>
		<g>
			<circle style="fill:#5F505A;" cx="180.033" cy="248.048" r="36"/>
		</g>
	</g>
	<g>
		<g>
			<g>
				<path style="fill:#5F505A;" d="M128.033,168.019c-6.625,0-12-5.375-12-12v-16c0-6.625,5.375-12,12-12s12,5.375,12,12v16
					C140.033,162.644,134.658,168.019,128.033,168.019z"/>
			</g>
		</g>
	</g>
	<g>
		<g>
			<g>
				<path style="fill:#5F505A;" d="M128.033,232.019c-6.625,0-12-5.375-12-12v-16c0-6.625,5.375-12,12-12s12,5.375,12,12v16
					C140.033,226.644,134.658,232.019,128.033,232.019z"/>
			</g>
		</g>
	</g>
	<g>
		<g>
			<g>
				<path style="fill:#5F505A;" d="M104.033,192.05h-16c-6.625,0-12-5.375-12-12s5.375-12,12-12h16c6.625,0,12,5.375,12,12
					S110.658,192.05,104.033,192.05z"/>
			</g>
		</g>
	</g>
	<g>
		<g>
			<g>
				<path style="fill:#5F505A;" d="M168.033,192.05h-16c-6.625,0-12-5.375-12-12s5.375-12,12-12h16c6.625,0,12,5.375,12,12
					S174.658,192.05,168.033,192.05z"/>
			</g>
		</g>
	</g>
	<g>
		<g>
			<circle style="fill:#84787E;" cx="336.033" cy="180.019" r="64"/>
		</g>
	</g>
	<g>
		<g>
			<circle style="fill:#D25566;" cx="232.033" cy="180.038" r="16"/>
		</g>
	</g>
	<g>
		<g>
			<circle style="fill:#84787E;" cx="180.033" cy="248.048" r="20"/>
		</g>
	</g>
	<g>
		<g>
			<circle style="fill:#5F505A;" cx="284.033" cy="248.048" r="36"/>
		</g>
	</g>
	<g>
		<g>
			<circle style="fill:#84787E;" cx="284.033" cy="248.048" r="20"/>
		</g>
	</g>
	<g>
		<g>
			<circle style="fill:#00BEA5;" cx="336.033" cy="148.019" r="16"/>
		</g>
	</g>
	<g>
		<g>
			<circle style="fill:#33CBDB;" cx="336.033" cy="212.019" r="16"/>
		</g>
	</g>
	<g>
		<g>
			<circle style="fill:#FF6472;" cx="368.033" cy="180.019" r="16"/>
		</g>
	</g>
	<g>
		<g>
			<circle style="fill:#FFC855;" cx="304.033" cy="180.019" r="16"/>
		</g>
	</g>
	<g>
		<g>
			<g>
				<path style="fill:#FF838E;" d="M96.041,373.699c-2.773,0-5.461-1.438-6.945-4.008c-2.203-3.836-0.883-8.727,2.945-10.93
					c8.789-5.047,15.273-13.242,18.258-23.078l2.078-6.828c1.289-4.227,5.758-6.609,9.984-5.328
					c4.227,1.289,6.609,5.758,5.328,9.984l-2.078,6.828c-4.18,13.734-13.266,25.203-25.586,32.297
					C98.767,373.355,97.392,373.699,96.041,373.699z"/>
			</g>
		</g>
	</g>
	<g>
		<g>
			<g>
				<path style="fill:#FFA2AA;" d="M129.517,308.019c-0.773,0-1.555-0.109-2.328-0.344c-4.227-1.289-6.609-5.758-5.328-9.984
					l4.875-16c1.289-4.234,5.781-6.602,9.984-5.328c4.227,1.289,6.609,5.758,5.328,9.984l-4.875,16
					C136.119,305.8,132.947,308.019,129.517,308.019z"/>
			</g>
		</g>
	</g>
	<g>
		<g>
			<g>
				<path style="fill:#FF838E;" d="M424.033,367.831c-2.195,0-4.375-0.898-5.961-2.664c-2.945-3.289-2.672-8.344,0.625-11.297
					c3.484-3.117,6.375-6.82,8.602-11c5.031-9.438,6.094-20.258,2.984-30.484l-12.797-42.055c-1.281-4.227,1.102-8.695,5.328-9.984
					c4.234-1.281,8.695,1.102,9.984,5.328l12.797,42.055c4.344,14.313,2.867,29.469-4.18,42.664
					c-3.102,5.836-7.156,11.016-12.047,15.398C427.845,367.159,425.939,367.831,424.033,367.831z"/>
			</g>
		</g>
	</g>
	<g>
		<g>
			<g>
				<path style="fill:#FFA2AA;" d="M416.048,246.128c-3.43,0-6.602-2.219-7.656-5.672l-5.516-18.117
					c-1.281-4.227,1.102-8.695,5.328-9.984c4.242-1.281,8.695,1.102,9.984,5.328l5.516,18.117c1.281,4.227-1.102,8.695-5.328,9.984
					C417.603,246.019,416.814,246.128,416.048,246.128z"/>
			</g>
		</g>
	</g>
</g>
<g>
</g>
<g>
</g>
<g>
</g>
<g>
</g>
<g>
</g>
<g>
</g>
<g>
</g>
<g>
</g>
<g>
</g>
<g>
</g>
<g>
</g>
<g>
</g>
<g>
</g>
<g>
</g>
<g>
</g>
</svg>
