<?xml version="1.0" encoding="iso-8859-1"?>
<!-- Generator: Adobe Illustrator 19.0.0, SVG Export Plug-In . SVG Version: 6.00 Build 0)  -->
<svg version="1.1" id="Layer_1" xmlns="http://www.w3.org/2000/svg" xmlns:xlink="http://www.w3.org/1999/xlink" x="0px" y="0px"
	 viewBox="0 0 464 464" style="enable-background:new 0 0 464 464;" xml:space="preserve">
<g>
	<g>
		<g>
			<path style="fill:#00BEA5;" d="M328,464H136c-22.091,0-40-17.909-40-40V40c0-22.091,17.909-40,40-40h192
				c22.091,0,40,17.909,40,40v384C368,446.091,350.091,464,328,464z"/>
		</g>
	</g>
	<g>
		<g>
			<path style="fill:#FFC855;" d="M327,240H137c-0.552,0-1-0.448-1-1V41c0-0.552,0.448-1,1-1h190c0.552,0,1,0.448,1,1v198
				C328,239.552,327.552,240,327,240z"/>
		</g>
	</g>
	<path style="fill:#FF6472;" d="M208,304h-16v-16c0-8.836-7.163-16-16-16l0,0c-8.836,0-16,7.163-16,16v16h-16
		c-8.837,0-16,7.163-16,16c0,8.836,7.163,16,16,16h16v16c0,8.836,7.163,16,16,16l0,0c8.837,0,16-7.164,16-16v-16h16
		c8.836,0,16-7.164,16-16C224,311.163,216.837,304,208,304z"/>
	<g>
		<g>
			<circle style="fill:#D25566;" cx="176" cy="320" r="16"/>
		</g>
	</g>
	<g>
		<g>
			<path style="fill:#FF6472;" d="M276,320c-11.031,0-20,8.969-20,20s8.969,20,20,20s20-8.969,20-20S287.031,320,276,320z"/>
		</g>
	</g>
	<g>
		<g>
			<path style="fill:#D25566;" d="M272,340c0-8.184,4.948-15.213,12-18.307c-2.454-1.076-5.152-1.693-8-1.693
				c-11.031,0-20,8.969-20,20s8.969,20,20,20c2.848,0,5.546-0.617,8-1.693C276.948,355.213,272,348.184,272,340z"/>
		</g>
	</g>
	<g>
		<g>
			<path style="fill:#FF6472;" d="M316,280c-11.031,0-20,8.969-20,20s8.969,20,20,20s20-8.969,20-20S327.031,280,316,280z"/>
		</g>
	</g>
	<g>
		<g>
			<path style="fill:#D25566;" d="M312,300c0-8.184,4.948-15.213,12-18.307c-2.454-1.076-5.152-1.693-8-1.693
				c-11.031,0-20,8.969-20,20s8.969,20,20,20c2.848,0,5.546-0.617,8-1.693C316.948,315.213,312,308.184,312,300z"/>
		</g>
	</g>
	<g>
		<g>
			<path style="fill:#009D93;" d="M200,432L200,432c-4.418,0-8-3.582-8-8v-24c0-4.418,3.582-8,8-8l0,0c4.418,0,8,3.582,8,8v24
				C208,428.418,204.418,432,200,432z"/>
		</g>
	</g>
	<g>
		<g>
			<path style="fill:#009D93;" d="M232,432L232,432c-4.418,0-8-3.582-8-8v-24c0-4.418,3.582-8,8-8l0,0c4.418,0,8,3.582,8,8v24
				C240,428.418,236.418,432,232,432z"/>
		</g>
	</g>
	<g>
		<g>
			<path style="fill:#009D93;" d="M264,432L264,432c-4.418,0-8-3.582-8-8v-24c0-4.418,3.582-8,8-8l0,0c4.418,0,8,3.582,8,8v24
				C272,428.418,268.418,432,264,432z"/>
		</g>
	</g>
	<g>
		<g>
			<rect x="152" y="56" style="fill:#FFC855;" width="160" height="168"/>
		</g>
	</g>
	<g>
		<g>
			<path style="fill:#FFB44B;" d="M320,40H144c-4.418,0-8,3.582-8,8v184c0,4.418,3.582,8,8,8h176c4.418,0,8-3.582,8-8V48
				C328,43.582,324.418,40,320,40z M312,224H152V56h160V224z"/>
		</g>
	</g>
	<g>
		<g>
			<path style="fill:#00AA9A;" d="M320,40c4.418,0,8,3.582,8,8v184c0,4.418-3.582,8-8,8H144c-4.418,0-8-3.582-8-8V48
				c0-4.418,3.582-8,8-8H320 M320,24H144c-13.234,0-24,10.767-24,24v184c0,13.233,10.766,24,24,24h176c13.234,0,24-10.767,24-24V48
				C344,34.767,333.234,24,320,24L320,24z"/>
		</g>
	</g>
</g>
<g>
</g>
<g>
</g>
<g>
</g>
<g>
</g>
<g>
</g>
<g>
</g>
<g>
</g>
<g>
</g>
<g>
</g>
<g>
</g>
<g>
</g>
<g>
</g>
<g>
</g>
<g>
</g>
<g>
</g>
</svg>
