<?xml version="1.0" encoding="iso-8859-1"?>
<!-- Generator: Adobe Illustrator 19.0.0, SVG Export Plug-In . SVG Version: 6.00 Build 0)  -->
<svg version="1.1" id="Layer_1" xmlns="http://www.w3.org/2000/svg" xmlns:xlink="http://www.w3.org/1999/xlink" x="0px" y="0px"
	 viewBox="0 0 464 464" style="enable-background:new 0 0 464 464;" xml:space="preserve">
<g>
	<path style="fill:#FFC3A0;" d="M251.99,188.468V183h-48v5.468c0,6.887-4.407,13.001-10.94,15.179l-8.617,2.873
		c3.151,21.208,21.431,37.48,43.516,37.48c22.094,0,40.38-16.286,43.519-37.507l-8.537-2.846
		C256.396,201.469,251.99,195.355,251.99,188.468z"/>
	<g>
		<g>
			<path style="fill:#734B46;" d="M324,176H132V80c0-44.183,35.817-80,80-80h32c44.183,0,80,35.817,80,80V176z"/>
		</g>
	</g>
	<g>
		<g>
			<rect x="180" y="373" style="fill:#FFD6B3;" width="32" height="67"/>
		</g>
	</g>
	<g>
		<g>
			<rect x="244" y="373" style="fill:#FFD6B3;" width="32" height="67"/>
		</g>
	</g>
	<path style="fill:#FFD6B3;" d="M148,224v96c-4.418,0-8,3.582-8,8v8c0,13.255,10.745,24,24,24h8V224H148z"/>
	<path style="fill:#FFD6B3;" d="M308,320v-96h-24v136h8c13.255,0,24-10.745,24-24v-8C316,323.582,312.418,320,308,320z"/>
	<g>
		<g>
			<path style="fill:#FFE5D1;" d="M308,96V80c0-8.837-7.163-16-16-16H164c-8.837,0-16,7.163-16,16v55.513
				c0,14.891,8.77,28.385,22.377,34.433l42.315,18.806c4.818,2.142,10.031,3.248,15.304,3.248h0.008
				c5.272,0,10.485-1.106,15.303-3.248l42.315-18.806C299.23,163.898,308,150.404,308,135.513V128c8.836,0,16-7.164,16-16
				C324,103.163,316.836,96,308,96z"/>
		</g>
	</g>
	<g>
		<g>
			<g>
				<path style="fill:#FFD6B3;" d="M196,168c-9.75-5.5-16-17.597-16-32.487V80c0-8.837,7.164-16,16-16h-32c-8.836,0-16,7.163-16,16
					v55.513c0,14.891,8.77,28.386,22.377,34.433l42.315,18.807c4.818,2.142,10.031,3.248,15.304,3.248h0.008
					c3.116,0,6.178-0.504,9.183-1.262L196,168z"/>
			</g>
		</g>
	</g>
	<g>
		<g>
			<path style="fill:#6E4141;" d="M188,128L188,128c-4.418,0-8-3.582-8-8v-8c0-4.418,3.582-8,8-8l0,0c4.418,0,8,3.582,8,8v8
				C196,124.418,192.418,128,188,128z"/>
		</g>
	</g>
	<g>
		<g>
			<path style="fill:#6E4141;" d="M268,128L268,128c-4.418,0-8-3.582-8-8v-8c0-4.418,3.582-8,8-8l0,0c4.418,0,8,3.582,8,8v8
				C276,124.418,272.418,128,268,128z"/>
		</g>
	</g>
	<g>
		<g>
			<path style="fill:#E6B996;" d="M228.305,168c-8.375,0-16.438-2.102-23.305-6.074c-3.82-2.215-5.133-7.109-2.914-10.934
				c2.211-3.824,7.078-5.125,10.93-2.918c8.875,5.141,21.703,5.141,30.578,0c3.836-2.207,8.719-0.906,10.93,2.918
				c2.219,3.824,0.906,8.719-2.914,10.934C244.742,165.898,236.68,168,228.305,168z"/>
		</g>
	</g>
	<g>
		<g>
			<path style="fill:#FF6472;" d="M311.659,212.474l-34.586-9.882c-4.329-1.237-9.006,1.299-9.935,5.704
				C263.319,226.407,247.247,240,228,240s-35.319-13.593-39.138-31.703c-0.929-4.405-5.607-6.941-9.935-5.704l-34.586,9.882
				c-5.817,1.662-8.012,8.751-4.153,13.41L164,254.627l-7.438,112.847c-0.304,4.615,3.357,8.526,7.983,8.526h126.911
				c4.625,0,8.287-3.911,7.983-8.526L292,254.627l23.812-28.743C319.672,221.225,317.476,214.136,311.659,212.474z"/>
		</g>
	</g>
	<g>
		<g>
			<path style="fill:#FF6472;" d="M220,464v-24c0-4.518-3.576-8-8-8l0,0l0,0c-4.583,4.581-11.439,6.067-17.458,3.663
				C189.83,433.782,184.247,432,180,432c-23.75,0-32,16-32,16v16H220z"/>
		</g>
	</g>
	<g>
		<g>
			<rect x="148" y="448" style="fill:#D25566;" width="72" height="16"/>
		</g>
	</g>
	<g>
		<g>
			<path style="fill:#FF6472;" d="M236,464v-24c0-4.518,3.576-8,8-8l0,0l0,0c4.583,4.581,11.439,6.067,17.458,3.663
				C266.17,433.782,271.753,432,276,432c23.75,0,32,16,32,16v16H236z"/>
		</g>
	</g>
	<g>
		<g>
			<rect x="236" y="448" style="fill:#D25566;" width="72" height="16"/>
		</g>
	</g>
	<g>
		<g>
			<path style="fill:#734B46;" d="M292,58c-50.414,33.778-145.5,64-145.5,64V58H292z"/>
		</g>
	</g>
	<g>
		<g>
			<polygon style="fill:#FFC855;" points="292.724,265.616 275.969,276.773 251.922,260.773 227.938,276.766 203.945,260.766 
				179.961,276.766 163.275,265.617 162.061,284.052 179.961,296 203.945,280 227.938,296 251.938,279.992 275.969,295.992 
				293.938,284.029 			"/>
		</g>
	</g>
	<g>
		<g>
			<polygon style="fill:#FFC855;" points="294.949,299.369 275.969,312.008 251.922,296.008 227.938,312 203.945,296 179.961,312 
				161.051,299.365 159.836,317.801 179.961,331.234 203.945,315.234 227.938,331.234 251.938,315.227 275.969,331.227 
				296.163,317.782 			"/>
		</g>
	</g>
	<g>
		<g>
			<g>
				<path style="fill:#A5465A;" d="M300,45.323c0,6.627-13.373,12-20,12s-12-5.373-12-12s5.373-12,12-12S300,38.695,300,45.323z"/>
			</g>
		</g>
		<g>
			<g>
				<path style="fill:#A5465A;" d="M300,45.323c0-6.627,13.373-12,20-12s12,5.373,12,12s-5.373,12-12,12S300,51.95,300,45.323z"/>
			</g>
		</g>
		<g>
			<g>
				<path style="fill:#FF6472;" d="M300,45.323c5.74,3.314,3.706,17.581,0.392,23.321S289.74,76.349,284,73.035
					s-7.706-10.653-4.392-16.392S294.26,42.009,300,45.323z"/>
			</g>
		</g>
		<g>
			<g>
				<path style="fill:#FF6472;" d="M300,45.323c-5.74-3.314-3.706-17.581-0.392-23.321S310.26,14.296,316,17.61
					s7.706,10.653,4.392,16.392S305.74,48.636,300,45.323z"/>
			</g>
		</g>
		<g>
			<g>
				<path style="fill:#D25566;" d="M300,45.323c-5.74,3.314-3.706,17.581-0.392,23.321S310.26,76.349,316,73.035
					s7.706-10.653,4.392-16.392S305.74,42.009,300,45.323z"/>
			</g>
		</g>
		<g>
			<g>
				<path style="fill:#D25566;" d="M300,45.323c5.74-3.314,3.706-17.581,0.392-23.321S289.74,14.296,284,17.61
					s-7.706,10.653-4.392,16.392S294.26,48.636,300,45.323z"/>
			</g>
		</g>
		<g>
			<g>
				<circle style="fill:#FFFFFF;" cx="300" cy="45.323" r="8"/>
			</g>
		</g>
	</g>
</g>
<g>
</g>
<g>
</g>
<g>
</g>
<g>
</g>
<g>
</g>
<g>
</g>
<g>
</g>
<g>
</g>
<g>
</g>
<g>
</g>
<g>
</g>
<g>
</g>
<g>
</g>
<g>
</g>
<g>
</g>
</svg>
