<?xml version="1.0" encoding="iso-8859-1"?>
<!-- Generator: Adobe Illustrator 19.0.0, SVG Export Plug-In . SVG Version: 6.00 Build 0)  -->
<svg version="1.1" id="Layer_1" xmlns="http://www.w3.org/2000/svg" xmlns:xlink="http://www.w3.org/1999/xlink" x="0px" y="0px"
	 viewBox="0 0 464 464" style="enable-background:new 0 0 464 464;" xml:space="preserve">
<g>
	<rect x="232" y="331.995" style="fill:#FFA03C;" width="16" height="32"/>
	<rect x="304" y="331.995" style="fill:#FFA03C;" width="16" height="32"/>
	<g>
		<g>
			<path style="fill:#E1913C;" d="M264,151.995h-16V96c0-4.418,3.582-8,8-8l0,0c4.418,0,8,3.582,8,8V151.995z"/>
		</g>
	</g>
	<g>
		<g>
			<path style="fill:#FF6472;" d="M313.397,184H73.285l-6.04-18.119C62.889,152.814,50.66,144,36.887,144h-8.602
				c-4.418,0-8,3.582-8,8v40c0,13.255,10.745,24,24,24H150.38c6.98,0,13.155,4.525,15.257,11.182l25.536,80.863
				C196.427,324.686,211.864,336,229.316,336H316c43.648,0,78.702-36.795,75.836-81.059C389.221,214.547,353.876,184,313.397,184z"
				/>
		</g>
	</g>
	<g>
		<g>
			<path style="fill:#D25566;" d="M229.315,336H312v-96c0-22.092-17.909-40-40-40h-16c-22.091,0-40,17.908-40,40v93.664
				C220.201,335.15,224.676,336,229.315,336z"/>
		</g>
	</g>
	<g>
		<g>
			<path style="fill:#FFC855;" d="M44.284,176c6.248,6.248-10.722,33.35-16.971,39.598c-6.248,6.248-16.379,6.248-22.627,0
				s-6.248-16.379,0-22.627C10.935,186.722,38.036,169.752,44.284,176z"/>
		</g>
	</g>
	<g>
		<g>
			<path style="fill:#FFC855;" d="M44.284,176c-6.248-6.248,10.722-33.35,16.971-39.598c6.248-6.248,16.379-6.248,22.627,0
				s6.248,16.379,0,22.627C77.634,165.278,50.533,182.248,44.284,176z"/>
		</g>
	</g>
	<g>
		<g>
			<circle style="fill:#FFB44B;" cx="44.284" cy="176" r="16"/>
		</g>
	</g>
	<g>
		<g>
			<path style="fill:#FFB44B;" d="M280,184h-48l6.714-33.569c0.748-3.739,4.031-6.431,7.845-6.431h18.883
				c3.813,0,7.097,2.692,7.845,6.431L280,184z"/>
		</g>
	</g>
	<g>
		<g>
			<path style="fill:#FFA03C;" d="M262.559,144h-16c-3.813,0-7.097,2.691-7.845,6.432L232,184h16l6.714-33.568
				C255.461,146.691,258.745,144,262.559,144z"/>
		</g>
	</g>
	<g>
		<g>
			<path style="fill:#FFC855;" d="M456,120H56c-4.418,0-8-3.582-8-8l0,0c0-4.418,3.582-8,8-8h400c4.418,0,8,3.582,8,8l0,0
				C464,116.418,460.418,120,456,120z"/>
		</g>
	</g>
	<g>
		<g>
			<path style="fill:#FFA03C;" d="M248,120H56c-4.418,0-8-3.582-8-8l0,0c0-4.418,3.582-8,8-8h192c4.418,0,8,3.582,8,8l0,0
				C256,116.418,252.418,120,248,120z"/>
		</g>
	</g>
	<g>
		<g>
			<path style="fill:#00DCEB;" d="M352,304h25.867c9.757-13.693,15.157-30.708,13.969-49.059
				c-0.946-14.605-6.216-27.89-14.414-38.941H352c-13.255,0-24,10.745-24,24v40C328,293.255,338.745,304,352,304z"/>
		</g>
	</g>
	<g>
		<g>
			<path style="fill:#00DCEB;" d="M256,216h16c13.255,0,24,10.745,24,24v40c0,13.255-10.745,24-24,24h-16c-13.255,0-24-10.745-24-24
				v-40C232,226.745,242.745,216,256,216z"/>
		</g>
	</g>
	<g>
		<g>
			<path style="fill:#FFC855;" d="M359.43,376H176c-4.422,0-8-3.578-8-8s3.578-8,8-8h183.43c8.547,0,16.586-3.328,22.633-9.375
				l4.281-4.281c3.125-3.125,8.188-3.125,11.313,0s3.125,8.188,0,11.313l-4.281,4.281C384.305,371.008,372.25,376,359.43,376z"/>
		</g>
	</g>
</g>
<g>
</g>
<g>
</g>
<g>
</g>
<g>
</g>
<g>
</g>
<g>
</g>
<g>
</g>
<g>
</g>
<g>
</g>
<g>
</g>
<g>
</g>
<g>
</g>
<g>
</g>
<g>
</g>
<g>
</g>
</svg>
