<?xml version="1.0" encoding="iso-8859-1"?>
<!-- Generator: Adobe Illustrator 19.0.0, SVG Export Plug-In . SVG Version: 6.00 Build 0)  -->
<svg version="1.1" id="Layer_1" xmlns="http://www.w3.org/2000/svg" xmlns:xlink="http://www.w3.org/1999/xlink" x="0px" y="0px"
	 viewBox="0 0 464 464" style="enable-background:new 0 0 464 464;" xml:space="preserve">
<g>
	<path style="fill:#FFE0CC;" d="M249.5,321h-35l-5.41,119.025C208.496,453.086,218.925,464,232,464l0,0
		c13.075,0,23.504-10.914,22.91-23.975L249.5,321z"/>
	<polygon style="fill:#EBCDB4;" points="250.545,344 249.5,321 214.5,321 213.454,344 	"/>
	<g>
		<g>
			<g>
				<path style="fill:#FFC855;" d="M170.427,328h123.146c18.593,0,33.272-15.792,31.915-34.335L309.253,71.789
					C306.292,31.321,272.596,0,232.019,0h-0.039c-40.576,0-74.272,31.321-77.234,71.789l-16.235,221.876
					C137.156,312.208,151.834,328,170.427,328z"/>
			</g>
		</g>
	</g>
	<g>
		<g>
			<g>
				<path style="fill:#8C5F56;" d="M231.981,0H232v328h-61.573c-18.593,0-33.272-15.792-31.915-34.335l16.235-221.876
					C157.708,31.32,191.404,0,231.981,0z"/>
			</g>
		</g>
	</g>
	<g>
		<g>
			<path style="fill:#734B46;" d="M163.586,287.992c-0.195,0-0.391-0.008-0.594-0.023c-4.406-0.32-7.719-4.156-7.391-8.563
				l1.172-15.992c0.32-4.398,4.047-7.695,8.563-7.391c4.406,0.32,7.719,4.156,7.391,8.563l-1.172,15.992
				C171.25,284.781,167.742,287.992,163.586,287.992z"/>
		</g>
	</g>
	<g>
		<g>
			<path style="fill:#7F554E;" d="M167.094,240c-0.195,0-0.391-0.008-0.594-0.023c-4.406-0.32-7.719-4.156-7.391-8.563l5.859-80
				c0.32-4.398,4.031-7.703,8.563-7.391c4.406,0.32,7.719,4.156,7.391,8.563l-5.859,80C174.758,236.789,171.25,240,167.094,240z"/>
		</g>
	</g>
	<g>
		<g>
			<path style="fill:#FFD680;" d="M292.805,184.008c-4.156,0-7.664-3.211-7.969-7.414l-7.023-96.008
				c-0.328-4.406,2.984-8.242,7.391-8.563c4.516-0.375,8.242,2.992,8.563,7.391l7.023,96.008c0.328,4.406-2.984,8.242-7.391,8.563
				C293.195,184,293,184.008,292.805,184.008z"/>
		</g>
	</g>
	<g>
		<g>
			<path style="fill:#FFDE99;" d="M276.562,56c-2.586,0-5.125-1.25-6.664-3.57c-3.625-5.438-8.484-10.148-14.055-13.617
				c-3.75-2.328-4.898-7.266-2.563-11.016c2.336-3.758,7.273-4.898,11.016-2.563c7.5,4.664,14.039,11,18.914,18.336
				c2.453,3.68,1.453,8.641-2.227,11.086C279.625,55.57,278.086,56,276.562,56z"/>
		</g>
	</g>
</g>
<g>
</g>
<g>
</g>
<g>
</g>
<g>
</g>
<g>
</g>
<g>
</g>
<g>
</g>
<g>
</g>
<g>
</g>
<g>
</g>
<g>
</g>
<g>
</g>
<g>
</g>
<g>
</g>
<g>
</g>
</svg>
