<?xml version="1.0" encoding="iso-8859-1"?>
<!-- Generator: Adobe Illustrator 19.0.0, SVG Export Plug-In . SVG Version: 6.00 Build 0)  -->
<svg version="1.1" id="Layer_1" xmlns="http://www.w3.org/2000/svg" xmlns:xlink="http://www.w3.org/1999/xlink" x="0px" y="0px"
	 viewBox="0 0 464 464" style="enable-background:new 0 0 464 464;" xml:space="preserve">
<g>
	<g>
		<g>
			<g>
				<path style="fill:#8C5F56;" d="M232,464c-33.086,0-60-26.914-60-60v-60c0-4.422,3.578-8,8-8s8,3.578,8,8v60
					c0,24.258,19.742,44,44,44s44-19.742,44-44v-40c0-33.086,26.914-60,60-60h68c4.422,0,8,3.578,8,8s-3.578,8-8,8h-68
					c-24.258,0-44,19.742-44,44v40C292,437.086,265.086,464,232,464z"/>
			</g>
		</g>
	</g>
	<g>
		<g>
			<polygon style="fill:#FFC855;" points="180,360 308,120 180,120 			"/>
		</g>
	</g>
	<g>
		<g>
			<polygon style="fill:#E15050;" points="180,0 180,120 52,120 			"/>
		</g>
	</g>
	<g>
		<g>
			<polygon style="fill:#00BED2;" points="180,0 180,120 308,120 			"/>
		</g>
	</g>
	<g>
		<g>
			<polygon style="fill:#00BEA5;" points="180,120 180,360 52,120 			"/>
		</g>
	</g>
	<g>
		<g>
			<path style="fill:#E15050;" d="M180,392v-16l-37.47-12.49c-5.18-1.727-10.53,2.129-10.53,7.589V396.9
				c0,5.46,5.35,9.316,10.53,7.589L180,392z"/>
		</g>
	</g>
	<g>
		<g>
			<path style="fill:#E15050;" d="M180,392v-16l37.47-12.49c5.18-1.727,10.53,2.129,10.53,7.589V396.9
				c0,5.46-5.35,9.316-10.53,7.589L180,392z"/>
		</g>
	</g>
	<g>
		<g>
			<path style="fill:#D24146;" d="M183.751,396h-8c-4.418,0-8-3.582-8-8v-8c0-4.418,3.582-8,8-8h8c4.418,0,8,3.582,8,8v8
				C191.751,392.418,188.169,396,183.751,396z"/>
		</g>
	</g>
	<g>
		<g>
			<path style="fill:#FFC855;" d="M291.751,336.249l11.314-11.314l-17.664-35.327c-2.442-4.884-8.951-5.94-12.812-2.079
				l-18.244,18.244c-3.861,3.861-2.805,10.37,2.079,12.812L291.751,336.249z"/>
		</g>
	</g>
	<g>
		<g>
			<path style="fill:#FFC855;" d="M291.751,336.249l11.314-11.314l35.327,17.664c4.884,2.442,5.94,8.951,2.079,12.812
				l-18.244,18.244c-3.861,3.861-10.37,2.805-12.812-2.079L291.751,336.249z"/>
		</g>
	</g>
	<g>
		<g>
			<path style="fill:#FFB44B;" d="M291.751,341.906l-5.657-5.657c-3.124-3.124-3.124-8.19,0-11.314l5.657-5.657
				c3.124-3.124,8.19-3.124,11.314,0l5.657,5.657c3.124,3.124,3.124,8.19,0,11.314l-5.657,5.657
				C299.94,345.03,294.875,345.03,291.751,341.906z"/>
		</g>
	</g>
	<g>
		<g>
			<rect x="172" y="344" style="fill:#734B46;" width="16" height="16"/>
		</g>
	</g>
	<g>
		<g>
			<path style="fill:#33CBDB;" d="M247.313,104c-1.961,0-3.93-0.719-5.469-2.164l-17.102-16.023
				c-3.227-3.016-3.391-8.078-0.367-11.305c3.008-3.227,8.086-3.391,11.305-0.367l17.102,16.023
				c3.227,3.016,3.391,8.078,0.367,11.305C251.578,103.148,249.445,104,247.313,104z"/>
		</g>
	</g>
	<g>
		<g>
			<path style="fill:#66D8E4;" d="M211.992,70.891c-1.961,0-3.93-0.719-5.469-2.164l-7.992-7.492
				c-3.227-3.023-3.391-8.086-0.367-11.305c3.008-3.227,8.086-3.391,11.305-0.367l7.992,7.492c3.227,3.023,3.391,8.086,0.367,11.305
				C216.258,70.039,214.125,70.891,211.992,70.891z"/>
		</g>
	</g>
	<g>
		<g>
			<path style="fill:#66D8C9;" d="M156.008,272c-2.859,0-5.625-1.539-7.063-4.234l-7.977-14.953
				c-2.086-3.898-0.609-8.742,3.289-10.82c3.922-2.086,8.75-0.602,10.82,3.289l7.977,14.953c2.086,3.898,0.609,8.742-3.289,10.82
				C158.563,271.695,157.273,272,156.008,272z"/>
		</g>
	</g>
	<g>
		<g>
			<path style="fill:#33CBB7;" d="M134.688,232.016c-2.859,0-5.625-1.539-7.063-4.234l-34.148-64.016
				c-2.086-3.898-0.609-8.742,3.289-10.82c3.914-2.078,8.75-0.602,10.82,3.289l34.148,64.016c2.086,3.898,0.609,8.742-3.289,10.82
				C137.242,231.711,135.953,232.016,134.688,232.016z"/>
		</g>
	</g>
</g>
<g>
</g>
<g>
</g>
<g>
</g>
<g>
</g>
<g>
</g>
<g>
</g>
<g>
</g>
<g>
</g>
<g>
</g>
<g>
</g>
<g>
</g>
<g>
</g>
<g>
</g>
<g>
</g>
<g>
</g>
</svg>
