<?xml version="1.0" encoding="iso-8859-1"?>
<!-- Generator: Adobe Illustrator 19.0.0, SVG Export Plug-In . SVG Version: 6.00 Build 0)  -->
<svg version="1.1" id="Layer_1" xmlns="http://www.w3.org/2000/svg" xmlns:xlink="http://www.w3.org/1999/xlink" x="0px" y="0px"
	 viewBox="0 0 464 464" style="enable-background:new 0 0 464 464;" xml:space="preserve">
<g>
	<g>
		<path style="fill:#FFC855;" d="M231.997,24l-200,112l0.011,256.004h223.989V248c0-35.346,28.654-64,64-64s64,28.654,64,64v144.004
			h48V136L231.997,24z M199.997,352h-112c-4.418,0-8-3.582-8-8v-93.808c0-34.088,25.723-63.852,59.74-66.054
			c37.275-2.413,68.26,27.106,68.26,63.862v96C207.997,348.418,204.416,352,199.997,352z"/>
	</g>
	<path style="fill:#FFB44B;" d="M432.008,146.562l-200-112.073v-0.006l-0.005,0.003l-0.005-0.003v0.006l-200,112.073
		c0,9.756,0.002,30.766,0.003,31.843L231.997,66.334v0.003l0.005-0.003l0.005,0.003v-0.003l199.997,112.072
		C432.007,177.329,432.008,156.318,432.008,146.562z"/>
	<polygon style="fill:#D25566;" points="207.997,248 207.997,232 151.997,232 151.997,192 135.997,192 135.997,232 79.997,232 
		79.997,248 135.997,248 135.997,288 79.997,288 79.997,304 135.997,304 135.997,352 151.997,352 151.997,304 207.997,304 
		207.997,288 151.997,288 151.997,248 	"/>
	<g>
		<path style="fill:#FF6472;" d="M255.997,464h-224c-8.837,0-16-7.163-16-16v-48c0-8.837,7.163-16,16-16h224c8.837,0,16,7.163,16,16
			v48C271.997,456.837,264.834,464,255.997,464z"/>
	</g>
	<g>
		<path style="fill:#FF6472;" d="M431.997,464h-48c-8.837,0-16-7.163-16-16v-48c0-8.837,7.163-16,16-16h48c8.837,0,16,7.163,16,16
			v48C447.997,456.837,440.834,464,431.997,464z"/>
	</g>
	<g>
		<path style="fill:#FF6472;" d="M255.997,464h-224c-8.837,0-16-7.163-16-16v-48c0-8.837,7.163-16,16-16h224c8.837,0,16,7.163,16,16
			v48C271.997,456.837,264.834,464,255.997,464z"/>
	</g>
	<g>
		<path style="fill:#D25566;" d="M55.997,448v-48c0-8.837,7.164-16,16-16h-40c-8.836,0-16,7.163-16,16v48c0,8.836,7.164,16,16,16h40
			C63.161,464,55.997,456.836,55.997,448z"/>
	</g>
	<g>
		<path style="fill:#D25566;" d="M391.997,448v-48c0-8.837,7.164-16,16-16h-24c-8.836,0-16,7.163-16,16v48c0,8.836,7.164,16,16,16
			h24C399.161,464,391.997,456.836,391.997,448z"/>
	</g>
	<path style="fill:#FF6472;" d="M439.823,122.039l-200-112c-0.126-0.07-0.257-0.123-0.384-0.189
		c-0.189-0.099-0.381-0.191-0.573-0.282c-0.288-0.136-0.577-0.268-0.869-0.386c-0.18-0.073-0.362-0.137-0.544-0.203
		c-0.314-0.114-0.628-0.222-0.945-0.315c-0.171-0.05-0.343-0.091-0.515-0.135c-0.329-0.084-0.657-0.165-0.988-0.228
		c-0.183-0.035-0.367-0.06-0.552-0.088c-0.317-0.049-0.634-0.096-0.952-0.126c-0.223-0.021-0.447-0.029-0.671-0.041
		c-0.277-0.014-0.553-0.03-0.83-0.03c-0.277,0-0.553,0.016-0.83,0.03c-0.224,0.012-0.448,0.02-0.671,0.041
		c-0.318,0.03-0.635,0.077-0.952,0.126c-0.184,0.029-0.369,0.053-0.552,0.088c-0.331,0.063-0.659,0.144-0.988,0.228
		c-0.172,0.044-0.344,0.085-0.515,0.135c-0.317,0.093-0.631,0.202-0.945,0.315c-0.182,0.066-0.365,0.131-0.544,0.203
		c-0.292,0.118-0.581,0.249-0.869,0.386c-0.193,0.091-0.384,0.183-0.573,0.282c-0.127,0.066-0.258,0.119-0.384,0.189l-200,112
		c-7.711,4.32-10.461,14.07-6.141,21.781c2.93,5.234,8.375,8.18,13.977,8.18c2.648,0,5.328-0.656,7.805-2.039L232,42.339
		l192.182,107.622c2.477,1.383,5.156,2.039,7.805,2.039c5.602,0,11.047-2.945,13.977-8.18
		C450.284,136.109,447.534,126.359,439.823,122.039z"/>
	<g>
		<circle style="fill:#D25566;" cx="231.997" cy="24" r="24"/>
	</g>
	<g>
		<path style="fill:#FF6472;" d="M200.001,360h-112c-8.82,0-16-7.18-16-16v-93.805c0-39.078,29.523-71.594,67.219-74.039
			c20.102-1.227,39.336,5.555,54.016,19.305c14.469,13.57,22.766,32.719,22.766,52.539v96C216.001,352.82,208.821,360,200.001,360z
			 M144.032,192c-1.258,0-2.516,0.039-3.781,0.125c-29.297,1.898-52.25,27.406-52.25,58.07V344h112.008l-0.008-96
			c0-15.648-6.289-30.156-17.711-40.859C171.797,197.305,158.329,192,144.032,192z"/>
	</g>
</g>
<g>
</g>
<g>
</g>
<g>
</g>
<g>
</g>
<g>
</g>
<g>
</g>
<g>
</g>
<g>
</g>
<g>
</g>
<g>
</g>
<g>
</g>
<g>
</g>
<g>
</g>
<g>
</g>
<g>
</g>
</svg>
