<?xml version="1.0" encoding="iso-8859-1"?>
<!-- Generator: Adobe Illustrator 19.0.0, SVG Export Plug-In . SVG Version: 6.00 Build 0)  -->
<svg version="1.1" id="Layer_1" xmlns="http://www.w3.org/2000/svg" xmlns:xlink="http://www.w3.org/1999/xlink" x="0px" y="0px"
	 viewBox="0 0 464 464" style="enable-background:new 0 0 464 464;" xml:space="preserve">
<g>
	<g>
		<g>
			<path style="fill:#EBCDB4;" d="M232,464L232,464c-4.418,0-8-3.582-8-8V155h16v301C240,460.418,236.418,464,232,464z"/>
		</g>
	</g>
	<g>
		<g>
			<rect x="224" y="155" style="fill:#D7B49B;" width="16" height="21"/>
		</g>
	</g>
	<g>
		<g>
			<circle style="fill:#E15050;" cx="232" cy="80" r="80"/>
		</g>
	</g>
	<g>
		<g>
			<path style="fill:#D24146;" d="M192,80c0-37.264,25.515-68.483,60-77.377C245.596,0.971,238.919,0,232,0
				c-44.183,0-80,35.817-80,80s35.817,80,80,80c6.919,0,13.596-0.971,20-2.623C217.515,148.483,192,117.263,192,80z"/>
		</g>
	</g>
	<g>
		<g>
			<path style="fill:#D24146;" d="M312,88H152c-4.418,0-8-3.582-8-8l0,0c0-4.418,3.582-8,8-8h160c4.418,0,8,3.582,8,8l0,0
				C320,84.418,316.418,88,312,88z"/>
		</g>
	</g>
	<g>
		<g>
			<g>
				<path style="fill:#ED9696;" d="M255.992,37.391c-1.148,0-2.313-0.246-3.422-0.773c-4.344-2.063-8.953-3.453-13.711-4.133
					c-4.375-0.625-7.414-4.676-6.789-9.051c0.625-4.367,4.672-7.383,9.055-6.785c6.352,0.906,12.508,2.762,18.305,5.516
					c3.992,1.895,5.695,6.668,3.797,10.66C261.859,35.707,258.984,37.391,255.992,37.391z"/>
			</g>
		</g>
	</g>
	<g>
		<g>
			<g>
				<path style="fill:#E77373;" d="M264.016,133.961c-2.523,0-5.016-1.191-6.57-3.422c-2.523-3.621-1.641-8.609,1.984-11.137
					C272.313,110.41,280,95.68,280,80c0-9.863-2.969-19.332-8.578-27.391c-2.523-3.629-1.633-8.613,1.992-11.137
					c3.617-2.535,8.609-1.633,11.133,1.988C292.039,54.219,296,66.852,296,80c0,20.906-10.25,40.539-27.414,52.52
					C267.195,133.496,265.594,133.961,264.016,133.961z"/>
			</g>
		</g>
	</g>
	<g>
		<g>
			<path style="fill:#D24146;" d="M312,88h-96c-4.418,0-8-3.582-8-8l0,0c0-4.418,3.582-8,8-8h96c4.418,0,8,3.582,8,8l0,0
				C320,84.418,316.418,88,312,88z"/>
		</g>
	</g>
	<g>
		<path style="fill:#BE3237;" d="M208,80L208,80c0-4.418,3.582-8,8-8h-64c-4.418,0-8,3.582-8,8l0,0c0,4.418,3.582,8,8,8h64
			C211.582,88,208,84.418,208,80z"/>
	</g>
</g>
<g>
</g>
<g>
</g>
<g>
</g>
<g>
</g>
<g>
</g>
<g>
</g>
<g>
</g>
<g>
</g>
<g>
</g>
<g>
</g>
<g>
</g>
<g>
</g>
<g>
</g>
<g>
</g>
<g>
</g>
</svg>
