<?xml version="1.0" encoding="iso-8859-1"?>
<!-- Generator: Adobe Illustrator 19.0.0, SVG Export Plug-In . SVG Version: 6.00 Build 0)  -->
<svg version="1.1" id="Layer_1" xmlns="http://www.w3.org/2000/svg" xmlns:xlink="http://www.w3.org/1999/xlink" x="0px" y="0px"
	 viewBox="0 0 464 464" style="enable-background:new 0 0 464 464;" xml:space="preserve">
<g>
	<g>
		<g>
			<path style="fill:#8C5F56;" d="M232,464L232,464c-4.418,0-8-3.582-8-8V120h16v336C240,460.418,236.418,464,232,464z"/>
		</g>
	</g>
	<g>
		<g>
			<polygon style="fill:#734B46;" points="240,232 224,248 224,224 240,208 			"/>
		</g>
	</g>
	<g>
		<g>
			<polygon style="fill:#E15050;" points="232,120 112,0 112,102.857 180.571,171.429 			"/>
		</g>
	</g>
	<g>
		<g>
			<polygon style="fill:#FFC855;" points="232,120 352,240 352,137.143 283.429,68.571 			"/>
		</g>
	</g>
	<g>
		<g>
			<polygon style="fill:#00BEA5;" points="232,120 112,240 214.857,240 283.429,171.429 			"/>
		</g>
	</g>
	<g>
		<g>
			<polygon style="fill:#00BED2;" points="232,120 352,0 249.143,0 180.571,68.571 			"/>
		</g>
	</g>
	<g>
		<g>
			<polygon style="fill:#D24146;" points="112,40 212,140 232,120 112,0 			"/>
		</g>
	</g>
	<g>
		<g>
			<polygon style="fill:#FFB44B;" points="352,200 252,100 232,120 352,240 			"/>
		</g>
	</g>
	<g>
		<g>
			<polygon style="fill:#00AA9A;" points="152,240 252,140 232,120 112,240 			"/>
		</g>
	</g>
	<g>
		<g>
			<polygon style="fill:#00A6BD;" points="312,0 212,100 232,120 352,0 			"/>
		</g>
	</g>
	<g>
		<g>
			<circle style="fill:#5F505A;" cx="232" cy="120" r="16.162"/>
		</g>
	</g>
</g>
<g>
</g>
<g>
</g>
<g>
</g>
<g>
</g>
<g>
</g>
<g>
</g>
<g>
</g>
<g>
</g>
<g>
</g>
<g>
</g>
<g>
</g>
<g>
</g>
<g>
</g>
<g>
</g>
<g>
</g>
</svg>
