<?xml version="1.0" encoding="iso-8859-1"?>
<!-- Generator: Adobe Illustrator 19.0.0, SVG Export Plug-In . SVG Version: 6.00 Build 0)  -->
<svg version="1.1" id="Layer_1" xmlns="http://www.w3.org/2000/svg" xmlns:xlink="http://www.w3.org/1999/xlink" x="0px" y="0px"
	 viewBox="0 0 464 464" style="enable-background:new 0 0 464 464;" xml:space="preserve">
<g>
	<g>
		<g>
			<path style="fill:#00BED2;" d="M321.817,120H142.183c-7.709,0-14.183,5.522-15.729,13.074
				c-2.616,12.775-9.647,32.843-28.526,50.647c-6.475,6.106-9.841,14.784-9.566,23.68c1.26,40.719,6.75,154.667,29.917,250.498
				c0.869,3.597,4.115,6.101,7.815,6.101h75.974c4.227,0,7.725-3.289,7.985-7.508l4.963-80.522C215.569,366.995,223.009,360,232,360
				l0,0c8.991,0,16.431,6.995,16.984,15.97l4.963,80.522c0.26,4.219,3.758,7.508,7.985,7.508h75.974c3.7,0,6.946-2.504,7.815-6.101
				c23.166-95.832,28.657-209.78,29.917-250.498c0.275-8.896-3.091-17.573-9.566-23.68c-18.879-17.804-25.909-37.872-28.525-50.647
				C336,125.522,329.526,120,321.817,120z"/>
		</g>
	</g>
	<g>
		<g>
			<circle style="fill:#00A6BD;" cx="168" cy="160" r="32"/>
		</g>
	</g>
	<g>
		<g>
			<g>
				<path style="fill:#00A6BD;" d="M232,322.566c-12.688,0-23.258-9.199-25.406-21.277c-4.945,1.785-10.43,2.016-15.484,0.652
					c-6.641-1.77-12.211-6.047-15.656-12.039c-3.43-5.941-4.352-12.895-2.57-19.555c1.391-5.176,4.273-9.691,8.289-13.063
					c-4.016-3.371-6.898-7.887-8.289-13.066c-1.781-6.652-0.859-13.605,2.586-19.574c3.422-5.961,8.984-10.234,15.648-12.027
					c5.188-1.383,10.547-1.145,15.477,0.656C208.742,201.195,219.32,192,232,192s23.258,9.199,25.406,21.273
					c4.922-1.797,10.281-2.043,15.453-0.66c6.688,1.797,12.25,6.074,15.688,12.055c3.43,5.941,4.352,12.895,2.57,19.551
					c-1.383,5.176-4.273,9.691-8.297,13.066c4.023,3.371,6.906,7.883,8.297,13.059c1.781,6.664,0.859,13.617-2.586,19.586
					c-3.43,5.965-9,10.242-15.68,12.02c-4.961,1.348-10.5,1.133-15.445-0.66C255.258,313.367,244.688,322.566,232,322.566z
					 M232,282.828c-0.039,0.344-0.086,0.688-0.141,1.031c-1.18,6.684-1.664,11.703-1.664,12.902c0,1.953,3.609,1.953,3.609,0
					c0-1.199-0.484-6.215-1.664-12.898C232.078,283.52,232.031,283.172,232,282.828z M218.078,267.414
					c2.406,0,4.82,0.617,6.984,1.867c3.961,2.285,6.492,6.352,6.938,10.773c0.445-4.414,2.969-8.477,6.93-10.766
					c3.977-2.289,8.766-2.449,12.813-0.617c-3.609-2.594-5.859-6.816-5.859-11.391c0-4.559,2.242-8.773,5.836-11.371
					c-4.063,1.82-8.836,1.656-12.781-0.621c-3.953-2.277-6.477-6.324-6.93-10.734c-0.453,4.395-2.977,8.438-6.922,10.719
					c-3.953,2.289-8.719,2.461-12.766,0.652c3.586,2.594,5.828,6.809,5.82,11.371c0,4.547-2.234,8.746-5.805,11.34
					C214.156,267.824,216.117,267.414,218.078,267.414z M254.125,270.051c0.273,0.199,0.547,0.41,0.805,0.629
					c5.227,4.383,9.32,7.309,10.352,7.902c0.289,0.168,0.578,0.25,0.883,0.25c0.984-0.199,1.328-0.465,1.57-0.883
					c0.266-0.461,0.328-0.91,0.195-1.398c-0.125-0.48-0.398-0.84-0.828-1.09c-1.07-0.609-5.664-2.703-11.992-5.008
					C254.773,270.332,254.445,270.199,254.125,270.051z M209.813,270.09c-0.305,0.137-0.609,0.262-0.922,0.375
					c-6.117,2.223-10.773,4.297-11.992,4.996c-0.43,0.25-0.703,0.605-0.828,1.094c-0.133,0.484-0.07,0.934,0.18,1.367
					c0.258,0.445,0.602,0.711,1.07,0.84c0.805,0.063,1.109-0.016,1.398-0.18c0.93-0.535,4.836-3.277,10.32-7.887
					C209.289,270.484,209.547,270.281,209.813,270.09z M200.703,247.902c-0.008,0.004-0.016,0.004-0.023,0.008
					C200.688,247.906,200.695,247.906,200.703,247.902z M266.18,235.73c-0.313,0-0.609,0.086-0.898,0.254
					c-0.93,0.535-4.82,3.27-10.32,7.891c-0.258,0.219-0.523,0.426-0.797,0.621c0.313-0.141,0.625-0.27,0.953-0.387
					c6.328-2.309,10.93-4.398,11.984-5.008c0.43-0.246,0.703-0.602,0.828-1.086c0.133-0.484,0.07-0.934-0.18-1.367
					c-0.258-0.453-0.617-0.723-1.102-0.852C266.492,235.754,266.336,235.73,266.18,235.73z M197.828,235.73
					c-0.164,0-0.328,0.023-0.492,0.07c-0.477,0.125-0.828,0.398-1.078,0.824c-0.258,0.453-0.32,0.902-0.188,1.391
					c0.125,0.484,0.398,0.84,0.836,1.09c1.047,0.605,5.641,2.695,12.016,5.02c0.313,0.113,0.617,0.234,0.914,0.371
					c-0.266-0.195-0.531-0.398-0.781-0.613c-5.516-4.633-9.406-7.367-10.344-7.902C198.43,235.816,198.133,235.73,197.828,235.73z
					 M232,216c-0.977,0-1.805,0.828-1.805,1.805c0,1.211,0.492,6.238,1.672,12.918c0.055,0.328,0.102,0.66,0.133,0.992
					c0.039-0.336,0.086-0.668,0.141-1.004c1.18-6.684,1.664-11.703,1.664-12.906C233.805,216.828,232.977,216,232,216z"/>
			</g>
		</g>
	</g>
	<g>
		<g>
			<path style="fill:#00A6BD;" d="M345.722,457.899c-0.87,3.597-4.115,6.101-7.815,6.101h-42.21
				c-15.133-5.362-30.426-11.113-42.25-15.646l-4.461-72.384c0,0,73.518-27.039,119.475-59.763
				C364.005,360.774,356.953,411.438,345.722,457.899z"/>
		</g>
	</g>
	<g>
		<g>
			<path style="fill:#00A6BD;" d="M118.278,457.899c0.87,3.597,4.115,6.101,7.815,6.101h42.21
				c15.133-5.362,30.426-11.113,42.25-15.646l4.461-72.384c0,0-73.518-27.039-119.475-59.763
				C99.995,360.774,107.047,411.438,118.278,457.899z"/>
		</g>
	</g>
	<g>
		<g>
			<circle style="fill:#00A6BD;" cx="296" cy="160" r="32"/>
		</g>
	</g>
	<g>
		<g>
			<path style="fill:#0096AF;" d="M184,160h-32V8c0-4.418,3.582-8,8-8h16c4.418,0,8,3.582,8,8V160z"/>
		</g>
	</g>
	<g>
		<g>
			<circle style="fill:#FFC855;" cx="168" cy="160" r="16"/>
		</g>
	</g>
	<g>
		<g>
			<path style="fill:#0096AF;" d="M312,160h-32V8c0-4.418,3.582-8,8-8h16c4.418,0,8,3.582,8,8V160z"/>
		</g>
	</g>
	<g>
		<g>
			<circle style="fill:#FFC855;" cx="296" cy="160" r="16"/>
		</g>
	</g>
	<g>
		<g>
			<g>
				<path style="fill:#0096AF;" d="M126.094,464h75.975c4.227,0,7.725-3.289,7.985-7.508L211.07,440h-96.872
					c1.296,6.02,2.653,11.995,4.081,17.899C119.148,461.496,122.393,464,126.094,464z"/>
			</g>
		</g>
		<g>
			<g>
				<path style="fill:#0096AF;" d="M252.93,440l1.017,16.492c0.26,4.219,3.758,7.508,7.985,7.508h75.975
					c3.701,0,6.946-2.504,7.815-6.101c1.427-5.904,2.784-11.879,4.081-17.899H252.93z"/>
			</g>
		</g>
	</g>
	<g>
		<g>
			<path style="fill:#FFAA4B;" d="M160,160c0-7.447,5.111-13.65,12-15.434c-1.286-0.333-2.61-0.566-4-0.566c-8.836,0-16,7.163-16,16
				c0,8.836,7.164,16,16,16c1.39,0,2.714-0.233,4-0.566C165.111,173.65,160,167.447,160,160z"/>
		</g>
	</g>
	<g>
		<g>
			<path style="fill:#FFAA4B;" d="M288,160c0-7.447,5.111-13.65,12-15.434c-1.286-0.333-2.61-0.566-4-0.566c-8.836,0-16,7.163-16,16
				c0,8.836,7.164,16,16,16c1.39,0,2.714-0.233,4-0.566C293.111,173.65,288,167.447,288,160z"/>
		</g>
	</g>
	<g>
		<g>
			<g>
				<path style="fill:#FFC855;" d="M273.094,265.066c-2.06-1.187-7.542-3.578-13.878-5.887c-1.778-0.648-1.778-3.143,0-3.791
					c6.342-2.312,11.825-4.704,13.878-5.888c3.192-1.843,5.477-4.82,6.429-8.383c0.957-3.562,0.464-7.282-1.381-10.475
					c-1.84-3.195-4.815-5.479-8.378-6.434c-3.567-0.955-7.287-0.461-10.479,1.379c-2.157,1.247-6.948,4.818-12.042,9.098
					c-1.45,1.218-3.613-0.03-3.284-1.895c1.174-6.67,1.847-12.637,1.847-14.986c0-7.613-6.192-13.805-13.805-13.805
					s-13.805,6.192-13.805,13.805c0,2.348,0.675,8.324,1.851,15.003c0.326,1.854-1.845,3.087-3.286,1.876
					c-5.094-4.279-9.886-7.849-12.044-9.097c-3.192-1.84-6.917-2.334-10.479-1.379c-3.562,0.955-6.537,3.239-8.378,6.431
					c-1.845,3.195-2.339,6.915-1.381,10.477c0.952,3.562,3.237,6.54,6.429,8.383c2.055,1.186,7.551,3.583,13.903,5.898
					c1.776,0.647,1.775,3.139-0.001,3.783c-6.237,2.263-11.71,4.62-13.902,5.885c-3.192,1.845-5.477,4.823-6.429,8.385
					c-0.957,3.562-0.464,7.282,1.381,10.475c1.84,3.195,4.815,5.479,8.378,6.431c1.189,0.318,2.398,0.476,3.597,0.476
					c2.393,0,4.756-0.627,6.883-1.855c2.154-1.244,6.946-4.814,12.041-9.094c1.45-1.218,3.612,0.03,3.284,1.895
					c-1.173,6.668-1.846,12.633-1.846,14.982c0,7.613,6.192,13.805,13.805,13.805s13.805-6.192,13.805-13.805
					c0-2.345-0.673-8.308-1.846-14.977c-0.326-1.852,1.826-3.115,3.267-1.906c5.195,4.357,10.03,7.93,12.058,9.1
					c2.126,1.229,4.49,1.855,6.883,1.855c1.199,0,2.408-0.158,3.597-0.476c3.562-0.952,6.537-3.237,8.378-6.431
					c1.845-3.192,2.339-6.912,1.381-10.475C278.57,269.889,276.286,266.911,273.094,265.066z M238.432,268.568l-10.969-0.005
					l-1.103-1.031l0,0l-5.638-10.577l-0.294-1.299l5.941-8.604l1.127-1.054l9.038,0.004l1.106,1.033l7.053,10.247l-6.031,11.22
					L238.432,268.568L238.432,268.568z"/>
			</g>
		</g>
		<g>
			<g>
				<circle style="fill:#FFFFFF;" cx="232" cy="257.284" r="14.437"/>
			</g>
		</g>
	</g>
</g>
<g>
</g>
<g>
</g>
<g>
</g>
<g>
</g>
<g>
</g>
<g>
</g>
<g>
</g>
<g>
</g>
<g>
</g>
<g>
</g>
<g>
</g>
<g>
</g>
<g>
</g>
<g>
</g>
<g>
</g>
</svg>
