<?xml version="1.0" encoding="iso-8859-1"?>
<!-- Generator: Adobe Illustrator 19.0.0, SVG Export Plug-In . SVG Version: 6.00 Build 0)  -->
<svg version="1.1" id="Layer_1" xmlns="http://www.w3.org/2000/svg" xmlns:xlink="http://www.w3.org/1999/xlink" x="0px" y="0px"
	 viewBox="0 0 464 464" style="enable-background:new 0 0 464 464;" xml:space="preserve">
<g>
	<g>
		<g>
			<g>
				<path style="fill:#A5465A;" d="M232,424c-66.758,0-122.836-52.098-127.656-118.609c-0.336-4.531,1.234-9.02,4.297-12.316
					c3.047-3.273,7.188-5.074,11.656-5.074h223.406c4.469,0,8.609,1.801,11.656,5.074c3.063,3.297,4.633,7.785,4.297,12.32
					C354.836,371.902,298.758,424,232,424z M120.297,304c4.219,58.422,53.289,104,111.703,104s107.484-45.578,111.703-103.766V304
					H120.297z"/>
			</g>
		</g>
	</g>
	<g>
		<g>
			<path style="fill:#FFC855;" d="M328,136c0-54.259-45.013-98.004-99.734-95.929c-51.153,1.939-92.72,45.614-92.262,96.802
				c0.182,20.401,6.752,39.253,17.791,54.705C167.572,210.864,176,233.444,176,257.146V264h112v-6.868
				c0-23.602,8.267-46.162,22.042-65.327C321.337,176.091,328,156.837,328,136z"/>
		</g>
	</g>
	<g>
		<g>
			<path style="fill:#FF6472;" d="M452,288H44c-6.627,0-12-5.373-12-12l0,0c0-6.627,5.373-12,12-12h408c6.627,0,12,5.373,12,12l0,0
				C464,282.627,458.627,288,452,288z"/>
		</g>
	</g>
	<g>
		<g>
			<path style="fill:#C95264;" d="M196,288H12c-6.627,0-12-5.373-12-12l0,0c0-6.627,5.373-12,12-12h184c6.627,0,12,5.373,12,12l0,0
				C208,282.627,202.627,288,196,288z"/>
		</g>
	</g>
	<g>
		<g>
			<path style="fill:#FFB44B;" d="M201.794,191.577c-11.039-15.452-17.608-34.304-17.791-54.705
				c-0.396-44.256,30.646-82.837,72.113-93.744c-8.86-2.295-18.191-3.424-27.851-3.058c-51.153,1.939-92.72,45.614-92.262,96.802
				c0.183,20.401,6.752,39.252,17.791,54.705C167.572,210.864,176,233.444,176,257.146V264h48v-6.854
				C224,233.444,215.572,210.864,201.794,191.577z"/>
		</g>
	</g>
	<g>
		<g>
			<path style="fill:#FFE5D1;" d="M328,312H136c-4.418,0-8-3.582-8-8v-16h208v16C336,308.418,332.418,312,328,312z"/>
		</g>
	</g>
	<g>
		<g>
			<path style="fill:#EBCDB4;" d="M208,312h-72c-4.418,0-8-3.582-8-8v-16h88v16C216,308.418,212.418,312,208,312z"/>
		</g>
	</g>
</g>
<g>
</g>
<g>
</g>
<g>
</g>
<g>
</g>
<g>
</g>
<g>
</g>
<g>
</g>
<g>
</g>
<g>
</g>
<g>
</g>
<g>
</g>
<g>
</g>
<g>
</g>
<g>
</g>
<g>
</g>
</svg>
