<?xml version="1.0" encoding="iso-8859-1"?>
<!-- Generator: Adobe Illustrator 19.0.0, SVG Export Plug-In . SVG Version: 6.00 Build 0)  -->
<svg version="1.1" id="Layer_1" xmlns="http://www.w3.org/2000/svg" xmlns:xlink="http://www.w3.org/1999/xlink" x="0px" y="0px"
	 viewBox="0 0 464 464" style="enable-background:new 0 0 464 464;" xml:space="preserve">
<g>
	<g>
		<g>
			<polygon style="fill:#FFD778;" points="256,224 208,224 216,312 248,312 			"/>
		</g>
	</g>
	<g>
		<g>
			<path style="fill:#8C5F56;" d="M232,320c-20.619,0-37.333,21.49-37.333,48c0,40.5,37.333,96,37.333,96s37.333-55.5,37.333-96
				C269.333,341.49,252.619,320,232,320z"/>
		</g>
	</g>
	<g>
		<g>
			<path style="fill:#734B46;" d="M232,320c-20.619,0-37.333,21.49-37.333,48c0,40.5,37.333,96,37.333,96s-18.667-55.5-18.667-96
				C213.333,341.49,221.691,320,232,320z"/>
		</g>
	</g>
	<g>
		<g>
			<path style="fill:#FFC855;" d="M248,328h-32c-4.418,0-8-3.582-8-8l0,0c0-4.418,3.582-8,8-8h32c4.418,0,8,3.582,8,8l0,0
				C256,324.418,252.418,328,248,328z"/>
		</g>
	</g>
	<g>
		<g>
			<path style="fill:#FFC855;" d="M256,224h-48c-4.418,0-8-3.582-8-8l0,0c0-4.418,3.582-8,8-8h48c4.418,0,8,3.582,8,8l0,0
				C264,220.418,260.418,224,256,224z"/>
		</g>
	</g>
	<g>
		<g>
			<path style="fill:#FFB44B;" d="M224,215.999c0-4.419,3.582-8,8-8h-24c-4.418,0-8,3.581-8,8s3.582,8,8,8h24
				C227.582,223.999,224,220.418,224,215.999z"/>
		</g>
	</g>
	<g>
		<g>
			<path style="fill:#FFB44B;" d="M224,320c0-4.419,3.582-8,8-8h-16c-4.418,0-8,3.581-8,8s3.582,8,8,8h16
				C227.582,328,224,324.419,224,320z"/>
		</g>
	</g>
	<g>
		<g>
			<path style="fill:#FFC38B;" d="M232,0h-0.001c-21.576,0-38.586,18.368-36.931,39.881L208,208h24h24l12.932-168.119
				C270.587,18.368,253.578,0,232.001,0H232z"/>
		</g>
	</g>
	<g>
		<g>
			<polygon style="fill:#FFD778;" points="248,312 256,224 224.615,224 231.385,312 			"/>
		</g>
	</g>
	<polygon style="fill:#FFC855;" points="208,223.995 216,311.995 231.385,311.995 224.615,223.995 	"/>
	<g>
		<g>
			<path style="fill:#EBAF73;" d="M245.479,2.673C241.294,1.029,236.79,0,232.001,0H232h-0.001
				c-21.576,0-38.585,18.368-36.931,39.881L208,208h24h2.957L222.024,39.881C220.737,23.143,230.808,8.434,245.479,2.673z"/>
		</g>
	</g>
</g>
<g>
</g>
<g>
</g>
<g>
</g>
<g>
</g>
<g>
</g>
<g>
</g>
<g>
</g>
<g>
</g>
<g>
</g>
<g>
</g>
<g>
</g>
<g>
</g>
<g>
</g>
<g>
</g>
<g>
</g>
</svg>
