<?xml version="1.0" encoding="iso-8859-1"?>
<!-- Generator: Adobe Illustrator 19.0.0, SVG Export Plug-In . SVG Version: 6.00 Build 0)  -->
<svg version="1.1" id="Layer_1" xmlns="http://www.w3.org/2000/svg" xmlns:xlink="http://www.w3.org/1999/xlink" x="0px" y="0px"
	 viewBox="0 0 459.374 459.374" style="enable-background:new 0 0 459.374 459.374;" xml:space="preserve">
<g>
	<path style="fill:#00AA9A;" d="M293.07,55.955V4.959c-13.137,2.333-39.561,6.414-63.612,6.414c-24.54,0-51.542-4.248-64.388-6.553
		v57.553h123.721L293.07,55.955z"/>
	<g>
		<g>
			<path style="fill:#00BEA5;" d="M432.804,95.053l-82.23-76.333c-5.835-5.416-12.925-9.296-20.633-11.291l-27.725-7.173
				c-4.529-1.172-9.011,1.799-9.831,6.405c-5.329,29.955-31.44,52.711-62.927,52.711s-57.599-22.756-62.927-52.711
				c-0.819-4.606-5.302-7.577-9.831-6.405L128.975,7.43c-7.708,1.994-14.798,5.874-20.633,11.291L26.111,95.053
				c-2.725,2.53-3.348,6.604-1.503,9.832l24.598,43.046c2.3,4.024,7.527,5.258,11.384,2.687l64.869-43.246l-5.114,86.942
				c-1.915,32.547,0.702,65.203,7.775,97.03l32.705,147.171c2.708,12.186,13.517,20.857,26,20.857l0,0
				c14.71,0,26.635-11.925,26.635-26.635V315.373c0-8.837,7.163-16,16-16l0,0c8.837,0,16,7.163,16,16v117.366
				c0,14.71,11.925,26.635,26.635,26.635l0,0c12.484,0,23.292-8.67,26-20.857L330.8,291.346c7.073-31.827,9.689-64.482,7.775-97.03
				l-5.114-86.942l64.869,43.246c3.857,2.571,9.084,1.337,11.384-2.687l24.598-43.046C436.153,101.657,435.53,97.583,432.804,95.053
				z"/>
		</g>
	</g>
	<g>
		<g>
			<path style="fill:#00AA9A;" d="M342.155,12.255c3.179,1.815,6.175,3.956,8.878,6.465l82.23,76.333
				c2.725,2.53,3.348,6.604,1.503,9.833l-24.598,43.046c-2.3,4.024-7.527,5.258-11.384,2.687l-64.869-43.246
				C321.358,92.122,321.742,40.735,342.155,12.255z"/>
		</g>
	</g>
	<g>
		<g>
			<path style="fill:#00AA9A;" d="M117.22,12.255c-3.179,1.815-6.175,3.956-8.878,6.465L26.111,95.053
				c-2.725,2.53-3.348,6.604-1.503,9.833l24.598,43.046c2.3,4.024,7.527,5.258,11.384,2.687l64.869-43.246
				C138.017,92.122,137.633,40.735,117.22,12.255z"/>
		</g>
	</g>
	<g>
		<g>
			<path style="fill:#009D93;" d="M229.458,75.373c41.931,0,76.267-32.276,79.663-73.33l-6.905-1.787
				c-4.529-1.171-9.011,1.8-9.831,6.405c-5.329,29.956-31.44,52.711-62.927,52.711s-57.599-22.755-62.927-52.711
				c-0.819-4.605-5.302-7.577-9.831-6.405l-6.905,1.787C153.191,43.096,187.527,75.373,229.458,75.373z"/>
		</g>
	</g>
	<g>
		<g>
			<path style="fill:#009D93;" d="M35.533,86.307l-9.421,8.746c-2.725,2.53-3.348,6.604-1.503,9.833l24.598,43.046
				c2.3,4.024,7.527,5.258,11.384,2.687l7.788-5.192L35.533,86.307z"/>
		</g>
	</g>
	<g>
		<g>
			<path style="fill:#009D93;" d="M423.383,86.307l9.421,8.746c2.725,2.53,3.348,6.604,1.503,9.833l-24.598,43.046
				c-2.3,4.024-7.527,5.258-11.384,2.687l-7.788-5.192L423.383,86.307z"/>
		</g>
	</g>
	<g>
		<g>
			<g>
				<path style="fill:#009D93;" d="M213.458,432.738v-5.365h-55.111l2.476,11.143c2.708,12.187,13.517,20.857,26,20.857l0,0
					C201.533,459.373,213.458,447.448,213.458,432.738z"/>
			</g>
		</g>
		<g>
			<g>
				<path style="fill:#009D93;" d="M298.093,438.516l2.476-11.143h-55.111v5.365c0,14.71,11.925,26.635,26.634,26.635l0,0
					C284.576,459.373,295.385,450.702,298.093,438.516z"/>
			</g>
		</g>
	</g>
	<g>
		<g>
			<circle style="fill:#B2C56D;" cx="245.458" cy="243.373" r="8"/>
		</g>
	</g>
	<g>
		<g>
			<circle style="fill:#FFC855;" cx="277.458" cy="243.373" r="8"/>
		</g>
	</g>
	<g>
		<g>
			<circle style="fill:#B2C56D;" cx="309.458" cy="243.373" r="8"/>
		</g>
	</g>
	<g>
		<g>
			<circle style="fill:#FFC855;" cx="149.458" cy="243.373" r="8"/>
		</g>
	</g>
	<g>
		<g>
			<circle style="fill:#B2C56D;" cx="181.458" cy="243.373" r="8"/>
		</g>
	</g>
	<g>
		<g>
			<circle style="fill:#FFC855;" cx="213.458" cy="243.373" r="8"/>
		</g>
	</g>
	<g>
		<g>
			<circle style="fill:#FFC855;" cx="245.458" cy="195.373" r="8"/>
		</g>
	</g>
	<g>
		<g>
			<circle style="fill:#B2C56D;" cx="277.458" cy="195.373" r="8"/>
		</g>
	</g>
	<g>
		<g>
			<circle style="fill:#FFC855;" cx="309.458" cy="195.373" r="8"/>
		</g>
	</g>
	<g>
		<g>
			<circle style="fill:#B2C56D;" cx="149.458" cy="195.373" r="8"/>
		</g>
	</g>
	<g>
		<g>
			<circle style="fill:#FFC855;" cx="181.458" cy="195.373" r="8"/>
		</g>
	</g>
	<g>
		<g>
			<circle style="fill:#B2C56D;" cx="213.458" cy="195.373" r="8"/>
		</g>
	</g>
	<g>
		<g>
			<circle style="fill:#FFC855;" cx="261.458" cy="219.373" r="8"/>
		</g>
	</g>
	<g>
		<g>
			<circle style="fill:#B2C56D;" cx="293.458" cy="219.373" r="8"/>
		</g>
	</g>
	<g>
		<g>
			<circle style="fill:#FFC855;" cx="325.458" cy="219.373" r="8"/>
		</g>
	</g>
	<g>
		<g>
			<circle style="fill:#FFC855;" cx="133.458" cy="219.373" r="8"/>
		</g>
	</g>
	<g>
		<g>
			<circle style="fill:#B2C56D;" cx="165.458" cy="219.373" r="8"/>
		</g>
	</g>
	<g>
		<g>
			<circle style="fill:#FFC855;" cx="197.458" cy="219.373" r="8"/>
		</g>
	</g>
	<g>
		<g>
			<circle style="fill:#B2C56D;" cx="229.458" cy="219.373" r="8"/>
		</g>
	</g>
	<g>
		<g>
			<path style="fill:#B2C56D;" d="M333.458,195.373c0,3.467,2.234,6.348,5.319,7.458c-0.098-2.839-0.038-5.678-0.205-8.516
				l-0.366-6.221C335.417,189.344,333.458,192.119,333.458,195.373z"/>
		</g>
	</g>
	<g>
		<g>
			<path style="fill:#FFC855;" d="M333.458,243.373c0,2.842,1.567,5.221,3.801,6.64c0.467-4.667,0.838-9.336,1.118-14.019
				C335.49,237.201,333.458,240.047,333.458,243.373z"/>
		</g>
	</g>
	<g>
		<g>
			<path style="fill:#FFC855;" d="M125.458,195.373c0-3.254-1.959-6.029-4.749-7.279l-0.366,6.221
				c-0.167,2.838-0.107,5.677-0.205,8.516C123.224,201.721,125.458,198.84,125.458,195.373z"/>
		</g>
	</g>
	<g>
		<g>
			<path style="fill:#B2C56D;" d="M125.458,243.373c0-3.326-2.032-6.171-4.919-7.378c0.28,4.682,0.651,9.352,1.118,14.019
				C123.891,248.594,125.458,246.215,125.458,243.373z"/>
		</g>
	</g>
</g>
<g>
</g>
<g>
</g>
<g>
</g>
<g>
</g>
<g>
</g>
<g>
</g>
<g>
</g>
<g>
</g>
<g>
</g>
<g>
</g>
<g>
</g>
<g>
</g>
<g>
</g>
<g>
</g>
<g>
</g>
</svg>
