<?xml version="1.0" encoding="iso-8859-1"?>
<!-- Generator: Adobe Illustrator 19.0.0, SVG Export Plug-In . SVG Version: 6.00 Build 0)  -->
<svg version="1.1" id="Layer_1" xmlns="http://www.w3.org/2000/svg" xmlns:xlink="http://www.w3.org/1999/xlink" x="0px" y="0px"
	 viewBox="0 0 464 464" style="enable-background:new 0 0 464 464;" xml:space="preserve">
<g>
	<path style="fill:#DC5869;" d="M231.999,8c-50.123,0-80.425-5.49-89.346-7.372V79h177V0.976C308.963,3.109,279.296,8,231.999,8z"/>
	<g>
		<g>
			<path style="fill:#FF6472;" d="M460.213,106.792L409.047,36.44c-5.884-8.091-14.149-14.141-23.64-17.304L330.303,0.768
				C328.778,0.259,327.18,0,325.572,0h-1.43c-7.048,0-12.884,4.98-14.624,11.81C300.705,46.411,269.344,72,232,72
				s-68.705-25.589-77.519-60.19C152.741,4.98,146.905,0,139.857,0h-1.43c-1.608,0-3.206,0.259-4.731,0.768L78.593,19.136
				c-9.491,3.164-17.756,9.213-23.64,17.304L3.787,106.792c-2.211,3.04-2.007,7.21,0.491,10.02l53.92,60.661
				c3.119,3.508,8.574,3.59,11.796,0.177l9.823-10.405L72.66,336.411c-0.358,8.463,5.976,15.463,14.372,16.589
				c50.044,6.713,89.621,46.475,96.052,96.608c1.045,8.145,7.683,14.392,15.895,14.392H232h33.021
				c8.211,0,14.85-6.248,15.895-14.392c6.431-50.133,46.008-89.895,96.052-96.608c8.396-1.126,14.73-8.126,14.372-16.589
				l-7.158-169.166l9.823,10.405c3.222,3.414,8.678,3.332,11.796-0.177l53.92-60.661
				C462.22,114.002,462.424,109.833,460.213,106.792z"/>
		</g>
	</g>
	<g>
		<g>
			<path style="fill:#DC5869;" d="M232,144c10.912,0,19.787,8.875,19.787,19.787c0,4.308-1.58,17.109-4.222,29.645
				c9.352-8.388,19.568-16.192,23.542-18.49c3.05-1.758,6.435-2.658,9.868-2.658c1.718,0,3.448,0.226,5.153,0.682
				c5.106,1.368,9.37,4.643,12.008,9.222c2.645,4.575,3.352,9.907,1.98,15.013c-1.365,5.106-4.639,9.374-9.214,12.015
				c-3.766,2.174-15.59,7.183-27.738,11.156c12.136,3.969,23.958,8.976,27.738,11.155c4.575,2.645,7.85,6.913,9.214,12.018
				c1.372,5.106,0.665,10.438-1.98,15.013c-2.638,4.579-6.902,7.853-12.008,9.218c-1.704,0.456-3.437,0.682-5.155,0.682
				c-3.43,0-6.817-0.898-9.865-2.659c-3.714-2.144-14.001-9.912-23.535-18.461c2.637,12.533,4.215,25.318,4.215,29.617
				c0,10.912-8.875,19.787-19.787,19.787s-19.787-8.875-19.787-19.787c0-4.308,1.579-17.104,4.22-29.639
				c-9.355,8.391-19.571,16.191-23.54,18.483c-3.048,1.761-6.436,2.659-9.865,2.659c-1.718,0-3.451-0.226-5.155-0.682
				c-5.106-1.365-9.37-4.639-12.008-9.218c-2.645-4.575-3.352-9.907-1.98-15.013c1.365-5.106,4.639-9.374,9.214-12.018
				c4.039-2.331,15.853-7.249,27.772-11.143c-12.16-3.976-24.003-8.992-27.772-11.168c-4.575-2.641-7.85-6.909-9.214-12.015
				c-1.372-5.106-0.665-10.438,1.98-15.017c2.638-4.575,6.902-7.85,12.008-9.218c1.703-0.456,3.432-0.682,5.15-0.682
				c3.432,0,6.821,0.901,9.871,2.658c3.976,2.298,14.19,10.097,23.54,18.482c-2.64-12.54-4.22-25.336-4.22-29.638
				C212.213,152.875,221.088,144,232,144 M241.22,236.548l0.33-0.094l8.645-16.082l-10.109-14.687l-1.585-1.481l-12.954-0.006
				l-1.616,1.51l-8.515,12.332l0.421,1.861l8.08,15.161l0,0l1.581,1.477l15.723,0.007L241.22,236.548 M232,128
				c-18.094,0-33.094,13.497-35.461,30.952c-4.292-1.756-8.886-2.668-13.516-2.668c-3.126,0-6.252,0.413-9.292,1.227
				c-9.237,2.476-16.953,8.4-21.728,16.682c-4.781,8.277-6.052,17.927-3.57,27.16c2.043,7.643,6.463,14.257,12.635,19.02
				c-6.176,4.769-10.594,11.385-12.641,19.041c-2.476,9.215-1.205,18.866,3.585,27.152c4.764,8.27,12.485,14.197,21.728,16.668
				c3.035,0.813,6.162,1.225,9.287,1.225c4.633,0,9.227-0.913,13.511-2.666c2.369,17.453,17.369,30.95,35.461,30.95
				s33.092-13.496,35.461-30.949c4.283,1.753,8.877,2.666,13.511,2.666c3.125,0,6.252-0.413,9.292-1.227
				c9.238-2.469,16.958-8.396,21.735-16.687c4.778-8.266,6.049-17.916,3.567-27.152c-2.042-7.641-6.462-14.256-12.635-19.021
				c6.172-4.763,10.593-11.38,12.641-19.04c2.476-9.215,1.205-18.866-3.585-27.152c-4.761-8.265-12.479-14.192-21.718-16.669
				c-3.045-0.815-6.17-1.227-9.295-1.227c-4.63,0-9.226,0.914-13.513,2.667C265.094,141.496,250.094,128,232,128L232,128z"/>
		</g>
	</g>
	<g>
		<g>
			<path style="fill:#DC5869;" d="M394.288,23.282c5.735,3.334,10.815,7.735,14.759,13.158l51.166,70.353
				c2.211,3.04,2.007,7.21-0.491,10.02l-53.92,60.661c-3.119,3.508-8.574,3.59-11.796,0.177l-8.471-8.973l0,0
				C385.534,168.677,344.043,91.604,394.288,23.282z"/>
		</g>
	</g>
	<g>
		<g>
			<path style="fill:#DC5869;" d="M69.712,23.282c-5.735,3.334-10.815,7.735-14.759,13.158L3.787,106.792
				c-2.211,3.04-2.007,7.21,0.491,10.02l53.92,60.661c3.119,3.508,8.574,3.59,11.796,0.177l8.471-8.973l0,0
				C78.466,168.677,119.957,91.604,69.712,23.282z"/>
		</g>
	</g>
	<g>
		<g>
			<path style="fill:#C95264;" d="M78.466,168.677L12.639,94.622l-8.852,12.171c-2.211,3.04-2.007,7.21,0.491,10.02l53.92,60.661
				c3.119,3.508,8.574,3.59,11.796,0.177L78.466,168.677z"/>
		</g>
	</g>
	<g>
		<g>
			<path style="fill:#C95264;" d="M73.013,328.051l-0.354,8.359c-0.358,8.463,5.976,15.463,14.372,16.589
				c50.044,6.713,89.621,46.475,96.052,96.608c1.045,8.145,7.683,14.392,15.895,14.392H208
				C208,389.231,147.652,328.603,73.013,328.051z"/>
		</g>
	</g>
	<g>
		<g>
			<path style="fill:#C95264;" d="M385.534,168.677l65.827-74.055l8.852,12.171c2.211,3.04,2.007,7.21-0.491,10.02l-53.92,60.661
				c-3.119,3.508-8.574,3.59-11.796,0.177L385.534,168.677z"/>
		</g>
	</g>
	<g>
		<g>
			<path style="fill:#C95264;" d="M390.987,328.051l0.354,8.359c0.358,8.463-5.976,15.463-14.372,16.589
				c-50.044,6.713-89.621,46.475-96.052,96.608c-1.045,8.145-7.683,14.392-15.895,14.392H256
				C256,389.231,316.348,328.603,390.987,328.051z"/>
		</g>
	</g>
	<g>
		<g>
			<path style="fill:#C95264;" d="M232,96c53.896,0,98.21-41,103.47-93.51l-5.167-1.722C328.778,0.259,327.18,0,325.572,0h-1.43
				c-7.048,0-12.884,4.98-14.624,11.81C300.705,46.411,269.344,72,232,72s-68.705-25.589-77.519-60.19
				C152.741,4.98,146.905,0,139.857,0h-1.43c-1.608,0-3.206,0.259-4.731,0.768L128.53,2.49C133.79,55,178.104,96,232,96z"/>
		</g>
	</g>
	<g>
		<g>
			<path style="fill:#FFC855;" d="M290.9,231.527c-2.952-1.701-10.81-5.128-19.891-8.438c-2.549-0.929-2.549-4.504,0-5.433
				c9.09-3.313,16.949-6.742,19.891-8.44c4.575-2.641,7.85-6.909,9.214-12.015c1.372-5.106,0.665-10.438-1.98-15.013
				c-2.638-4.579-6.902-7.853-12.008-9.222c-5.113-1.368-10.445-0.661-15.02,1.977c-3.091,1.787-9.959,6.906-17.26,13.04
				c-2.078,1.746-5.178-0.043-4.707-2.716c1.682-9.56,2.647-18.113,2.647-21.48c0-10.912-8.875-19.787-19.787-19.787
				s-19.787,8.875-19.787,19.787c0,3.365,0.967,11.93,2.653,21.505c0.468,2.657-2.644,4.424-4.709,2.689
				c-7.301-6.133-14.17-11.25-17.263-13.038c-4.575-2.638-9.915-3.345-15.02-1.977s-9.37,4.643-12.008,9.218
				c-2.645,4.579-3.352,9.911-1.98,15.017c1.365,5.106,4.639,9.374,9.214,12.015c2.946,1.7,10.822,5.136,19.928,8.453
				c2.545,0.927,2.545,4.499-0.002,5.423c-8.94,3.244-16.784,6.622-19.926,8.435c-4.575,2.645-7.85,6.913-9.214,12.018
				c-1.372,5.106-0.665,10.438,1.98,15.013c2.638,4.579,6.902,7.853,12.008,9.218c1.704,0.456,3.437,0.682,5.155,0.682
				c3.43,0,6.817-0.898,9.865-2.659c3.088-1.784,9.956-6.9,17.259-13.035c2.079-1.746,5.178,0.043,4.707,2.717
				c-1.682,9.558-2.646,18.108-2.646,21.474c0,10.912,8.875,19.787,19.787,19.787s19.787-8.875,19.787-19.787
				c0-3.361-0.965-11.908-2.646-21.467c-0.467-2.655,2.617-4.464,4.683-2.732c7.446,6.245,14.376,11.366,17.283,13.043
				c3.048,1.761,6.435,2.659,9.865,2.659c1.718,0,3.451-0.226,5.155-0.682c5.106-1.365,9.37-4.639,12.008-9.218
				c2.645-4.575,3.352-9.907,1.98-15.013C298.75,238.439,295.476,234.172,290.9,231.527z M241.22,236.547l-15.723-0.008
				l-1.581-1.477l0,0l-8.08-15.16l-0.421-1.861l8.515-12.332l1.616-1.51l12.955,0.006l1.585,1.481l10.109,14.687l-8.644,16.082
				l-0.33,0.094L241.22,236.547z"/>
		</g>
	</g>
	<g>
		<g>
			<circle style="fill:#FFFFFF;" cx="232" cy="220.372" r="20.693"/>
		</g>
	</g>
</g>
<g>
</g>
<g>
</g>
<g>
</g>
<g>
</g>
<g>
</g>
<g>
</g>
<g>
</g>
<g>
</g>
<g>
</g>
<g>
</g>
<g>
</g>
<g>
</g>
<g>
</g>
<g>
</g>
<g>
</g>
</svg>
