<?xml version="1.0" encoding="iso-8859-1"?>
<!-- Generator: Adobe Illustrator 19.0.0, SVG Export Plug-In . SVG Version: 6.00 Build 0)  -->
<svg version="1.1" id="Layer_1" xmlns="http://www.w3.org/2000/svg" xmlns:xlink="http://www.w3.org/1999/xlink" x="0px" y="0px"
	 viewBox="0 0 464 464" style="enable-background:new 0 0 464 464;" xml:space="preserve">
<g>
	<g>
		<g>
			<path style="fill:#D25566;" d="M264,72h-64V16c0-8.837,7.163-16,16-16h32c8.837,0,16,7.163,16,16V72z"/>
		</g>
	</g>
	<g>
		<g>
			<path style="fill:#B64C5F;" d="M240,0h-24c-8.836,0-16,7.163-16,16v56h24V16C224,7.163,231.164,0,240,0z"/>
		</g>
	</g>
	<g>
		<g>
			<path style="fill:#A5465A;" d="M232,464L232,464c-4.418,0-8-3.582-8-8v-27.005h16V456C240,460.418,236.418,464,232,464z"/>
		</g>
	</g>
	<g>
		<g>
			<path style="fill:#FF6472;" d="M272,328h-80V56c0-4.418,3.582-8,8-8h64c4.418,0,8,3.582,8,8V328z"/>
		</g>
	</g>
	<g>
		<g>
			<path style="fill:#D25566;" d="M241.636,432h-19.272c-3.725,0-6.957-2.571-7.795-6.201L192,328h80l-22.569,97.799
				C248.593,429.429,245.361,432,241.636,432z"/>
		</g>
	</g>
	<g>
		<g>
			<path style="fill:#D25566;" d="M216,328h-24V56c0-4.418,3.582-8,8-8h16V328z"/>
		</g>
	</g>
	<g>
		<g>
			<path style="fill:#B64C5F;" d="M192,328l22.569,97.799c0.838,3.63,4.07,6.201,7.795,6.201H232l-16-104H192z"/>
		</g>
	</g>
	<g>
		<g>
			<path style="fill:#FFA2AA;" d="M248,96L248,96c4.418,0,8-3.582,8-8V72c0-4.418-3.582-8-8-8l0,0c-4.418,0-8,3.582-8,8v16
				C240,92.418,243.582,96,248,96z"/>
		</g>
	</g>
	<g>
		<g>
			<path style="fill:#FF838E;" d="M248,232L248,232c4.418,0,8-3.582,8-8V120c0-4.418-3.582-8-8-8l0,0c-4.418,0-8,3.582-8,8v104
				C240,228.418,243.582,232,248,232z"/>
		</g>
	</g>
</g>
<g>
</g>
<g>
</g>
<g>
</g>
<g>
</g>
<g>
</g>
<g>
</g>
<g>
</g>
<g>
</g>
<g>
</g>
<g>
</g>
<g>
</g>
<g>
</g>
<g>
</g>
<g>
</g>
<g>
</g>
</svg>
