<?xml version="1.0" encoding="iso-8859-1"?>
<!-- Generator: Adobe Illustrator 19.0.0, SVG Export Plug-In . SVG Version: 6.00 Build 0)  -->
<svg version="1.1" id="Layer_1" xmlns="http://www.w3.org/2000/svg" xmlns:xlink="http://www.w3.org/1999/xlink" x="0px" y="0px"
	 viewBox="0 0 464 464" style="enable-background:new 0 0 464 464;" xml:space="preserve">
<path style="fill:#FFD778;" d="M264,0h-16h-32h-16c-8.837,0-16,7.163-16,16v328c0-8.837,7.164-16,16-16s16,7.163,16,16
	c0-8.837,7.164-16,16-16s16,7.163,16,16c0-8.837,7.164-16,16-16s16,7.163,16,16V16C280,7.163,272.837,0,264,0z"/>
<polygon style="fill:#FFE6A1;" points="184,344 232,464 280,344 280,304 184,304 "/>
<g>
	<polygon style="fill:#FFD796;" points="232,464 216,344 216,304 184,303.995 184,344 	"/>
</g>
<path style="fill:#FFB44B;" d="M184,16v328c0-8.837,7.164-16,16-16s16,7.163,16,16V0h-16C191.163,0,184,7.163,184,16z"/>
<path style="fill:#FFC855;" d="M216,0v344c0-8.837,7.164-16,16-16s16,7.163,16,16V0H216z"/>
<path style="fill:#FFD778;" d="M248,0v344c0-8.837,7.164-16,16-16s16,7.163,16,16V16c0-8.837-7.163-16-16-16H248z"/>
<polygon style="fill:#FF6472;" points="209.6,408 232,464 254.4,408 "/>
<polygon style="fill:#D25566;" points="209.6,408 232,464 224.533,408 "/>
<rect x="184" y="40" style="fill:#D25566;" width="32" height="24"/>
<rect x="216" y="40" style="fill:#FF6472;" width="64" height="24"/>
<g>
</g>
<g>
</g>
<g>
</g>
<g>
</g>
<g>
</g>
<g>
</g>
<g>
</g>
<g>
</g>
<g>
</g>
<g>
</g>
<g>
</g>
<g>
</g>
<g>
</g>
<g>
</g>
<g>
</g>
</svg>
