<?xml version="1.0" encoding="iso-8859-1"?>
<!-- Generator: Adobe Illustrator 19.0.0, SVG Export Plug-In . SVG Version: 6.00 Build 0)  -->
<svg version="1.1" id="Layer_1" xmlns="http://www.w3.org/2000/svg" xmlns:xlink="http://www.w3.org/1999/xlink" x="0px" y="0px"
	 viewBox="0 0 464 464" style="enable-background:new 0 0 464 464;" xml:space="preserve">
<g>
	<g>
		<g>
			<path style="fill:#CDE6F5;" d="M159.765,250.96c41.719,41.719,91.268,55.81,113.137,33.941s7.778-71.418-33.941-113.137
				c-14.615-14.615-35.291-19.445-53.929-14.519c-8.331,2.202-17.192-0.033-23.285-6.126l-24.609-24.609l-22.627,22.627
				l24.609,24.609c6.093,6.093,8.328,14.954,6.126,23.285C140.32,215.67,145.15,236.346,159.765,250.96z"/>
		</g>
		<g>
			<path style="fill:#FFC855;" d="M7.029,19.029L7.029,19.029c9.373-9.373,24.569-9.373,33.941,0l96.167,96.167
				c3.124,3.124,3.124,8.19,0,11.314l-22.627,22.627c-3.124,3.124-8.19,3.124-11.314,0L7.029,52.971
				C-2.343,43.598-2.343,28.402,7.029,19.029z"/>
		</g>
		<g>
			<path style="fill:#FFB44B;" d="M24,36l96.167,96.167c3.124,3.124,3.124,8.189,0,11.314l16.971-16.971
				c3.124-3.124,3.124-8.189,0-11.314L40.971,19.029c-9.373-9.373-24.569-9.373-33.941,0c-3.107,3.107-5.084,6.876-6.132,10.839
				C8.889,27.757,17.734,29.734,24,36z"/>
		</g>
	</g>
	<path style="fill:#FFEAE0;" d="M423.749,280c0.164-1.31,0.251-2.644,0.251-4c0-17.673-14.327-32-32-32
		c-0.273,0-0.526,0.074-0.798,0.081C387.525,225.785,371.378,212,352,212c-7.545,0-14.524,2.213-20.547,5.845
		C324.82,204.93,311.518,196,296,196c-7.217,0-13.893,2.063-19.739,5.407C268.995,184.132,251.916,172,232,172
		c-17.456,0-32.689,9.349-41.09,23.282C184.414,190.723,176.539,188,168,188c-14.659,0-27.34,7.971-34.306,19.731
		C128.276,205.347,122.299,204,116,204c-23.347,0-42.394,18.198-43.857,41.176C69.528,244.485,66.832,244,64,244
		c-17.673,0-32,14.327-32,32c0,1.356,0.094,2.689,0.258,4H423.749z"/>
	<path style="fill:#FFE0CC;" d="M335.8,280c0.131-1.316,0.2-2.65,0.2-4c0-22.091-17.909-40-40-40c-7.482,0-14.48,2.059-20.469,5.634
		C268.876,228.786,255.468,220,240,220c-19.359,0-35.503,13.752-39.202,32.02c-0.266-0.007-0.53-0.02-0.798-0.02
		c-16.317,0-29.772,12.216-31.742,28H335.8z"/>
	<path style="fill:#FFE0CC;" d="M238.849,172.52c-2.24-0.32-4.52-0.52-6.849-0.52c-17.456,0-32.689,9.349-41.09,23.282
		C184.414,190.723,176.539,188,168,188c-14.659,0-27.34,7.971-34.306,19.731C128.276,205.347,122.299,204,116,204
		c-23.347,0-42.394,18.198-43.857,41.176C69.528,244.485,66.832,244,64,244c-17.673,0-32,14.327-32,32c0,1.358,0.095,2.69,0.262,4
		h56.492c-0.49-2.592-0.754-5.264-0.754-8c0-24.301,19.7-44,44-44c7.481,0,14.52,1.879,20.688,5.173
		C155.882,216.562,170.456,204,188,204c7.501,0,14.458,2.303,20.225,6.228C208.178,209.477,208,208.763,208,208
		C208,189.882,221.429,175.038,238.849,172.52z"/>
	<path style="fill:#FFE0CC;" d="M151.476,280c0.33-1.281,0.524-2.616,0.524-4c0-8.836-7.163-16-16-16s-16,7.164-16,16
		c0,1.384,0.194,2.719,0.524,4H151.476z"/>
	<path style="fill:#EBCDB4;" d="M295.662,280c-1.905-11.35-11.771-20-23.662-20c-3.125,0-6.106,0.604-8.844,1.69
		C260.384,251.498,251.07,244,240,244c-13.255,0-24,10.745-24,24c0,4.373,1.175,8.469,3.219,12H295.662z"/>
	<path style="fill:#FFE0CC;" d="M391.476,280c0.33-1.281,0.524-2.616,0.524-4c0-8.836-7.163-16-16-16s-16,7.164-16,16
		c0,1.384,0.194,2.719,0.524,4H391.476z"/>
	<path style="fill:#00BED2;" d="M16,300l58.316,109.583C88.208,435.688,115.367,452,144.938,452h174.123
		c29.571,0,56.73-16.312,70.623-42.417L448,300H16z"/>
	<path style="fill:#00A6BD;" d="M452,300H12c-6.627,0-12-5.373-12-12l0,0c0-6.627,5.373-12,12-12h440c6.627,0,12,5.373,12,12l0,0
		C464,294.627,458.627,300,452,300z"/>
	<path style="fill:#00A6BD;" d="M162.316,409.583L104,300H16l58.316,109.583C88.208,435.688,115.367,452,144.938,452h88
		C203.367,452,176.208,435.688,162.316,409.583z"/>
	<path style="fill:#0096AF;" d="M116,300H12c-6.627,0-12-5.373-12-12l0,0c0-6.627,5.373-12,12-12h104c6.627,0,12,5.373,12,12l0,0
		C128,294.627,122.627,300,116,300z"/>
	<circle style="fill:#B2C56D;" cx="264" cy="396" r="8"/>
	<circle style="fill:#FFC855;" cx="296" cy="396" r="8"/>
	<circle style="fill:#B2C56D;" cx="200" cy="396" r="8"/>
	<circle style="fill:#FFC855;" cx="232" cy="396" r="8"/>
	<circle style="fill:#FFC855;" cx="264" cy="348" r="8"/>
	<circle style="fill:#B2C56D;" cx="168" cy="348" r="8"/>
	<circle style="fill:#FFC855;" cx="200" cy="348" r="8"/>
	<circle style="fill:#B2C56D;" cx="232" cy="348" r="8"/>
	<circle style="fill:#FFC855;" cx="280" cy="372" r="8"/>
	<circle style="fill:#B2C56D;" cx="184" cy="372" r="8"/>
	<circle style="fill:#FFC855;" cx="216" cy="372" r="8"/>
	<circle style="fill:#B2C56D;" cx="248" cy="372" r="8"/>
	<circle style="fill:#B2C56D;" cx="136" cy="396" r="8"/>
	<circle style="fill:#FFC855;" cx="168" cy="396" r="8"/>
	<circle style="fill:#FFC855;" cx="104" cy="396" r="8"/>
	<circle style="fill:#FFC855;" cx="136" cy="348" r="8"/>
	<circle style="fill:#FFC855;" cx="72" cy="348" r="8"/>
	<circle style="fill:#B2C56D;" cx="104" cy="348" r="8"/>
	<circle style="fill:#FFC855;" cx="152" cy="372" r="8"/>
	<circle style="fill:#FFC855;" cx="88" cy="372" r="8"/>
	<circle style="fill:#B2C56D;" cx="120" cy="372" r="8"/>
	<circle style="fill:#B2C56D;" cx="328" cy="396" r="8"/>
	<circle style="fill:#FFC855;" cx="360" cy="396" r="8"/>
	<circle style="fill:#FFC855;" cx="328" cy="348" r="8"/>
	<circle style="fill:#B2C56D;" cx="296" cy="348" r="8"/>
	<circle style="fill:#FFC855;" cx="344" cy="372" r="8"/>
	<circle style="fill:#B2C56D;" cx="312" cy="372" r="8"/>
	<circle style="fill:#FFC855;" cx="392" cy="348" r="8"/>
	<circle style="fill:#B2C56D;" cx="360" cy="348" r="8"/>
	<circle style="fill:#B2C56D;" cx="376" cy="372" r="8"/>
	<path style="fill:#B2C56D;" d="M424,340c-4.418,0-8,3.582-8,8c0,2.562,1.282,4.739,3.155,6.204l7.295-13.709
		C425.667,340.238,424.869,340,424,340z"/>
	<path style="fill:#FFC855;" d="M408,364c-4.418,0-8,3.582-8,8c0,3.594,2.414,6.521,5.677,7.531l7.272-13.665
		C411.576,364.758,409.901,364,408,364z"/>
	<path style="fill:#B2C56D;" d="M392,388c-4.418,0-8,3.582-8,8s3.582,8,8,8c0.26,0,0.48-0.124,0.734-0.148l6.189-11.631
		C397.563,389.745,395.025,388,392,388z"/>
	<path style="fill:#B2C56D;" d="M40,340c-0.869,0-1.667,0.238-2.45,0.495l7.295,13.709C46.718,352.739,48,350.562,48,348
		C48,343.582,44.418,340,40,340z"/>
	<path style="fill:#B2C56D;" d="M56,364c-1.901,0-3.576,0.758-4.949,1.866l7.272,13.665C61.586,378.521,64,375.594,64,372
		C64,367.582,60.418,364,56,364z"/>
	<path style="fill:#B2C56D;" d="M72,388c-3.025,0-5.563,1.745-6.923,4.221l6.189,11.631C71.52,403.876,71.74,404,72,404
		c4.418,0,8-3.582,8-8S76.418,388,72,388z"/>
</g>
<g>
</g>
<g>
</g>
<g>
</g>
<g>
</g>
<g>
</g>
<g>
</g>
<g>
</g>
<g>
</g>
<g>
</g>
<g>
</g>
<g>
</g>
<g>
</g>
<g>
</g>
<g>
</g>
<g>
</g>
</svg>
