<?xml version="1.0" encoding="iso-8859-1"?>
<!-- Generator: Adobe Illustrator 19.0.0, SVG Export Plug-In . SVG Version: 6.00 Build 0)  -->
<svg version="1.1" id="Layer_1" xmlns="http://www.w3.org/2000/svg" xmlns:xlink="http://www.w3.org/1999/xlink" x="0px" y="0px"
	 viewBox="0 0 432 432" style="enable-background:new 0 0 432 432;" xml:space="preserve">
<g>
	<g>
		<g>
			<path style="fill:#FFEAE0;" d="M384,432H48c-26.51,0-48-21.49-48-48V48C0,21.49,21.49,0,48,0h336c26.51,0,48,21.49,48,48v336
				C432,410.51,410.51,432,384,432z"/>
		</g>
	</g>
	<g>
		<g>
			<circle style="fill:#00AA9A;" cx="124" cy="307.338" r="72"/>
		</g>
	</g>
	<g>
		<g>
			<path style="fill:#E15050;" d="M190.013,188.856H57.987c-6.187,0-10.033-6.723-6.895-12.056l66.013-112.222
				c3.093-5.258,10.698-5.258,13.791,0L196.908,176.8C200.045,182.133,196.2,188.856,190.013,188.856z"/>
		</g>
	</g>
	<g>
		<g>
			<path style="fill:#FFC855;" d="M306.156,359.438l37.22,19.568c6.599,3.469,14.311-2.134,13.051-9.482l-7.108-41.445
				l30.112-29.351c5.339-5.204,2.393-14.27-4.985-15.342l-41.613-6.047l-18.61-37.708c-3.299-6.685-12.832-6.685-16.132,0
				l-18.61,37.708l-41.613,6.047c-7.378,1.072-10.324,10.138-4.985,15.342l30.111,29.351l-7.108,41.445
				c-1.26,7.348,6.452,12.951,13.051,9.482L306.156,359.438z"/>
		</g>
	</g>
	<g>
		<g>
			<path style="fill:#00BED2;" d="M384.742,119.442L307.57,42.27c-0.781-0.781-2.047-0.781-2.828,0l-77.172,77.172
				c-0.781,0.781-0.781,2.047,0,2.828l77.172,77.172c0.781,0.781,2.047,0.781,2.828,0l77.172-77.172
				C385.523,121.489,385.523,120.223,384.742,119.442z"/>
		</g>
	</g>
	<g>
		<g>
			<circle style="fill:#00BEA5;" cx="124" cy="307.338" r="72"/>
		</g>
	</g>
	<g>
		<g>
			<path style="fill:#FFC855;" d="M306.156,359.438l-37.22,19.568c-6.599,3.469-14.311-2.134-13.051-9.482l7.108-41.445
				l-30.111-29.351c-5.339-5.204-2.393-14.27,4.985-15.342l41.613-6.047l18.61-37.708c3.299-6.685,12.832-6.685,16.132,0
				l18.61,37.708l41.613,6.047c7.378,1.072,10.324,10.138,4.985,15.342l-30.112,29.351l7.108,41.445
				c1.26,7.348-6.452,12.951-13.051,9.482L306.156,359.438z"/>
		</g>
	</g>
	<g>
		<g>
			<path style="fill:#FFE0CC;" d="M347.578,388.063c-2.703,0-5.414-0.656-7.922-1.977l-33.5-17.609l-33.492,17.609
				c-5.781,3.039-12.625,2.539-17.906-1.289c-5.266-3.828-7.859-10.195-6.758-16.625l6.398-37.305l-27.102-26.414
				c-4.664-4.547-6.313-11.219-4.297-17.414c2.008-6.195,7.266-10.633,13.711-11.57l37.453-5.445l16.758-33.93
				c2.875-5.844,8.719-9.477,15.234-9.477s12.359,3.633,15.234,9.477l16.75,33.93l37.453,5.445
				c6.453,0.938,11.711,5.375,13.719,11.57c2.016,6.195,0.367,12.867-4.297,17.414l-27.102,26.414l6.398,37.305
				c1.102,6.43-1.492,12.797-6.758,16.625C354.57,386.961,351.086,388.063,347.578,388.063z M306.156,350.398l40.945,21.531
				c0.156,0.086,0.539,0.289,1.047-0.078c0.5-0.367,0.43-0.797,0.398-0.977l-7.82-45.586L373.844,293
				c0.133-0.133,0.445-0.43,0.25-1.023c-0.188-0.586-0.625-0.648-0.805-0.68l-45.773-6.648l-20.469-41.477
				c-0.172-0.328-1.609-0.328-1.781,0l-20.477,41.477l-45.773,6.648c-0.172,0.031-0.609,0.094-0.797,0.68
				c-0.195,0.594,0.117,0.891,0.25,1.023l33.117,32.289l-7.82,45.586c-0.031,0.18-0.102,0.609,0.398,0.977
				c0.508,0.359,0.891,0.156,1.055,0.078L306.156,350.398z"/>
		</g>
	</g>
	<g>
		<g>
			<path style="fill:#00BED2;" d="M374.842,109.542L317.47,52.17c-6.248-6.248-16.379-6.248-22.627,0l-57.373,57.373
				c-6.248,6.248-6.248,16.379,0,22.627l57.373,57.373c6.248,6.248,16.379,6.248,22.627,0l57.373-57.373
				C381.091,125.921,381.091,115.79,374.842,109.542z"/>
		</g>
	</g>
	<g>
		<g>
			<g>
				<path style="fill:#FFB44B;" d="M322.782,326.479l27.273-26.591c0.109-0.109,0.367-0.354,0.206-0.843
					c-0.155-0.482-0.515-0.534-0.656-0.56l-37.696-5.476l-15.623-31.644l8.979-18.195c0.172-0.328,1.609-0.328,1.781,0
					l20.477,41.477l45.773,6.648c0.172,0.031,0.609,0.094,0.797,0.68c0.195,0.594-0.117,0.891-0.25,1.023l-33.117,32.289
					l7.82,45.586c0.031,0.18,0.102,0.609-0.398,0.977c-0.508,0.359-0.891,0.156-1.055,0.078l-18.153-9.547L322.782,326.479z"/>
			</g>
		</g>
	</g>
	<g>
		<g>
			<path style="fill:#00A6BD;" d="M374.842,109.542L317.47,52.169c-6.248-6.249-16.379-6.249-22.627,0l-5.078,5.078l57.952,57.951
				c3.124,3.125,3.124,8.189,0,11.314l-57.952,57.951l5.078,5.078c6.249,6.249,16.379,6.249,22.627,0l57.373-57.373
				C381.091,125.921,381.091,115.791,374.842,109.542z"/>
		</g>
	</g>
	<g>
		<g>
			<path style="fill:#FFE0CC;" d="M306.156,202.211c-6.148,0-12.289-2.336-16.969-7.016l-57.375-57.367
				c-9.359-9.359-9.359-24.586,0-33.945l57.375-57.367c9.359-9.359,24.578-9.359,33.938,0l57.375,57.367
				c9.359,9.359,9.359,24.586,0,33.945l-57.375,57.367C318.445,199.875,312.305,202.211,306.156,202.211z M306.156,55.492
				c-2.047,0-4.094,0.773-5.656,2.336l-57.375,57.367c-3.117,3.125-3.117,8.195,0,11.32l57.375,57.367
				c3.125,3.109,8.188,3.125,11.313,0l57.375-57.367c3.117-3.125,3.117-8.195,0-11.32l-57.375-57.367
				C310.25,56.273,308.203,55.492,306.156,55.492z"/>
		</g>
	</g>
	<g>
		<g>
			<path style="fill:#D24146;" d="M196.908,176.799L130.896,64.578c-3.093-5.259-10.698-5.259-13.791,0l-8.117,13.799l57.896,98.422
				c3.137,5.333-0.708,12.056-6.896,12.056h30.025C196.2,188.855,200.045,182.133,196.908,176.799z"/>
		</g>
	</g>
	<g>
		<g>
			<path style="fill:#FFE0CC;" d="M190.016,196.859H57.984c-5.813,0-11-3.016-13.891-8.055c-2.883-5.047-2.844-11.055,0.109-16.063
				l66-112.219c2.906-4.938,8.063-7.891,13.797-7.891s10.891,2.953,13.797,7.891l66.008,112.219
				c2.945,5.008,2.984,11.016,0.102,16.063C201.016,193.844,195.828,196.859,190.016,196.859z M124,68.633L57.992,180.852
				l132.063,0.008L124,68.633z"/>
		</g>
	</g>
	<g>
		<g>
			<path style="fill:#00AA9A;" d="M124,235.337c-4.793,0-9.469,0.491-14,1.385c33.06,6.519,58,35.644,58,70.615
				c0,34.972-24.94,64.097-58,70.615c4.531,0.894,9.207,1.385,14,1.385c39.765,0,72-32.235,72-72
				C196,267.573,163.765,235.337,124,235.337z"/>
		</g>
	</g>
	<g>
		<g>
			<path style="fill:#FFE0CC;" d="M124,387.336c-44.109,0-80-35.891-80-80s35.891-80,80-80s80,35.891,80,80
				S168.109,387.336,124,387.336z M124,243.336c-35.289,0-64,28.711-64,64s28.711,64,64,64s64-28.711,64-64
				S159.289,243.336,124,243.336z"/>
		</g>
	</g>
</g>
<g>
</g>
<g>
</g>
<g>
</g>
<g>
</g>
<g>
</g>
<g>
</g>
<g>
</g>
<g>
</g>
<g>
</g>
<g>
</g>
<g>
</g>
<g>
</g>
<g>
</g>
<g>
</g>
<g>
</g>
</svg>
