<?xml version="1.0" encoding="iso-8859-1"?>
<!-- Generator: Adobe Illustrator 19.0.0, SVG Export Plug-In . SVG Version: 6.00 Build 0)  -->
<svg version="1.1" id="Layer_1" xmlns="http://www.w3.org/2000/svg" xmlns:xlink="http://www.w3.org/1999/xlink" x="0px" y="0px"
	 viewBox="0 0 464.001 464.001" style="enable-background:new 0 0 464.001 464.001;" xml:space="preserve">
<g>
	<g>
		<g>
			<path style="fill:#E15050;" d="M348.998,193.255c-10.565,14.299-27.742,23.401-47.046,22.708
				c-29.217-1.05-53.447-25.778-53.933-55.01C247.499,129.589,272.767,104,304.012,104c18.564,0,34.978,9.055,45.153,22.972
				c4.313,5.899,11.475,9.028,18.782,9.028l0,0c13.29,0,24.065-10.774,24.065-24.065V24c0-13.255-10.745-24-24-24h-272
				c-13.255,0-24,10.745-24,24v272c0,13.255,10.745,24,24,24h87.935c13.29,0,24.065,10.774,24.064,24.065v0.022
				c0,7.402-3.302,14.529-9.255,18.928c-14.299,10.565-23.401,27.742-22.707,47.045c1.05,29.217,25.778,53.447,55.01,53.933
				c31.364,0.521,56.953-24.747,56.953-55.992c0-18.564-9.055-34.978-22.972-45.153c-5.899-4.313-9.028-11.475-9.028-18.782l0,0
				c0-13.29,10.774-24.065,24.065-24.065h87.935c13.255,0,24-10.745,24-24v-88.463c0-12.999-10.547-23.537-23.546-23.537h-0.44
				C360.521,184,353.397,187.302,348.998,193.255z"/>
		</g>
	</g>
	<g>
		<g>
			<g>
				<path style="fill:#D24146;" d="M192.025,410.059c-0.694-19.303,8.408-36.48,22.707-47.045
					c5.953-4.398,9.255-11.526,9.255-18.928v-0.021c0-13.291-10.774-24.064-24.064-24.064h-16c13.291,0,24.064,10.774,24.064,24.064
					v0.021c0,7.402-3.302,14.529-9.255,18.928c-14.299,10.565-23.401,27.742-22.708,47.045c1.05,29.218,25.778,53.447,55.01,53.933
					c3.061,0.051,6.045-0.213,8.978-0.635C213.949,459.475,192.99,436.899,192.025,410.059z"/>
			</g>
		</g>
		<g>
			<g>
				<path style="fill:#D24146;" d="M87.988,296V24c0-13.255,10.745-24,24-24h-16c-13.255,0-24,10.745-24,24v272
					c0,13.255,10.745,24,24,24h16C98.733,320,87.988,309.255,87.988,296z"/>
			</g>
		</g>
	</g>
	<g>
		<g>
			<path style="fill:#E77373;" d="M210.457,311.992c-1.516,0-3.055-0.43-4.414-1.336c-6.57-4.352-14.211-6.656-22.094-6.656h-23.938
				c-4.422,0-8-3.578-8-8s3.578-8,8-8h23.938c11.039,0,21.742,3.227,30.938,9.328c3.68,2.438,4.688,7.406,2.242,11.086
				C215.59,310.734,213.051,311.992,210.457,311.992z"/>
		</g>
	</g>
	<g>
		<g>
			<path style="fill:#ED9696;" d="M128.012,304h-16c-4.422,0-8-3.578-8-8s3.578-8,8-8h16c4.422,0,8,3.578,8,8
				S132.434,304,128.012,304z"/>
		</g>
	</g>
	<g>
		<g>
			<path style="fill:#ED9696;" d="M368.012,32h-16c-4.422,0-8-3.578-8-8s3.578-8,8-8h16c4.422,0,8,3.578,8,8S372.434,32,368.012,32z
				"/>
		</g>
	</g>
	<g>
		<g>
			<path style="fill:#E77373;" d="M320.012,32h-80c-4.422,0-8-3.578-8-8s3.578-8,8-8h80c4.422,0,8,3.578,8,8S324.434,32,320.012,32z
				"/>
		</g>
	</g>
</g>
<g>
</g>
<g>
</g>
<g>
</g>
<g>
</g>
<g>
</g>
<g>
</g>
<g>
</g>
<g>
</g>
<g>
</g>
<g>
</g>
<g>
</g>
<g>
</g>
<g>
</g>
<g>
</g>
<g>
</g>
</svg>
