<?xml version="1.0" encoding="iso-8859-1"?>
<!-- Generator: Adobe Illustrator 19.0.0, SVG Export Plug-In . SVG Version: 6.00 Build 0)  -->
<svg version="1.1" id="Layer_1" xmlns="http://www.w3.org/2000/svg" xmlns:xlink="http://www.w3.org/1999/xlink" x="0px" y="0px"
	 viewBox="0 0 464 464" style="enable-background:new 0 0 464 464;" xml:space="preserve">
<g>
	<g>
		<g>
			<path style="fill:#009D93;" d="M168,113.302V16c0-8.837-7.164-16-16-16s-16,7.163-16,16v123.487"/>
		</g>
	</g>
	<g>
		<g>
			<path style="fill:#00BEA5;" d="M359.563,202.494c0.64-7.679,0.589-15.556-0.238-23.582
				C352.824,115.763,299.158,65.843,235.7,64.053C163.319,62.01,104,120.078,104,192c0,3.118,0.115,6.208,0.34,9.268
				c1.728,23.485,0.403,47.33-7.668,69.452c-7.059,19.346-10.087,40.628-8.049,62.846c6.166,67.223,59.94,122.149,127.04,129.533
				C302.508,472.657,376,404.91,376,320c0-17.557-3.15-34.374-8.91-49.926C359.118,248.546,357.655,225.371,359.563,202.494z"/>
		</g>
	</g>
	<g>
		<g>
			<path style="fill:#00AA9A;" d="M144.624,333.566c-2.038-22.217,0.99-43.5,8.049-62.846c8.071-22.122,9.396-45.967,7.668-69.453
				c-0.225-3.059-0.34-6.149-0.34-9.268c0-61.087,42.849-112.029,100.092-124.786c-7.911-1.816-16.058-2.926-24.391-3.162
				C163.319,62.01,104,120.078,104,192c0,3.118,0.115,6.208,0.34,9.268c1.729,23.485,0.403,47.331-7.668,69.453
				c-7.059,19.346-10.086,40.628-8.049,62.846c6.166,67.223,59.94,122.148,127.04,129.533c15.174,1.67,29.896,0.851,43.935-1.878
				C198.212,448.983,150.415,396.706,144.624,333.566z"/>
		</g>
	</g>
	<g>
		<g>
			<circle style="fill:#009D93;" cx="232" cy="192" r="88"/>
		</g>
	</g>
	<g>
		<g>
			<path style="fill:#FFC855;" d="M272,224h-80c-4.418,0-8-3.582-8-8v-48c0-4.418,3.582-8,8-8h80c4.418,0,8,3.582,8,8v48
				C280,220.418,276.418,224,272,224z"/>
		</g>
	</g>
	<g>
		<g>
			<g>
				<path style="fill:#FFAA4B;" d="M272,228h-80c-6.617,0-12-5.383-12-12v-48c0-6.617,5.383-12,12-12h80c6.617,0,12,5.383,12,12v48
					C284,222.617,278.617,228,272,228z M192,164c-2.203,0-4,1.793-4,4v48c0,2.207,1.797,4,4,4h80c2.203,0,4-1.793,4-4v-48
					c0-2.207-1.797-4-4-4H192z"/>
			</g>
		</g>
	</g>
	<g>
		<g>
			<g>
				<g>
					<g>
						<path style="fill:#FFAA4B;" d="M176,328h-8c-6.625,0-12-5.371-12-12s5.375-12,12-12h8c6.625,0,12,5.371,12,12
							S182.625,328,176,328z"/>
					</g>
				</g>
			</g>
			<g>
				<g>
					<circle style="fill:#FFC855;" cx="176" cy="316" r="12"/>
				</g>
			</g>
			<g>
				<g>
					<g>
						<path style="fill:#FFAA4B;" d="M216,328h-8c-6.625,0-12-5.371-12-12s5.375-12,12-12h8c6.625,0,12,5.371,12,12
							S222.625,328,216,328z"/>
					</g>
				</g>
			</g>
			<g>
				<g>
					<circle style="fill:#FFC855;" cx="216" cy="316" r="12"/>
				</g>
			</g>
		</g>
		<g>
			<g>
				<g>
					<g>
						<path style="fill:#FFAA4B;" d="M256,328h-8c-6.625,0-12-5.371-12-12s5.375-12,12-12h8c6.625,0,12,5.371,12,12
							S262.625,328,256,328z"/>
					</g>
				</g>
			</g>
			<g>
				<g>
					<circle style="fill:#FFC855;" cx="256" cy="316" r="12"/>
				</g>
			</g>
			<g>
				<g>
					<g>
						<path style="fill:#FFAA4B;" d="M296,328h-8c-6.625,0-12-5.371-12-12s5.375-12,12-12h8c6.625,0,12,5.371,12,12
							S302.625,328,296,328z"/>
					</g>
				</g>
			</g>
			<g>
				<g>
					<circle style="fill:#FFC855;" cx="296" cy="316" r="12"/>
				</g>
			</g>
		</g>
		<g>
			<g>
				<g>
					<g>
						<path style="fill:#FFAA4B;" d="M176,360h-8c-6.625,0-12-5.371-12-12s5.375-12,12-12h8c6.625,0,12,5.371,12,12
							S182.625,360,176,360z"/>
					</g>
				</g>
			</g>
			<g>
				<g>
					<circle style="fill:#FFC855;" cx="176" cy="348" r="12"/>
				</g>
			</g>
			<g>
				<g>
					<g>
						<path style="fill:#FFAA4B;" d="M216,360h-8c-6.625,0-12-5.371-12-12s5.375-12,12-12h8c6.625,0,12,5.371,12,12
							S222.625,360,216,360z"/>
					</g>
				</g>
			</g>
			<g>
				<g>
					<circle style="fill:#FFC855;" cx="216" cy="348" r="12"/>
				</g>
			</g>
		</g>
		<g>
			<g>
				<g>
					<g>
						<path style="fill:#FFAA4B;" d="M256,360h-8c-6.625,0-12-5.371-12-12s5.375-12,12-12h8c6.625,0,12,5.371,12,12
							S262.625,360,256,360z"/>
					</g>
				</g>
			</g>
			<g>
				<g>
					<circle style="fill:#FFC855;" cx="256" cy="348" r="12"/>
				</g>
			</g>
			<g>
				<g>
					<g>
						<path style="fill:#FFAA4B;" d="M296,360h-8c-6.625,0-12-5.371-12-12s5.375-12,12-12h8c6.625,0,12,5.371,12,12
							S302.625,360,296,360z"/>
					</g>
				</g>
			</g>
			<g>
				<g>
					<circle style="fill:#FFC855;" cx="296" cy="348" r="12"/>
				</g>
			</g>
		</g>
		<g>
			<g>
				<g>
					<g>
						<path style="fill:#FFAA4B;" d="M176,392h-8c-6.625,0-12-5.371-12-12s5.375-12,12-12h8c6.625,0,12,5.371,12,12
							S182.625,392,176,392z"/>
					</g>
				</g>
			</g>
			<g>
				<g>
					<circle style="fill:#FFC855;" cx="176" cy="380" r="12"/>
				</g>
			</g>
			<g>
				<g>
					<g>
						<path style="fill:#FFAA4B;" d="M216,392h-8c-6.625,0-12-5.371-12-12s5.375-12,12-12h8c6.625,0,12,5.371,12,12
							S222.625,392,216,392z"/>
					</g>
				</g>
			</g>
			<g>
				<g>
					<circle style="fill:#FFC855;" cx="216" cy="380" r="12"/>
				</g>
			</g>
		</g>
		<g>
			<g>
				<g>
					<g>
						<path style="fill:#FFAA4B;" d="M256,392h-8c-6.625,0-12-5.371-12-12s5.375-12,12-12h8c6.625,0,12,5.371,12,12
							S262.625,392,256,392z"/>
					</g>
				</g>
			</g>
			<g>
				<g>
					<circle style="fill:#FFC855;" cx="256" cy="380" r="12"/>
				</g>
			</g>
			<g>
				<g>
					<g>
						<path style="fill:#FFAA4B;" d="M296,392h-8c-6.625,0-12-5.371-12-12s5.375-12,12-12h8c6.625,0,12,5.371,12,12
							S302.625,392,296,392z"/>
					</g>
				</g>
			</g>
			<g>
				<g>
					<circle style="fill:#FFC855;" cx="296" cy="380" r="12"/>
				</g>
			</g>
		</g>
		<g>
			<g>
				<g>
					<g>
						<path style="fill:#FFAA4B;" d="M216,424h-8c-6.625,0-12-5.371-12-12s5.375-12,12-12h8c6.625,0,12,5.371,12,12
							S222.625,424,216,424z"/>
					</g>
				</g>
			</g>
			<g>
				<g>
					<circle style="fill:#FFC855;" cx="216" cy="412" r="12"/>
				</g>
			</g>
		</g>
		<g>
			<g>
				<g>
					<g>
						<path style="fill:#FFAA4B;" d="M256,424h-8c-6.625,0-12-5.371-12-12s5.375-12,12-12h8c6.625,0,12,5.371,12,12
							S262.625,424,256,424z"/>
					</g>
				</g>
			</g>
			<g>
				<g>
					<circle style="fill:#FFC855;" cx="256" cy="412" r="12"/>
				</g>
			</g>
		</g>
	</g>
	<g>
		<g>
			<path style="fill:#5F505A;" d="M152,0c-8.836,0-16,7.163-16,16v32h32V16C168,7.163,160.836,0,152,0z"/>
		</g>
	</g>
</g>
<g>
</g>
<g>
</g>
<g>
</g>
<g>
</g>
<g>
</g>
<g>
</g>
<g>
</g>
<g>
</g>
<g>
</g>
<g>
</g>
<g>
</g>
<g>
</g>
<g>
</g>
<g>
</g>
<g>
</g>
</svg>
