<?xml version="1.0" encoding="iso-8859-1"?>
<!-- Generator: Adobe Illustrator 19.0.0, SVG Export Plug-In . SVG Version: 6.00 Build 0)  -->
<svg version="1.1" id="Layer_1" xmlns="http://www.w3.org/2000/svg" xmlns:xlink="http://www.w3.org/1999/xlink" x="0px" y="0px"
	 viewBox="0 0 464 464" style="enable-background:new 0 0 464 464;" xml:space="preserve">
<g>
	<g>
		<g>
			<rect x="224" y="272" style="fill:#C95264;" width="16" height="40"/>
		</g>
	</g>
	<g>
		<g>
			<path style="fill:#DC5869;" d="M232,280c-70.578,0-128-57.422-128-128S161.422,24,232,24s128,57.422,128,128S302.578,280,232,280
				z M232,40c-61.758,0-112,50.242-112,112s50.242,112,112,112s112-50.242,112-112S293.758,40,232,40z"/>
		</g>
	</g>
	<g>
		<g>
			<g>
				<circle style="fill:#00BEA5;" cx="232" cy="32" r="32"/>
			</g>
		</g>
		<g>
			<g>
				<path style="fill:#00AA9A;" d="M221.333,32c0-13.913,8.933-25.632,21.333-30.04C239.315,0.768,235.76,0,232,0
					c-17.673,0-32,14.327-32,32s14.327,32,32,32c3.76,0,7.315-0.768,10.667-1.96C230.266,57.632,221.333,45.913,221.333,32z"/>
			</g>
		</g>
	</g>
	<g>
		<g>
			<g>
				<circle style="fill:#FFC855;" cx="120" cy="208" r="32"/>
			</g>
		</g>
		<g>
			<g>
				<path style="fill:#FFAA4B;" d="M109.333,208c0-13.913,8.933-25.632,21.333-30.04C127.315,176.768,123.76,176,120,176
					c-17.673,0-32,14.327-32,32s14.327,32,32,32c3.76,0,7.315-0.768,10.667-1.96C118.266,233.632,109.333,221.913,109.333,208z"/>
			</g>
		</g>
	</g>
	<g>
		<g>
			<g>
				<circle style="fill:#00BED2;" cx="344" cy="208" r="32"/>
			</g>
		</g>
		<g>
			<g>
				<path style="fill:#00A6BD;" d="M333.333,208c0-13.913,8.933-25.632,21.333-30.04C351.315,176.768,347.76,176,344,176
					c-17.673,0-32,14.327-32,32s14.327,32,32,32c3.76,0,7.315-0.768,10.667-1.96C342.266,233.632,333.333,221.913,333.333,208z"/>
			</g>
		</g>
	</g>
	<g>
		<g>
			<path style="fill:#DC5869;" d="M232.032,464h-0.063c-13.039,0-23.423-10.916-22.772-23.939L215.62,311.6
				c0.213-4.258,3.727-7.6,7.99-7.6h16.78c4.263,0,7.777,3.343,7.99,7.6l6.423,128.461C255.454,453.084,245.071,464,232.032,464z"/>
		</g>
	</g>
	<g>
		<g>
			<path style="fill:#C95264;" d="M224.029,440.062l6.423-128.461c0.213-4.258,3.727-7.601,7.99-7.601H223.61
				c-4.263,0-7.777,3.343-7.99,7.601l-6.423,128.461C208.546,453.084,218.929,464,231.968,464h0.063c2.606,0,5.058-0.54,7.384-1.342
				C230.1,459.449,223.508,450.482,224.029,440.062z"/>
		</g>
	</g>
</g>
<g>
</g>
<g>
</g>
<g>
</g>
<g>
</g>
<g>
</g>
<g>
</g>
<g>
</g>
<g>
</g>
<g>
</g>
<g>
</g>
<g>
</g>
<g>
</g>
<g>
</g>
<g>
</g>
<g>
</g>
</svg>
