<?xml version="1.0" encoding="iso-8859-1"?>
<!-- Generator: Adobe Illustrator 19.0.0, SVG Export Plug-In . SVG Version: 6.00 Build 0)  -->
<svg version="1.1" id="Layer_1" xmlns="http://www.w3.org/2000/svg" xmlns:xlink="http://www.w3.org/1999/xlink" x="0px" y="0px"
	 viewBox="0 0 464 464" style="enable-background:new 0 0 464 464;" xml:space="preserve">
<g>
	<g>
		<g>
			<path style="fill:#FFC855;" d="M328,120c0-66.274-42.98-120-96-120s-96,53.726-96,120c0,54.414,29.004,100.263,68.725,114.949
				c6.467,2.391,10.884,8.382,10.647,15.272l-6.499,188.462c-0.445,12.903,9.123,24.692,22.02,25.291
				c13.63,0.632,24.744-10.482,24.28-23.961l-6.545-189.792c-0.238-6.891,4.18-12.881,10.647-15.272
				C298.996,220.263,328,174.414,328,120z"/>
		</g>
	</g>
	<g>
		<g>
			<path style="fill:#FFB44B;" d="M224,440l7.991-200c0.238-6.891-2.874-11.379-7.991-16c-21.844-19.729-32-49.586-32-104
				c0-39.5,6-104.5,52-118.963C240.06,0.421,236.073,0,232,0c-53.02,0-96,53.726-96,120c0,54.414,29.004,100.263,68.725,114.949
				c6.467,2.391,10.884,8.381,10.646,15.271l-6.499,188.463c-0.445,12.902,9.124,24.691,22.02,25.291
				c4.923,0.229,9.492-1.115,13.332-3.51C231.5,461.833,223.691,448.947,224,440z"/>
		</g>
	</g>
	<g>
		<g>
			<path style="fill:#00BEA5;" d="M197.794,232c2.272,1.083,4.58,2.08,6.931,2.949c6.467,2.391,10.884,8.381,10.646,15.271
				l-0.199,5.78h33.655l-0.199-5.779c-0.238-6.891,4.18-12.881,10.646-15.271c2.352-0.869,4.659-1.866,6.931-2.949L197.794,232
				L197.794,232z"/>
		</g>
	</g>
	<g>
		<g>
			<path style="fill:#00AA9A;" d="M215.372,250.221l-0.2,5.779h16.179l0.639-16c0.106-3.088-0.546-5.649-1.663-8h-32.534
				c2.272,1.083,4.58,2.08,6.931,2.949C211.192,237.34,215.609,243.33,215.372,250.221z"/>
		</g>
	</g>
	<g>
		<g>
			<path style="fill:#FF6472;" d="M159.992,72c8.422,0,13.047-3.086,16.43-5.344c2.656-1.766,3.984-2.656,7.563-2.656
				c3.563,0,4.891,0.883,7.531,2.648c3.383,2.258,8.008,5.352,16.43,5.352s13.047-3.086,16.43-5.344
				C227.024,64.89,228.36,64,231.931,64c3.578,0,4.906,0.891,7.563,2.656c3.383,2.258,8.016,5.344,16.43,5.344
				c8.422,0,13.055-3.086,16.438-5.344c2.656-1.766,3.984-2.656,7.563-2.656c3.594,0,4.93,0.891,7.594,2.664
				c3.383,2.25,8.023,5.336,16.445,5.336c6.916,0,11.22-2.066,14.433-4.061c-1.971-5.1-4.135-10.061-6.642-14.729
				c-0.06,0.039-0.138,0.086-0.198,0.125c-2.664,1.773-4,2.664-7.594,2.664c-3.586,0-4.922-0.891-7.586-2.656
				C292.992,51.086,288.352,48,279.922,48c-8.422,0-13.055,3.086-16.438,5.344C260.828,55.109,259.5,56,255.922,56
				c-3.57,0-4.906-0.891-7.555-2.656C244.984,51.086,240.352,48,231.93,48s-13.047,3.086-16.43,5.344
				C212.852,55.11,211.516,56,207.945,56s-4.898-0.891-7.539-2.656C197.023,51.086,192.398,48,183.984,48
				c-8.422,0-13.055,3.086-16.438,5.344C164.898,55.11,163.562,56,159.991,56c-3.578,0-4.906-0.891-7.563-2.656
				c-0.057-0.038-0.131-0.082-0.188-0.12c-2.507,4.669-4.671,9.631-6.642,14.733C148.808,69.943,153.102,72,159.992,72z"/>
		</g>
	</g>
	<g>
		<g>
			<path style="fill:#FF6472;" d="M159.992,144c8.422,0,13.047-3.086,16.43-5.344c2.656-1.766,3.984-2.656,7.563-2.656
				c3.563,0,4.891,0.883,7.531,2.648c3.383,2.258,8.008,5.352,16.43,5.352s13.047-3.086,16.43-5.344
				c2.648-1.766,3.984-2.656,7.555-2.656c3.578,0,4.906,0.891,7.563,2.656c3.383,2.258,8.016,5.344,16.43,5.344
				c8.422,0,13.055-3.086,16.438-5.344c2.656-1.766,3.984-2.656,7.563-2.656c3.594,0,4.93,0.891,7.594,2.664
				c3.383,2.25,8.023,5.336,16.445,5.336c8.43,0,13.07-3.086,16.453-5.344c2.396-1.588,3.801-2.429,6.652-2.59
				C327.632,130.803,328,125.459,328,120c-8.422,0-13.063,3.086-16.445,5.336c-2.664,1.773-4,2.664-7.594,2.664
				c-3.586,0-4.922-0.891-7.586-2.656c-3.383-2.258-8.023-5.344-16.453-5.344c-8.422,0-13.055,3.086-16.438,5.344
				c-2.656,1.766-3.985,2.656-7.563,2.656c-3.57,0-4.906-0.891-7.555-2.656c-3.383-2.258-8.016-5.344-16.438-5.344
				s-13.047,3.086-16.43,5.344c-2.648,1.766-3.984,2.656-7.555,2.656s-4.898-0.891-7.539-2.656
				c-3.383-2.258-8.008-5.344-16.422-5.344c-8.422,0-13.055,3.086-16.438,5.344c-2.648,1.766-3.984,2.656-7.555,2.656
				c-3.578,0-4.906-0.891-7.563-2.656C149.047,123.086,144.422,120,136,120c0,5.459,0.368,10.803,0.934,16.067
				c2.837,0.161,4.24,1.001,6.621,2.589C146.937,140.914,151.57,144,159.992,144z"/>
		</g>
	</g>
	<g>
		<g>
			<path style="fill:#FF6472;" d="M296.375,197.344c-3.383-2.258-8.023-5.344-16.453-5.344c-8.422,0-13.055,3.086-16.438,5.344
				c-2.656,1.766-3.985,2.656-7.563,2.656c-3.57,0-4.906-0.891-7.555-2.656c-3.383-2.258-8.016-5.344-16.438-5.344
				s-13.047,3.086-16.43,5.344c-2.648,1.766-3.984,2.656-7.555,2.656s-4.898-0.891-7.539-2.656
				c-3.383-2.258-8.008-5.344-16.422-5.344c-8.422,0-13.055,3.086-16.438,5.344c-2.503,1.668-3.894,2.527-7.045,2.619
				c3.47,4.832,7.259,9.293,11.309,13.368c1.772-0.879,3.333-1.821,4.612-2.675c2.656-1.766,3.984-2.656,7.563-2.656
				c3.563,0,4.891,0.883,7.531,2.648c3.383,2.258,8.008,5.352,16.43,5.352s13.047-3.086,16.43-5.344
				c2.648-1.766,3.984-2.656,7.555-2.656c3.578,0,4.906,0.891,7.563,2.656c3.383,2.258,8.016,5.344,16.43,5.344
				c8.422,0,13.055-3.086,16.438-5.344c2.656-1.766,3.984-2.656,7.563-2.656c3.594,0,4.93,0.891,7.594,2.664
				c1.288,0.856,2.862,1.805,4.653,2.687c4.057-4.079,7.852-8.546,11.327-13.384C300.294,199.883,298.906,199.021,296.375,197.344z"
				/>
		</g>
	</g>
	<g>
		<g>
			<path style="fill:#00BEA5;" d="M166.888,32h130.225c-5.278-6.105-11.081-11.488-17.356-16h-95.513
				C177.969,20.512,172.166,25.895,166.888,32z"/>
		</g>
	</g>
	<g>
		<g>
			<path style="fill:#00BEA5;" d="M139.558,88c-1.151,5.202-2.023,10.539-2.607,16h190.098c-0.583-5.461-1.456-10.798-2.607-16
				H139.558z"/>
		</g>
	</g>
	<g>
		<g>
			<path style="fill:#00BEA5;" d="M141.509,160c1.568,5.528,3.431,10.879,5.603,16h169.775c2.172-5.121,4.035-10.472,5.603-16
				H141.509z"/>
		</g>
	</g>
	<g>
		<g>
			<path style="fill:#00AA9A;" d="M184.244,16c-3.077,2.212-6.033,4.646-8.876,7.259c-0.128,0.117-0.252,0.237-0.38,0.354
				c-2.817,2.617-5.526,5.409-8.1,8.387H208.8c3.199-5.921,7-11.316,11.49-16H184.244z"/>
		</g>
	</g>
	<g>
		<g>
			<path style="fill:#00AA9A;" d="M139.558,88c-1.151,5.202-2.023,10.539-2.607,16h55.405c0.237-5.158,0.627-10.535,1.19-16H139.558
				z"/>
		</g>
	</g>
	<g>
		<g>
			<path style="fill:#00AA9A;" d="M194.427,160H141.51c0.003,0.01,0.006,0.02,0.009,0.029c1.566,5.518,3.426,10.859,5.594,15.971
				h50.265C196.194,171.026,195.213,165.699,194.427,160z"/>
		</g>
	</g>
	<g>
		<g>
			<path style="fill:#D25566;" d="M183.984,64c3.563,0,4.891,0.883,7.531,2.648c1.304,0.87,2.895,1.834,4.713,2.728
				c1.043-5.475,2.363-10.892,3.941-16.183C196.807,50.951,192.222,48,183.984,48c-8.422,0-13.055,3.086-16.438,5.344
				C164.898,55.11,163.562,56,159.991,56c-3.578,0-4.906-0.891-7.563-2.656c-0.057-0.038-0.131-0.082-0.188-0.12
				c-0.012,0.022-0.022,0.048-0.035,0.071c-1.287,2.4-2.458,4.9-3.606,7.419c-1.054,2.372-2.053,4.789-3.001,7.243
				C148.806,69.943,153.1,72,159.991,72c8.422,0,13.047-3.086,16.43-5.344C179.078,64.891,180.406,64,183.984,64z"/>
		</g>
	</g>
	<g>
		<g>
			<path style="fill:#D25566;" d="M136.933,136.059c0,0.003,0.001,0.006,0.001,0.006c2.837,0.164,4.24,1.004,6.621,2.592
				c3.383,2.258,8.016,5.344,16.438,5.344s13.047-3.086,16.43-5.344c2.656-1.766,3.984-2.656,7.563-2.656
				c3.563,0,4.891,0.883,7.531,2.648c0.29,0.193,0.653,0.41,0.962,0.613c-0.3-5.685-0.445-11.711-0.463-18.043
				c-2.258-0.688-4.799-1.219-8.03-1.219c-8.422,0-13.055,3.086-16.438,5.344c-2.648,1.766-3.984,2.656-7.555,2.656
				c-3.578,0-4.906-0.891-7.563-2.656C149.047,123.086,144.422,120,136,120c0,2.824,0.125,5.609,0.278,8.385
				C136.44,130.963,136.661,133.521,136.933,136.059z"/>
		</g>
	</g>
	<g>
		<g>
			<path style="fill:#D25566;" d="M215.444,214.939c-3.663-4.516-6.874-9.521-9.655-15.096c-2.085-0.317-3.357-1.146-5.383-2.5
				c-3.383-2.258-8.008-5.344-16.422-5.344c-8.422,0-13.055,3.086-16.438,5.344c-2.503,1.668-3.894,2.527-7.045,2.619
				c3.47,4.832,7.258,9.293,11.308,13.367l0.001,0.001c1.772-0.879,3.333-1.821,4.612-2.675c2.656-1.766,3.984-2.656,7.563-2.656
				c3.563,0,4.891,0.883,7.531,2.648c3.383,2.258,8.008,5.352,16.43,5.352C210.926,216,213.301,215.539,215.444,214.939z"/>
		</g>
	</g>
</g>
<g>
</g>
<g>
</g>
<g>
</g>
<g>
</g>
<g>
</g>
<g>
</g>
<g>
</g>
<g>
</g>
<g>
</g>
<g>
</g>
<g>
</g>
<g>
</g>
<g>
</g>
<g>
</g>
<g>
</g>
</svg>
