<?xml version="1.0" encoding="iso-8859-1"?>
<!-- Generator: Adobe Illustrator 19.0.0, SVG Export Plug-In . SVG Version: 6.00 Build 0)  -->
<svg version="1.1" id="Layer_1" xmlns="http://www.w3.org/2000/svg" xmlns:xlink="http://www.w3.org/1999/xlink" x="0px" y="0px"
	 viewBox="0 0 464 464" style="enable-background:new 0 0 464 464;" xml:space="preserve">
<g>
	<g>
		<g>
			<rect x="224" y="33" style="fill:#009D93;" width="16" height="327"/>
		</g>
	</g>
	<g>
		<g>
			<g>
				<circle style="fill:#FFC855;" cx="232" cy="136" r="80"/>
			</g>
		</g>
		<g>
			<g>
				<path style="fill:#FFAA4B;" d="M205.333,136c0-34.782,22.332-64.08,53.333-75.101C250.288,57.921,241.401,56,232,56
					c-44.183,0-80,35.817-80,80s35.817,80,80,80c9.401,0,18.288-1.921,26.667-4.899C227.666,200.08,205.333,170.782,205.333,136z"/>
			</g>
		</g>
	</g>
	<g>
		<g>
			<path style="fill:#00BEA5;" d="M353.919,106.601l-1.223-0.983c-10.023-8.062-15.248-20.674-13.863-33.462l0.172-1.587
				c2.594-23.952-17.619-44.167-41.572-41.574l-1.589,0.173c-12.787,1.384-25.399-3.841-33.46-13.863l-0.984-1.224
				c-15.103-18.775-43.696-18.775-58.799,0l-0.983,1.223c-8.062,10.022-20.674,15.247-33.462,13.862l-1.587-0.172
				c-23.952-2.594-44.166,17.62-41.574,41.572l0.173,1.589c1.384,12.787-3.841,25.399-13.863,33.46l-1.224,0.984
				c-18.775,15.103-18.775,43.696,0,58.799l1.223,0.983c10.022,8.062,15.247,20.674,13.862,33.462l-0.172,1.587
				c-2.594,23.952,17.62,44.166,41.572,41.573l1.589-0.172c12.787-1.384,25.399,3.84,33.46,13.862l0.984,1.224
				c15.103,18.775,43.696,18.775,58.798-0.001l0.984-1.223c8.062-10.022,20.674-15.247,33.462-13.862l1.587,0.172
				c23.952,2.594,44.166-17.62,41.574-41.572l-0.172-1.589c-1.384-12.787,3.84-25.399,13.861-33.46l1.225-0.984
				C372.694,150.296,372.694,121.704,353.919,106.601z M232.182,231.818c-53.019,0-96-42.981-96-96s42.981-96,96-96s96,42.981,96,96
				S285.201,231.818,232.182,231.818z"/>
		</g>
	</g>
	<g>
		<g>
			<g>
				<path style="fill:#00AA9A;" d="M232,464c-30.875,0-56-25.121-56-56s25.125-56,56-56s56,25.121,56,56S262.875,464,232,464z
					 M232,368c-22.055,0-40,17.945-40,40s17.945,40,40,40s40-17.945,40-40S254.055,368,232,368z"/>
			</g>
		</g>
	</g>
</g>
<g>
</g>
<g>
</g>
<g>
</g>
<g>
</g>
<g>
</g>
<g>
</g>
<g>
</g>
<g>
</g>
<g>
</g>
<g>
</g>
<g>
</g>
<g>
</g>
<g>
</g>
<g>
</g>
<g>
</g>
</svg>
