<?xml version="1.0" encoding="iso-8859-1"?>
<!-- Generator: Adobe Illustrator 19.0.0, SVG Export Plug-In . SVG Version: 6.00 Build 0)  -->
<svg version="1.1" id="Layer_1" xmlns="http://www.w3.org/2000/svg" xmlns:xlink="http://www.w3.org/1999/xlink" x="0px" y="0px"
	 viewBox="0 0 464 464" style="enable-background:new 0 0 464 464;" xml:space="preserve">
<g>
	<path style="fill:#FFA03C;" d="M369.921,72.234c-4.289-1.031-8.633,1.555-9.688,5.844C317.663,250.305,257.335,448,167.999,448
		c-30.875,0-56-25.125-56-56V135.667h-16V392c0,39.703,32.297,72,72,72c46.93,0,88.398-41.195,126.789-125.945
		c34.469-76.094,61.383-176.859,80.977-256.133C376.827,77.633,374.21,73.297,369.921,72.234z"/>
	<g>
		<g>
			<g>
				<path style="fill:#FFC855;" d="M167.999,464c-39.703,0-72-32.297-72-72s32.297-72,72-72s72,32.297,72,72
					S207.702,464,167.999,464z M167.999,336c-30.875,0-56,25.125-56,56s25.125,56,56,56s56-25.125,56-56S198.874,336,167.999,336z"
					/>
			</g>
		</g>
	</g>
	<g>
		<g>
			<path style="fill:#FFC855;" d="M162.673,0.173c-42.52,2.753-74.674,39.958-74.674,82.567V128c0,8.837,7.163,16,16,16h40
				c8.837,0,16-7.163,16-16v-20c0-6.627-5.373-12-12-12l0,0c-6.627,0-12-5.373-12-12v-4c0-17.673,14.327-32,32-32l0,0
				c17.673,0,32,14.327,32,32v4c0,6.627-5.373,12-12,12l0,0c-6.627,0-12,5.373-12,12v20c0,8.837,7.163,16,16,16h40
				c8.837,0,16-7.163,16-16V80C247.999,34.054,209.267-2.844,162.673,0.173z"/>
		</g>
	</g>
	<g>
		<g>
			<path style="fill:#FFD680;" d="M223.999,120c-4.422,0-8-3.578-8-8V80c0-9.867-2.984-19.352-8.625-27.422
				c-2.531-3.625-1.648-8.609,1.969-11.141c3.641-2.539,8.617-1.648,11.141,1.969C228.015,54.187,232,66.844,232,80v32
				C231.999,116.422,228.421,120,223.999,120z"/>
		</g>
	</g>
	<g>
		<g>
			<path style="fill:#FFE6A1;" d="M191.968,37.398c-1.148,0-2.32-0.25-3.43-0.781c-4.32-2.055-8.922-3.445-13.672-4.125
				c-4.375-0.633-7.406-4.687-6.781-9.062c0.633-4.359,4.711-7.352,9.063-6.781c6.352,0.922,12.5,2.781,18.266,5.531
				c3.992,1.898,5.688,6.672,3.781,10.656C197.827,35.719,194.96,37.398,191.968,37.398z"/>
		</g>
	</g>
</g>
<g>
</g>
<g>
</g>
<g>
</g>
<g>
</g>
<g>
</g>
<g>
</g>
<g>
</g>
<g>
</g>
<g>
</g>
<g>
</g>
<g>
</g>
<g>
</g>
<g>
</g>
<g>
</g>
<g>
</g>
</svg>
