<?xml version="1.0" encoding="iso-8859-1"?>
<!-- Generator: Adobe Illustrator 19.0.0, SVG Export Plug-In . SVG Version: 6.00 Build 0)  -->
<svg version="1.1" id="Layer_1" xmlns="http://www.w3.org/2000/svg" xmlns:xlink="http://www.w3.org/1999/xlink" x="0px" y="0px"
	 viewBox="0 0 464 464" style="enable-background:new 0 0 464 464;" xml:space="preserve">
<g>
	<g>
		<g>
			<g>
				<path style="fill:#D24146;" d="M340.021,160c-4.422,0-8-3.578-8-8c0-74.992-61.008-136-136-136s-136,61.008-136,136
					c0,4.422-3.578,8-8,8c-4.422,0-8-3.578-8-8c0-83.813,68.188-152,152-152s152,68.188,152,152
					C348.021,156.422,344.443,160,340.021,160z"/>
			</g>
		</g>
	</g>
	<g>
		<g>
			<path style="fill:#FFB44B;" d="M344.021,176.005H47.979c-6.627,0-12-5.373-12-12l0,0c0-6.627,5.373-12,12-12h296.042
				c6.627,0,12,5.373,12,12l0,0C356.021,170.632,350.648,176.005,344.021,176.005z"/>
		</g>
	</g>
	<g>
		<g>
			<path style="fill:#FFC855;" d="M52.021,176l22.166,265.993C75.224,454.432,85.622,464,98.104,464h195.834
				c12.482,0,22.88-9.568,23.917-22.007L340.021,176H52.021z"/>
		</g>
	</g>
	<path style="fill:#FFA54B;" d="M132.021,164c0-6.627,5.373-12,12-12h-96c-6.627,0-12,5.373-12,12s5.373,12,12,12h96
		C137.393,176,132.021,170.627,132.021,164z"/>
	<path style="fill:#FFB44B;" d="M262.931,312.866c5.822-4.493,9.993-10.735,11.924-17.96c2.336-8.693,1.137-17.796-3.382-25.613
		c-4.491-7.797-11.771-13.388-20.487-15.724c-2.872-0.769-5.821-1.158-8.768-1.158c-4.368,0-8.703,0.862-12.747,2.516
		c-2.233-16.465-16.383-29.197-33.451-29.197s-31.218,12.732-33.451,29.198c-4.049-1.656-8.382-2.517-12.749-2.517
		c-2.949,0-5.898,0.389-8.765,1.158c-3.687,0.988-7.112,2.564-10.184,4.639L124.021,176h-72l22.166,265.993
		C75.223,454.432,85.622,464,98.104,464h72c-12.482,0-22.88-9.568-23.917-22.007l-5.837-70.039c0.238,0.069,0.474,0.146,0.714,0.21
		c2.863,0.766,5.812,1.156,8.761,1.156c4.37,0,8.704-0.861,12.745-2.515C164.805,387.269,178.954,400,196.021,400
		s31.216-12.731,33.451-29.195c4.04,1.653,8.374,2.515,12.745,2.515c2.948,0,5.898-0.389,8.766-1.157
		c8.714-2.329,15.997-7.92,20.503-15.741c4.507-7.797,5.706-16.9,3.365-25.613C272.923,323.6,268.754,317.361,262.931,312.866z"/>
	<g>
		<g>
			<path style="fill:#E15050;" d="M251.582,323.389c-2.785-1.605-10.197-4.837-18.763-7.96c-2.404-0.876-2.404-4.249,0-5.125
				c8.574-3.125,15.988-6.36,18.763-7.961c4.316-2.492,7.405-6.517,8.692-11.334c1.294-4.816,0.627-9.846-1.868-14.162
				c-2.488-4.319-6.511-7.408-11.327-8.699c-4.823-1.291-9.853-0.624-14.169,1.865c-2.916,1.686-9.395,6.515-16.282,12.301
				c-1.961,1.647-4.884-0.04-4.44-2.563c1.587-9.018,2.497-17.086,2.497-20.262c0-10.293-8.372-18.665-18.665-18.665
				s-18.665,8.372-18.665,18.665c0,3.175,0.913,11.254,2.502,20.285c0.441,2.506-2.494,4.174-4.442,2.537
				c-6.887-5.785-13.367-10.613-16.285-12.299c-4.316-2.488-9.353-3.155-14.169-1.865c-4.816,1.291-8.839,4.379-11.327,8.695
				c-2.495,4.319-3.162,9.349-1.868,14.166c1.287,4.816,4.376,8.842,8.692,11.334c2.779,1.604,10.209,4.845,18.798,7.974
				c2.401,0.875,2.4,4.244-0.002,5.115c-8.433,3.06-15.833,6.247-18.796,7.957c-4.316,2.495-7.405,6.521-8.692,11.337
				c-1.294,4.816-0.627,9.846,1.868,14.162c2.488,4.319,6.511,7.408,11.327,8.695c1.608,0.43,3.242,0.644,4.863,0.644
				c3.235,0,6.431-0.847,9.306-2.508c2.913-1.682,9.392-6.509,16.281-12.296c1.961-1.647,4.884,0.04,4.44,2.563
				c-1.587,9.016-2.496,17.081-2.496,20.257c0,10.293,8.372,18.665,18.665,18.665s18.665-8.372,18.665-18.665
				c0-3.171-0.91-11.233-2.496-20.25c-0.441-2.505,2.469-4.211,4.418-2.577c7.023,5.891,13.561,10.721,16.303,12.304
				c2.875,1.661,6.07,2.508,9.306,2.508c1.621,0,3.255-0.213,4.863-0.644c4.816-1.287,8.839-4.376,11.327-8.695
				c2.495-4.316,3.162-9.346,1.868-14.162C258.987,329.909,255.898,325.884,251.582,323.389z"/>
		</g>
	</g>
	<g>
		<g>
			<circle style="fill:#FFFFFF;" cx="196.021" cy="312.866" r="19.52"/>
		</g>
	</g>
	<g>
		<g>
			<g>
				<path style="fill:#E15050;" d="M364.021,88c-13.119,0-23.625,10.875-23.173,23.986L348.021,320h32l7.173-208.014
					C387.646,98.875,377.14,88,364.021,88z M364.021,120c-4.418,0-8-3.582-8-8s3.582-8,8-8s8,3.582,8,8S368.439,120,364.021,120z"/>
			</g>
		</g>
		<g>
			<g>
				<path style="fill:#E15050;" d="M364.021,304L364.021,304c-35.346,0-64,28.654-64,64v80c0,8.837,7.163,16,16,16h96
					c8.837,0,16-7.163,16-16v-80C428.021,332.654,399.367,304,364.021,304z"/>
			</g>
		</g>
		<g>
			<g>
				<path style="fill:#D24146;" d="M364.021,304c-35.346,0-64,28.654-64,64v32c0-35.346,28.654-64,64-64s64,28.654,64,64v-32
					C428.021,332.654,399.367,304,364.021,304z"/>
			</g>
		</g>
	</g>
	<g>
		<g>
			<path style="fill:#FFC855;" d="M98.099,448c-4.117,0-7.617-3.156-7.961-7.336l-1.336-16c-0.375-4.398,2.898-8.266,7.305-8.633
				c4.469-0.492,8.266,2.898,8.633,7.305l1.336,16c0.375,4.398-2.898,8.266-7.305,8.633C98.544,447.992,98.318,448,98.099,448z"/>
		</g>
	</g>
	<g>
		<g>
			<path style="fill:#FFC855;" d="M94.099,400c-4.117,0-7.617-3.156-7.961-7.336l-4.672-56c-0.367-4.398,2.898-8.266,7.305-8.633
				c4.453-0.453,8.273,2.906,8.633,7.305l4.672,56c0.367,4.398-2.898,8.266-7.305,8.633C94.544,399.992,94.318,400,94.099,400z"/>
		</g>
	</g>
	<g>
		<g>
			<path style="fill:#FFD680;" d="M305.279,311.992c-0.219,0-0.445-0.008-0.672-0.031c-4.406-0.359-7.672-4.227-7.305-8.633
				l4.664-55.992c0.359-4.406,4.109-7.789,8.633-7.305c4.406,0.359,7.672,4.227,7.305,8.633l-4.664,55.992
				C312.896,308.836,309.396,311.992,305.279,311.992z"/>
		</g>
	</g>
	<g>
		<g>
			<path style="fill:#FFDE99;" d="M312.615,224c-0.219,0-0.445-0.008-0.672-0.031c-4.398-0.359-7.672-4.227-7.305-8.633l1.328-16
				c0.359-4.398,4.133-7.789,8.633-7.305c4.398,0.359,7.672,4.227,7.305,8.633l-1.328,16C320.232,220.836,316.732,224,312.615,224z"
				/>
		</g>
	</g>
</g>
<g>
</g>
<g>
</g>
<g>
</g>
<g>
</g>
<g>
</g>
<g>
</g>
<g>
</g>
<g>
</g>
<g>
</g>
<g>
</g>
<g>
</g>
<g>
</g>
<g>
</g>
<g>
</g>
<g>
</g>
</svg>
