<?xml version="1.0" encoding="iso-8859-1"?>
<!-- Generator: Adobe Illustrator 19.0.0, SVG Export Plug-In . SVG Version: 6.00 Build 0)  -->
<svg version="1.1" id="Layer_1" xmlns="http://www.w3.org/2000/svg" xmlns:xlink="http://www.w3.org/1999/xlink" x="0px" y="0px"
	 viewBox="0 0 464 464" style="enable-background:new 0 0 464 464;" xml:space="preserve">
<g>
	<g>
		<g>
			<path style="fill:#D24146;" d="M192,156h-16V76c0-4.418,3.582-8,8-8l0,0c4.418,0,8,3.582,8,8V156z"/>
		</g>
	</g>
	<g>
		<g>
			<path style="fill:#FFC855;" d="M288,236l-17.159-57.195c-4.06-13.536-16.519-22.805-30.65-22.805H96c-8.837,0-16,7.163-16,16v104
				h208v-32V236z"/>
		</g>
	</g>
	<g>
		<g>
			<path style="fill:#FFB44B;" d="M136,156H96c-8.836,0-16,7.163-16,16v104h40V172C120,163.163,127.164,156,136,156z"/>
		</g>
	</g>
	<g>
		<g>
			<path style="fill:#00BED2;" d="M0,276h248l35.882-35.882C301.886,222.114,326.304,212,351.764,212H464l-74.948,156.71
				C381.077,385.386,364.234,396,345.75,396H68.877c-21.746,0-40.776-14.62-46.379-35.632L0,276z"/>
		</g>
	</g>
	<g>
		<g>
			<circle style="fill:#0096AF;" cx="80" cy="332" r="16"/>
		</g>
	</g>
	<g>
		<g>
			<circle style="fill:#0096AF;" cx="224" cy="332" r="16"/>
		</g>
	</g>
	<g>
		<g>
			<circle style="fill:#0096AF;" cx="152" cy="332" r="16"/>
		</g>
	</g>
	<g>
		<g>
			<path style="fill:#33CBDB;" d="M370.95,356c-1.156,0-2.328-0.25-3.445-0.781c-3.984-1.906-5.672-6.688-3.766-10.672
				l31.813-66.531c1.906-3.977,6.672-5.664,10.672-3.766c3.984,1.906,5.672,6.688,3.766,10.672l-31.813,66.531
				C376.801,354.32,373.934,356,370.95,356z"/>
		</g>
	</g>
	<g>
		<g>
			<path style="fill:#66D8E4;" d="M416.333,261.094c-1.156,0-2.328-0.25-3.445-0.781c-3.984-1.906-5.672-6.688-3.766-10.672
				l7.656-16c1.906-3.992,6.664-5.672,10.672-3.766c3.984,1.906,5.672,6.688,3.766,10.672l-7.656,16
				C422.184,259.422,419.317,261.094,416.333,261.094z"/>
		</g>
	</g>
	<g>
		<g>
			<path style="fill:#00DCEB;" d="M184,236h-64c-8.837,0-16-7.163-16-16v-24c0-8.837,7.163-16,16-16h64c8.837,0,16,7.163,16,16v24
				C200,228.837,192.837,236,184,236z"/>
		</g>
	</g>
	<g>
		<g>
			<path style="fill:#00DCEB;" d="M232,180c-8.836,0-16,7.163-16,16v24c0,8.836,7.164,16,16,16h56l-16.8-56H232z"/>
		</g>
	</g>
	<g>
		<g>
			<rect x="144" y="180" style="fill:#00BED2;" width="16" height="56"/>
		</g>
	</g>
	<g>
		<g>
			<path style="fill:#E15050;" d="M224,132h-80c-4.418,0-8-3.582-8-8v-16c0-4.418,3.582-8,8-8h80c4.418,0,8,3.582,8,8v16
				C232,128.418,228.418,132,224,132z"/>
		</g>
	</g>
	<g>
		<g>
			<g>
				<path style="fill:#00A6BD;" d="M54.498,360.368L32,276H0l22.498,84.368C28.102,381.38,47.131,396,68.877,396h32
					C79.131,396,60.102,381.38,54.498,360.368z"/>
			</g>
		</g>
	</g>
</g>
<g>
</g>
<g>
</g>
<g>
</g>
<g>
</g>
<g>
</g>
<g>
</g>
<g>
</g>
<g>
</g>
<g>
</g>
<g>
</g>
<g>
</g>
<g>
</g>
<g>
</g>
<g>
</g>
<g>
</g>
</svg>
