<?xml version="1.0" encoding="iso-8859-1"?>
<!-- Generator: Adobe Illustrator 19.0.0, SVG Export Plug-In . SVG Version: 6.00 Build 0)  -->
<svg version="1.1" id="Layer_1" xmlns="http://www.w3.org/2000/svg" xmlns:xlink="http://www.w3.org/1999/xlink" x="0px" y="0px"
	 viewBox="0 0 464 464" style="enable-background:new 0 0 464 464;" xml:space="preserve">
<g>
	<g>
		<g>
			<path style="fill:#E15050;" d="M256,148l-48-48l0,0c-9.366,9.366-11.027,23.956-4.007,35.188L232,180L256,148z"/>
		</g>
	</g>
	<g>
		<g>
			<path style="fill:#E15050;" d="M464,332H0v-24c0-4.418,3.582-8,8-8h448c4.418,0,8,3.582,8,8V332z"/>
		</g>
	</g>
	<g>
		<g>
			<path style="fill:#FFE0CC;" d="M456,364H8c-4.418,0-8-3.582-8-8v-24h464v24C464,360.418,460.418,364,456,364z"/>
		</g>
	</g>
	<g>
		<g>
			<path style="fill:#FFC855;" d="M463.344,291.086C458.508,254.523,423.739,161.37,256,148c0,0-50.317,44.964-148.075,54.311
				c-21.723,2.077-42.854-8.011-55.538-25.768L41.3,161.02C35.464,152.849,26.041,148,16,148l0,0c-8.837,0-16,7.163-16,16v128
				c0,4.418,3.582,8,8,8h447.385C460.177,300,463.972,295.837,463.344,291.086z"/>
		</g>
	</g>
	<g>
		<g>
			<rect x="80" y="284" style="fill:#FFB44B;" width="256" height="16"/>
		</g>
	</g>
	<g>
		<g>
			<path style="fill:#00BEA5;" d="M0,212v80c0,4.418,3.582,8,8,8h80C88,251.399,48.601,212,0,212z"/>
		</g>
	</g>
	<g>
		<g>
			<path style="fill:#00BEA5;" d="M389.168,186.493C352.334,210.827,328,252.55,328,300h127.38c4.881,0,8.585-4.3,7.93-9.136
				C460.112,267.251,444.448,220.448,389.168,186.493z"/>
		</g>
	</g>
	<g>
		<g>
			<path style="fill:#E15050;" d="M284.508,182.336c-0.656,0-1.328-0.078-1.992-0.25c-4.281-1.094-6.859-5.453-5.766-9.734
				l5.719-22.367c1.094-4.273,5.461-6.859,9.734-5.766c4.281,1.094,6.859,5.453,5.766,9.734l-5.719,22.367
				C291.328,179.93,288.07,182.336,284.508,182.336z"/>
		</g>
	</g>
	<g>
		<g>
			<path style="fill:#E15050;" d="M312.5,189.336c-0.93,0-1.875-0.164-2.797-0.508c-4.141-1.539-6.242-6.148-4.695-10.289
				l8.375-22.461c1.539-4.141,6.164-6.227,10.289-4.695c4.141,1.539,6.242,6.148,4.695,10.289l-8.375,22.461
				C318.797,187.352,315.742,189.336,312.5,189.336z"/>
		</g>
	</g>
	<g>
		<g>
			<path style="fill:#E15050;" d="M340.328,197c-1.203,0-2.422-0.273-3.57-0.844c-3.953-1.977-5.555-6.781-3.578-10.734
				l10.734-21.469c1.984-3.953,6.781-5.539,10.734-3.578c3.953,1.977,5.555,6.781,3.578,10.734l-10.734,21.469
				C346.086,195.383,343.266,197,340.328,197z"/>
		</g>
	</g>
	<g>
		<g>
			<path style="fill:#00AA9A;" d="M0,284v8c0,4.418,3.582,8,8,8h80c0-5.472-0.568-10.804-1.523-16H0z"/>
		</g>
	</g>
	<g>
		<g>
			<path style="fill:#00AA9A;" d="M463.31,290.864c-0.284-2.095-0.708-4.429-1.208-6.864H328.973
				c-0.617,5.251-0.973,10.583-0.973,16h127.38C460.261,300,463.965,295.7,463.31,290.864z"/>
		</g>
	</g>
</g>
<g>
</g>
<g>
</g>
<g>
</g>
<g>
</g>
<g>
</g>
<g>
</g>
<g>
</g>
<g>
</g>
<g>
</g>
<g>
</g>
<g>
</g>
<g>
</g>
<g>
</g>
<g>
</g>
<g>
</g>
</svg>
