<?xml version="1.0" encoding="iso-8859-1"?>
<!-- Generator: Adobe Illustrator 19.0.0, SVG Export Plug-In . SVG Version: 6.00 Build 0)  -->
<svg version="1.1" id="Layer_1" xmlns="http://www.w3.org/2000/svg" xmlns:xlink="http://www.w3.org/1999/xlink" x="0px" y="0px"
	 viewBox="0 0 461.439 461.439" style="enable-background:new 0 0 461.439 461.439;" xml:space="preserve">
<g>
	<g>
		<g>
			<g>
				<path style="fill:#B64C5F;" d="M271.91,459.673c-56.844,0.008-103.297-34.648-121.812-93.016
					c-0.906-2.852-1.734-5.688-2.484-8.516c-20.133-4.156-38.469-12.539-54.906-25.133
					c-48.836-37.406-77.984-113.383-77.984-203.242c0-4.422,3.578-8,8-8s8,3.578,8,8c0,84.914,26.805,156.141,71.711,190.539
					c12.523,9.594,26.375,16.422,41.484,20.461c-11.461-71.859,26.648-130.625,75.32-154.203c26.117-12.656,53.891-10,76.203,7.266
					c24.117,18.664,35.844,49.953,29.883,79.719c-4.352,21.711-22.148,60.969-92.516,79.945
					c-24.258,6.539-46.906,8.922-67.828,7.148c0.117,0.391,0.242,0.789,0.367,1.18c14.75,46.477,56.188,91.883,128.07,80.055
					c121.695-20.078,137.305-177.344,137.305-312.109c0-4.422,3.578-8,8-8s8,3.578,8,8c0,141.086-17.125,305.859-150.695,327.891
					C287.824,459.017,279.762,459.673,271.91,459.673z M160.903,344.071c20.602,2.57,43.211,0.578,67.734-6.031
					c45.984-12.391,74.75-36.414,81-67.641c4.781-23.852-4.641-48.945-23.992-63.922c-17.32-13.406-39-15.414-59.437-5.508
					C169.02,228.665,150.981,290.72,160.903,344.071z"/>
			</g>
		</g>
	</g>
	<g>
		<g>
			<path style="fill:#FF6472;" d="M30.723,137.767h-16c-4.418,0-8-3.582-8-8v-24h32v24
				C38.723,134.185,35.141,137.767,30.723,137.767z"/>
		</g>
	</g>
	<g>
		<g>
			<path style="fill:#FFC855;" d="M38.723,105.767h-32L0.048,18.994C-0.667,9.701,6.681,1.767,16.001,1.767h13.444
				c9.32,0,16.668,7.934,15.953,17.227L38.723,105.767z"/>
		</g>
	</g>
	<g>
		<g>
			<path style="fill:#D25566;" d="M17.723,129.767v-24h-11v24c0,4.418,3.582,8,8,8h11C21.304,137.767,17.723,134.185,17.723,129.767
				z"/>
		</g>
	</g>
	<g>
		<g>
			<path style="fill:#FFB44B;" d="M30.085,1.835c-0.217-0.01-0.42-0.068-0.64-0.068H16.001c-9.32,0-16.667,7.934-15.953,17.227
				l6.675,86.773h14.723l-6.675-86.773C14.073,9.92,21.078,2.196,30.085,1.835z"/>
		</g>
	</g>
	<g>
		<g>
			<path style="fill:#FF6472;" d="M446.716,137.767h-16c-4.418,0-8-3.582-8-8v-24h32v24
				C454.716,134.185,451.135,137.767,446.716,137.767z"/>
		</g>
	</g>
	<g>
		<g>
			<path style="fill:#FFC855;" d="M454.716,105.767h-32l-6.675-86.773c-0.715-9.293,6.633-17.227,15.953-17.227h13.444
				c9.32,0,16.668,7.934,15.953,17.227L454.716,105.767z"/>
		</g>
	</g>
	<g>
		<g>
			<path style="fill:#D25566;" d="M433.716,129.767v-24h-11v24c0,4.418,3.582,8,8,8h11
				C437.298,137.767,433.716,134.185,433.716,129.767z"/>
		</g>
	</g>
	<g>
		<g>
			<path style="fill:#FFB44B;" d="M446.078,1.835c-0.217-0.01-0.42-0.068-0.64-0.068h-13.444c-9.32,0-16.667,7.934-15.953,17.227
				l6.675,86.773h14.723l-6.675-86.773C430.066,9.92,437.071,2.196,446.078,1.835z"/>
		</g>
	</g>
</g>
<g>
</g>
<g>
</g>
<g>
</g>
<g>
</g>
<g>
</g>
<g>
</g>
<g>
</g>
<g>
</g>
<g>
</g>
<g>
</g>
<g>
</g>
<g>
</g>
<g>
</g>
<g>
</g>
<g>
</g>
</svg>
