<?xml version="1.0" encoding="iso-8859-1"?>
<!-- Generator: Adobe Illustrator 19.0.0, SVG Export Plug-In . SVG Version: 6.00 Build 0)  -->
<svg version="1.1" id="Layer_1" xmlns="http://www.w3.org/2000/svg" xmlns:xlink="http://www.w3.org/1999/xlink" x="0px" y="0px"
	 viewBox="0 0 464.001 464.001" style="enable-background:new 0 0 464.001 464.001;" xml:space="preserve">
<g>
	<g>
		<g>
			<circle style="fill:#FFA54B;" cx="328.02" cy="40" r="40"/>
		</g>
	</g>
	<g>
		<g>
			<circle style="fill:#E1824B;" cx="328.022" cy="39.984" r="24"/>
		</g>
	</g>
	<g>
		<g>
			<circle style="fill:#FFA54B;" cx="136.02" cy="40" r="40"/>
		</g>
	</g>
	<path style="fill:#FF964B;" d="M335.141,239.787L334.978,345c0,0,57.83,2.787,64.163-25.213
		C408.848,276.871,335.141,239.787,335.141,239.787z"/>
	<path style="fill:#FF964B;" d="M128.859,239.787L129.022,345c0,0-57.83,2.787-64.163-25.213
		C55.152,276.871,128.859,239.787,128.859,239.787z"/>
	<g>
		<g>
			<circle style="fill:#FFAF4B;" cx="232.022" cy="327.984" r="136"/>
		</g>
	</g>
	<path style="fill:#FFA54B;" d="M232.022,303.984c45.135,0,85.552-19.785,113.391-51.023
		c-23.747-35.818-63.967-59.755-109.879-60.921c-1.167-0.034-2.336-0.056-3.512-0.056c-1.352,0-2.697,0.025-4.04,0.065
		c-0.411,0.012-0.82,0.031-1.23,0.047c-0.953,0.036-1.904,0.081-2.852,0.137c-0.443,0.026-0.885,0.054-1.326,0.084
		c-0.99,0.068-1.976,0.148-2.96,0.237c-0.345,0.031-0.691,0.058-1.035,0.092c-1.345,0.132-2.686,0.28-4.019,0.451
		c-0.026,0.003-0.052,0.008-0.078,0.011c-1.3,0.167-2.592,0.357-3.88,0.561c-0.304,0.048-0.607,0.101-0.911,0.151
		c-1.051,0.174-2.098,0.359-3.14,0.557c-0.295,0.056-0.59,0.111-0.884,0.169c-1.209,0.237-2.413,0.489-3.611,0.758
		c-0.078,0.018-0.157,0.033-0.235,0.051c-2.724,0.618-5.415,1.32-8.074,2.099c-0.07,0.02-0.139,0.042-0.209,0.062
		c-1.304,0.384-2.599,0.787-3.886,1.208c-0.008,0.003-0.017,0.005-0.025,0.008c-54.349,17.816-93.605,68.946-93.605,129.252
		c0,75.111,60.889,136,136,136c8.204,0,16.196-0.851,24-2.243c-63.644-11.352-112-66.85-112-133.757
		c0-16.423,2.919-32.155,8.257-46.718C175.444,295.648,202.738,303.984,232.022,303.984z"/>
	<g>
		<g>
			<path style="fill:#FFD7B9;" d="M232.022,463.984c37.294,0,71.06-15.035,95.629-39.345c-3.764-49.576-45.089-88.655-95.629-88.655
				s-91.865,39.079-95.629,88.655C160.963,448.949,194.728,463.984,232.022,463.984z"/>
		</g>
		<path style="fill:#F1C8A8;" d="M326.451,415.196c-22.104,15.556-37.928,32.789-78.428,32.789c-40.329,0-75.32-39.314-95.88-69.137
			c-8.846,13.303-14.469,28.94-15.749,45.791c24.569,24.31,58.334,39.345,95.629,39.345s71.06-15.035,95.629-39.345
			C327.408,421.444,326.997,418.296,326.451,415.196z"/>
	</g>
	<g>
		<g>
			<path style="fill:#FF964B;" d="M181.1,386.906c-10.172-10.172-22.5-17.117-34.711-19.563c-13.375-2.68-25.172,0.242-33.172,8.25
				c-7.992,7.992-10.922,19.773-8.242,33.164c2.445,12.219,9.391,24.547,19.563,34.711c10.164,10.172,22.492,17.117,34.711,19.563
				c3.242,0.648,6.383,0.969,9.398,0.969c9.469,0,17.703-3.148,23.766-9.211c8-8,10.93-19.773,8.25-33.172
				C198.217,409.406,191.272,397.078,181.1,386.906z"/>
		</g>
	</g>
	<g>
		<g>
			<path style="fill:#FF964B;" d="M350.827,375.594c-8-8-19.781-10.938-33.172-8.25c-12.211,2.445-24.539,9.391-34.711,19.563
				s-17.117,22.5-19.563,34.711c-2.68,13.398,0.25,25.172,8.25,33.172c6.063,6.063,14.297,9.211,23.766,9.211
				c3.016,0,6.164-0.32,9.398-0.969c12.219-2.445,24.547-9.391,34.711-19.563c10.172-10.164,17.117-22.492,19.563-34.711
				C361.749,395.367,358.819,383.586,350.827,375.594z"/>
		</g>
	</g>
	<g>
		<g>
			<circle style="fill:#E1824B;" cx="136.022" cy="39.984" r="24"/>
		</g>
	</g>
	<g>
		<g>
			<circle style="fill:#FFC855;" cx="232.022" cy="151.984" r="136"/>
		</g>
	</g>
	<path style="fill:#FFB955;" d="M320.022,207.984c0-35.888-38.654-64-88-64c-39.281,0-71.762,17.822-83.389,43.191
		c-3.003-11.222-4.611-23.016-4.611-35.191c0-66.907,48.356-122.405,112-133.757c-7.804-1.392-15.796-2.243-24-2.243
		c-75.111,0-136,60.889-136,136s60.889,136,136,136c8.204,0,16.196-0.851,24-2.243c-15.087-2.691-29.313-7.867-42.241-15.083
		c5.87,0.867,11.968,1.326,18.241,1.326C281.368,271.984,320.022,243.872,320.022,207.984z M160.022,207.984
		c0-26.51,32.235-48,72-48s72,21.49,72,48s-32.235,48-72,48c-25.167,0-47.305-8.614-60.177-21.655
		c-3.437-4.498-6.601-9.216-9.464-14.132C160.847,216.298,160.022,212.206,160.022,207.984z"/>
	<g>
		<g>
			<ellipse style="fill:#FFD7B9;" cx="232.022" cy="207.984" rx="72" ry="48"/>
		</g>
	</g>
	<g>
		<g>
			<path style="fill:#F1C8A8;" d="M176.022,207.984c0-24.705,28.004-45.031,64-47.687c-2.629-0.194-5.293-0.313-8-0.313
				c-39.765,0-72,21.49-72,48s32.235,48,72,48c2.707,0,5.371-0.119,8-0.313C204.027,253.016,176.022,232.689,176.022,207.984z"/>
		</g>
	</g>
	<g>
		<g>
			<g>
				<path style="fill:#D2A582;" d="M216.022,223.984c-13.234,0-24-10.766-24-24c0-4.422,3.578-8,8-8s8,3.578,8,8
					c0,4.414,3.586,8,8,8s8-3.586,8-8c0-4.422,3.578-8,8-8s8,3.578,8,8C240.022,213.219,229.257,223.984,216.022,223.984z"/>
			</g>
		</g>
	</g>
	<g>
		<g>
			<g>
				<path style="fill:#D2A582;" d="M248.022,223.984c-13.234,0-24-10.766-24-24c0-4.422,3.578-8,8-8s8,3.578,8,8
					c0,4.414,3.586,8,8,8s8-3.586,8-8c0-4.422,3.578-8,8-8s8,3.578,8,8C272.022,213.219,261.257,223.984,248.022,223.984z"/>
			</g>
		</g>
	</g>
	<g>
		<g>
			<g>
				<path style="fill:#D2A582;" d="M232.022,207.984c-4.422,0-8-3.578-8-8v-16c0-4.422,3.578-8,8-8s8,3.578,8,8v16
					C240.022,204.406,236.444,207.984,232.022,207.984z"/>
			</g>
		</g>
	</g>
	<g>
		<g>
			<path style="fill:#6E4141;" d="M172.022,151.984L172.022,151.984c-6.627,0-12-5.373-12-12v-16c0-6.627,5.373-12,12-12l0,0
				c6.627,0,12,5.373,12,12v16C184.022,146.612,178.65,151.984,172.022,151.984z"/>
		</g>
	</g>
	<g>
		<g>
			<path style="fill:#6E4141;" d="M292.022,151.984L292.022,151.984c-6.627,0-12-5.373-12-12v-16c0-6.627,5.373-12,12-12l0,0
				c6.627,0,12,5.373,12,12v16C304.022,146.612,298.65,151.984,292.022,151.984z"/>
		</g>
	</g>
	<g>
		<g>
			<ellipse style="fill:#784B46;" cx="232.022" cy="163.984" rx="32" ry="20"/>
		</g>
	</g>
	<g>
		<g>
			<path style="fill:#6E4141;" d="M216.022,163.984c0-9.309,10.222-17.063,24-19.293c-2.571-0.416-5.221-0.707-8-0.707
				c-17.673,0-32,8.954-32,20c0,11.045,14.327,20,32,20c2.779,0,5.429-0.291,8-0.707
				C226.244,181.047,216.022,173.292,216.022,163.984z"/>
		</g>
	</g>
	<g>
		<g>
			<circle style="fill:#A0786E;" cx="248.022" cy="159.984" r="8"/>
		</g>
	</g>
	<g>
		<g>
			<path style="fill:#E1824B;" d="M148.523,443.469c-10.172-10.164-17.117-22.492-19.563-34.711
				c-2.68-13.391,0.25-25.172,8.242-33.164c3.417-3.421,7.56-5.853,12.19-7.377c-1.003-0.261-2.001-0.672-3.003-0.873
				c-13.375-2.68-25.172,0.242-33.172,8.25c-7.992,7.992-10.922,19.773-8.242,33.164c2.445,12.219,9.391,24.547,19.563,34.711
				c10.164,10.172,22.492,17.117,34.711,19.563c3.242,0.648,6.383,0.969,9.398,0.969c4.106,0,7.922-0.704,11.488-1.869
				C168.949,459.203,157.826,452.779,148.523,443.469z"/>
		</g>
	</g>
	<g>
		<g>
			<path style="fill:#E1824B;" d="M295.617,454.789c-8-8-10.93-19.773-8.25-33.172c2.445-12.211,9.391-24.539,19.563-34.711
				c9.337-9.337,20.497-15.775,31.709-18.69c-6.205-2.045-13.314-2.412-20.983-0.873c-12.211,2.445-24.539,9.391-34.711,19.563
				s-17.117,22.5-19.563,34.711c-2.68,13.398,0.25,25.172,8.25,33.172c6.063,6.063,14.297,9.211,23.766,9.211
				c3.016,0,6.164-0.32,9.398-0.969c1.035-0.207,2.064-0.629,3.099-0.9C303.238,460.609,299.05,458.222,295.617,454.789z"/>
		</g>
	</g>
</g>
<g>
</g>
<g>
</g>
<g>
</g>
<g>
</g>
<g>
</g>
<g>
</g>
<g>
</g>
<g>
</g>
<g>
</g>
<g>
</g>
<g>
</g>
<g>
</g>
<g>
</g>
<g>
</g>
<g>
</g>
</svg>
