<?xml version="1.0" encoding="iso-8859-1"?>
<!-- Generator: Adobe Illustrator 19.0.0, SVG Export Plug-In . SVG Version: 6.00 Build 0)  -->
<svg version="1.1" id="Layer_1" xmlns="http://www.w3.org/2000/svg" xmlns:xlink="http://www.w3.org/1999/xlink" x="0px" y="0px"
	 viewBox="0 0 464 464" style="enable-background:new 0 0 464 464;" xml:space="preserve">
<g>
	<g>
		<g>
			<path style="fill:#CDE6F5;" d="M248,0h-32c-13.255,0-24,10.745-24,24v182.425c0,11.699,0.917,23.38,2.741,34.936L216,376v72
				c0,8.837,7.163,16,16,16l0,0c8.837,0,16-7.163,16-16v-72l21.259-134.64c1.825-11.556,2.741-23.237,2.741-34.936V24
				C272,10.745,261.255,0,248,0z"/>
		</g>
	</g>
	<g>
		<g>
			<path style="fill:#00BED2;" d="M248,0h-32c-13.255,0-24,10.745-24,24v182.424c0,3.197,0.238,6.384,0.375,9.576h2.358
				c6.415,0,12.655,3.447,15.158,9.354C213.538,233.961,222.063,240,232,240s18.462-6.039,22.109-14.646
				c2.502-5.907,8.743-9.354,15.158-9.354h2.358c0.137-3.192,0.375-6.379,0.375-9.576V24C272,10.745,261.255,0,248,0z"/>
		</g>
	</g>
	<g>
		<g>
			<path style="fill:#ABA2A5;" d="M232,464L232,464c-8.837,0-16-7.163-16-16v-40h32v40C248,456.837,240.837,464,232,464z"/>
		</g>
	</g>
	<g>
		<g>
			<rect x="216" y="408" style="fill:#9D9396;" width="32" height="16"/>
		</g>
	</g>
	<g>
		<g>
			<path style="fill:#FFC855;" d="M248,168h-32c-4.418,0-8-3.582-8-8V32c0-4.418,3.582-8,8-8h32c4.418,0,8,3.582,8,8v128
				C256,164.418,252.418,168,248,168z"/>
		</g>
	</g>
	<g>
		<g>
			<circle style="fill:#0096AF;" cx="232" cy="204" r="12"/>
		</g>
	</g>
</g>
<g>
</g>
<g>
</g>
<g>
</g>
<g>
</g>
<g>
</g>
<g>
</g>
<g>
</g>
<g>
</g>
<g>
</g>
<g>
</g>
<g>
</g>
<g>
</g>
<g>
</g>
<g>
</g>
<g>
</g>
</svg>
