<?xml version="1.0" encoding="iso-8859-1"?>
<!-- Generator: Adobe Illustrator 19.0.0, SVG Export Plug-In . SVG Version: 6.00 Build 0)  -->
<svg version="1.1" id="Layer_1" xmlns="http://www.w3.org/2000/svg" xmlns:xlink="http://www.w3.org/1999/xlink" x="0px" y="0px"
	 viewBox="0 0 463.882 463.882" style="enable-background:new 0 0 463.882 463.882;" xml:space="preserve">
<g>
	<g>
		<g>
			<g>
				<path style="fill:#FF6472;" d="M448,383.941c-30.148,0-58.273-11.648-79.43-32.805L152.805,135.371
					c-15.109-15.109-35.203-23.43-56.57-23.43H16c-8.836,0-16-7.164-16-16s7.164-16,16-16h80.234
					c29.914,0,58.039,11.648,79.195,32.805l215.766,215.766c15.109,15.109,35.203,23.43,56.57,23.43c8.836,0,16.117,7.164,16.117,16
					S456.836,383.941,448,383.941z"/>
			</g>
		</g>
	</g>
	<g>
		<g>
			<rect x="9.117" y="351.941" style="fill:#DC7850;" width="93.766" height="16"/>
		</g>
	</g>
	<g>
		<g>
			<rect x="9.117" y="319.941" style="fill:#DC7850;" width="93.766" height="16"/>
		</g>
	</g>
	<g>
		<g>
			<rect x="9.117" y="287.941" style="fill:#DC7850;" width="93.766" height="16"/>
		</g>
	</g>
	<g>
		<g>
			<rect x="9.117" y="255.941" style="fill:#DC7850;" width="93.766" height="16"/>
		</g>
	</g>
	<g>
		<g>
			<rect x="9.117" y="223.941" style="fill:#DC7850;" width="93.766" height="16"/>
		</g>
	</g>
	<g>
		<g>
			<rect x="9.117" y="191.941" style="fill:#DC7850;" width="93.766" height="16"/>
		</g>
	</g>
	<g>
		<g>
			<rect x="9.117" y="159.941" style="fill:#DC7850;" width="93.766" height="16"/>
		</g>
	</g>
	<g>
		<g>
			<rect x="9.117" y="127.941" style="fill:#DC7850;" width="93.766" height="16"/>
		</g>
	</g>
	<g>
		<g>
			<rect x="9.117" y="79.941" style="fill:#DC7850;" width="93.766" height="32"/>
		</g>
	</g>
	<g>
		<g>
			<rect y="79.941" style="fill:#E68C5A;" width="16" height="304"/>
		</g>
	</g>
	<g>
		<g>
			<rect x="96" y="79.941" style="fill:#E68C5A;" width="16" height="304"/>
		</g>
	</g>
</g>
<g>
</g>
<g>
</g>
<g>
</g>
<g>
</g>
<g>
</g>
<g>
</g>
<g>
</g>
<g>
</g>
<g>
</g>
<g>
</g>
<g>
</g>
<g>
</g>
<g>
</g>
<g>
</g>
<g>
</g>
</svg>
