<?xml version="1.0" encoding="iso-8859-1"?>
<!-- Generator: Adobe Illustrator 19.0.0, SVG Export Plug-In . SVG Version: 6.00 Build 0)  -->
<svg version="1.1" id="Layer_1" xmlns="http://www.w3.org/2000/svg" xmlns:xlink="http://www.w3.org/1999/xlink" x="0px" y="0px"
	 viewBox="0 0 472.417 472.417" style="enable-background:new 0 0 472.417 472.417;" xml:space="preserve">
<g>
	<path style="fill:#D25566;" d="M236.25,112.208c-127.922,0-232,111.25-232,248c0,4.422,3.578,8,8,8s8-3.578,8-8
		c0-13.638,1.111-27.001,3.223-40h86.372c-1.045,12.995-1.595,26.35-1.595,40c0,4.422,3.578,8,8,8s8-3.578,8-8
		c0-13.599,0.602-26.968,1.749-40H228.25v40c0,4.422,3.578,8,8,8s8-3.578,8-8v-40h102.251c1.146,13.033,1.749,26.401,1.749,40
		c0,4.422,3.578,8,8,8s8-3.578,8-8c0-13.65-0.549-27.005-1.595-40h86.372c2.112,12.999,3.223,26.362,3.223,40c0,4.422,3.578,8,8,8
		s8-3.578,8-8C468.25,223.458,364.172,112.208,236.25,112.208z M421.049,240.208h-72.275c-4.872-17.421-10.787-33.52-17.598-48
		h53.889C398.938,206.391,411.061,222.53,421.049,240.208z M303.528,176.208H244.25v-47.373
		C266.226,132.229,286.676,149.456,303.528,176.208z M228.25,128.835v47.373h-59.278
		C185.824,149.456,206.274,132.229,228.25,128.835z M228.25,192.208v48h-87.289c5.281-17.637,11.666-33.785,18.936-48H228.25z
		 M244.25,192.208h68.353c7.27,14.215,13.655,30.363,18.936,48H244.25V192.208z M367.647,176.208h-44.733
		c-9.173-16.181-19.603-29.753-31.008-40.177C319.757,144.016,345.405,157.841,367.647,176.208z M149.586,176.208h-44.733
		c22.242-18.367,47.891-32.192,75.741-40.177C169.188,146.455,158.759,160.027,149.586,176.208z M87.435,192.208h53.889
		c-6.811,14.48-12.726,30.579-17.598,48H51.451C61.439,222.53,73.563,206.391,87.435,192.208z M26.627,304.208
		c3.89-16.793,9.486-32.867,16.582-48h76.427c-3.536,15.196-6.312,31.251-8.235,48H26.627z M127.703,304.208
		c2.091-16.746,5.087-32.829,8.873-48h91.674v48H127.703z M244.25,304.208v-48h91.674c3.786,15.171,6.782,31.254,8.873,48H244.25z
		 M361.1,304.208c-1.924-16.749-4.7-32.804-8.235-48h76.427c7.096,15.133,12.692,31.207,16.582,48H361.1z"/>
	<g>
		<g>
			<g>
				<circle style="fill:#FFC855;" cx="236.25" cy="312.208" r="16"/>
			</g>
		</g>
		<g>
			<g>
				<path style="fill:#FFB44B;" d="M232,312.208c0-6.758,4.202-12.506,10.125-14.852c-1.822-0.723-3.796-1.148-5.875-1.148
					c-8.836,0-16,7.163-16,16c0,8.836,7.164,16,16,16c2.079,0,4.053-0.426,5.875-1.148C236.202,324.714,232,318.966,232,312.208z"/>
			</g>
		</g>
	</g>
	<g>
		<g>
			<g>
				<circle style="fill:#FFC855;" cx="236.25" cy="248.208" r="16"/>
			</g>
		</g>
		<g>
			<g>
				<path style="fill:#FFB44B;" d="M232,248.208c0-6.758,4.202-12.506,10.125-14.852c-1.822-0.723-3.796-1.148-5.875-1.148
					c-8.836,0-16,7.163-16,16c0,8.836,7.164,16,16,16c2.079,0,4.053-0.426,5.875-1.148C236.202,260.714,232,254.966,232,248.208z"/>
			</g>
		</g>
	</g>
	<g>
		<g>
			<g>
				<circle style="fill:#FFC855;" cx="343.25" cy="248.208" r="16"/>
			</g>
		</g>
		<g>
			<g>
				<path style="fill:#FFB44B;" d="M339,248.208c0-6.758,4.202-12.506,10.125-14.852c-1.822-0.723-3.796-1.148-5.875-1.148
					c-8.836,0-16,7.163-16,16c0,8.836,7.164,16,16,16c2.079,0,4.053-0.426,5.875-1.148C343.202,260.714,339,254.966,339,248.208z"/>
			</g>
		</g>
	</g>
	<g>
		<g>
			<g>
				<circle style="fill:#FFC855;" cx="130.25" cy="248.208" r="16"/>
			</g>
		</g>
		<g>
			<g>
				<path style="fill:#FFB44B;" d="M126,248.208c0-6.758,4.202-12.506,10.125-14.852c-1.822-0.723-3.796-1.148-5.875-1.148
					c-8.836,0-16,7.163-16,16c0,8.836,7.164,16,16,16c2.079,0,4.053-0.426,5.875-1.148C130.202,260.714,126,254.966,126,248.208z"/>
			</g>
		</g>
	</g>
	<g>
		<g>
			<g>
				<circle style="fill:#FFC855;" cx="36.25" cy="248.208" r="16"/>
			</g>
		</g>
		<g>
			<g>
				<path style="fill:#FFB44B;" d="M32,248.208c0-6.758,4.202-12.506,10.125-14.852c-1.822-0.723-3.796-1.148-5.875-1.148
					c-8.836,0-16,7.163-16,16c0,8.836,7.164,16,16,16c2.079,0,4.053-0.426,5.875-1.148C36.202,260.714,32,254.966,32,248.208z"/>
			</g>
		</g>
	</g>
	<g>
		<g>
			<g>
				<circle style="fill:#FFC855;" cx="436.25" cy="248.208" r="16"/>
			</g>
		</g>
		<g>
			<g>
				<path style="fill:#FFB44B;" d="M432,248.208c0-6.758,4.202-12.506,10.125-14.852c-1.822-0.723-3.796-1.148-5.875-1.148
					c-8.836,0-16,7.163-16,16c0,8.836,7.164,16,16,16c2.079,0,4.053-0.426,5.875-1.148C436.202,260.714,432,254.966,432,248.208z"/>
			</g>
		</g>
	</g>
	<g>
		<g>
			<g>
				<circle style="fill:#FFC855;" cx="456.417" cy="312.208" r="16"/>
			</g>
		</g>
		<g>
			<g>
				<path style="fill:#FFB44B;" d="M452.167,312.208c0-6.758,4.202-12.506,10.125-14.852c-1.822-0.723-3.796-1.148-5.875-1.148
					c-8.836,0-16,7.163-16,16c0,8.836,7.164,16,16,16c2.079,0,4.053-0.426,5.875-1.148
					C456.369,324.714,452.167,318.966,452.167,312.208z"/>
			</g>
		</g>
	</g>
	<g>
		<g>
			<g>
				<circle style="fill:#FFC855;" cx="16" cy="312.208" r="16"/>
			</g>
		</g>
		<g>
			<g>
				<path style="fill:#FFB44B;" d="M11.75,312.208c0-6.758,4.202-12.506,10.125-14.852c-1.822-0.723-3.796-1.148-5.875-1.148
					c-8.836,0-16,7.163-16,16c0,8.836,7.164,16,16,16c2.079,0,4.053-0.426,5.875-1.148C15.952,324.714,11.75,318.966,11.75,312.208z
					"/>
			</g>
		</g>
	</g>
	<g>
		<g>
			<g>
				<circle style="fill:#FFC855;" cx="236.25" cy="184.208" r="16"/>
			</g>
		</g>
		<g>
			<g>
				<path style="fill:#FFB44B;" d="M232,184.208c0-6.758,4.202-12.506,10.125-14.852c-1.822-0.723-3.796-1.148-5.875-1.148
					c-8.836,0-16,7.163-16,16c0,8.836,7.164,16,16,16c2.079,0,4.053-0.426,5.875-1.148C236.202,196.714,232,190.966,232,184.208z"/>
			</g>
		</g>
	</g>
	<g>
		<g>
			<g>
				<circle style="fill:#FFC855;" cx="236.25" cy="120.208" r="16"/>
			</g>
		</g>
		<g>
			<g>
				<path style="fill:#FFB44B;" d="M232,120.208c0-6.758,4.202-12.506,10.125-14.852c-1.822-0.723-3.796-1.148-5.875-1.148
					c-8.836,0-16,7.163-16,16c0,8.836,7.164,16,16,16c2.079,0,4.053-0.426,5.875-1.148C236.202,132.714,232,126.966,232,120.208z"/>
			</g>
		</g>
	</g>
	<g>
		<g>
			<g>
				<circle style="fill:#FFC855;" cx="153.25" cy="184.208" r="16"/>
			</g>
		</g>
		<g>
			<g>
				<path style="fill:#FFB44B;" d="M149,184.208c0-6.758,4.202-12.506,10.125-14.852c-1.822-0.723-3.796-1.148-5.875-1.148
					c-8.836,0-16,7.163-16,16c0,8.836,7.164,16,16,16c2.079,0,4.053-0.426,5.875-1.148C153.202,196.714,149,190.966,149,184.208z"/>
			</g>
		</g>
	</g>
	<g>
		<g>
			<g>
				<circle style="fill:#FFC855;" cx="319.25" cy="184.208" r="16"/>
			</g>
		</g>
		<g>
			<g>
				<path style="fill:#FFB44B;" d="M315,184.208c0-6.758,4.202-12.506,10.125-14.852c-1.822-0.723-3.796-1.148-5.875-1.148
					c-8.836,0-16,7.163-16,16c0,8.836,7.164,16,16,16c2.079,0,4.053-0.426,5.875-1.148C319.202,196.714,315,190.966,315,184.208z"/>
			</g>
		</g>
	</g>
	<g>
		<g>
			<g>
				<circle style="fill:#FFC855;" cx="388.25" cy="184.208" r="16"/>
			</g>
		</g>
		<g>
			<g>
				<path style="fill:#FFB44B;" d="M384,184.208c0-6.758,4.202-12.506,10.125-14.852c-1.822-0.723-3.796-1.148-5.875-1.148
					c-8.836,0-16,7.163-16,16c0,8.836,7.164,16,16,16c2.079,0,4.053-0.426,5.875-1.148C388.202,196.714,384,190.966,384,184.208z"/>
			</g>
		</g>
	</g>
	<g>
		<g>
			<g>
				<circle style="fill:#FFC855;" cx="84.25" cy="184.208" r="16"/>
			</g>
		</g>
		<g>
			<g>
				<path style="fill:#FFB44B;" d="M80,184.208c0-6.758,4.202-12.506,10.125-14.852c-1.822-0.723-3.796-1.148-5.875-1.148
					c-8.836,0-16,7.163-16,16c0,8.836,7.164,16,16,16c2.079,0,4.053-0.426,5.875-1.148C84.202,196.714,80,190.966,80,184.208z"/>
			</g>
		</g>
	</g>
	<g>
		<g>
			<g>
				<circle style="fill:#FFC855;" cx="353.75" cy="312.208" r="16"/>
			</g>
		</g>
		<g>
			<g>
				<path style="fill:#FFB44B;" d="M349.5,312.208c0-6.758,4.202-12.506,10.125-14.852c-1.822-0.723-3.796-1.148-5.875-1.148
					c-8.836,0-16,7.163-16,16c0,8.836,7.164,16,16,16c2.079,0,4.053-0.426,5.875-1.148C353.702,324.714,349.5,318.966,349.5,312.208
					z"/>
			</g>
		</g>
	</g>
	<g>
		<g>
			<g>
				<circle style="fill:#FFC855;" cx="119.75" cy="312.208" r="16"/>
			</g>
		</g>
		<g>
			<g>
				<path style="fill:#FFB44B;" d="M115.5,312.208c0-6.758,4.202-12.506,10.125-14.852c-1.822-0.723-3.796-1.148-5.875-1.148
					c-8.836,0-16,7.163-16,16c0,8.836,7.164,16,16,16c2.079,0,4.053-0.426,5.875-1.148C119.702,324.714,115.5,318.966,115.5,312.208
					z"/>
			</g>
		</g>
	</g>
</g>
<g>
</g>
<g>
</g>
<g>
</g>
<g>
</g>
<g>
</g>
<g>
</g>
<g>
</g>
<g>
</g>
<g>
</g>
<g>
</g>
<g>
</g>
<g>
</g>
<g>
</g>
<g>
</g>
<g>
</g>
</svg>
