<?xml version="1.0" encoding="iso-8859-1"?>
<!-- Generator: Adobe Illustrator 19.0.0, SVG Export Plug-In . SVG Version: 6.00 Build 0)  -->
<svg version="1.1" id="Layer_1" xmlns="http://www.w3.org/2000/svg" xmlns:xlink="http://www.w3.org/1999/xlink" x="0px" y="0px"
	 viewBox="0 0 464 464" style="enable-background:new 0 0 464 464;" xml:space="preserve">
<g>
	<g>
		<g>
			<rect x="224" y="62" style="fill:#9D9396;" width="16" height="119"/>
		</g>
	</g>
	<g>
		<g>
			<rect x="224" y="62" style="fill:#82787E;" width="16" height="18"/>
		</g>
	</g>
	<g>
		<g>
			<path style="fill:#FFC855;" d="M245.167,176h-26.335c-6.542,0-12.426,3.983-14.856,10.058L176,256h112l-27.977-69.942
				C257.593,179.983,251.71,176,245.167,176z"/>
		</g>
	</g>
	<g>
		<g>
			<path style="fill:#00BEA5;" d="M232,400h-48l4.97,19.881c1.781,7.123,8.18,12.119,15.522,12.119h55.015
				c7.342,0,13.742-4.997,15.522-12.119L280,400H232z"/>
		</g>
	</g>
	<g>
		<g>
			<path style="fill:#00BEA5;" d="M232,408c80.163,0,149.553-35.767,184-88H48C82.448,372.233,151.837,408,232,408z"/>
		</g>
	</g>
	<g>
		<g>
			<path style="fill:#00AA9A;" d="M144,320H48c34.448,52.233,103.837,88,184,88c16.543,0,32.587-1.602,48-4.478
				C220.726,392.458,171.339,361.454,144,320z"/>
		</g>
	</g>
	<g>
		<g>
			<path style="fill:#FFC855;" d="M232,232c80.163,0,149.553,35.767,184,88H48C82.448,267.767,151.837,232,232,232z"/>
		</g>
	</g>
	<g>
		<g>
			<path style="fill:#FFB44B;" d="M144,320H48c34.448-52.233,103.837-88,184-88c16.543,0,32.587,1.602,48,4.478
				C220.726,247.542,171.339,278.546,144,320z"/>
		</g>
	</g>
	<g>
		<g>
			<path style="fill:#00AA9A;" d="M416,328H48c-4.418,0-8-3.582-8-8l0,0c0-4.418,3.582-8,8-8h368c4.418,0,8,3.582,8,8l0,0
				C424,324.418,420.418,328,416,328z"/>
		</g>
	</g>
	<g>
		<g>
			<path style="fill:#00AA9A;" d="M225.94,419.88L220.97,400H184l4.97,19.88c1.781,7.123,8.18,12.12,15.522,12.12h36.97
				C234.121,432,227.721,427.003,225.94,419.88z"/>
		</g>
	</g>
	<g>
		<g>
			<path style="fill:#009D93;" d="M216,432l6.061,24.244c1.14,4.559,5.235,7.756,9.934,7.756h0.01c4.699,0,8.795-3.198,9.934-7.756
				L248,432H216z"/>
		</g>
	</g>
	<g>
		<g>
			<path style="fill:#FFB44B;" d="M242.833,176h-24c-6.542,0-12.426,3.983-14.855,10.058L176,256h24l27.977-69.942
				C230.407,179.983,236.29,176,242.833,176z"/>
		</g>
	</g>
	<g>
		<g>
			<path style="fill:#E15050;" d="M240.938,64h-17.875c-4.035,0-7.438-3.004-7.938-7.008L208,0h48l-7.124,56.992
				C248.376,60.996,244.972,64,240.938,64z"/>
		</g>
	</g>
	<g>
		<g>
			<path style="fill:#D24146;" d="M231.124,56.992L224,0h-16l7.124,56.992c0.5,4.003,3.904,7.008,7.938,7.008h16
				C235.028,64,231.625,60.996,231.124,56.992z"/>
		</g>
	</g>
	<g>
		<g>
			<path style="fill:#D24146;" d="M256,16h-48c-4.418,0-8-3.582-8-8l0,0c0-4.418,3.582-8,8-8h48c4.418,0,8,3.582,8,8l0,0
				C264,12.418,260.418,16,256,16z"/>
		</g>
	</g>
	<g>
		<g>
			<path style="fill:#00BEA5;" d="M142.61,248c-11.948,4.504-23.266,9.854-33.807,16h246.394c-10.541-6.146-21.859-11.496-33.808-16
				H142.61z"/>
		</g>
	</g>
	<g>
		<g>
			<path style="fill:#E15050;" d="M67.525,296h328.951c-5.489-5.637-11.429-10.977-17.792-16H85.316
				C78.955,285.023,73.014,290.363,67.525,296z"/>
		</g>
	</g>
	<g>
		<g>
			<path style="fill:#00AA9A;" d="M238.618,248H142.61c-11.948,4.504-23.266,9.854-33.807,16h96.083
				C215.418,257.875,226.686,252.49,238.618,248z"/>
		</g>
	</g>
	<g>
		<g>
			<path style="fill:#D24146;" d="M163.469,296c5.492-5.637,11.441-10.979,17.809-16H85.316c-3.181,2.512-6.257,5.103-9.223,7.77
				l0,0c-2.966,2.667-5.824,5.412-8.568,8.23H163.469z"/>
		</g>
	</g>
	<g>
		<g>
			<polygon style="fill:#E15050;" points="192,216 272,216 265.6,200 198.4,200 			"/>
		</g>
	</g>
	<g>
		<g>
			<polygon style="fill:#D24146;" points="192,216 216,216 222.4,200 198.4,200 			"/>
		</g>
	</g>
	<g>
		<g>
			<path style="fill:#33CBB7;" d="M271.992,388.648c-3.828,0-7.211-2.75-7.875-6.656c-0.75-4.352,2.18-8.484,6.539-9.227
				c13.352-2.281,26.328-5.742,38.563-10.281c4.125-1.547,8.75,0.578,10.281,4.719c1.539,4.141-0.578,8.742-4.719,10.281
				c-13.164,4.883-27.102,8.602-41.438,11.047C272.891,388.609,272.438,388.648,271.992,388.648z"/>
		</g>
	</g>
	<g>
		<g>
			<path style="fill:#66D8C9;" d="M336.008,367.289c-2.875,0-5.648-1.547-7.086-4.266c-2.063-3.914-0.563-8.75,3.344-10.813
				c5.344-2.813,10.5-5.859,15.32-9.055c3.68-2.445,8.648-1.438,11.086,2.258c2.438,3.68,1.43,8.648-2.258,11.086
				c-5.258,3.484-10.875,6.805-16.68,9.867C338.539,366.992,337.266,367.289,336.008,367.289z"/>
		</g>
	</g>
	<path style="fill:#009D93;" d="M192,320L192,320c0-4.418,3.582-8,8-8H48c-4.418,0-8,3.582-8,8l0,0c0,4.418,3.582,8,8,8h152
		C195.582,328,192,324.418,192,320z"/>
	<path style="fill:#BE3237;" d="M224,8L224,8c0-4.418,3.581-7.999,7.999-8H208c-4.418,0-8,3.582-8,8l0,0c0,4.418,3.582,8,8,8h24
		C227.582,16,224,12.418,224,8z"/>
</g>
<g>
</g>
<g>
</g>
<g>
</g>
<g>
</g>
<g>
</g>
<g>
</g>
<g>
</g>
<g>
</g>
<g>
</g>
<g>
</g>
<g>
</g>
<g>
</g>
<g>
</g>
<g>
</g>
<g>
</g>
</svg>
